<svg version="1.2" xmlns="http://www.w3.org/2000/svg" viewBox="0 0 672 672" width="500" height="500">
	<title>LTKrLAjTa</title>
	<style>
		.s0 { fill: #000000 } 
		.s1 { opacity: .3;fill: #000000 } 
		.s2 { opacity: .7;fill: #000000 } 
		.s3 { opacity: .5;fill: #000000 } 
		.s4 { opacity: .9;fill: #000000 } 
		.s5 { opacity: .6;fill: #000000 } 
		.s6 { opacity: .1;fill: #000000 } 
		.s7 { opacity: .4;fill: #000000 } 
		.s8 { opacity: .2;fill: #000000 } 
	</style>
	<g id="Background">
		<path id="Path 0" fill-rule="evenodd" class="s0" d="m340.5 0.6c11 0.2 26.1 1 33.5 1.9 7.4 0.8 19.1 2.7 26 4 6.9 1.4 18.4 4.2 25.5 6.1 7.1 2 19.1 5.8 26.5 8.6 7.4 2.8 19.8 8 27.5 11.7 7.7 3.7 19.6 10.1 26.5 14.1 6.9 4.1 17.5 11.1 23.7 15.5 6.1 4.4 15.6 11.7 21 16.2 5.4 4.4 15.5 13.9 22.5 21 7 7 15.7 16.4 19.3 20.8 3.7 4.4 9.2 11.4 12.3 15.5 3.1 4.1 9.4 13.3 14 20.5 4.5 7.2 11.8 20 16.1 28.5 4.2 8.5 10 21.3 12.9 28.5 2.8 7.2 6.9 19.3 9.2 27 2.2 7.7 5.4 20.5 7 28.5 1.6 8 3.6 20.8 4.6 28.5 1.2 9.7 1.8 21.3 1.8 37.5 0 12.9-0.5 28.4-1.2 34.5-0.7 6.1-2.2 16.4-3.3 23-1.1 6.6-3.1 16.5-4.4 22-1.3 5.5-4.2 15.9-6.5 23-2.3 7.1-5.9 17.3-8 22.5-2.1 5.2-5.7 13.6-8 18.5-2.3 4.9-6.7 13.5-9.7 19-3.1 5.5-8.8 15-12.8 21-3.9 6-10.2 15-14 20-3.8 5-10.8 13.5-15.5 19-4.8 5.5-13.2 14.3-18.6 19.5-5.5 5.3-14.6 13.4-20.4 18.1-5.8 4.7-13.6 10.8-17.5 13.5-3.9 2.8-10.1 7-14 9.5-3.9 2.5-11.1 6.8-16 9.6-4.9 2.9-15.1 8.1-22.5 11.6-7.4 3.6-19.4 8.6-26.5 11.2-7.1 2.6-18.2 6.2-24.5 8-6.3 1.8-17.1 4.4-24 5.8-6.9 1.4-18.1 3.4-25 4.4-10 1.4-18.6 1.8-43.5 1.8-24.4 0-33.6-0.4-43-1.8-6.6-1-17.4-2.9-24-4.2-6.6-1.3-17.4-4-24-5.9-6.6-1.9-17.8-5.5-25-8.1-7.2-2.6-19.5-7.8-27.5-11.7-8-3.8-18.1-9-22.5-11.5-4.4-2.6-13.4-8.2-20-12.6-6.6-4.4-17.4-12.2-24-17.5-6.6-5.3-19-16.6-27.5-25.1-8.5-8.6-19.3-20.5-24-26.5-4.7-5.9-11.8-15.6-15.8-21.4-4-5.9-10.5-16.3-14.4-23.2-3.9-6.9-9.1-16.8-11.6-22-2.4-5.2-6.1-13.8-8.2-19-2.1-5.2-5.4-14.7-7.5-21-2-6.3-4.9-16.7-6.5-23-1.6-6.3-3.6-15.3-4.4-20-0.9-4.7-2.2-14.4-3.1-21.5-1-8.4-1.5-22.1-1.5-39 0-16.4 0.5-30.6 1.5-38.5 0.8-6.9 2.6-18.6 4-26 1.5-7.4 4.6-20.3 7-28.5 2.3-8.3 6.2-19.9 8.5-26 2.4-6.1 7.3-17.3 10.9-25 3.7-7.7 9.3-18.5 12.5-24 3.3-5.5 9.3-14.9 13.4-21 4.1-6.1 10.7-15.1 14.7-20 4-5 11.2-13.3 16.1-18.5 4.9-5.2 12.7-13.1 17.4-17.5 4.7-4.4 13-11.6 18.5-16.1 5.5-4.4 14.3-11 19.5-14.6 5.2-3.6 14.2-9.4 20-12.8 5.8-3.5 17.3-9.6 25.5-13.6 8.3-3.9 19.7-9 25.5-11.2 5.8-2.2 16.8-5.9 24.5-8.2 7.7-2.2 20.5-5.4 28.5-7 8-1.6 20.6-3.6 28-4.5 7.4-0.8 16-1.7 19-1.9 3-0.2 14.5-0.2 25.5 0zm-54 7.9c-6.1 0.9-17.1 3-24.5 4.7-7.4 1.6-20.3 5.2-28.5 7.9-8.3 2.6-19.5 6.7-25 9-5.5 2.2-16.1 7.2-23.5 10.9-7.4 3.8-18.9 10.3-25.5 14.4-6.6 4.1-17.3 11.4-23.7 16.3-6.4 4.8-17 13.6-23.5 19.4-6.5 5.9-16.5 15.9-22.3 22.4-5.8 6.4-15 17.7-20.5 25-5.5 7.4-13.4 19.2-17.7 26.2-4.2 7-10.3 18.2-13.6 24.8-3.3 6.6-7.8 16.5-10 22-2.2 5.5-5.5 14.7-7.5 20.5-2 5.8-5 15.9-6.6 22.5-1.7 6.6-3.9 17.2-5 23.5-1.1 6.3-2.6 16.2-3.3 22-0.7 6-1.3 21.3-1.3 35.5 0 14.3 0.6 29.5 1.3 35.5 0.7 5.8 2 14.8 2.8 20 0.9 5.2 2.9 14.9 4.4 21.5 1.6 6.6 4.7 17.6 6.9 24.5 2.2 6.9 6.2 17.9 8.9 24.5 2.7 6.6 7.2 16.5 10 22 2.7 5.5 7.8 14.7 11.2 20.5 3.5 5.8 9.2 14.8 12.9 20 3.6 5.2 10.2 14 14.5 19.5 4.4 5.5 13.4 15.6 20.1 22.4 6.6 6.8 17.6 17.1 24.5 22.8 6.9 5.8 16.1 13 20.5 16.1 4.3 3.2 12.4 8.5 18 12 5.5 3.5 17 9.8 25.5 14.1 8.5 4.3 20.7 9.9 27 12.4 6.3 2.5 16 5.9 21.5 7.7 5.5 1.7 16.3 4.7 24 6.6 7.7 1.8 20.3 4.3 28 5.4 7.7 1.1 21.9 2.4 31.5 2.9 10.5 0.6 24.1 0.6 34 0 9.1-0.5 21.7-1.6 28-2.4 6.3-0.9 16.7-2.7 23-4 6.3-1.4 16.3-3.8 22.2-5.5 6-1.6 16.5-5.1 23.5-7.6 7.1-2.5 21.8-9 32.8-14.4 12.5-6.1 25.6-13.6 35-19.8 8.3-5.4 20.2-14.1 26.5-19.3 6.3-5.1 16.8-14.5 23.4-20.9 6.5-6.3 16.2-16.7 21.5-23 5.3-6.3 12.9-16 16.8-21.5 3.9-5.5 10.4-15.4 14.4-22 4-6.6 10.3-18.3 14-26 3.7-7.7 8.5-18.7 10.7-24.5 2.2-5.8 5.4-15 7.2-20.5 1.7-5.5 4.4-15.4 6-22 1.5-6.6 3.5-16.3 4.4-21.5 0.8-5.2 2.1-14.2 2.8-20 0.8-6.3 1.3-20.9 1.2-36.5 0-18.7-0.5-29.5-1.7-38.5-1-6.9-2.7-17.2-3.8-23-1.1-5.8-3.1-15-4.5-20.5-1.4-5.5-4.1-14.7-6.1-20.5-1.9-5.8-5.6-15.4-8-21.5-2.5-6.1-7.6-17.1-11.3-24.5-3.8-7.4-10-18.4-13.7-24.5-3.8-6.1-10.8-16.3-15.6-22.8-4.8-6.4-13.8-17.4-20.1-24.4-6.3-7.1-16.6-17.5-23.1-23.3-6.4-5.8-16.9-14.5-23.3-19.3-6.4-4.8-17.1-12.2-23.7-16.3-6.6-4.1-18.1-10.6-25.5-14.4-7.4-3.7-18.4-8.8-24.5-11.3-6.1-2.5-16.6-6.3-23.5-8.5-6.9-2.2-16.1-5-20.5-6.1-4.4-1.1-11.6-2.7-16-3.6-4.4-0.9-14.3-2.5-22-3.6-9.7-1.4-21.5-2.1-38-2.4-13.2-0.2-28.3 0-33.5 0.5-5.2 0.5-14.4 1.7-20.5 2.5zm26.5 12.5v55h5.5c4.2 0 5.5 0.3 5.5 1.5 0 1.3-2.6 1.5-17.5 1.5-14.9 0-17.5-0.2-17.5-1.5 0-1.2 1.3-1.5 11-1.5v-24.7c0-18.7-0.3-25.1-1.2-26.1-0.7-0.7-3.2-1.2-5.5-1.2-2.4 0-4.3-0.4-4.3-1 0-0.5 1.9-1.1 4.3-1.3 2.3-0.2 7.7-0.4 19.7-0.7zm48.5 0.1c3.8 0 7.4 0.6 10 1.8 2.2 1 5.1 3.1 6.5 4.5 2.1 2.3 2.5 3.8 2.5 8.6 0 5-0.4 6.4-3.1 9.7-1.7 2.1-6.2 6.1-10.1 8.8-3.9 2.8-9.9 6.8-19.8 13l14 0.3c12.5 0.2 14.1 0.1 15.3-1.5 0.7-1 1.2-2.8 1.2-4 0-1.4 0.6-2.3 1.5-2.3 1 0 1.5 1 1.5 2.8 0 1.5-0.3 5.7-1.5 16.2h-41.5v-4c0-3.8 0.3-4.2 7.8-9.6 4.2-3.1 10.1-8 13-10.8 3.7-3.6 5.7-6.5 6.8-10.1 1.1-3.2 1.4-6.6 1-9.5-0.4-3.1-1.5-5.5-3.6-7.7-2.5-2.7-3.7-3.3-7.2-3.3-2.5 0-5.6 0.8-7.5 2-1.8 1.1-3.3 2.7-3.3 3.5 0 0.8 1.1 1.7 2.5 2 1.4 0.3 3.2 1.6 4 3 1.2 2.1 1.3 3 0.2 5.3-1 2.2-1.9 2.7-4.7 2.7-3.1 0-3.7-0.5-5.2-3.7-1.7-3.6-1.7-4 0-7.9 1-2.6 3-4.9 5.2-6.2 1.9-1.1 4.6-2.4 6-2.8 1.4-0.4 5.2-0.8 8.5-0.8zm119.3 35.1c0.9-0.2 1.2 6 1.2 55.8h5.5c3 0 5.5 0.5 5.5 1 0 0.6-6.5 1-17.5 1-11 0-17.5-0.4-17.5-1 0-0.5 2.5-1 11-1l-0.5-51.5-5.2-0.2c-3.9-0.2-5.3-0.7-5.3-1.8 0-1.2 2-1.6 10.8-1.8 5.9-0.1 11.3-0.4 12-0.5zm-307.8 16.8v55h5.5c4.2 0 5.5 0.3 5.5 1.5 0 1.3-2.6 1.5-17.5 1.5-14.9 0-17.5-0.2-17.5-1.5 0-1.2 1.3-1.5 11-1.5v-25.5c0-21.8-0.2-25.6-1.5-26-0.8-0.3-3.3-0.5-5.5-0.5-2.2 0-4-0.4-4-1 0-0.5 1.2-1.2 2.8-1.4 1.5-0.1 6.9-0.4 21.2-0.6zm55 0v55h5.5c4.2 0 5.5 0.3 5.5 1.5 0 1.3-2.6 1.5-17.5 1.5-14.9 0-17.5-0.2-17.5-1.5 0-1.2 1.3-1.5 11-1.5v-25.5c0-21.8-0.2-25.6-1.5-26-0.8-0.3-3.3-0.5-5.5-0.5-2.2 0-4-0.4-4-1 0-0.5 1.2-1.2 2.8-1.4 1.5-0.1 6.9-0.4 21.2-0.6zm-143 95v56h5.5c3 0 5.5 0.4 5.5 1 0 0.6-6.5 1-17.5 1-11 0-17.5-0.4-17.5-1 0-0.6 2.5-1 11-1v-25.5c0-24.5-0.1-25.5-2-26.5-1.1-0.6-3.6-1-5.5-1-1.9 0-3.5-0.4-3.5-1 0-0.6 2.8-1.1 6.3-1.3 3.4-0.2 8.8-0.4 17.7-0.7zm48.3 0c2 0 5.4 0.8 7.5 1.9 2 1 5.2 3.6 7.1 5.7 1.9 2.2 4.3 5.9 5.3 8.4 1.1 2.5 2.2 7.4 2.5 11 0.4 4.4 0.1 8.3-1 12-0.9 3-3 7.4-4.6 9.8-1.7 2.3-4.8 5.3-6.8 6.7-2.1 1.4-5.8 2.8-8.3 3.1-2.9 0.4-5.8 0-8.2-1-2.1-0.9-5.3-2.9-7-4.5-1.8-1.5-4.6-5.7-6.3-9.2-2.1-4.6-3-8.3-3.3-13.4-0.3-5.5 0.1-8.3 1.9-13 1.3-3.3 3.9-7.8 5.8-9.9 2-2.2 5.4-4.7 7.6-5.7 2.2-1 5.7-1.9 7.8-1.9zm-7.2 9.1c-0.6 1.9-1.1 10.6-1.1 19.4 0 8.8 0.5 17.8 1 20 0.5 2.2 1.7 4.6 2.7 5.3 1 0.7 3.2 1.2 4.8 1.2 1.8 0.1 3.8-0.8 5-2.1 1.9-2 2-3.5 2-22.8 0-18-0.2-21-1.7-23.4-1.4-2.1-2.6-2.7-5.5-2.7-2.1 0-4.3 0.4-5 0.8-0.6 0.5-1.7 2.4-2.2 4.3zm457.4-9c4.4-0.1 7.2 0.5 10.5 2.1 2.5 1.3 5.5 3.9 6.8 5.8 1.2 1.9 2.2 5 2.2 6.8 0 1.7-0.6 4.7-1.4 6.5-0.7 1.7-3.3 5-5.7 7.2-2.4 2.2-9.3 7.2-26.2 18l13.9 0.3c12.4 0.2 14 0.1 15.2-1.5 0.7-1 1.2-2.8 1.2-4 0-1.4 0.6-2.3 1.5-2.3 1 0 1.5 1 1.5 3.3 0 1.7-0.3 6-1.5 15.7h-41.5v-4c0-3.9 0.3-4.2 8.8-10.4 4.8-3.5 10.8-8.7 13.5-11.5 3-3.3 5.1-6.6 5.8-9.3 0.6-2.5 0.8-6.4 0.3-9.3-0.5-3.6-1.5-5.8-3.5-7.7-2.2-2.2-3.9-2.8-7.1-2.8-2.5 0-5.6 0.8-7.5 2-1.8 1.1-3.3 2.7-3.3 3.5 0 0.8 1.1 1.7 2.5 2 1.4 0.3 3.2 1.6 4 3 1.2 2.1 1.3 3 0.2 5.3-1 2.2-1.9 2.7-4.7 2.7-3 0-3.7-0.5-5.2-3.5-1.2-2.6-1.4-4.2-0.7-6.5 0.5-1.6 2.2-4.2 3.7-5.8 1.5-1.5 4.5-3.4 6.7-4.1 2.2-0.8 6.7-1.5 10-1.5zm37.5 117c1.9-0.1 5.9 0.6 8.8 1.4 3.4 1 6.1 2.5 7.7 4.5 1.6 1.9 2.5 4.2 2.5 6.5 0 1.9-0.7 4.9-1.5 6.5-1 2.1-3.3 3.8-13 8.3l5 1.5c2.8 0.8 6.2 2.3 7.8 3.3 1.5 1 3.4 3.3 4.2 4.9 0.8 1.6 1.5 4.1 1.5 5.5 0 1.4-0.5 3.5-1.1 4.8-0.6 1.2-2.3 3.5-3.8 5-1.4 1.5-5 3.7-7.8 4.7-3.4 1.3-7.8 2-12 2-4.7 0-8.1-0.7-11-2-2.8-1.3-4.9-3.2-5.9-5.2-1.3-2.8-1.4-3.7-0.2-6.1 0.7-1.6 2.2-3.1 3.3-3.4 1.1-0.3 2.9-0.2 4 0.1 1.1 0.3 2.5 1.5 3.2 2.8 0.9 1.9 0.8 2.9-0.8 5.6-1 1.7-1.7 3.6-1.4 4.2 0.3 0.6 3.2 1 6.5 1 4.8 0 6.5-0.5 8.6-2.2 1.4-1.3 2.9-4.1 3.4-6.3 0.5-2.2 0.7-5.6 0.3-7.5-0.3-1.9-1-4.3-1.4-5.2-0.5-1-2.2-2.5-3.9-3.3-1.6-0.8-5.1-1.7-7.7-2-2.7-0.2-5.1-0.4-5.5-0.5-0.5 0-0.7-0.5-0.5-1.2 0.1-0.6 2.2-1.2 4.8-1.2 2.5-0.1 5.4-0.8 6.4-1.6 1-0.8 2.4-3 3.2-4.7 0.7-1.8 1.3-5.2 1.3-7.5 0.1-2.8-0.6-5.3-2-7-1.5-2.1-2.9-2.8-5.2-2.8-1.8 0-4 0.4-4.8 0.9-1.3 0.8-1.2 1.3 0.8 3.7 1.2 1.6 2.3 3.5 2.2 4.2 0 0.6-1.2 2.1-2.7 3.2-1.8 1.3-3.5 1.8-4.8 1.4-1.1-0.3-2.6-1.3-3.3-2.3-0.7-0.9-1.2-2.8-1.2-4.3 0-1.7 1-3.7 2.4-5 1.4-1.3 4.2-2.8 6.3-3.5 2.1-0.6 5.4-1.2 7.3-1.2zm-569.5 13.9c4.2 0 7.3 0.7 10.4 2.3 2.5 1.2 5.9 4.2 7.8 6.7 2 2.7 3.8 6.7 4.5 10 1 4.6 0.9 6.5-0.5 11.8-0.9 3.4-2.7 7.9-4 10-1.3 2-4.3 5.3-6.8 7.3-2.4 2-6.2 4.6-8.4 5.6-2.2 1.1-5.6 2.5-7.5 3.1-1.9 0.5-5.2 1.3-7.2 1.6-2.7 0.4-3.8 0.2-3.8-0.6 0-0.7 1.9-1.7 4.2-2.1 2.4-0.4 6.2-1.9 8.6-3.3 2.5-1.4 5.2-4.1 6.6-6.6 1.3-2.4 2.9-6.1 3.5-8.3 0.6-2.2 0.8-4.1 0.6-4.2-0.3-0.2-2.2 0.6-4.2 1.7-2.1 1.1-5.7 2-8 2-2.4 0-6.1-0.9-8.3-2-2.2-1.1-5.1-3.5-6.5-5.2-1.4-1.8-2.8-4.9-3.1-6.8-0.4-1.9-0.4-5.2 0-7.2 0.4-2.4 2-5.4 4.4-8 2-2.2 5.5-4.9 7.7-5.9 2.4-1.1 6.3-1.9 10-1.9zm-6.3 8.7c-0.6 2.1-1.1 6.9-1.1 10.8 0.1 3.9 0.4 8.1 0.8 9.5 0.4 1.4 1.9 3.1 3.4 3.8 2.2 1 3.3 0.9 6.2-0.3 1.9-0.8 3.7-2.3 3.9-3.2 0.3-1 0.7-3.6 1.1-5.8 0.4-2.2 0.3-6.7-0.1-10-0.5-4.3-1.4-6.6-3.1-8.2-1.2-1.3-3.1-2.3-4-2.2-1 0-2.7 0.4-3.8 0.9-1.1 0.5-2.6 2.6-3.3 4.7zm563.8 117.3v40l4.8-0.2c4.3-0.3 4.7-0.5 5-3 0.1-1.6 0.7-2.8 1.2-2.8 0.6 0 1 3.2 1 7.5 0 4.3-0.4 7.5-1 7.5-0.5 0-1.1-1.2-1.2-2.7-0.3-2.6-0.7-2.8-9.8-3.3v13h4c2.9 0 4 0.4 4 1.5 0 1.3-2.2 1.5-14 1.5-11.8 0-14-0.2-14-1.5 0-1 1.1-1.5 7-1.5v-13h-11.5c-10.8 0-11.5-0.1-11.5-2 0-1.1 2.8-5.9 6.1-10.7 3.4-4.9 7.5-10.6 9.2-12.8 1.7-2.2 5.5-7 8.5-10.7 4.8-6 5.8-6.8 12.2-6.8zm-32.1 38.5c13.6 0.4 17.7 0.4 17.8 0.3 0.2-0.2 0-5.8-0.4-12.6l-0.7-12.3zm-483.9-31.1c3.1 0.2 7.7 1.3 10.3 2.5 2.9 1.3 5.5 3.4 6.7 5.3 1.1 1.8 2 4.8 2 6.5 0 1.8-0.6 4.6-1.5 6.3-1 2-3.2 3.8-12 7.7l6 2.9c3.9 1.8 6.9 4.2 8.4 6.4 1.8 2.7 2.2 4.4 1.8 7.5-0.4 3-1.5 4.8-4.4 7.5-2.2 1.9-5.7 4-7.8 4.7-2.2 0.7-7.1 1.3-11 1.3-3.8 0-8.7-0.6-10.9-1.3-2.2-0.7-5.7-2.8-7.8-4.7-3-2.7-4-4.5-4.4-7.5-0.4-3.1 0-4.8 1.8-7.5 1.5-2.2 4.5-4.6 14.3-9.3l-5.2-2.4c-3.6-1.5-5.8-3.3-6.8-5.3-0.8-1.7-1.5-4.5-1.5-6.3 0-1.7 0.9-4.7 2-6.5 1.1-1.7 3-3.7 4.3-4.4 1.2-0.6 4-1.7 6.2-2.5 2.2-0.7 6.5-1.1 9.5-0.9zm-6.8 15.4c0.3 7 0.7 8.6 2.3 9.8 1.1 0.8 2.6 1.4 3.3 1.4 0.7 0 2.1-0.9 3.2-2 1.7-1.7 2-3.3 2-10 0-5.8-0.4-8.4-1.5-9.5-0.8-0.8-2.6-1.5-3.9-1.5-1.3 0-3.2 0.8-4.1 1.7-1.4 1.5-1.6 3.3-1.3 10.1zm-1.2 19.4c-0.8 1.4-1.4 5.1-1.4 9.4-0.1 4.9 0.4 7.6 1.4 8.8 0.9 0.9 2.9 1.9 4.5 2.2 1.7 0.3 4.3 0 5.8-0.5 2.1-0.8 3-2.2 3.8-5.4 0.7-2.5 0.8-6.2 0.3-9.2-0.4-2.8-1.5-5.8-2.3-6.7-0.9-1-2.7-1.9-4.1-2.2-1.3-0.3-3.4-0.1-4.5 0.4-1.1 0.5-2.7 1.9-3.5 3.2zm101 62.8c15.4 0 18 0.2 18 1.5 0 0.8-2.8 6.3-6.4 12.2-3.5 6-7.1 12.3-8 14-0.8 1.8-2 5.3-2.6 7.8-0.7 3.4-0.6 5.6 0.5 9.2 0.8 2.7 1.5 5.9 1.5 7.3 0 1.4-0.8 3.3-1.7 4.3-1.1 1.1-3.2 1.7-5.5 1.7-2.4 0-4.5-0.7-5.8-2-1.1-1.1-2-3.1-2-4.5 0-1.4 0.5-3.7 1.1-5.3 0.6-1.5 5.4-9.5 10.7-17.7 5.2-8.3 9.7-15.6 9.9-16.3 0.2-0.9-2.9-1.1-28.2-0.7l-1.7 3.7c-1 2.1-2.4 3.8-3.3 3.8-1.2 0-1-1.3 1.2-7.3 1.4-3.9 3-8.2 3.4-9.5 0.9-2.2 1.1-2.2 18.9-2.2zm330.6 0c0.9 0 1.1 1.2 0.8 4.2-0.2 2.4-1.3 5.4-2.3 6.8-1.7 2.4-2.2 2.5-27.6 3l-0.7 3.2c-0.5 1.8-0.8 5.2-0.8 7.5 0 3 0.4 4.2 1.3 3.9 0.7-0.2 4.2-0.9 7.7-1.6 5-1 7.7-1 11.5-0.1 2.8 0.6 6.7 2.2 8.8 3.6 2 1.4 4.5 4 5.3 5.7 0.9 1.8 1.7 5.1 1.7 7.3 0 2.2-0.8 5.3-1.7 7-0.9 1.6-3.1 4-4.9 5.2-1.7 1.3-5 2.9-7.2 3.7-2.2 0.9-6.9 1.5-10.5 1.5-4.1 0-7.9-0.6-10.5-1.7-2.2-1-4.8-2.9-5.7-4.3-1-1.3-1.8-3.3-1.8-4.4 0-1.1 0.7-3 1.5-4.3 1-1.4 2.5-2.2 4.3-2.2 1.5 0 3.5 0.8 4.5 1.8 1 0.9 1.8 2.6 1.7 3.7 0 1.1-1 3-2.2 4.3-2 2-2.1 2.4-0.8 3.2 0.9 0.5 2.7 1 4 1.1 1.4 0.1 3.9 0.1 5.5-0.1 1.7-0.1 3.8-0.6 4.8-1.1 0.9-0.5 2.4-2.5 3.2-4.4 0.9-1.9 1.5-5.5 1.5-8 0-2.5-0.6-6.1-1.5-8-0.8-1.9-2.9-4.4-4.7-5.5-1.8-1.1-4.6-2-6.3-2-1.6 0-4.4 0.6-6.2 1.3q-3.2 1.2-4.2 0.2c-0.6-0.6-0.7-6.2 0.4-27.5h13.5c11 0.1 13.8-0.2 14.9-1.5 0.7-0.8 1.9-1.5 2.7-1.5zm-157.3 60.1c0.9-0.1 1.7 0.3 1.7 0.9 0 0.5-0.5 1.2-1.2 1.4-0.7 0.2-3.2 0.9-5.5 1.5-2.4 0.6-5.9 2.6-7.9 4.3-2 1.8-4.4 4.9-5.4 6.8-1 1.9-2 5.2-2.4 7.2-0.3 2.1-0.5 3.8-0.3 3.8 0.1 0 2-0.9 4.2-2 2.2-1.1 5.7-2 7.8-2 2 0 5.2 0.6 7 1.3 1.8 0.8 4.7 3 6.5 5 1.8 2 3.7 5.4 4.2 7.4 0.7 2.6 0.6 5.1-0.1 7.8-0.7 2.6-2.7 5.6-6 8.7-3.2 3.2-6.3 5.2-9.1 5.9-2.4 0.6-6.3 0.9-8.8 0.7-2.7-0.2-6.5-1.6-9.5-3.4-3.2-1.9-6.1-4.8-8-7.9-2.7-4.3-3-5.7-3-12.9 0-6.7 0.5-9 2.5-13.1 1.4-2.7 4.4-6.9 6.8-9.2 2.3-2.4 6.5-5.4 9.2-6.8 2.8-1.4 7.4-3.2 10.3-3.9 2.9-0.8 6-1.5 7-1.5zm-19 28.1c-1.5 1.6-1.8 3.8-1.8 12.3 0 8.9 0.3 10.6 2 12.4 1.3 1.4 3.2 2.2 5.5 2.2 2.1 0 4.2-0.8 5.3-1.8 1.4-1.5 1.7-3.8 1.7-12.8 0-6.1-0.3-11.5-0.7-12.2-0.4-0.6-2-1.5-3.5-2-1.5-0.5-3.6-0.7-4.7-0.5-1.1 0.2-2.8 1.2-3.8 2.4z"/>
		<path id="Path 1" class="s1" d="m482.5 84v27.5c7.8 0.5 10.4 1.2 10.8 1.8q0.9 1.2 0.4-0.3c-0.2-1-1.9-1.6-5.5-1.8l-5.2-0.2-0.5-54.5zm-145.1-8.8l0.1 4.3 42 0.1-41.5-0.6-0.7-8zm-40.4 4.5c4.7 0.2 12.8 0.2 18 0 5.2-0.2 1.4-0.3-8.5-0.3-9.9 0-14.2 0.1-9.5 0.3zm-211.6 115.7c0 15.4 0.2 21.5 0.3 13.5 0.2-7.9 0.2-20.5 0-28-0.1-7.4-0.3-0.9-0.3 14.5zm492.1 19.3c3.3 0.2 8.9 0.2 12.5 0 3.6-0.2 0.9-0.4-6-0.4-6.9 0-9.8 0.2-6.5 0.4zm-18.1 7.5l0.1 4.2 42 0.1-41.5-0.6-0.7-8zm-490.4 4.5c4.7 0.2 12.8 0.2 18 0 5.2-0.2 1.4-0.3-8.5-0.3-9.9 0-14.2 0.1-9.5 0.3zm509 242c3 0.2 8.2 0.2 11.5 0 3.3-0.2 0.8-0.3-5.5-0.3-6.3 0-9 0.1-6 0.3zm-93.3 64c-0.3 0.4 3.6 0.7 8.7 0.5 5-0.1 11.1-0.4 13.6-0.6 2.5-0.1-1.4-0.3-8.7-0.4-7.3-0.1-13.4 0.1-13.6 0.5z"/>
		<path id="Path 2" class="s2" d="m228.4 100.5c0 15.4 0.2 21.5 0.3 13.5 0.2-8 0.2-20.6 0-28-0.1-7.4-0.3-0.9-0.3 14.5zm237.6 14.2c4.7 0.2 12.8 0.2 18 0 5.2-0.1 1.4-0.3-8.5-0.3-9.9 0-14.2 0.2-9.5 0.3zm143.4 329.8c0 11 0.2 15.7 0.3 10.5 0.2-5.2 0.2-14.2 0-20-0.1-5.8-0.3-1.5-0.3 9.5z"/>
		<path id="Path 3" class="s3" d="m468.4 87c0 13.5 0.2 18.9 0.3 12 0.2-6.9 0.2-17.9 0-24.5-0.1-6.6-0.3-1-0.3 12.5zm-113.4-19.3c3.6 0.2 9.7 0.2 13.5 0 3.9-0.2 0.9-0.3-6.5-0.3-7.4 0-10.6 0.1-7 0.3zm-283.6 130.8c0 13.7 0.2 19.6 0.3 13 0.2-6.6 0.2-17.9 0-25-0.1-7.2-0.3-1.8-0.3 12zm105.1 343.2c3.9 0.2 9.7 0.2 13 0 3.3-0.2 0.2-0.3-7-0.3-7.1 0-9.8 0.1-6 0.3zm316.5 3c3 0.2 8.2 0.2 11.5 0 3.3-0.2 0.8-0.3-5.5-0.3-6.3 0-9 0.1-6 0.3z"/>
		<path id="Path 4" class="s4" d="m173.4 100.5c0 15.4 0.2 21.5 0.3 13.5 0.2-8 0.2-20.6 0-28-0.1-7.4-0.3-0.9-0.3 14.5z"/>
		<path id="Path 5" class="s5" d="m299.4 51.5c0 13.8 0.2 19.6 0.3 13 0.2-6.6 0.2-17.8 0-25-0.1-7.2-0.3-1.8-0.3 12z"/>
		<path id="Path 6" class="s6" d="m313.4 48.5c0 15.4 0.2 21.5 0.3 13.5 0.2-8 0.2-20.6 0-28-0.1-7.4-0.3-0.9-0.3 14.5z"/>
		<path id="Path 7" class="s7" d="m214.4 103.5c0 13.8 0.2 19.6 0.3 13 0.2-6.6 0.2-17.8 0-25-0.1-7.2-0.3-1.8-0.3 12z"/>
		<path id="Path 8" class="s7" d="m621.3 466.5c0 4.4 0.2 6 0.4 3.5 0.2-2.5 0.2-6.1 0-8-0.2-1.9-0.4 0.1-0.4 4.5z"/>
		<path id="Path 9" class="s8" d="m159.4 103.5c0 13.8 0.2 19.6 0.3 13 0.2-6.6 0.2-17.8 0-25-0.1-7.2-0.3-1.8-0.3 12z"/>
		<path id="Path 10" class="s1" d="m581 464.7c2.5 0.2 6.8 0.2 9.5 0 2.8-0.2 0.7-0.3-4.5-0.3-5.2 0-7.5 0.1-5 0.3z"/>
		<path id="Path 11" class="s5" d="m124.4 196.5c0 6.1 0.1 8.3 0.3 5 0.2-3.3 0.2-8.3 0-11-0.2-2.8-0.3-0.1-0.3 6z"/>
		<path id="Path 12" class="s4" d="m141.4 199.5c0 7.7 0.2 10.6 0.3 6.5 0.2-4.1 0.2-10.4 0-14-0.2-3.6-0.3-0.2-0.3 7.5z"/>
		<path id="Path 13" class="s6" d="m595.4 451c0 7.4 0.1 10.4 0.3 6.5 0.2-3.9 0.2-9.9 0-13.5-0.2-3.6-0.3-0.4-0.3 7z"/>
	</g>
</svg>