<svg version="1.2" xmlns="http://www.w3.org/2000/svg" viewBox="0 0 512 512" width="512" height="512">
	<title>0-intoxicated-svg</title>
	<style>
		.s0 { fill: #74eb00 } 
		.s1 { opacity: .7;fill: #74eb00 } 
		.s2 { fill: #000000 } 
		.s3 { fill: #54ab00 } 
		.s4 { fill: #6ddc00 } 
		.s5 { fill: #112300 } 
		.s6 { fill: #3a7600 } 
	</style>
	<g id="0">
		<g id="pentacle">
			<path id="Path 0" class="s0" d="m259.2 10.6c12.8 0.1 27.1 0.7 31.8 1.3 4.7 0.7 13.7 2.3 20 3.7 6.3 1.3 15.4 3.6 20.3 4.9 4.8 1.4 14.4 5 21.5 8.1 7 3 17 7.8 22.2 10.6 5.2 2.8 14 8 19.5 11.6 5.5 3.5 14.7 10.3 20.5 15 5.8 4.8 13.4 11.3 16.9 14.7 3.5 3.3 9.8 10 13.9 15 4.2 5 10.4 12.8 13.7 17.5 3.4 4.7 8.2 12 10.8 16.3 2.6 4.2 7.4 13 10.6 19.4 3.3 6.5 7.5 15.9 9.4 20.8 2 4.9 4.9 14.2 6.6 20.5 1.7 6.3 4.3 18.7 5.8 27.5 2.5 14.3 2.8 18.4 2.8 39 0 19-0.4 25.4-2.3 37-1.2 7.7-3.3 18.3-4.6 23.5-1.4 5.2-3.8 13.6-5.4 18.5-1.6 4.9-5.2 13.9-7.9 20-2.8 6.1-7.1 14.8-9.8 19.5-2.6 4.7-6.1 10.8-7.8 13.5-1.7 2.8-5.6 8.4-8.6 12.5-3 4.1-10 12.6-15.5 18.9-5.6 6.3-14.4 15.3-19.7 20-5.2 4.7-12.2 10.6-15.5 13-3.2 2.5-8.1 6.1-10.9 8.2-2.7 2-7 4.9-9.5 6.4-2.5 1.6-11 6.1-19 10.1-8 3.9-17.4 8.4-21 9.9-3.6 1.5-11.9 4.3-18.5 6.1-6.6 1.9-21 5-32 6.9-18.1 3.2-21.8 3.5-39.2 3.5-17.4 0-21.3-0.3-39.5-3.5-11.2-1.9-25-4.8-30.8-6.4-5.8-1.6-13.4-4-17-5.4-3.6-1.3-13.7-6-22.5-10.4-8.8-4.4-18.7-9.7-22-11.8-3.3-2.1-10-6.8-15-10.5-4.9-3.7-13.3-10.6-18.5-15.2-5.2-4.6-13-12.2-17.2-16.9-4.2-4.6-10.2-11.5-13.3-15.4-3.1-3.9-8.2-10.8-11.3-15.5-3-4.7-8.6-14.1-12.3-21-3.7-6.9-8.8-17.4-11.3-23.5-2.5-6.1-6-16.4-7.9-23-1.9-6.6-4.7-18.5-6.2-26.5-2.2-12-2.8-18.4-3.2-37-0.5-21-0.4-23.6 2.1-39 1.5-9.1 3.8-21.2 5.1-27 1.4-5.8 3.7-14.1 5.2-18.5 1.4-4.4 4.9-13.2 7.8-19.5 2.8-6.3 7.4-15.3 10-20 2.7-4.7 7.7-12.8 11.1-18 3.5-5.2 9.3-13.3 13-18 3.7-4.7 11.5-13.2 17.3-19 5.8-5.8 14.9-14 20.1-18.1 5.2-4.2 14-10.5 19.5-14.1 5.5-3.6 14.7-9 20.5-12.1 5.8-3.1 15.9-7.9 22.5-10.7 6.6-2.8 16.5-6.4 22-8 5.5-1.5 13.6-3.6 18-4.5 4.4-0.9 13.2-2.3 19.5-3.1 6.3-0.8 11.6-1.6 11.7-1.7 0.1-0.2 10.7-0.2 23.5-0.1z"/>
			<path id="Path 1" class="s1" d="m249 10.3c4.1 0 5.7 0.2 3.5 0.4-2.2 0.2-5.6 0.2-7.5 0-1.9-0.2-0.1-0.4 4-0.4z"/>
			<path id="Path 2" class="s2" d="m258.8 29.7c9.7 0.1 22 0.6 27.2 1.2 5.2 0.6 14 1.9 19.5 3 5.5 1.1 15.2 3.7 21.5 5.7 6.3 2 15.9 5.6 21.2 8 5.4 2.4 14 6.7 19 9.5 5.1 2.8 13.8 8.1 19.3 11.7 5.5 3.7 15.6 11.7 22.5 17.8 6.9 6.1 16.6 15.7 21.5 21.3 4.9 5.6 12 14.6 15.6 19.9 3.7 5.3 9.4 14.6 12.8 20.7 3.4 6.1 8.1 15.7 10.5 21.5 2.4 5.8 6.1 15.9 8.1 22.5 2 6.6 4.5 16.9 5.6 23 1.1 6.1 2.4 18.2 2.9 27 0.4 9 0.4 22.8-0.1 31.5-0.6 9.1-2 20.7-3.5 28-1.4 6.9-4.5 18.6-7 26-2.5 7.4-7.6 19.8-11.4 27.5-3.8 7.7-9.5 18.1-12.7 23.2-3.2 5-8.7 12.8-12.3 17.4-3.6 4.5-11.7 13.4-18 19.8-6.3 6.4-14.9 14.4-19 17.8-4.1 3.3-8.9 6.9-10.7 7.9-1.7 1.1-8.1 4.9-14.2 8.7-6.1 3.7-14.1 8.1-17.9 9.8-3.7 1.7-9.6 4.5-13.2 6.1-3.6 1.7-11 4.6-16.5 6.4-5.5 1.9-15.2 4.5-21.5 5.9-6.3 1.3-16.9 3.2-23.5 4.1-7 1-18.2 1.7-27 1.6-9.6 0-20-0.7-29-2-7.7-1.2-18.7-3.2-24.5-4.6-5.8-1.4-14.3-3.8-19-5.4-4.7-1.6-12.8-4.9-18-7.2-5.2-2.4-13.3-6.4-18-8.8-4.7-2.4-12.2-6.8-16.8-9.8-4.5-3-8.2-6-8.2-6.6 0-0.7-0.3-1-0.7-0.6-0.5 0.4-3.3-1.2-6.3-3.6-3-2.4-10.2-8.8-15.9-14.2-5.7-5.5-14-14.2-18.3-19.4-4.4-5.2-10.6-13.3-13.8-18-3.1-4.7-8.5-13.4-11.8-19.5-3.3-6.1-8.1-16.4-10.7-23-2.6-6.6-6.2-17.2-8-23.5-1.8-6.3-4.2-17.1-5.4-24-1.1-6.9-2.5-18.1-3.1-25-0.6-8.3-0.6-16.6 0-24.5 0.6-6.6 1.9-17.4 3-24 1.1-6.6 3.4-17.2 5.1-23.5 1.6-6.3 3.5-13.3 4.1-15.5 0.6-2.2 2.9-8.3 5.1-13.5 2.3-5.2 6.3-13.6 9.1-18.5 2.7-4.9 7.5-12.8 10.6-17.5 3.1-4.7 8.6-12.1 12.1-16.5 3.5-4.3 12.2-13.7 19.4-20.8 7.1-7.1 17-16 22-19.7 4.9-3.7 15.1-10.2 22.5-14.5 7.4-4.4 17.3-9.6 22-11.8 4.7-2.2 14.3-5.9 21.5-8.2 7.1-2.4 17.9-5.3 24-6.5 6.1-1.2 15.4-2.7 20.8-3.4 5.4-0.6 17.7-1 27.5-0.9z"/>
			<path id="Path 3" class="s3" d="m253.5 29.4c6.6 0 9.5 0.1 6.5 0.3-3 0.2-8.4 0.2-12 0-3.6-0.2-1.1-0.3 5.5-0.3z"/>
			<path id="Path 4" fill-rule="evenodd" class="s0" d="m257.3 34c0.6 0 1.9 2.8 2.8 6.3 1 3.4 5.2 17 9.4 30.2 4.2 13.2 9.8 30.5 12.5 38.5 2.6 8 8.5 26.2 13 40.5 4.6 14.3 9.3 28.8 13 38.5h80.5c44.3 0 80.5 0.3 80.5 0.8 0 0.4-12.5 9.7-27.6 20.7-15.2 11-32.4 23.5-38.3 27.8-5.8 4.2-13.2 9.6-16.5 12-3.2 2.3-7.1 5.1-8.6 6.2-1.6 1.1-6.5 4.7-11 8-4.6 3.3-9.5 6.9-11 8-1.5 1.1-5.4 3.8-8.6 6.1-3.3 2.3-6.5 4.7-7.1 5.5-1 1.1-0.7 3.2 1.7 10.4 1.6 4.9 7.9 24.5 14 43.5 6.1 19 12.8 39.7 15 46 2.1 6.3 7 21.6 11 34 3.9 12.4 6.9 22.6 6.6 22.8-0.3 0.1-2.7-1.4-5.4-3.4-2.6-2-11.9-8.8-20.8-15.2-8.9-6.5-26.6-19.3-39.3-28.7-12.8-9.4-24.5-17.9-26.1-19-1.5-1.1-10.9-8-20.9-15.3-10-7.2-18.6-13.2-19.1-13.2-0.6 0-9.7 6.3-20.3 13.9-10.5 7.7-21.9 16-25.2 18.4-3.3 2.4-10.5 7.7-16 11.7-5.5 4.1-11.8 8.6-14 10.2-2.2 1.6-8.7 6.3-14.5 10.5-5.8 4.2-13.7 9.9-17.5 12.8-3.9 2.8-10.8 7.9-15.5 11.3-4.7 3.4-8.8 5.9-9.3 5.5-0.4-0.5 3.3-13.4 8.4-28.8 5-15.4 12.5-38.4 16.6-51 4.1-12.6 10.8-33.1 14.8-45.5 4.1-12.4 7.9-24.3 8.5-26.5 1-3.3 1-4.1-0.1-4.7-0.8-0.3-5.7-3.8-10.9-7.6-5.2-3.9-11.3-8.3-13.5-9.9-2.2-1.6-6.9-5-10.5-7.6-3.6-2.7-13.9-10.2-23-16.8-9.1-6.7-26.8-19.6-39.3-28.8-12.6-9.1-24.5-17.7-26.4-19.1-2-1.4-3.8-3.1-4-3.7-0.2-1 16.2-1.3 160.2-1.2l4.2-11.8c2.2-6.5 9.4-28 15.8-47.8 6.4-19.8 13.6-41.8 16-49 2.4-7.2 6.6-20.3 9.5-29.3 2.8-8.9 5.6-16.2 6.3-16.2zm-39.6 61.9c0.2 0.3-1.7 6.7-4.1 14.1-3.5 10.5-5 13.8-6.8 14.7-1.3 0.7-6.6 3.2-11.8 5.7-5.2 2.4-13.8 7.2-19 10.7-5.4 3.7-14.4 11.2-32.5 28.9h-15.2c-8.4 0-15.3-0.3-15.3-0.7 0-0.5 3-4.9 6.7-9.8 3.7-4.9 11-13.3 16.2-18.6 5.3-5.2 13.2-12.2 17.6-15.5 4.4-3.3 9.6-7 11.5-8.2 1.9-1.2 8.3-4.6 14.3-7.7 5.9-3 13.7-6.6 17.5-8.1 3.7-1.4 9.8-3.3 13.6-4.3 3.8-1 7.1-1.6 7.3-1.2zm81.1-0.3c1.5 0.3 7.4 2.2 13.2 4.1 5.8 2 15.7 6.2 22 9.5 6.3 3.2 13.1 6.9 15.1 8.1 1.9 1.2 6.6 4.5 10.5 7.3 3.8 2.8 10.7 8.6 15.3 13 4.6 4.3 10.7 10.8 13.6 14.4 2.8 3.6 6.8 8.9 8.8 11.8 2 2.8 3.7 5.4 3.7 5.7 0 0.3-6.9 0.5-30.5 0.6l-11.5-11.3c-6.6-6.5-15.5-14-21-17.7-5.2-3.5-13.8-8.3-19-10.7-5.2-2.5-10.6-5-11.8-5.7-1.9-0.9-3.3-4.1-6.8-14.4-2.4-7.3-4.4-13.8-4.4-14.3 0-0.6 1.2-0.8 2.8-0.4zm-210.3 146.1c0.5 0.4 6.1 4.4 23.5 17.3v8.3c0 4.5 0.7 12.3 1.5 17.2 0.9 5 2.9 13.3 4.5 18.5 1.6 5.2 4.9 13.8 7.3 19 2.4 5.2 6 12.1 8 15.3 2.1 3.1 3.7 6.3 3.7 7 0 0.6-1.8 7.1-4.1 14.2-2.2 7.1-4.5 13.4-4.9 14-0.5 0.6-3.6-2.8-7.8-8.5-3.8-5.2-9.1-13.3-11.7-18-2.7-4.7-6.7-13-9-18.5-2.3-5.5-5.2-13.6-6.4-18-1.2-4.4-2.9-11.1-3.7-15-0.9-3.9-2-12.4-2.5-19-0.5-6.6-0.6-17.1-0.2-23.2 0.5-7.4 1.1-11 1.8-10.6zm337.7-0.6l0.9 7.7c0.5 4.2 0.7 13.3 0.4 20.2-0.4 6.9-1.3 16.3-2.1 21-0.9 4.7-2.7 12.8-4.1 18-1.4 5.2-4.4 13.8-6.5 19-2.2 5.2-5.6 12.4-7.6 16-2 3.6-5.4 9.2-7.6 12.5-2.1 3.3-6 8.6-8.5 11.8-2.5 3.2-4.9 5.5-5.3 5-0.3-0.4-2.5-6.7-4.7-13.8-2.3-7.1-4.1-13.6-4.1-14.2 0-0.7 1.8-4.1 3.9-7.5 2.2-3.5 5.8-10.1 7.9-14.8 2.2-4.7 5.2-12.3 6.6-17 1.5-4.7 3.4-11.6 4.3-15.5 0.8-3.9 2-12.4 3.6-30.9zm-216.2 157.9c0.3 0 2.6 0.7 5 1.6 2.5 0.8 9.3 2.5 15 3.7 8.5 1.8 13.8 2.2 27.5 2.1 13.5 0 19.1-0.5 27-2.2 5.5-1.2 12.2-2.9 19.5-5.2l9.8 7c5.3 3.9 10.9 7.9 14.7 10.9l-4 1.6c-2.2 0.9-6.4 2.6-9.5 3.6-3 1.1-9.3 3.1-14 4.4-4.6 1.3-12.3 2.9-17 3.7-5 0.8-16.2 1.3-27.5 1.3-13.1 0-22.1-0.5-29-1.7-5.5-0.9-15.4-3.5-22-5.6-6.6-2.2-13.8-4.7-20-7.3l3.5-2.7c1.9-1.5 7.3-5.5 12-8.9 4.7-3.4 8.8-6.2 9-6.3z"/>
			<path id="Path 5" class="s4" d="m124.4 187c45.1 0 81.7 0.2 81.5 0.5-0.3 0.3-36.9 0.5-81.4 0.5-44.6 0-81.2-0.3-81.5-0.5-0.3-0.3 36.4-0.5 81.4-0.5zm265 0c45.1 0 81.7 0.2 81.4 0.5-0.3 0.3-37 0.5-81.4 0.5-44.5 0-81.1-0.3-81.4-0.6-0.3-0.2 36.4-0.4 81.4-0.4z"/>
			<path id="Path 6" class="s5" d="m124.3 186.2c45.2 0.2 68.9 0.4 52.7 0.5-16.2 0.2-53.2 0.4-82.3 0.5-29 0.2-52.7 0-52.7-0.4 0-0.5 37-0.7 82.3-0.6zm265.4 0c45.3-0.1 82.3 0.1 82.3 0.6 0 0.4-23.7 0.6-52.7 0.4-29.1-0.1-66.1-0.3-82.3-0.5-16.2-0.1 7.5-0.3 52.8-0.5z"/>
			<path id="Path 7" class="s6" d="m128.5 170.4c8.8 0 12.6 0.2 8.5 0.3-4.1 0.2-11.3 0.2-16 0-4.7-0.1-1.3-0.3 7.5-0.3zm257 0c8.8 0 12.6 0.2 8.5 0.3-4.1 0.2-11.3 0.2-16 0-4.7-0.1-1.3-0.3 7.5-0.3z"/>
			<path id="Path 8" class="s2" d="m257.1 119c0.5 0 1.3 1.5 1.8 3.3 0.5 1.7 5.2 16.6 10.5 33 5.3 16.3 9.6 29.9 9.6 30.2 0 0.3-9.9 0.5-22 0.5-12.1 0-22-0.3-22-0.7 0-0.5 3.9-12.7 8.6-27.3 4.7-14.6 9.5-29.3 10.6-32.8 1.1-3.4 2.4-6.2 2.9-6.2zm-96.1 95c33.8 0 36 0.1 35.4 1.7-0.3 1-3.3 10.4-6.6 20.8-3.3 10.4-6.4 19.3-6.7 19.7-0.3 0.4-11.9-7.4-25.7-17.5-13.7-10-26.7-19.3-28.7-20.7-2-1.4-3.7-2.8-3.7-3.3 0-0.4 16.2-0.7 36-0.7zm64.4 0h63.1l9.2 28.3c5 15.5 9.4 29.1 9.7 30.2 0.4 1.6-1.6 3.5-10.6 10-6.1 4.4-13 9.4-15.3 11-2.4 1.6-8.8 6.3-24.5 17.5l-10.1-7.3c-5.6-3.9-12-8.6-14.4-10.2-2.3-1.6-9.2-6.6-15.3-11-9.1-6.5-11-8.4-10.6-10 0.3-1.1 4.7-14.7 9.7-30.3zm127.6 0c19.8 0 35.9 0.4 35.9 0.8 0 0.4-12.8 10-28.3 21.2-15.6 11.3-28.7 20.5-29.1 20.5-0.5 0-3.9-9.4-7.6-21-3.8-11.5-6.9-21.1-6.9-21.2 0-0.1 16.2-0.3 36-0.3zm-153.6 88.5c1.1 0.9 3.2 2.3 4.6 3.3 1.3 0.9 8.3 6 15.5 11.2 7.1 5.1 13.3 9.7 13.8 10 0.5 0.3-2.6 3.1-6.7 6.3-4.2 3.2-10.9 8.1-14.9 11.1-4 2.9-13.3 9.7-20.7 15.1-7.5 5.4-14.1 10-14.8 10.2-0.7 0.2-1.2 0.1-1.2-0.1 0-0.3 2.2-7.2 4.9-15.3 2.6-8.1 7.7-23.4 11.1-34.1 6.2-19 6.4-19.3 8.4-17.7zm117.4-1.4c0.2 0 3.1 8.6 6.4 19.2 3.3 10.6 7.9 25.1 10.3 32.3 2.3 7.1 4.4 13.8 4.6 15 0.2 1.1-0.1 1.8-0.9 1.7-0.7-0.1-9.7-6.4-20-13.9-10.3-7.5-22.9-16.8-28-20.5-5.1-3.8-9.1-7-9-7.3 0.2-0.2 6.8-5.1 14.8-10.9 7.9-5.8 16-11.7 17.9-13.1 1.9-1.4 3.6-2.5 3.9-2.5z"/>
			<path id="Path 9" class="s4" d="m257 187.4c12.9 0 18.1 0.2 11.5 0.3-6.6 0.2-17.2 0.2-23.5 0-6.3-0.1-0.9-0.3 12-0.3z"/>
			<path id="Path 10" class="s5" d="m256.5 186.4c12.6 0 18.1 0.2 12 0.3-6.1 0.2-16.4 0.2-23 0-6.6-0.1-1.7-0.3 11-0.3zm-96.6 26.6c20.6 0 37.2 0.2 37 0.5-0.2 0.2-16.8 0.4-36.9 0.5-20.1 0-36.7-0.2-37-0.5-0.3-0.3 16.3-0.5 36.9-0.5zm97.1 0.4c17.3 0 24.5 0.2 16 0.3-8.5 0.2-22.7 0.2-31.5 0-8.8-0.1-1.8-0.3 15.5-0.3zm96.9-0.4c20.6 0 37.2 0.2 36.8 0.5-0.3 0.3-16.9 0.6-36.9 0.5-20 0-36.5-0.3-36.8-0.6-0.3-0.2 16.3-0.4 36.9-0.4z"/>
		</g>
	</g>
	<g id="2">
	</g>
	<g id="3">
	</g>
	<g id="4">
	</g>
	<g id="5">
	</g>
	<g id="m">
	</g>
</svg>