<svg version="1.2" xmlns="http://www.w3.org/2000/svg" viewBox="0 0 512 512" width="512" height="512">
	<title>m-speed-svg</title>
	<style>
		.s0 { fill: #cd59f7 } 
		.s1 { opacity: .1;fill: #cd59f7 } 
		.s2 { opacity: .5;fill: #cd59f7 } 
		.s3 { opacity: .7;fill: #cd59f7 } 
		.s4 { fill: #000000 } 
		.s5 { fill: #9f45c0 } 
		.s6 { fill: #150919 } 
	</style>
	<g id="magic-palm">
		<path id="Path 0" class="s0" d="m292.5 10.9l18 3.7c9.9 2 21.6 4.9 26 6.4 4.4 1.6 13.6 5.4 20.5 8.5 6.9 3.1 16.6 7.9 21.5 10.7 4.9 2.8 13.3 7.9 18.5 11.4 5.2 3.4 14.4 10.5 20.5 15.7 6.1 5.1 15.8 14.4 21.8 20.5 5.9 6.2 14.2 15.9 18.4 21.6 4.3 5.7 10.7 15.3 14.2 21.3 3.6 5.9 9.3 16.6 12.7 23.8 3.4 7.2 7.8 17.9 9.7 24 2 6.1 4.3 13.9 5.1 17.5 0.9 3.6 2.5 10.8 3.6 16 1.7 8.4 2 13.4 2 43.5 0 26.2-0.3 36.1-1.5 43-0.9 4.9-3.1 15-5 22.2-1.9 7.3-4.9 17-6.7 21.5-1.7 4.6-7 15.9-11.7 25.3-4.8 9.4-11.4 21.1-14.8 26-3.4 4.9-9.7 13.3-14.1 18.5-4.4 5.2-14.2 15.6-21.8 23.1-7.7 7.4-18.6 17-24.4 21.3-5.8 4.3-14.3 10.1-19 12.8-4.7 2.8-13.8 7.7-20.2 10.9-6.5 3.3-15.2 7.3-19.3 8.9-4.1 1.6-12.3 4.3-18.2 5.9-6 1.6-15.3 3.8-20.8 4.9-5.5 1.2-13.6 2.6-18 3.2-5.2 0.8-17.9 1-36.5 0.7-28.3-0.4-28.6-0.4-46-4.1-9.6-2.1-22.2-5.3-28-7.2-5.8-1.9-18.6-7.5-28.5-12.4-9.9-4.8-22.7-12-28.5-15.8-5.8-3.8-15.5-11.2-21.5-16.4-6-5.2-16.6-15.3-23.6-22.4-6.9-7.1-16-17.6-20.3-23.4-4.3-5.8-9.7-13.6-11.9-17.5-2.3-3.9-7.1-13.1-10.8-20.5-3.7-7.4-8.4-18-10.4-23.5-2.1-5.5-5.7-17.9-12.7-45l-0.2-33c-0.1-22.9 0.2-35.8 1.1-42 0.7-4.9 2.5-14.4 3.9-21 1.5-6.6 4-16.1 5.7-21 1.6-4.9 4.8-13.3 7.2-18.5 2.3-5.2 6.8-14.2 10-20 3.1-5.8 8.6-14.8 12-20 3.5-5.2 9.9-13.8 14.3-19 4.4-5.2 13.3-14.7 19.8-21 6.6-6.4 15.9-14.7 20.7-18.5 4.8-3.9 13.6-10 19.5-13.8 5.9-3.7 17-10 24.7-13.9 7.7-3.9 18.3-8.6 23.5-10.5 5.2-1.9 14.7-4.7 21-6.3 6.3-1.6 16-3.5 21.5-4.4 5.5-0.9 11.3-1.7 13-1.8 1.7-0.2 16.7-0.2 64 0.1z"/>
		<path id="Path 1" class="s1" d="m505.7 245.5c0.2 4.9 0.2 13.5 0 19-0.1 5.5-0.3 1.4-0.3-9 0-10.4 0.2-14.9 0.3-10z"/>
		<path id="Path 2" class="s2" d="m260 10.4c8.5 0 12.1 0.2 8 0.3-4.1 0.2-11.1 0.2-15.5 0-4.4-0.1-1-0.3 7.5-0.3zm-249.3 253.1c0.2 2.2 0.2 6 0 8.5-0.2 2.5-0.4 0.7-0.4-4 0-4.7 0.2-6.7 0.4-4.5z"/>
		<path id="Path 3" class="s3" d="m10.7 241.5c0.2 2.8 0.2 7.5 0 10.5-0.2 3-0.3 0.8-0.3-5 0-5.8 0.1-8.3 0.3-5.5z"/>
		<path id="Path 4" class="s4" d="m263.5 29.7c15.2 0.1 26.9 0.8 34.5 1.9 6.3 0.9 16.7 3.2 23 5.1 6.3 1.9 16.2 5.4 22 7.8 5.8 2.4 14.1 6.3 18.5 8.7 4.4 2.4 11.8 6.6 16.4 9.3 4.6 2.8 12.9 8.6 18.5 13.1 5.5 4.4 14.6 12.3 20 17.5 5.4 5.2 13.7 13.9 18.3 19.4 4.6 5.5 11.7 15 15.7 21 4.1 6.1 10.1 16.4 13.4 23 3.4 6.6 8 16.9 10.2 23 2.3 6.1 5.4 15.9 7 22 1.6 6.1 3.4 15.7 4.2 21.5 0.7 6.1 1.3 20.7 1.3 35 0 15-0.5 28-1.3 33.5-0.7 4.9-2.7 14.4-4.3 21-1.7 6.6-5.1 17.2-7.6 23.5-2.4 6.3-7.7 17.6-11.5 25-3.9 7.4-9.5 17.1-12.4 21.5-2.9 4.4-10.4 13.9-16.7 21-6.2 7.1-15.2 16.6-19.8 21-4.6 4.4-12.9 11.2-18.4 15.1-5.5 3.9-13.8 9.4-18.5 12.2-4.7 2.8-15 8.2-23 12.1-8 3.8-18.6 8.3-23.5 10-4.9 1.7-13.3 3.9-18.5 5-5.2 1.1-14.2 2.7-20 3.6-5.8 0.8-17.9 1.8-27 2.2-10.4 0.4-20.9 0.1-28.5-0.6-6.6-0.7-17.6-2.4-24.5-3.7-6.9-1.4-17.2-4.1-23-6.1-5.8-1.9-15.9-6-22.5-9.1-6.6-3.1-17.2-8.5-23.5-12.1-6.4-3.6-15.1-9.3-19.5-12.6-4.4-3.3-15.6-13.6-25.1-23-9.8-9.7-20.1-21.1-24.1-26.5-3.8-5.2-8.9-12.6-11.2-16.5-2.4-3.9-7.1-12.9-10.6-20-3.4-7.1-7.6-16.8-9.3-21.5-1.7-4.7-4-11.6-5.1-15.5-1.1-3.9-2.9-11.5-4-17-1.1-5.5-2.5-14.1-3.2-19-0.7-5.8-1-16.3-0.6-29.5 0.4-14.3 1.2-24.1 2.7-32.5 1.1-6.6 3.4-17.2 5-23.5 1.6-6.3 4.1-14.9 5.6-19 1.4-4.1 5.1-12.4 8.2-18.5 3-6.1 7.3-13.9 9.5-17.5 2.2-3.6 7.9-11.7 12.6-18 4.7-6.3 12-15.1 16.1-19.4 4.1-4.4 13.5-13.2 20.8-19.8 7.2-6.5 17.8-14.8 23.5-18.5 5.6-3.7 16.5-9.9 24.2-13.8 7.7-3.9 19.6-9 26.5-11.3 6.9-2.3 17.7-5.3 24-6.7 6.3-1.5 16.2-2.9 22-3.3 5.8-0.4 20.8-0.6 33.5-0.5z"/>
		<path id="Path 5" class="s5" d="m257 29.4c8.5 0 12.1 0.2 8 0.3-4.1 0.2-11.1 0.2-15.5 0-4.4-0.1-1-0.3 7.5-0.3z"/>
		<path id="Path 6" class="s0" d="m252.5 51.5c7.1 0.3 14.6 0.9 16.5 1.4 2.8 0.8 3.6 1.6 4.3 4.3 0.4 1.8 0.7 6.6 0.7 10.6 0 3.9 0.4 10.2 1 14 0.5 3.7 1.4 12.8 2 20.2 0.6 7.4 2.1 27.4 3.5 44.5 1.3 17.1 2.9 40.2 3.5 51.5 0.6 11.3 1.5 23 1.8 26 0.7 5.3 0.8 5.5 3.7 5.4 1.7 0 7.1-0.7 12-1.4 4.9-0.8 9.4-1.7 10-2.1 0.6-0.4 2.4-6 4.2-12.5 1.7-6.6 4-15.5 5.1-19.9 1.1-4.4 3.5-14.1 5.5-21.5 2-7.4 6.1-23.4 9.2-35.5 3.1-12.1 7.2-27.8 12.5-48l3.8-1.2c2-0.7 7.3-1.3 11.7-1.3 5.2 0 10.3 0.6 14.5 1.9 3.6 1.1 8.5 3.3 11 5 2.5 1.6 5.6 4.1 9.5 8.2l-2.8 10.2c-1.6 5.6-5.3 19-8.3 29.7-2.9 10.7-5.6 20.8-6 22.5-0.3 1.7-2.6 9.8-4.9 18-2.4 8.3-4.9 17.3-5.5 20-0.6 2.8-3.4 12.9-6.2 22.5-5 17.4-5.1 17.6-4.6 28.5 0.3 6.1 1.6 19.1 2.8 29 1.3 9.9 2.5 18.1 2.7 18.3 0.2 0.1 2.6-1.5 5.3-3.5 2.8-2.1 7.4-5.6 10.3-7.7 2.8-2.2 9.9-6.8 15.7-10.1 5.8-3.4 13.4-7.4 17-8.9 3.6-1.5 9.4-3.6 13-4.7 3.6-1 9.3-1.9 12.8-1.9 3.4 0 7.9 0.7 10 1.6 2 0.8 4.8 2.5 6.1 3.7 1.2 1.2 3.6 4.7 5.1 7.7 1.5 3 3.5 8 4.4 11 0.9 3 1.6 6.1 1.6 6.8 0 0.6-2.6 2.8-5.7 4.9-3.2 2-10.5 6.8-16.3 10.6-5.8 3.8-13.9 9.8-18 13.1-4.1 3.4-12.3 10.9-18.1 16.6-5.9 5.8-13.3 13.6-16.6 17.5-3.2 3.9-8.6 10.6-11.9 15-3.3 4.4-9.2 12.7-13.1 18.5-3.9 5.8-9.7 15.2-12.7 21-3.5 6.4-7.4 12.2-10.1 14.8-3.1 2.9-5.7 4.4-8.2 4.8-2.1 0.3-12.6 2.9-23.3 5.9-10.7 2.9-28.7 7.8-40 10.8-11.3 3.1-23.2 6.2-26.5 7-3.3 0.8-8.9 2.3-12.5 3.2-4.6 1.2-8.2 1.5-12.5 1-3.3-0.3-8.9-1.9-12.5-3.5-3.6-1.6-9.6-5.3-13.3-8.2-3.8-2.9-9.2-8.4-12.2-12.3-2.9-3.9-9.4-14.6-14.5-24-5.1-9.4-9.6-17.4-10-18-0.4-0.6-4.5-7.5-9-15.5-4.6-8-11.2-19.7-14.8-26-3.6-6.3-11.2-18.5-16.8-27-5.6-8.5-12.1-18.2-14.6-21.5-2.4-3.3-9.1-12.2-14.8-19.8-5.8-7.6-11.6-15.4-13-17.2-1.4-1.8-7.6-9.5-13.9-17.1-6.3-7.7-13.3-16-19.6-23.4l1.9-5.3c1-2.8 2.9-6.8 4.2-8.7 1.3-1.9 4.1-4.7 6.2-6.2 2-1.5 5.8-3.9 8.5-5.3 2.6-1.4 6.8-2.8 13.9-4l4.6 5.8c2.6 3.2 7.2 8.9 10.2 12.7 3 3.8 8 10.1 11 14 3 3.8 7.1 8.9 9 11.3 1.9 2.4 7.1 9 11.5 14.7 4.4 5.6 9.8 12.4 11.9 14.9 2.2 2.5 5 6.3 6.3 8.3 1.2 2.1 2.7 3.8 3.3 3.8 0.6 0 4.5-2.5 8.8-5.5 4.2-3.1 8.3-5.6 9-5.5 0.6 0 1.4-0.4 1.7-1 0.3-0.6-1.8-7-4.6-14.3-2.8-7.2-7.8-20.2-11.1-28.7-3.2-8.5-8.1-21.2-10.9-28.3-2.7-7-4.9-12.9-4.9-13.2 0-0.3-2.5-6.9-5.6-14.8-3-7.8-7.5-19.4-9.9-25.7-2.4-6.3-6.6-17.1-9.3-24-4.7-12-4.8-12.6-3.4-15.5 0.8-1.7 2.7-4.5 4.1-6.4 1.4-1.9 5.3-5.3 8.6-7.6 3.3-2.3 8.9-5.2 12.5-6.4 3.9-1.3 9.1-2.1 19.5-2.2l1.9 5.8c1.1 3.2 3.3 9 4.9 12.8 1.6 3.8 4.6 11.5 6.6 17 2.1 5.5 5.4 14.1 7.4 19 1.9 4.9 6.1 15.5 9.2 23.5 3.1 8 8.1 21 11.2 29 3.1 8 8 20.6 10.8 28 2.9 7.4 6.6 16.8 8.1 20.9 1.6 4 3.5 7.7 4.2 8.2 0.7 0.6 4.9-0.2 11.2-2.1 5.5-1.7 10.2-3.6 10.5-4.3 0.3-0.6-0.3-9.1-1.4-18.7-1.1-9.6-2.3-21.3-2.6-26-0.4-4.7-1.7-18.2-3-30-1.3-11.8-3.5-31.8-4.9-44.5-1.3-12.7-3.3-31.2-4.3-41.1-1.6-16.2-1.6-18.3-0.3-19.9 0.8-0.9 4-2.9 7-4.3 3-1.5 7.3-3 9.5-3.4 2.2-0.4 9.9-0.5 17-0.3z"/>
		<path id="Path 7" class="s4" d="m238.5 265c0.5 0 1.4 1.2 2 2.8 0.7 1.5 4.9 9.7 9.5 18.2 4.6 8.5 9.8 18.2 11.4 21.5 1.8 3.4 3.7 6 4.6 5.9 0.8 0 4.6-2.1 8.5-4.6 3.9-2.5 11.3-7.1 16.5-10.3 5.2-3.2 12-7.4 15-9.4 3-2 5.8-3.7 6.3-3.8 0.4-0.2 0.7 0.1 0.7 0.7 0 0.6-1.7 3.6-3.8 6.8-2 3.2-6.1 9.6-9 14.3-2.9 4.6-7.7 12.2-10.6 16.9-3 4.7-5.1 8.8-4.7 9.2 0.3 0.4 3.5 2.3 7.1 4.1 3.6 1.8 13 6.9 21 11.2 8 4.3 15.5 8.3 16.7 8.9 1.3 0.6 2.3 1.4 2.3 1.9 0 0.4-9.1 0.4-20.3 0-11.1-0.5-23.3-0.8-34.2-0.8l0.2 16.5c0 9.1 0.4 21.6 0.7 27.8 0.3 6.1 0.3 11.2-0.1 11.2-0.5 0-2.3-2.8-4.1-6.2-1.8-3.5-4.9-9.4-7-13.3-2.1-3.9-6.3-11.8-9.5-17.7-3.1-6-6-10.8-6.4-10.8-0.5 0-4.9 2.6-10 5.8-5 3.1-12 7.5-15.5 9.7-3.4 2.2-9.3 5.9-13 8.2-3.8 2.4-7 3.9-7.3 3.3-0.3-0.6 2-5.2 5.2-10.2 3.1-5.1 7.3-12 9.3-15.3 2.1-3.3 5.6-8.9 7.9-12.5 2.3-3.6 4.1-7.1 4.1-7.7 0-0.7-4.8-3.8-10.7-7-6-3.1-13.7-7.2-17.3-9.1-3.6-1.9-9-4.8-12-6.5-3-1.6-5.9-3.4-6.5-3.9-0.6-0.7 8.8-0.7 55 0.5l-0.8-24.4c-0.4-13.4-1.1-26.1-1.4-28.1-0.3-2.1-0.2-3.8 0.2-3.8z"/>
		<path id="Path 8" class="s6" d="m239.7 295c0.2 1.9 0.2 5.5 0 8-0.2 2.5-0.4 0.9-0.4-3.5 0-4.4 0.2-6.4 0.4-4.5z"/>
	</g>
</svg>