<svg version="1.2" xmlns="http://www.w3.org/2000/svg" viewBox="0 0 512 512" width="512" height="512">
	<title>0-summoned-svg</title>
	<style>
		.s0 { fill: #74eb00 } 
		.s1 { opacity: .5;fill: #74eb00 } 
		.s2 { opacity: .3;fill: #74eb00 } 
		.s3 { fill: #000000 } 
		.s4 { fill: #6ddd00 } 
		.s5 { fill: #62c700 } 
		.s6 { fill: #59b400 } 
		.s7 { fill: #387200 } 
		.s8 { fill: #0b1600 } 
		.s9 { fill: #152b00 } 
		.s10 { fill: #4f9f00 } 
	</style>
	<g id="beast-eye">
		<path id="Path 0" class="s0" d="m260 10.6c14 0 27.8 0.4 30.5 0.8 2.8 0.4 11.8 2.1 20 3.7 8.3 1.7 19.5 4.6 25 6.4 5.5 1.9 14.7 5.5 20.5 8 5.8 2.5 15 7.1 20.5 10.2 5.5 3.1 14.3 8.4 19.5 11.9 5.2 3.4 12.9 8.9 17 12.1 4.1 3.3 12.4 10.7 18.4 16.4 6 5.7 14.5 14.9 18.9 20.4 4.4 5.5 11.6 15.4 16 22 4.3 6.6 11.4 19.2 15.8 28 4.3 8.8 9.4 20.7 11.3 26.5 1.8 5.8 4.5 15.7 6 22 1.4 6.3 3.2 15.6 4.1 20.5 1.2 6.6 1.6 16.3 1.7 36.5 0.1 21.6-0.3 29.7-1.6 38-1 5.8-2.8 15-4.1 20.5-1.3 5.5-4 14.9-6 21-2 6.1-7.6 19.1-12.5 29-4.9 9.9-11.6 22.1-14.9 27-3.3 4.9-9.5 13.3-13.8 18.5-4.3 5.2-11.6 13.5-16.3 18.4-4.7 4.8-12.6 12.3-17.5 16.6-4.9 4.3-14.2 11.5-20.5 16-7.9 5.6-17.5 11.1-30.5 17.5-10.4 5.1-22.4 10.5-26.5 12-4.1 1.4-13.4 4-20.5 5.6-7.1 1.7-19.4 4.1-27.2 5.5-12 2-17.7 2.4-35.3 2.4-17.6 0-23.3-0.4-35.3-2.4-7.8-1.4-19.4-3.6-25.7-5-6.3-1.4-15.1-3.7-19.5-5.1-4.4-1.4-17.4-7.3-29-13-12.5-6.3-24.6-13.1-30-17-5-3.5-13.5-10.2-18.9-14.7-5.4-4.6-15.1-13.7-21.5-20.4-6.4-6.6-14.3-15.6-17.6-20-3.3-4.3-7.1-9.5-8.4-11.4-1.3-1.9-3.8-5.7-5.4-8.5-1.6-2.7-5.2-9.1-7.9-14-2.7-4.9-6.7-13.1-9-18-2.2-4.9-5.4-12.8-7-17.5-1.6-4.7-4.2-13.9-5.9-20.5-1.6-6.6-3.6-15.8-4.5-20.5-1.1-5.7-1.8-16.8-2.1-34-0.5-21.1-0.3-27.3 1.2-36 0.9-5.8 2.8-16.1 4.2-23 1.3-6.9 4.2-17.9 6.4-24.5 2.1-6.6 7.2-18.8 11.2-27 4.1-8.2 9.3-18.2 11.8-22 2.4-3.8 7.5-11.5 11.4-17 3.8-5.5 11.1-14.5 16.1-20 4.9-5.5 14.8-15.1 22-21.4 7.1-6.2 17.8-14.6 23.9-18.6 6-4 15.5-9.8 21-12.8 5.5-3.1 14.3-7.5 19.5-9.8 5.2-2.2 12.9-5.4 17-6.9 4.1-1.5 12.4-4 18.5-5.5 6.1-1.5 17.5-3.7 25.5-4.9 11.9-1.7 19.1-2.1 40-2z"/>
		<path id="Path 1" class="s1" d="m251 10.4c8.5 0 12.1 0.2 8 0.3-4.1 0.2-11.1 0.2-15.5 0-4.4-0.1-1-0.3 7.5-0.3zm254.7 247.1c0.2 2.2 0.2 5.6 0 7.5-0.2 1.9-0.4 0.1-0.4-4 0-4.1 0.2-5.7 0.4-3.5z"/>
		<path id="Path 2" class="s2" d="m505.7 243.5c0.2 2.2 0.2 5.6 0 7.5-0.2 1.9-0.4 0.1-0.4-4 0-4.1 0.2-5.7 0.4-3.5z"/>
		<path id="Path 3" class="s3" d="m262 30.5c11.3 0.2 25.4 1.1 31.5 2 6.1 0.9 16.9 3.1 24 5 7.1 1.9 17.9 5.4 24 7.8 6.1 2.4 15.5 6.8 21 9.7 5.5 3 13.6 7.6 18 10.3 4.4 2.8 13.2 9.2 19.5 14.2 6.3 5.1 16.2 14.2 22 20.1 5.8 6 13.9 15.2 17.9 20.4 4 5.2 10.4 14.7 14.2 21 3.7 6.3 8.8 15.8 11.2 21 2.4 5.2 6.2 14.7 8.4 21 2.2 6.3 5.2 16.4 6.6 22.5 1.4 6.1 3.1 15.3 3.9 20.5 0.7 5.5 1.2 18.8 1.2 31.5 0 15.3-0.5 25.5-1.7 33.5-0.9 6.3-3.2 17.1-5.1 24-1.9 6.9-4.4 15.1-7.6 24h-4.2c-2.4 0-12.2 1.1-21.8 2.4-9.6 1.4-24 3.9-32 5.6-8 1.7-18.6 4-23.5 5.1-4.9 1-18.2 4.4-29.5 7.4-11.3 3-26.1 6.9-33 8.6-6.9 1.6-18.1 4.3-25 5.9-6.9 1.6-15.6 3.6-19.5 4.4-3.9 0.8-10.1 2-14 2.6-3.9 0.6-12.4 1.8-19 2.6-6.6 0.7-17.2 1.4-23.5 1.4-6.3 0-15.6-0.5-20.5-1-4.9-0.6-12.2-1.8-16-2.6-3.8-0.8-10.6-2.6-15-4.1-4.4-1.4-11.8-4.3-16.5-6.5-4.7-2.1-13-6.9-18.5-10.6-5.4-3.7-14.2-10.8-19.4-15.7-5.1-4.9-12.3-12.6-15.8-17-3.5-4.4-9-11.8-12.2-16.5-3.2-4.7-9-14.1-12.9-21-3.9-6.9-11-21.3-15.8-32-4.7-10.7-12-29.4-16-41.5-4.1-12.1-7.4-22.7-7.4-23.5 0-0.8 1.1-5.6 2.6-10.5 1.4-4.9 5-14.2 13.6-32l4.4 15c2.4 8.3 6 19.9 7.9 26 2 6.1 6.8 19.1 10.7 29 3.8 9.9 10.8 25.4 15.4 34.5 4.6 9.1 10.3 19.4 12.7 23 2.4 3.6 6.5 9.6 9.2 13.5 2.6 3.9 8.4 11.1 12.9 16.1 4.4 5.1 8.4 9 8.9 8.8 0.4-0.2-0.2-2.5-1.3-5.2-1-2.6-3.5-8.5-5.4-13.2-1.9-4.7-4.6-12.3-5.9-17-1.4-4.7-3.2-14.4-4.1-21.5-0.9-7.2-1.6-19.1-1.6-26.5 0-7.4 0.7-19.1 1.5-26 0.9-6.9 2.4-15.9 3.5-20 1-4.1 3.4-11.6 5.3-16.5 1.9-4.9 5.8-13.7 8.7-19.5 2.9-5.8 7.4-13.7 10-17.5 2.6-3.8 7.7-10.6 11.4-15 3.7-4.4 10.8-11.7 15.9-16.2 5.1-4.6 9.8-8.3 10.5-8.3 0.6 0 1.2-0.5 1.2-1 0-0.6-0.6-1-1.2-1-0.7 0-5.6 0.9-10.8 1.9-5.2 1.1-15.1 3.4-22 5.1-6.9 1.7-18.6 5.4-26 8.2-7.4 2.8-18.4 7.3-24.5 10-6 2.7-16.6 7.9-23.5 11.6-6.9 3.7-12.8 6.8-13.2 6.9-0.5 0.2-0.8-0.3-0.8-1 0-0.6 3.5-5.9 7.8-11.7 4.3-5.8 13.4-16.3 20.3-23.4 6.8-7.1 16.5-16.1 21.4-20.1 5-3.9 13.7-10.1 19.5-13.7 5.8-3.6 14.8-8.8 20-11.6 5.2-2.8 13.8-6.7 19-8.7 5.2-2.1 14.7-5.2 21-7 6.3-1.8 15.6-4.1 20.5-5 4.9-0.9 12.8-2.1 17.5-2.5 4.7-0.5 17.7-0.7 29-0.5zm-226.7 184.7c0.5 0.2 2 5.5 3.3 11.8 1.2 6.3 4 18.5 6.2 27 2.2 8.5 5.4 19.3 7 24 1.7 4.7 6 15 9.5 23 3.6 8.3 9.9 20 14.7 27.5 4.5 7.1 10.8 16.1 14 20 3.1 3.9 9.3 10.5 13.6 14.9 4.3 4.3 11.3 10.4 15.4 13.6 4.1 3.1 10.2 7.5 13.5 9.7 3.3 2.2 10.9 6.4 17 9.2 6 2.9 16.2 7 22.5 9.1 6.3 2.2 16.9 4.8 23.5 5.9 6.6 1.1 17.2 2.5 23.5 3 6.3 0.6 16.2 1.1 22 1.1 5.8 0 15-0.5 20.5-1 5.5-0.5 15.6-1.7 22.5-2.5 6.9-0.9 17.9-2.8 24.5-4.2 6.6-1.4 17.2-4 23.5-5.9 6.3-1.8 17.8-5.3 25.5-7.7 7.7-2.4 23.4-8.2 35-12.9 11.5-4.7 29.8-12.7 40.5-17.9 10.7-5.1 22.8-11 26.7-13.1 4.5-2.3 7.3-3.3 7.3-2.5 0 0.6-2.7 6.6-6.1 13.2-3.3 6.6-6.6 12.6-7.2 13.3-0.7 0.8-4.6 3.3-8.7 5.7-4.1 2.3-15.1 8.1-24.5 12.8-9.4 4.6-24.4 11.4-33.5 15-9.1 3.5-22.6 8.5-30 11-7.4 2.5-22.5 6.6-33.5 9.1-11 2.5-24.7 5.2-30.5 6-5.8 0.8-14.8 2.1-20 2.8-5.6 0.7-19.9 1.2-34.5 1.2-13.8 0-30.2-0.6-36.5-1.3-6.3-0.7-18-2.5-26-4.1-8-1.6-21.7-4.6-30.5-6.8-8.8-2.2-20.3-5.6-25.5-7.5-5.2-1.9-14.9-5.6-21.5-8.2-6.6-2.6-13.1-5.7-14.4-6.9-1.3-1.1-4.9-5.5-8.1-9.6-3.1-4.1-8.1-11.3-11-16-2.9-4.7-8.2-14.4-11.7-21.5-3.4-7.1-8.3-19.1-10.7-26.5-2.5-7.4-5.6-18.7-7-25-1.4-6.3-3.2-17.6-4-25-0.9-7.4-1.6-17.8-1.6-23 0-5.2 0.9-16.2 2-24.5 1.1-8.2 2-15.4 2.1-15.8 0.1-0.5 0.6-0.7 1.2-0.5zm71.2 208.8c0.3 0 5.6 2.9 11.7 6.4 6.2 3.5 14.6 8 18.5 10 4 2 13.5 5.9 21 8.7 7.6 2.7 18.3 6.3 23.8 7.9 5.5 1.5 13.4 3.6 17.5 4.5 4.1 0.9 15.1 2.5 24.5 3.7 11 1.3 23.7 2 36 2.1 13.4 0 24.3-0.6 37-2.1 9.9-1.1 22.7-3.3 28.5-4.7 5.8-1.4 13.2-3.5 16.5-4.5 3.3-1 11.6-3.8 18.5-6.3 6.9-2.4 14.7-5.5 17.5-6.8 2.7-1.3 9.8-5 15.7-8.1 6-3.2 11-5.6 11.3-5.3 0.3 0.3 0.3 0.9 0 1.5-0.3 0.6-3.1 2.9-6.3 5.3-3.1 2.4-10.7 7.3-16.7 10.9-6.1 3.6-16.4 9.2-23 12.5-6.6 3.4-14.9 7.3-18.5 8.7-3.6 1.5-12.1 4.2-19 6.2-6.9 1.9-17.5 4.3-23.5 5.4-6.1 1.1-17.5 2.5-25.5 3.1-10.5 0.8-18.4 0.8-28.5 0-7.7-0.6-17.6-1.8-22-2.6-4.4-0.7-12.1-2.3-17-3.4-5-1.1-11.7-2.9-15-3.9-3.3-1.1-10.7-3.8-16.5-6.2-5.8-2.4-15.2-6.7-21-9.6-5.8-2.9-13.9-7.6-18-10.4-4.1-2.7-10.4-7-14-9.6-3.6-2.5-8.2-6.2-10.3-8.2-2-2.1-3.7-4-3.7-4.5 0-0.4 0.2-0.7 0.5-0.7z"/>
		<path id="Path 4" class="s4" d="m262 466.4c6.3 0 8.8 0.1 5.5 0.3-3.3 0.2-8.5 0.2-11.5 0-3-0.2-0.3-0.3 6-0.3z"/>
		<path id="Path 5" class="s5" d="m237.5 438.4c6.6 0 9.5 0.1 6.5 0.3-3 0.2-8.4 0.2-12 0-3.6-0.2-1.1-0.3 5.5-0.3z"/>
		<path id="Path 6" class="s6" d="m255.5 29.3c4.4 0 6.4 0.2 4.5 0.4-1.9 0.2-5.5 0.2-8 0-2.5-0.2-0.9-0.4 3.5-0.4zm231.2 224.2c0.2 2.2 0.2 5.6 0 7.5-0.2 1.9-0.4 0.1-0.4-4 0-4.1 0.2-5.7 0.4-3.5z"/>
		<path id="Path 7" class="s7" d="m262 467.4c5.2 0 7.3 0.1 4.5 0.3-2.8 0.2-7 0.2-9.5 0-2.5-0.2-0.2-0.3 5-0.3z"/>
		<path id="Path 8" class="s0" d="m235.5 58.2c2.8-0.1 11.3 0.3 19 0.8 7.7 0.6 18.9 1.7 25 2.5 6.1 0.9 18.6 3.1 28 5 9.4 1.9 21.7 5.1 27.5 7 5.8 2 14.1 5.3 18.5 7.2 4.4 2 12.1 5.6 17 8 4.9 2.5 11 5.9 13.5 7.6 2.5 1.7 8.1 5.5 12.5 8.5 4.4 3 11.7 8.9 16.3 13.1 4.6 4.2 12.6 12.5 17.9 18.6 5.2 6.1 10.2 12.3 11 14 0.9 1.7 2.8 4.6 4.3 6.5 1.5 1.9 4.9 7.3 7.4 12 2.6 4.7 6.5 12.8 8.7 18 2.2 5.2 5.7 14.4 7.8 20.5 2.1 6.1 4.7 15.1 5.9 20 1.2 4.9 2.8 15.5 3.7 23.5 0.9 8 1.5 18.6 1 32.5l-7.5-17.5c-4.1-9.6-10.6-23.8-14.6-31.5-3.9-7.7-10.2-19.2-14-25.5-3.8-6.3-10.1-16-14-21.5-3.9-5.5-9.8-13.4-13.1-17.5-3.2-4.1-11.6-13.3-18.5-20.5-6.9-7.2-17.2-16.7-22.9-21.2-5.7-4.6-13.8-10.6-17.9-13.5-4.1-2.8-10.2-6.7-13.5-8.6-3.3-1.9-11.2-6.1-17.5-9.2-6.3-3.1-15.3-7.3-20-9.3-4.7-2-15.9-5.9-25-8.6-9.1-2.6-21-5.8-26.5-6.9-5.5-1.2-14.3-2.8-19.5-3.7-5.2-0.8-16.7-2-25.5-2.5-8.8-0.5-23.9-1-33.5-1.1-9.6 0-17.1-0.2-16.5-0.4 0.6-0.2 8.4-1.4 17.5-2.5 9.1-1.2 24.6-2.5 34.5-2.9 9.9-0.4 20.2-0.9 23-0.9zm-4.5 31.9c1.9 0 8.2 0.6 14 1.3 5.8 0.8 15.2 2.6 21 4.1 5.8 1.5 12.2 3.3 18 5.5l-1.4 3.2c-0.8 1.8-3.9 8.9-6.9 15.8-3 6.9-7 16.8-9 22-1.9 5.2-5.6 16.2-8.1 24.5-2.5 8.2-5.9 20.2-7.5 26.5-1.5 6.3-3.5 15.8-4.4 21-0.9 5.2-2.1 14.4-2.7 20.5-0.6 6.1-1.4 19.1-1.7 29-0.4 13.1-0.1 23.3 1.1 37.5 1 10.7 2.4 23.1 3.3 27.5 0.8 4.4 2.6 12.4 3.9 17.7 1.3 5.4 2.4 10 2.4 10.3 0 0.3-6.9 0.5-15.3 0.5-12.1 0-18-0.5-28.7-2.5-7.4-1.4-15.5-3.2-18-4-3.4-1-6.3-3.3-11.9-9.2-4-4.3-9.9-11.4-13.1-15.8-3.1-4.4-7.3-10.9-9.3-14.5-1.9-3.6-5.3-10.8-7.5-16-2.2-5.2-4.9-12.6-6.1-16.5-1.1-3.9-2.8-11.9-3.6-18-0.9-6.4-1.5-18.4-1.5-28.5 0-10.8 0.6-21.7 1.6-28.5 0.9-6.1 2.9-15.1 4.5-20 1.6-4.9 6.3-15.8 10.4-24 6-12 9.3-17.3 16.8-26.5 5.1-6.3 13.1-14.7 17.8-18.7 4.6-3.9 12.2-9.5 16.9-12.4 4.7-2.9 11.4-6.7 15-8.5 3.6-1.8 8.1-3.3 10-3.3zm87.3 26.9c0.4 0 3.7 1.7 7.5 3.8 3.7 2.1 10.5 6.7 15.2 10.2 4.7 3.5 12.3 9.6 17 13.6 4.7 3.9 13.2 12 19 18 5.8 6 14.4 15.6 19.1 21.4 4.7 5.8 10.9 13.9 13.9 18 2.9 4.1 5.7 9.1 6.2 11 0.4 1.9 0.8 10.8 0.8 19.8 0 11.9-0.5 19.3-2 27.9-1.2 6.5-4.1 17.8-6.5 25.1-2.5 7.2-6.8 17.4-9.6 22.4-2.8 5.1-7.5 12.7-10.3 16.8-5 7.4-5.2 7.5-11.1 8.8-3.3 0.7-19.1 4.4-35 8.2-15.9 3.9-33.6 7.9-39.3 9-5.6 1.1-11.3 2-12.7 2-2.5 0-2.4-0.2 3.4-11.3 3.3-6.1 8.9-18.8 12.4-28.2 3.6-9.4 8.1-22.6 10-29.5 1.9-6.9 4-15.6 4.6-19.5 0.6-3.9 2-12.8 3.1-20 1-7.2 2.4-20 3-28.5 0.7-8.5 0.9-19.2 0.6-23.8-0.6-7.9-0.7-8.2-2.9-7.7-1.2 0.3-4.5 0.8-7.2 1.1-3.4 0.5-6.6 0.2-10-0.9-2.8-0.9-7-3.3-9.4-5.4-2.5-2.2-5.4-6.1-6.9-9.3-2.2-4.7-2.5-6.5-2.1-12.5 0.4-5.5 1.1-8 3.4-11.9 2-3.1 4.9-6 8.5-8.3 4.3-2.6 7-3.6 19.2-4.8l-0.5-4c-0.3-2.2-0.9-5.7-1.3-7.7-0.4-2.1-0.4-3.8-0.1-3.8zm118.8 125.6c0.4 0.5 4 6.8 8 13.9 4.1 7.1 12.9 24 31.8 62l-11.7 0.6c-6.4 0.4-15.8 1.2-20.7 1.8-4.9 0.6-14.9 2.2-22 3.5-7.1 1.4-13.1 2.4-13.2 2.3-0.1-0.1 3-6.5 6.9-14.2 3.9-7.7 7.9-16.5 9-19.5 1-3 3.2-11.1 4.7-18 1.6-6.9 3.4-16.6 4.1-21.5 0.6-4.9 1.4-9.6 1.8-10.4 0.4-0.8 1-1 1.3-0.5z"/>
		<path id="Path 9" class="s4" d="m137.7 225c0.2 3 0.2 8.2 0 11.5-0.2 3.3-0.3 0.8-0.3-5.5 0-6.3 0.1-9 0.3-6zm343.9 46c0.2 0 0.4 3.1 0.4 7 0 3.9-0.3 6.8-0.7 6.6-0.5-0.2-0.7-3.4-0.5-7 0.2-3.6 0.6-6.6 0.8-6.6zm-18.6 48.3c4.1 0 5.7 0.2 3.5 0.4-2.2 0.2-5.6 0.2-7.5 0-1.9-0.2-0.1-0.4 4-0.4z"/>
		<path id="Path 10" class="s8" d="m177 65.3c4.1 0 5.7 0.2 3.5 0.4-2.2 0.2-5.6 0.2-7.5 0-1.9-0.2-0.1-0.4 4-0.4z"/>
		<path id="Path 11" class="s9" d="m326.7 195c0.2 3 0.2 8.2 0 11.5-0.2 3.3-0.3 0.8-0.3-5.5 0-6.3 0.1-9 0.3-6zm-84 65.5c0.2 2.8 0.2 6.8 0 9-0.2 2.2-0.3-0.1-0.3-5 0-4.9 0.1-6.8 0.3-4z"/>
		<path id="Path 12" class="s5" d="m241.5 357.3c4.4 0 6.4 0.2 4.5 0.4-1.9 0.2-5.5 0.2-8 0-2.5-0.2-0.9-0.4 3.5-0.4z"/>
		<path id="Path 13" class="s10" d="m327.7 196.5c0.2 2.8 0.2 6.8 0 9-0.2 2.2-0.3-0.1-0.3-5 0-4.9 0.1-6.8 0.3-4z"/>
		<path id="Path 14" class="s7" d="m417.7 229.5c0.2 2.2 0.2 5.6 0 7.5-0.2 1.9-0.4 0.1-0.4-4 0-4.1 0.2-5.7 0.4-3.5z"/>
	</g>
</svg>