<svg version="1.2" xmlns="http://www.w3.org/2000/svg" viewBox="0 0 512 512" width="512" height="512">
	<title>m-arcaneProtection-svg</title>
	<style>
		.s0 { fill: #cd59f7 } 
		.s1 { opacity: .9;fill: #cd59f7 } 
		.s2 { opacity: .3;fill: #cd59f7 } 
		.s3 { opacity: .4;fill: #cd59f7 } 
		.s4 { opacity: .7;fill: #cd59f7 } 
		.s5 { fill: #000000 } 
		.s6 { fill: #913fae } 
	</style>
	<g id="sight-disabled">
		<path id="Path 0" class="s0" d="m281.5 10.8c7.1 0.2 17.7 1.2 23.5 2.3 5.8 1.1 14.3 2.9 19 4 4.7 1.1 13.2 3.8 19 6 5.8 2.2 16.1 6.9 23 10.3 6.9 3.5 16.8 8.9 22 12.1 5.2 3.2 12 7.7 15 9.9 3 2.2 9.1 7 13.5 10.7 4.4 3.7 13.4 12.2 20.1 19 6.6 6.8 14.6 15.6 17.6 19.4 3.1 3.8 8.7 11.7 12.5 17.5 3.8 5.8 9.6 15.7 13 22 3.4 6.3 7.7 15.3 9.6 20 1.9 4.7 4.6 12.1 6 16.5 1.5 4.4 4.1 13.8 9 34l0.2 84-2.7 11c-1.5 6.1-4.1 15.6-5.8 21.3-1.6 5.6-5.3 15.3-8.1 21.4-2.8 6.2-8.4 17.4-12.5 24.8-4.1 7.4-11.1 18.4-15.6 24.5-4.6 6.1-14.1 17-21.3 24.4-7.1 7.3-17.9 17.6-24 22.9-6.1 5.2-15.1 12.2-20 15.4-4.9 3.3-13.5 8.4-19 11.3-5.5 2.9-14.9 7.6-21 10.4-6.1 2.7-16.4 6.6-23 8.5-6.6 1.9-15.6 4.2-20 5.1-4.4 0.9-11.6 2.2-16 2.8-5.1 0.8-19.8 1.2-40.5 1.1-31-0.1-33.1-0.3-45.5-2.8-7.2-1.5-17.6-4-23.3-5.6-5.6-1.7-15-5.1-21-7.7-5.9-2.6-15.9-7.4-22.2-10.6-6.3-3.3-15.1-8.3-19.5-11.1-4.4-2.9-12.5-8.9-18-13.3-5.5-4.5-17-15.2-25.6-23.9-8.5-8.8-18.5-19.7-22.1-24.4-3.6-4.7-8.6-11.6-11-15.5-2.5-3.9-7.4-12.6-10.8-19.5-3.4-6.9-8-16.6-10.2-21.5-2.1-4.9-6.3-18-14.8-49l-0.2-38c-0.1-35 0.1-38.9 2-49.5 1.2-6.3 3.1-15.1 4.3-19.5 1.1-4.4 3.2-11.4 4.6-15.5 1.4-4.1 4.8-12.4 7.6-18.5 2.8-6.1 7.1-14.6 9.6-19 2.4-4.4 7.2-12.3 10.7-17.5 3.4-5.2 9.2-13.1 12.7-17.5 3.5-4.4 13.4-14.8 21.8-23 8.5-8.3 19.2-17.9 23.9-21.5 4.7-3.5 12.6-9 17.5-12.1 4.9-3.1 14.2-8.4 20.5-11.7 6.3-3.3 15.3-7.6 20-9.6 4.7-1.9 14.1-5.1 21-7 6.9-2 16.1-4.4 20.5-5.3 5.7-1.1 15.7-1.8 34.5-2.2 14.6-0.3 32.4-0.4 39.5-0.3z"/>
		<path id="Path 1" class="s1" d="m504.7 238c0.2 2.5 0.2 7 0 10-0.2 3-0.3 1-0.3-4.5 0-5.5 0.1-8 0.3-5.5z"/>
		<path id="Path 2" class="s2" d="m247.5 10.4c11.6 0 16.5 0.2 11 0.3-5.5 0.2-14.9 0.2-21 0-6.1-0.1-1.6-0.3 10-0.3zm-236.8 272.1c0.2 2.7 0.2 6.8 0 9-0.2 2.2-0.3-0.1-0.3-5 0-5 0.1-6.8 0.3-4z"/>
		<path id="Path 3" class="s3" d="m10.7 249.5c0.2 4.9 0.2 13.5 0 19-0.1 5.5-0.3 1.4-0.3-9 0-10.4 0.2-14.9 0.3-10z"/>
		<path id="Path 4" class="s4" d="m266.5 503.4c8.8 0 12.6 0.2 8.5 0.3-4.1 0.2-11.3 0.2-16 0-4.7-0.1-1.3-0.3 7.5-0.3z"/>
		<path id="Path 5" class="s5" d="m255 30.2c11.3-0.1 25.7 0.3 32 0.8 6.3 0.6 16 2 21.5 3.1 5.5 1.2 15.2 3.9 21.5 6 6.3 2.2 18.3 7.3 26.5 11.4 8.3 4 20.4 10.9 27 15.3 6.6 4.4 13.9 9.7 20.6 15.7l-320.6 320.6-5.6-6.8c-3.1-3.8-8.4-11.1-11.8-16.3-3.4-5.2-9.1-15.4-12.6-22.5-3.5-7.1-7.9-17.1-9.9-22-1.9-5-4.9-14.2-6.5-20.5-1.7-6.3-4-16.8-5.1-23.3-1.1-6.4-2-16.2-2-31.7l5.6 7.7c3.1 4.3 9.5 12.5 14.3 18.3 4.7 5.7 14.2 16.1 21.1 23 6.9 6.9 16.6 15.9 21.5 20.1 5 4.2 11.9 9.7 22 17l30.5-30.3c16.7-16.7 30.5-30.3 30.6-30.3 0.2 0-0.6-3.2-1.7-7-1.1-3.9-2.3-11.9-2.6-18-0.4-6.8-0.1-13.7 0.6-18 0.7-3.9 2.1-9.9 3.2-13.5 1.1-3.6 3.9-10.1 6.2-14.5 2.3-4.3 5.5-9.5 7-11.5 1.6-1.9 5.4-6.1 8.5-9.4 3.1-3.2 9.1-8 13.2-10.7 4.1-2.7 11-6.3 15.3-7.9 4.2-1.7 11-3.7 15-4.5 3.9-0.9 11.7-1.6 17.2-1.6 5.5 0 13.4 0.7 17.5 1.6 4.1 0.9 8.6 1.8 10 2.1 2.2 0.4 5.3-2.3 23.8-20.8 16.9-16.9 21.1-21.5 20-22.4-0.7-0.7-4.7-2.1-8.8-3.2-4.1-1.2-12.7-3-19-4.2-6.3-1.1-18.9-2.5-28-3.2-12.8-0.9-20-0.9-32 0-8.5 0.7-22 2.5-30 4.2-8 1.6-20.3 4.9-27.5 7.3-7.1 2.4-16.4 5.8-20.5 7.6-4.1 1.8-11.8 5.5-17 8.3-5.2 2.8-14.2 8-20 11.7-5.8 3.7-14.3 9.5-19 13.1-4.7 3.5-12.3 9.6-17 13.6-4.7 4-13.7 12.6-20.1 19.1-6.3 6.5-14.3 14.9-17.6 18.8-3.3 3.8-9.5 11.7-13.8 17.5-4.2 5.8-8 10.7-8.3 11-0.2 0.3-0.2-4.7 0.1-11 0.4-6.3 1.4-15.6 2.2-20.5 0.9-5 2.7-13.7 4.1-19.5 1.3-5.8 3.8-14.6 5.4-19.5 1.6-5 5.9-14.9 9.4-22 3.5-7.2 8.8-16.6 11.6-21 2.9-4.4 7.3-10.7 9.8-14 2.5-3.3 7.5-9.5 11.1-13.9 3.6-4.3 12-12.8 18.6-18.9 6.6-6 15.6-13.7 20-17.2 4.4-3.4 11.4-8.2 15.5-10.7 4.1-2.5 10.4-6.1 14-8.1 3.6-1.9 11.5-5.6 17.5-8.2 6.1-2.6 16.9-6.4 24-8.5 7.2-2.2 17.3-4.6 22.6-5.3 5.3-0.8 11.6-1.7 14-1.9 2.4-0.3 13.6-0.5 24.9-0.6zm174.2 76.8c0.5 0 3.8 3.7 7.4 8.2 3.6 4.6 9.4 12.6 12.9 17.8 3.5 5.2 9 14.7 12.3 21 3.4 6.3 7.6 15.3 9.6 20 1.9 4.7 5 13.9 7 20.5 1.9 6.6 4.1 16 5 21 0.8 4.9 1.8 15.1 2.2 22.5 0.4 8.7 0.3 13.1-0.3 12.5-0.5-0.6-3.9-5.1-7.4-10-3.5-5-10.3-13.5-15-19-4.7-5.5-14.6-15.9-22-23.2-7.4-7.2-16.6-15.8-20.4-19-3.9-3.2-10.4-8.3-21.7-16.8l-60 60 1.7 5c0.9 2.7 2.3 8.3 3.1 12.2 0.8 4 1.4 11.3 1.4 16.3 0 4.9-0.7 12.5-1.6 16.7-0.9 4.3-2.8 10.9-4.3 14.8-1.4 3.9-4.9 10.6-7.6 15-2.7 4.4-7.9 11-11.5 14.6-3.6 3.7-9.6 8.7-13.5 11.2-3.8 2.5-10.4 5.9-14.5 7.6-4.1 1.6-10.2 3.7-13.5 4.6-3.3 0.8-10 1.8-15 2.2-5.1 0.3-12.3 0.1-16.5-0.6-4.1-0.6-10.8-2.1-22.1-5.6l-21.4 21.5c-16.4 16.4-21.2 21.8-20.2 22.6 0.6 0.6 5.3 2.2 10.2 3.7 5 1.4 13.7 3.5 19.5 4.6 5.8 1.1 15.2 2.5 21 3.2 6.4 0.7 18.6 1 31.5 0.6 15.4-0.3 24.3-1.1 33.5-2.7 6.9-1.2 17.9-3.8 24.5-5.7 6.6-1.9 14.9-4.6 18.5-6 3.6-1.4 13.3-5.8 21.5-9.8 8.3-4.1 19.5-10.2 25-13.7 5.6-3.5 14.3-9.4 19.5-13.3 5.2-3.8 14-10.8 19.5-15.5 5.5-4.8 15.3-14.2 21.7-21.1 6.4-6.8 14.6-16 18.3-20.4 3.6-4.4 9.3-11.8 18.8-25l-0.7 15.7c-0.4 11-1.4 19.4-3.1 27.5-1.4 6.5-4.1 16.7-6.1 22.8-2 6-5.7 15.5-8.1 21-2.5 5.5-6.1 12.9-8 16.5-2 3.6-5.9 10.3-8.7 15-2.8 4.7-8.5 12.6-12.6 17.6-4.1 4.9-11.3 13.2-16 18.3-4.7 5-12.8 12.7-18 16.9-5.2 4.3-14 10.7-19.5 14.4-5.5 3.6-16.1 9.8-23.5 13.7-7.4 3.8-18 8.8-23.5 11-5.5 2.3-15.2 5.4-21.5 7-6.3 1.6-14.6 3.4-18.5 4-3.8 0.6-11.7 1.6-17.5 2.2-5.8 0.6-18.1 1.1-27.5 1.1-12.2-0.1-20.7-0.7-30-2.2-7.1-1.1-18.2-3.4-24.5-5.1-6.3-1.7-15.5-4.6-20.5-6.5-4.9-2-15.5-6.9-23.5-11-8-4-18.5-10-23.5-13.2-4.9-3.2-12.3-8.7-23.7-18.7l160.4-160.3c88.1-88.1 160.6-160.2 161-160.2z"/>
		<path id="Path 6" class="s6" d="m257 29.4c6.9 0 9.6 0.1 6 0.3-3.6 0.2-9.2 0.2-12.5 0-3.3-0.2-0.4-0.3 6.5-0.3z"/>
	</g>
</svg>