<svg version="1.2" xmlns="http://www.w3.org/2000/svg" viewBox="0 0 512 512" width="512" height="512">
	<title>m-speed-svg</title>
	<style>
		.s0 { fill: #cd59f7 } 
		.s1 { opacity: .1;fill: #cd59f7 } 
		.s2 { opacity: .5;fill: #cd59f7 } 
		.s3 { opacity: .7;fill: #cd59f7 } 
		.s4 { fill: #000000 } 
		.s5 { fill: #a648c8 } 
		.s6 { fill: #9340b1 } 
		.s7 { fill: #3b1a48 } 
		.s8 { fill: #070308 } 
	</style>
	<g id="mole">
		<path id="Path 0" class="s0" d="m292.5 10.9l18 3.7c9.9 2 21.6 4.9 26 6.4 4.4 1.6 13.6 5.4 20.5 8.5 6.9 3.1 16.6 7.9 21.5 10.7 4.9 2.8 13.3 7.9 18.5 11.4 5.2 3.4 14.4 10.5 20.5 15.7 6.1 5.1 15.8 14.4 21.8 20.5 5.9 6.2 14.2 15.9 18.4 21.6 4.3 5.7 10.7 15.3 14.2 21.3 3.6 5.9 9.3 16.6 12.7 23.8 3.4 7.2 7.8 17.9 9.7 24 2 6.1 4.3 13.9 5.1 17.5 0.9 3.6 2.5 10.8 3.6 16 1.7 8.4 2 13.4 2 43.5 0 26.2-0.3 36.1-1.5 43-0.9 4.9-3.1 15-5 22.2-1.9 7.3-4.9 17-6.7 21.5-1.7 4.6-7 15.9-11.7 25.3-4.8 9.4-11.4 21.1-14.8 26-3.4 4.9-9.7 13.3-14.1 18.5-4.4 5.2-14.2 15.6-21.8 23-7.7 7.5-17.5 16.3-21.9 19.6-4.4 3.3-10.9 8-14.5 10.4-3.6 2.4-13.7 8.1-22.5 12.6-8.8 4.6-19.5 9.6-23.7 11.3-4.3 1.7-12.6 4.4-18.5 6-6 1.6-15.3 3.8-20.8 4.9-5.5 1.2-13.6 2.6-18 3.2-5.2 0.8-17.9 1-36.5 0.7-28.3-0.4-28.6-0.4-46-4.1-9.6-2.1-22.2-5.3-28-7.2-5.8-1.9-18.6-7.5-28.5-12.4-9.9-4.8-22.7-12-28.5-15.8-5.8-3.8-15.5-11.2-21.5-16.4-6-5.2-16.6-15.3-23.6-22.4-6.9-7.1-16-17.6-20.3-23.4-4.3-5.8-9.7-13.6-11.9-17.5-2.3-3.9-7.1-13.1-10.8-20.5-3.7-7.4-8.4-18-10.4-23.5-2.1-5.5-5.7-17.9-12.7-45l-0.2-33c-0.1-22.9 0.2-35.8 1.1-42 0.7-4.9 2.5-14.4 3.9-21 1.5-6.6 4-16.1 5.7-21 1.6-4.9 4.8-13.3 7.2-18.5 2.3-5.2 6.8-14.2 10-20 3.1-5.8 8.6-14.8 12-20 3.5-5.2 9.9-13.8 14.3-19 4.4-5.2 13.3-14.7 19.8-21 6.6-6.4 15.9-14.7 20.7-18.5 4.8-3.9 13.6-10 19.5-13.8 5.9-3.7 17-10 24.7-13.9 7.7-3.9 18.3-8.6 23.5-10.5 5.2-1.9 14.7-4.7 21-6.3 6.3-1.6 16-3.5 21.5-4.4 5.5-0.9 11.3-1.7 13-1.8 1.7-0.2 16.7-0.2 64 0.1z"/>
		<path id="Path 1" class="s1" d="m505.7 245.5c0.2 4.9 0.2 13.5 0 19-0.1 5.5-0.3 1.4-0.3-9 0-10.4 0.2-14.9 0.3-10z"/>
		<path id="Path 2" class="s2" d="m260 10.4c8.5 0 12.1 0.2 8 0.3-4.1 0.2-11.1 0.2-15.5 0-4.4-0.1-1-0.3 7.5-0.3zm-249.3 253.1c0.2 2.2 0.2 6 0 8.5-0.2 2.5-0.4 0.7-0.4-4 0-4.7 0.2-6.7 0.4-4.5z"/>
		<path id="Path 3" class="s3" d="m10.7 241.5c0.2 2.8 0.2 7.5 0 10.5-0.2 3-0.3 0.8-0.3-5 0-5.8 0.1-8.3 0.3-5.5z"/>
		<path id="Path 4" fill-rule="evenodd" class="s4" d="m263.5 29.7c15.3 0.1 26.9 0.8 34.5 1.9 6.3 0.9 16.7 3.2 23 5.1 6.3 1.9 16.2 5.4 22 7.8 5.8 2.4 14.1 6.3 18.5 8.7 4.4 2.4 11.8 6.6 16.4 9.3 4.6 2.8 12.9 8.6 18.5 13.1 5.5 4.4 14.6 12.3 20 17.5 5.4 5.2 13.7 13.9 18.3 19.4 4.6 5.5 11.7 15 15.7 21 4.1 6.1 10.1 16.4 13.4 23 3.4 6.6 8 16.9 10.2 23 2.3 6.1 5.4 15.9 7 22 1.6 6.1 3.4 15.7 4.2 21.5 0.7 6.1 1.3 20.7 1.3 35 0 15-0.5 28-1.3 33.5-0.7 4.9-2.2 12.8-3.4 17.5-1.1 4.7-2.5 9.1-3.2 9.8-0.9 1.1-1.8 0.4-4.8-3.5-2-2.6-6.5-7.6-10-10.9-3.5-3.4-9.2-8.3-12.8-10.9-3.6-2.5-11-6.8-16.5-9.5-5.5-2.6-12.9-5.7-16.5-6.8-3.6-1.1-10.3-2.5-15-3.2-4.8-0.6-11.6-0.9-15.5-0.5-3.9 0.4-9.5 1.3-12.5 2-3 0.8-7.7 2.3-10.5 3.5-2.7 1.2-8.6 4.5-13 7.5-5.1 3.4-9.8 7.6-13 11.7-2.8 3.4-7.2 9.7-9.7 13.8-2.5 4.1-6.2 11.6-8.1 16.5-1.9 4.9-4.9 15.8-6.6 24-1.7 8.3-3.8 22.6-4.6 32-0.9 9.4-1.5 19.9-1 30l8-16.3c4.4-8.9 8.2-16.3 8.5-16.3 0.3 0 2.6 4.2 5.1 9.3 2.5 5.1 6.4 11.6 8.6 14.3 2.1 2.8 7.7 8.2 12.4 12.1 4.6 3.9 10.3 8.1 12.7 9.3 2.3 1.1 4.4 1.8 4.6 1.4 0.3-0.5-1.5-4.9-3.8-9.8-2.4-4.9-6.2-14.9-8.5-22-2.3-7.1-4.9-17.1-5.7-22-0.9-4.9-1.4-10.1-1.2-11.5 0.3-2.2 1-1.6 7.4 6 4.2 5.1 11.7 12.3 19 18.1 6.5 5.2 13.5 10.6 15.4 11.9 1.9 1.4 7.8 4.6 13 7.2 5.2 2.6 9.8 4.5 10.3 4.3 0.4-0.3 0.4-1.7 0.1-3.2-0.3-1.6-3.2-9.5-6.4-17.8-3.2-8.2-6.9-17.5-8.3-20.5-1.3-3-6.1-12.1-10.6-20.2-4.4-8.2-8.1-15.2-8.1-15.8 0-0.6 0.1-1 0.3-1 0.1 0 9.6 4.3 21.2 9.6 11.6 5.3 27.1 12.3 34.5 15.6 7.4 3.3 15 6.6 20 8.8l-0.6-3.2c-0.3-1.8-2.7-7.1-5.2-11.8-2.6-4.7-6.7-11.2-9.2-14.5-2.5-3.3-7.9-9.6-12.1-14-4.2-4.4-10.8-10.1-14.8-12.7-3.9-2.7-7.3-5.2-7.6-5.8-0.3-0.6-0.3-1.3 0-1.7 0.3-0.5 2.7-0.2 5.3 0.5 2.6 0.8 10.8 3.6 18.2 6.3 7.4 2.8 20.4 8.3 28.8 12.4 8.3 4.1 15.2 7.6 15.2 7.8 0 0.1-1.7 4.5-3.9 9.7-2.1 5.2-6.7 15.4-10.1 22.5-3.5 7.1-8.7 16.6-11.6 21-2.9 4.4-10.4 13.9-16.7 21-6.2 7.1-15.2 16.6-19.8 21-4.6 4.4-12.9 11.2-18.4 15.1-5.5 3.9-13.8 9.4-18.5 12.2-4.7 2.8-15 8.2-23 12.1-8 3.8-18.6 8.3-23.5 10-4.9 1.7-13.3 3.9-18.5 5-5.2 1.1-14.2 2.7-20 3.6-5.8 0.8-17.9 1.8-27 2.2-10.4 0.4-20.9 0.1-28.5-0.6-6.6-0.7-17.6-2.4-24.5-3.7-6.9-1.4-17.2-4.1-23-6.1-5.8-1.9-15.9-6-22.5-9.1-6.6-3.1-17.2-8.5-23.5-12.1-6.3-3.6-14.4-8.8-18-11.5-3.6-2.7-10.5-8.6-15.4-13-4.9-4.5-13.4-13-18.9-19.1-5.5-6.1-12.7-14.6-16.1-19-3.3-4.4-8.2-11.7-10.8-16.2-2.6-4.6-4.8-8.6-4.8-9 0-0.5 2.1-1.8 4.7-3 2.7-1.2 8-3.5 11.8-5.2 3.8-1.6 14.9-6.6 24.5-11.1 9.6-4.5 20.4-9.2 24-10.5 3.6-1.3 6.6-2.3 6.7-2.2 0.2 0.1-3.6 7.4-8.4 16.2-4.7 8.8-10.6 20.5-13.1 26-2.4 5.5-6.4 15.5-8.8 22.3-2.6 7.2-4 12.4-3.4 12.7 0.5 0.3 6.3-2.2 12.8-5.5 8.5-4.3 15.3-8.8 25.2-16.7 7.7-6.2 16-13.9 19.5-18.1 3.3-4 6.4-7.1 7-6.9 0.6 0.2 0.9 2.6 0.8 5.3-0.1 2.7-1.1 8.7-2.3 13.4-1.2 4.7-3.5 12.6-5.2 17.5-1.6 4.9-4.9 13.3-7.4 18.5-2.4 5.2-4.1 9.8-3.7 10.2 0.5 0.4 3.1-0.6 5.8-2.2 2.8-1.5 8.8-6.2 13.5-10.2 5.1-4.4 10.3-10.2 13.1-14.3 2.6-3.9 6-10.1 10.8-21l7.6 15.5c4.2 8.5 7.8 15.7 8.2 16 0.3 0.3 0.3-6.9-0.1-16-0.4-9.1-1.3-21-2.1-26.5-0.8-5.5-2.5-15.2-3.8-21.5-1.4-6.3-3.9-15.1-5.6-19.5-1.6-4.4-5.2-11.6-7.9-16-2.6-4.4-7-10.8-9.7-14.3-3.2-3.9-8-8.2-13-11.6-4.4-3-10.3-6.4-13-7.6-2.7-1.2-7.7-2.8-11-3.7-4-1.1-10.1-1.6-18-1.6-9.1 0-13.9 0.6-20 2.2-4.4 1.2-11.4 3.7-15.5 5.4-4.1 1.8-11.3 5.5-15.9 8.3-5.1 3-12.5 8.7-18.7 14.7-7.5 6.9-10.6 9.3-11.3 8.5-0.4-0.7-1.8-6-2.9-11.8-1.2-5.8-2.7-14.6-3.3-19.5-0.7-5.6-1-16.6-0.6-29.5 0.4-14.2 1.2-24.2 2.6-32.5 1.2-6.6 3.5-17.2 5.1-23.5 1.6-6.3 4.1-14.9 5.6-19 1.4-4.1 5.1-12.4 8.2-18.5 3-6.1 7.3-13.9 9.5-17.5 2.2-3.6 7.9-11.7 12.6-18 4.7-6.3 12-15.1 16.1-19.4 4.1-4.4 13.5-13.2 20.8-19.8 7.2-6.5 17.8-14.8 23.4-18.5 5.7-3.7 16.6-9.9 24.3-13.8 7.7-3.9 19.6-9 26.5-11.3 6.9-2.3 17.7-5.3 24-6.7 6.3-1.5 16.2-2.9 22-3.3 5.8-0.4 20.8-0.6 33.5-0.5zm-161.3 272.3c1 0 1.6 0.6 1.5 1.2-0.2 0.7-3.5 3.4-7.3 6.1-3.8 2.6-9.5 7.3-12.8 10.5-3.2 3.1-8.6 9.1-12 13.2-3.3 4.1-8.3 11.3-10.9 16-2.7 4.7-5.2 8.8-5.5 9.3-0.4 0.4-2.4-3-4.6-7.5-2.1-4.6-5.2-11.7-6.8-15.8-1.6-4.1-2.7-7.9-2.5-8.5 0.2-0.6 5.8-3.4 12.3-6.4 6.6-3 16-7 20.9-8.9 5-1.9 12.8-4.7 17.5-6.3 4.7-1.5 9.3-2.8 10.3-2.9z"/>
		<path id="Path 5" class="s5" d="m308.3 395.5l0.7 8.5c0.3 4.7 0.2 8.9-0.2 9.5-0.5 0.6-0.7-3.3-0.6-8.5z"/>
		<path id="Path 6" class="s6" d="m257 29.4c8 0 11.4 0.2 7.5 0.3-3.9 0.2-10.4 0.2-14.5 0-4.1-0.1-1-0.3 7-0.3z"/>
		<path id="Path 7" class="s0" d="m254.5 85.1c8.3 0 18.1 0.4 22 0.9 3.9 0.6 11.7 2.2 17.5 3.6 5.8 1.4 16.4 5.1 23.5 8.2 7.1 3.1 16.6 7.8 21 10.5 4.4 2.7 9.8 6.3 12 8 2.2 1.8 7.8 6.4 12.5 10.3 4.7 3.9 13.2 12.6 19 19.4 5.8 6.7 12.9 15.7 15.8 19.9 2.9 4.2 7.8 12.1 10.8 17.6 3 5.5 5.2 10.3 4.7 10.7-0.4 0.5-3.7-3.3-7.3-8.3-3.6-5-12.6-15.3-20-22.8-7.4-7.5-17.9-17-23.2-21.1-5.4-4.1-13.9-10-19-13.1-5.1-3.1-13.8-7.6-19.3-9.9-5.5-2.3-14.5-5.7-20-7.6-5.5-1.8-15.4-4.3-22-5.4-8.4-1.5-16.4-2.1-26.5-2.1-8 0-17.9 0.5-22 1.1-4.1 0.6-10.4 1.7-14 2.6-3.6 0.8-10.1 2.6-14.5 4.1-4.4 1.4-12.9 4.7-19 7.3-6.1 2.6-14.6 6.9-19 9.5-4.4 2.6-13.6 9.1-20.5 14.5-6.9 5.4-17.7 15.1-24 21.6-6.4 6.6-14.2 15.6-17.5 20.2-3.9 5.4-6.3 7.9-7 7.3-0.7-0.7 1.2-4.7 5.4-11.8 3.5-5.9 9.5-14.8 13.2-19.8 3.8-4.9 10.1-12.8 14.2-17.5 4-4.7 10.7-11.3 14.8-14.8 4.1-3.5 9.9-8.3 12.9-10.6 3-2.4 9.1-6.6 13.5-9.3 4.4-2.7 13.8-7.4 21-10.5 7.2-3.1 17.7-6.8 23.5-8.2 5.8-1.4 13.2-3 16.5-3.5 3.3-0.5 12.7-0.9 21-1zm1.1 90.9c0.2 0 2.3 6.5 4.6 14.4 3.5 11.7 4.6 14.2 5.6 13.3 0.7-0.7 1.8-2.8 2.4-4.7 0.6-1.9 1.5-4.4 2.1-5.5 0.9-1.8 1.2-1.4 2.9 3 1.1 2.8 3.5 7.3 5.3 10 1.8 2.8 6.2 7.7 9.7 11 4 3.9 9.3 7.5 14.8 10.2 4.7 2.3 12.6 5.3 17.5 6.5 7.8 2 11.5 2.3 47.5 2.3l-4.3 2.1c-2.3 1.2-7.1 3.8-10.7 5.8-3.6 2.1-8.8 5.4-11.5 7.3-2.8 2-9.1 6.9-14 10.9-4.9 4-10.8 9.5-13.1 12.1-2.2 2.6-6.6 8.4-9.8 12.8-3.1 4.4-6.9 11.1-8.5 15-1.5 3.9-3.6 9.3-4.6 12-1.1 2.8-3.7 6.9-5.9 9.3-2.3 2.4-5.9 5.2-8.1 6.2-3.5 1.7-6.4 1.9-22 1.9-15.3 0-18.6-0.3-22-1.8-2.2-1-5.7-3.6-7.7-5.7-2.7-2.8-5.3-7.5-8.8-16.1-2.7-6.8-7.2-15.6-9.8-19.5-2.7-4-7.6-10.3-10.8-14-3.2-3.7-10-9.9-14.9-13.9-4.9-4-11.5-8.9-14.5-10.9-3-2.1-9.6-5.9-14.5-8.5-4.9-2.6-9.1-4.8-9.2-4.8-0.1-0.1 8-0.2 18-0.2 13.5 0 20.3-0.4 26.2-1.7 4.4-1 10.8-2.9 14.3-4.3 3.4-1.4 9-4.3 12.4-6.4 3.5-2.1 8.9-6.8 12.2-10.2 3.2-3.5 6.6-7.7 7.5-9.4 0.8-1.6 2.5-5.2 5.9-13l2.1 4.8c1.2 2.6 2.1 5 2.1 5.5-0.1 0.4 0.5 1.2 1.2 1.9 1 0.9 2.2-1.6 5.7-13.3 2.4-7.9 4.5-14.4 4.7-14.4z"/>
		<path id="Path 8" class="s7" d="m255.5 84.4c6.6 0 9.5 0.1 6.5 0.3-3 0.2-8.4 0.2-12 0-3.6-0.2-1.1-0.3 5.5-0.3z"/>
		<path id="Path 9" class="s4" d="m243.2 293c0.4 0 0.8 6.1 0.8 13.5 0 7.4-0.3 13.7-0.7 14-0.5 0.2-2.7-1.5-5-3.8-2.3-2.3-4.7-5.6-5.3-7.2-0.7-2.1-0.8-4 0-6.3 0.5-1.7 2.9-4.8 5.2-6.7 2.3-1.9 4.6-3.5 5-3.5zm24.8 0c0.6 0 3 1.9 5.5 4.3 4 3.8 4.4 4.6 4.5 8.9 0 4.3-0.5 5.3-4.5 9.8-2.5 2.7-4.9 4.8-5.5 4.5-0.6-0.3-1-6-1-14 0-8.3 0.4-13.5 1-13.5z"/>
		<path id="Path 10" class="s8" d="m244.4 291.5l0.3 14.5c0.2 10-0.1 14.8-0.8 15.5-0.9 0.7-1 0.5-0.5-0.8 0.3-0.9 0.7-7.9 0.8-15.4zm22.2 5c0.2 2.7 0.5 9.3 0.6 14.7 0.2 5.4-0.1 9.8-0.5 9.8-0.4 0-0.6-6.7-0.5-14.8 0.1-8.1 0.3-12.5 0.4-9.7z"/>
	</g>
</svg>