<svg version="1.2" xmlns="http://www.w3.org/2000/svg" viewBox="0 0 512 512" width="512" height="512">
	<title>0-summoned-svg</title>
	<style>
		.s0 { fill: #cd59f7 } 
		.s1 { opacity: .5;fill: #cd59f7 } 
		.s2 { opacity: .3;fill: #cd59f7 } 
		.s3 { fill: #000000 } 
		.s4 { fill: #9c44bc } 
		.s5 { fill: #431e51 } 
		.s6 { fill: #c154e8 } 
		.s7 { fill: #33163d } 
		.s8 { fill: #ab4ace } 
		.s9 { fill: #622b76 } 
	</style>
	<g id="weight">
		<path id="Path 0" class="s0" d="m260 10.6c14 0 27.8 0.4 30.5 0.8 2.8 0.4 11.8 2.1 20 3.7 8.3 1.7 19.5 4.6 25 6.4 5.5 1.9 14.7 5.5 20.5 8 5.8 2.5 15 7.1 20.5 10.2 5.5 3.1 14.3 8.4 19.5 11.9 5.2 3.4 12.9 8.9 17 12.1 4.1 3.3 12.4 10.7 18.4 16.4 6 5.7 14.5 14.9 18.9 20.4 4.4 5.5 11.6 15.4 16 22 4.3 6.6 11.4 19.2 15.8 28 4.3 8.8 9.4 20.7 11.3 26.5 1.8 5.8 4.5 15.7 6 22 1.4 6.3 3.2 15.6 4.1 20.5 1.2 6.6 1.6 16.3 1.7 36.5 0.1 21.6-0.3 29.7-1.6 38-1 5.8-2.8 15-4.1 20.5-1.3 5.5-4 14.9-6 21-2 6.1-7.6 19.1-12.5 29-4.9 9.9-11.6 22.1-14.9 27-3.3 4.9-9.5 13.3-13.8 18.5-4.3 5.2-11.6 13.5-16.3 18.4-4.7 4.8-12.6 12.3-17.5 16.6-4.9 4.3-14.2 11.5-20.5 16-7.9 5.6-17.5 11.1-30.5 17.5-10.4 5.1-22.4 10.5-26.5 12-4.1 1.4-13.4 4-20.5 5.6-7.1 1.7-19.4 4.1-27.2 5.5-12 2-17.7 2.4-35.3 2.4-17.6 0-23.3-0.4-35.3-2.4-7.8-1.4-19.4-3.6-25.7-5-6.3-1.4-15.1-3.7-19.5-5.1-4.4-1.4-17.4-7.3-29-13-12.5-6.3-24.6-13.1-30-17-5-3.5-13.5-10.2-18.9-14.7-5.4-4.6-15.1-13.7-21.5-20.4-6.4-6.6-14.3-15.6-17.6-20-3.3-4.3-7.1-9.5-8.4-11.4-1.3-1.9-3.8-5.7-5.4-8.5-1.6-2.7-5.2-9.1-7.9-14-2.7-4.9-6.7-13.1-9-18-2.2-4.9-5.4-12.8-7-17.5-1.6-4.7-4.2-13.9-5.9-20.5-1.6-6.6-3.6-15.8-4.5-20.5-1.1-5.7-1.8-16.8-2.1-34-0.5-21.1-0.3-27.3 1.2-36 0.9-5.8 2.8-16.1 4.2-23 1.3-6.9 4.2-17.9 6.4-24.5 2.1-6.6 7.2-18.8 11.2-27 4.1-8.2 9.3-18.2 11.8-22 2.4-3.8 7.5-11.5 11.4-17 3.8-5.5 11.1-14.5 16.1-20 4.9-5.5 14.8-15.1 22-21.4 7.1-6.2 17.8-14.6 23.9-18.6 6-4 15.5-9.8 21-12.8 5.5-3.1 14.3-7.5 19.5-9.8 5.2-2.2 12.9-5.4 17-6.9 4.1-1.5 12.4-4 18.5-5.5 6.1-1.5 17.5-3.7 25.5-4.9 11.9-1.7 19.1-2.1 40-2z"/>
		<path id="Path 1" class="s1" d="m251 10.4c8.5 0 12.1 0.2 8 0.3-4.1 0.2-11.1 0.2-15.5 0-4.4-0.1-1-0.3 7.5-0.3zm254.7 247.1c0.2 2.2 0.2 5.6 0 7.5-0.2 1.9-0.4 0.1-0.4-4 0-4.1 0.2-5.7 0.4-3.5z"/>
		<path id="Path 2" class="s2" d="m505.7 243.5c0.2 2.2 0.2 5.6 0 7.5-0.2 1.9-0.4 0.1-0.4-4 0-4.1 0.2-5.7 0.4-3.5z"/>
		<path id="Path 3" class="s3" d="m265 29.8c12.6 0.1 22.5 0.9 31 2.2 6.9 1.2 17 3.2 22.5 4.7 5.5 1.4 14.1 4.1 19 6 4.9 1.9 14.4 6.1 21 9.5 6.6 3.3 16.3 8.8 21.5 12.1 5.2 3.3 13.6 9.2 18.5 13.2 4.9 4 13.2 11.3 18.4 16.1 5.2 4.9 13.1 13.4 17.6 18.9 4.5 5.5 10.2 12.9 12.7 16.5 2.5 3.6 7.3 11.2 10.6 17 3.3 5.8 7.7 14.3 9.7 19 2.1 4.7 5.3 12.8 7.2 18 1.9 5.2 4.6 14 5.9 19.5 1.4 5.5 3.2 14.9 4.1 21 1 7.2 1.5 18.9 1.5 34 0 16.1-0.5 26.3-1.7 34-0.9 6.1-2.9 15.9-4.5 22-1.6 6.1-4.3 14.8-6 19.5-1.7 4.7-6.6 15.7-11 24.5-4.3 8.8-10.7 20.2-14.2 25.4-3.4 5.2-9.7 13.3-13.8 18-4.1 4.7-12 13.1-17.5 18.6-5.5 5.5-13.1 12.5-17 15.6-3.9 3.1-12.9 9.1-20 13.4-7.1 4.3-18.6 10.5-25.5 13.8-6.9 3.2-14.7 6.8-17.5 7.9-2.7 1.1-9.5 3.3-15 4.9-5.5 1.6-16.1 4.1-23.5 5.5-7.4 1.3-20 2.9-28 3.4-9.3 0.6-19.2 0.6-27.5 0-7.2-0.6-17.1-1.7-22-2.6-4.9-0.8-12.8-2.4-17.5-3.4-4.7-1.1-11.2-2.8-14.5-3.9-3.3-1-8.5-2.8-11.5-4-3-1.3-8.9-3.8-13-5.6-4.1-1.9-12.2-5.9-18-9-5.8-3.2-15.7-9.4-22-13.8-7.8-5.5-16.5-13.2-27.1-23.7-8.6-8.5-19-20-23-25.5-4.1-5.5-9.9-14.1-12.9-19-3-4.9-7.7-13.9-10.6-20-2.9-6.1-6.9-15.7-8.9-21.5-2-5.8-4.7-14.8-6-20-1.3-5.2-2.9-12.2-3.5-15.5-0.6-3.3-1.7-11.9-2.5-19-0.8-7.1-1.5-16.6-1.5-21 0-4.4 0.7-13.8 1.5-21 0.9-7.2 2.5-17.5 3.6-23 1.1-5.5 3.4-15.2 5-21.5 1.7-6.3 4.7-15.3 6.6-20 1.9-4.7 5.1-11.7 7-15.5 2-3.8 5.9-10.8 8.8-15.5 2.9-4.7 8.1-12.3 11.6-17 3.4-4.7 10.3-12.8 15.3-18 4.9-5.2 13.7-13.9 19.5-19.3 5.8-5.4 14.9-12.7 20.1-16.1 5.2-3.5 12.2-7.9 15.5-9.8 3.3-2 11.1-6.1 17.3-9.2 6.1-3.1 17.2-7.6 24.4-10 7.3-2.5 18.9-5.6 25.8-7.1 6.9-1.5 17.7-3 24-3.3 6.3-0.4 19.8-0.6 30-0.4z"/>
		<path id="Path 4" class="s4" d="m255.5 29.3c4.4 0 6.4 0.2 4.5 0.4-1.9 0.2-5.5 0.2-8 0-2.5-0.2-0.9-0.4 3.5-0.4zm231.2 224.2c0.2 2.2 0.2 5.6 0 7.5-0.2 1.9-0.4 0.1-0.4-4 0-4.1 0.2-5.7 0.4-3.5z"/>
		<path id="Path 5" class="s0" d="m264 46.7c4.7 0.3 11.2 1.4 14.5 2.6 3.3 1.1 8.3 3.1 11 4.5 2.8 1.4 7.6 4.6 10.8 7.1 3.3 2.5 7.6 7 9.8 9.8 2.1 2.9 3.9 5.6 3.9 6 0 0.5 0.7 1.5 1.4 2.3 0.8 0.8 2.4 4 3.6 7 1.2 3 2.9 8.4 3.6 12 0.8 3.6 1.4 9.9 1.4 14 0 4.1-0.6 10.4-1.4 14-0.8 3.6-2.6 9-4 12-1.5 3-3.2 6.4-3.9 7.5-0.7 1.2-2.8 4.3-4.8 7-2 2.8-4.8 5.8-6.3 6.7-1.4 1-2.6 2.2-2.6 2.8 0 0.6 10.8 1 60.5 1l33.4 100.3c18.3 55.1 34 102.2 34.9 104.7 0.8 2.5 2.3 6.7 3.2 9.5 0.9 2.7 2.3 6.8 3 9 0.7 2.2 1.4 4.6 1.6 5.2 0.3 1-35.9 1.3-178.6 1.3-142.7 0-178.9-0.3-178.6-1.3 0.2-0.6 0.9-3 1.6-5.2 0.7-2.2 2.1-6.3 3-9 0.9-2.8 2.4-7 3.2-9.5 0.9-2.5 16.6-49.6 68.3-205h30.2c16.7 0 30.3-0.2 30.3-0.5 0-0.3-1.4-1.7-3.2-3.3-1.7-1.5-5-5.4-7.4-8.7-2.3-3.3-5.4-8.7-6.9-12-1.6-3.3-3.4-8.9-4.1-12.5-0.8-3.6-1.4-10.6-1.4-15.5 0.1-5 0.7-11.5 1.4-14.5 0.7-3 2.7-8.4 4.3-12 1.7-3.6 5-9.2 7.5-12.5 2.4-3.3 7.1-8 10.3-10.6 3.3-2.5 7.8-5.5 10-6.8 2.2-1.3 6.7-3.2 10-4.3 3.3-1.2 8.7-2.4 12-2.8 3.3-0.5 9.8-0.6 14.5-0.3z"/>
		<path id="Path 6" class="s5" d="m216.8 161.2c0.1-0.1 0.2 0.3 0.2 0.8 0 0.6-10.6 0.9-60.5 0.5l30-0.5c16.5-0.3 30.1-0.6 30.2-0.8zm114.3 1.2c16.8 0 23.5 0.2 15 0.3-8.5 0.2-22.3 0.2-30.5 0-8.3-0.1-1.3-0.3 15.5-0.3zm-72 231.1c98.7 0 139 0.1 89.5 0.2-49.5 0.2-130.3 0.2-179.5 0-49.2-0.1-8.7-0.2 90-0.2z"/>
		<path id="Path 7" class="s3" d="m260.5 75.4c6 0.2 9.4 1 13.8 3 3.1 1.4 7.9 4.7 10.5 7.3 2.6 2.7 5.9 7 7.2 9.8 2.1 4.4 2.5 6.4 2.5 16.1 0 9.8-0.3 11.6-2.5 16-1.4 2.7-4.6 7-7.3 9.6-2.6 2.7-7.3 6-10.5 7.5-4.9 2.4-7 2.7-15.2 2.8-8.3 0-10.2-0.3-15.3-2.8-3.1-1.5-7.8-4.8-10.5-7.5-2.6-2.6-5.7-6.7-6.9-9.2-1.2-2.5-2.6-7.4-3.1-11-0.6-4.3-0.5-8.7 0.2-13 0.7-4.4 2.3-8.3 4.6-11.9 1.9-3 5.3-6.9 7.5-8.6 2.2-1.8 5.1-3.8 6.5-4.5 1.4-0.8 4.3-1.9 6.5-2.7 2.4-0.8 7.1-1.1 12-0.9zm-66.5 162.6h17v12.5c0 7.7 0.4 12.5 1 12.5 0.6 0 6.7-5.6 26.5-25h20.9l-33.4 33.5 18.5 18.5c10.2 10.2 18.5 18.8 18.5 19.2 0 0.5-4.6 0.8-10.3 0.8-9.7 0.1-10.4-0.1-14.2-2.9-2.2-1.6-8.9-7.9-15-14-6.1-6.1-11.3-11.1-11.8-11.1-0.4 0-0.7 6.3-0.7 28h-17v-36zm94.5 17.1c2.8 0 6.6 0.3 8.5 0.9 1.9 0.5 5 2.3 6.8 4 1.7 1.6 3.4 3 3.7 3 0.3 0 0.5-1.6 0.5-7h16v27.7c0 19.5-0.4 28.9-1.3 31.3-0.6 2-2.3 4.9-3.7 6.6-1.4 1.7-3.6 3.9-5 4.8-1.4 0.9-5 2.3-8 3.1-3 0.8-8.8 1.5-12.8 1.5-3.9 0-10.1-0.6-20.2-2.5v-6.3c0-3.4 0.4-6.2 1-6.2 0.6 0 2.8 0.9 5 2 3 1.5 6 2 12 2 7.7 0 8.1-0.1 11.4-3.3 1.8-1.7 3.9-5 4.5-7.2 0.6-2.2 1.1-4.8 1.1-5.8 0-0.9-0.2-1.7-0.5-1.7-0.3 0-2.4 1.5-4.8 3.3-2.9 2.3-5.7 3.5-9.2 4-2.8 0.3-6.8 0.3-9-0.1-2.2-0.4-5.2-1.5-6.8-2.5-1.5-0.9-4.1-3.6-5.7-6-1.7-2.3-3.5-5.8-4-7.7-0.5-1.9-1-6-1.1-9-0.1-3 0.2-7.8 0.6-10.5 0.4-2.8 2-6.8 3.5-9 1.5-2.2 4-5 5.6-6.1 1.6-1.2 3.8-2.4 4.9-2.7 1.1-0.2 4.2-0.5 7-0.6z"/>
		<path id="Path 8" class="s6" d="m192.7 254.5c0.2 9.9 0.2 26.6 0 37-0.1 10.4-0.2 2.4-0.2-18 0-20.3 0.1-28.9 0.2-19zm133 13c0.2 7.1 0.2 19.1 0 26.5-0.1 7.4-0.3 1.6-0.3-13 0-14.6 0.2-20.6 0.3-13.5z"/>
		<path id="Path 9" class="s5" d="m202.5 237.4c4.9 0 7.2 0.1 5 0.3-2.2 0.2-6.3 0.2-9 0-2.8-0.2-0.9-0.3 4-0.3zm46.5 0c5.8 0 8 0.1 5 0.3-3 0.2-7.8 0.2-10.5 0-2.8-0.2-0.3-0.3 5.5-0.3z"/>
		<path id="Path 10" class="s7" d="m193.7 255.5c0.2 9.9 0.2 26.3 0 36.5-0.1 10.2-0.2 2.1-0.2-18 0-20.1 0.1-28.4 0.2-18.5zm18-12c0.2 3.3 0.2 9.2 0 13-0.2 3.9-0.3 1.1-0.3-6 0-7.2 0.1-10.3 0.3-7zm113 25c0.2 7.1 0.2 18.6 0 25.5-0.1 6.9-0.3 1-0.3-13 0-14 0.2-19.6 0.3-12.5zm-113 20.5c0.2 4.1 0.2 10.6 0 14.5-0.1 3.9-0.3 0.5-0.3-7.5 0-8 0.2-11.1 0.3-7z"/>
		<path id="Path 11" class="s8" d="m212.7 243c0.2 3.6 0.2 9.7 0 13.5-0.2 3.9-0.3 0.9-0.3-6.5 0-7.4 0.1-10.6 0.3-7zm-0.2 39c0.3 0.3 0.5 6.6 0.5 14-0.1 7.4-0.3 13.7-0.6 14-0.2 0.3-0.5-6-0.5-14 0-8 0.3-14.3 0.6-14z"/>
		<path id="Path 12" class="s9" d="m316 255.3c4.7 0 6.5 0.2 4 0.4-2.5 0.2-6.3 0.2-8.5 0-2.2-0.2-0.2-0.4 4.5-0.4z"/>
		<path id="Path 13" class="s0" d="m298.8 267.7c1.9 0.2 3.9 1.2 5 2.6 1 1.2 2.1 4.7 2.5 7.7 0.5 3.1 0.4 7.5-0.2 10-0.6 2.7-2 5.4-3.5 6.8-1.8 1.5-3.9 2.2-6.6 2.2-2.2 0-4.9-0.4-6-1-1.1-0.6-2.9-2.9-4-5.2-1.1-2.4-1.9-6.1-1.9-8.3 0-2.2 0.6-5.4 1.2-7 0.7-1.6 1.8-3.8 2.6-4.8 0.7-1.1 2.7-2.2 4.5-2.6 1.7-0.4 4.6-0.5 6.3-0.4z"/>
	</g>
</svg>