<svg version="1.2" xmlns="http://www.w3.org/2000/svg" viewBox="0 0 512 512" width="512" height="512">
	<title>m-arcane_protection-svg</title>
	<style>
		.s0 { fill: #cd59f7 } 
		.s1 { opacity: .3;fill: #cd59f7 } 
		.s2 { opacity: .7;fill: #cd59f7 } 
		.s3 { opacity: .5;fill: #cd59f7 } 
		.s4 { opacity: .9;fill: #cd59f7 } 
		.s5 { fill: #000000 } 
		.s6 { fill: #a547c6 } 
		.s7 { fill: #2b1233 } 
		.s8 { fill: #9641b5 } 
	</style>
	<g id="temple-door">
		<path id="Path 0" class="s0" d="m282 10.8c7.8 0.2 17.2 1.2 25 2.7 6.9 1.4 15.9 3.3 20 4.3 4.1 1.1 12.2 3.8 18 6.1 5.8 2.4 15.9 6.9 22.5 10.1 6.6 3.2 16.8 8.9 22.7 12.7 6 3.7 14.3 9.5 18.5 12.8 4.3 3.3 14.2 12.3 22.1 20 7.9 7.7 17.6 18 21.7 23 4 5 10.2 13.5 13.8 19 3.5 5.5 8.7 14.1 11.4 19 2.8 4.9 6.4 11.9 8 15.5 1.7 3.6 4.7 11 6.8 16.5 2.1 5.5 5.6 17 11.8 41l0.1 42.5c0.1 41.5 0 42.7-2.2 52-1.3 5.2-3.5 13.6-4.9 18.5-1.4 4.9-3.9 12.4-5.5 16.5-1.7 4.1-6.3 14-10.2 22-4 8-9.9 18.8-13.2 24-3.2 5.2-8.9 13.3-12.7 18-3.7 4.7-12.1 13.9-18.5 20.5-6.5 6.6-16.5 16.1-22.2 21-5.8 5-14.6 11.8-19.5 15.1-4.9 3.4-13.3 8.4-18.5 11.2-5.2 2.8-15.1 7.6-22 10.7-6.9 3.2-17.7 7.2-24 9-6.3 1.8-16 4.2-21.5 5.3-5.5 1.2-12 2.4-14.5 2.8-2.5 0.4-19.8 0.7-38.5 0.7-32.8-0.1-34.4-0.1-47-2.7-7.2-1.5-17.7-4-23.5-5.7-5.8-1.7-16.8-5.9-24.5-9.4-7.7-3.5-18.1-8.5-23-11.1-4.9-2.6-12.4-6.9-16.5-9.7-4.1-2.8-11.6-8.3-16.5-12.3-5-4-14.9-13-22-20.1-7.2-7-16.6-17.1-21-22.3-4.3-5.2-10.5-13.6-13.8-18.5-3.2-4.9-8.9-15.1-12.7-22.5-3.7-7.4-8.6-17.8-10.7-23-2.2-5.2-6.3-18.1-14.4-47.5l-0.1-38c-0.2-35.3 0-38.8 2-49.5 1.2-6.3 2.9-14.2 3.7-17.5 0.9-3.3 2.9-10.3 4.6-15.5 1.7-5.2 6.2-16 10.1-24 3.8-8 9.2-18.3 12.1-23 2.8-4.7 6.7-10.7 8.6-13.5 2-2.7 6-8.2 9-12 3-3.8 11.6-13.2 19-20.9 7.5-7.6 17-16.6 21.1-20 4.1-3.5 11.1-8.8 15.5-11.8 4.4-3.1 12.1-7.9 17-10.8 4.9-2.9 11.9-6.7 15.5-8.5 3.6-1.8 10.8-5.1 16-7.3 5.2-2.3 15.1-5.7 22-7.7 6.9-1.9 16.1-4.3 20.5-5.2 5.7-1.2 15.7-1.8 35-2.2 14.9-0.3 32.6-0.5 39.5-0.3z"/>
		<path id="Path 1" class="s1" d="m248 10.4c11.8 0 16.6 0.2 10.5 0.3-6.1 0.2-15.7 0.2-21.5 0-5.8-0.1-0.8-0.3 11-0.3zm-237.3 265.1c0.2 3.3 0.2 9.1 0 13-0.2 3.8-0.3 1.1-0.3-6 0-7.2 0.1-10.3 0.3-7z"/>
		<path id="Path 2" class="s2" d="m266.5 503.4c9.4 0 13.4 0.2 9 0.3-4.4 0.2-12.1 0.2-17 0-4.9-0.1-1.4-0.3 8-0.3z"/>
		<path id="Path 3" class="s3" d="m10.7 248c0.2 2.5 0.2 6.8 0 9.5-0.2 2.8-0.3 0.7-0.3-4.5 0-5.2 0.1-7.5 0.3-5z"/>
		<path id="Path 4" class="s4" d="m504.7 238.5c0.2 2.8 0.2 6.8 0 9-0.2 2.2-0.3-0.1-0.3-5 0-4.9 0.1-6.8 0.3-4z"/>
		<path id="Path 5" class="s5" d="m262.5 30.6c15.4 0.2 30.5 0.8 33.5 1.3 3.5 0.5-9.8 0.9-37.4 1-23.6 0-42.7-0.1-42.5-0.4 0.2-0.2 4.5-0.9 9.4-1.4 4.9-0.5 21.6-0.8 37-0.5zm-146.3 48.4h284.3l9 8c4.9 4.4 12.1 11.3 15.8 15.3 3.7 3.9 10.7 12.4 15.5 18.7 4.9 6.3 11.2 15.6 14.1 20.5 2.9 4.9 7 12.4 9.1 16.5 2.1 4.1 5.4 11.3 7.3 16 2 4.7 5.1 13.9 7.1 20.5 1.9 6.6 4.2 16.3 5.2 21.5 1.5 7.8 1.8 15.1 1.9 41.5 0 31.6 0 32.2-2.9 45-1.5 7.1-4.4 17.7-6.3 23.5-1.9 5.8-6.2 16.4-9.4 23.5-3.3 7.1-6.6 13.9-7.4 15-0.8 1.1-1.6 1.8-1.8 1.5-0.2-0.3-11.1-59.9-24.1-132.5-13.1-72.6-23.9-133-24.2-134.3-0.4-2.2-0.5-2.2-40.4-2.2v358.5l-12.7 6.2c-7.1 3.5-15.9 7.6-19.8 9.1-3.9 1.6-12.4 4.3-19 6-6.6 1.7-15.1 3.5-19 4.1-3.9 0.6-11.7 1.6-17.5 2.2-5.8 0.6-18.1 1.1-27.5 1.1-12.7-0.1-20.5-0.7-31-2.4-7.7-1.3-12.7-2.4-8-2.9l-0.3-12.7c-0.1-7-0.7-19.9-1.2-28.7-0.5-8.8-1.9-21.6-3.1-28.5-1.2-6.9-3.8-19.5-5.9-28-2.1-8.5-6.6-24.5-10-35.5-3.4-11-6.7-20.6-7.3-21.2-0.9-1-2.2-1-5.2-0.2-2.2 0.6-7.8 1.4-21 2.4l-1 135.3-16-8.3-0.5-356.5h-40l-0.9 4.7c-0.5 2.7-11.2 61.8-23.7 131.6-12.6 69.7-23.2 126.7-23.7 126.7-0.4 0-3-5.3-5.8-11.7-2.8-6.5-6.8-17-8.9-23.3-2.1-6.3-5.1-17.8-6.6-25.5-2.8-13.4-2.9-15.1-2.9-41.5 0-17.7 0.5-30.2 1.3-35 0.7-4.1 2.4-12.7 3.8-19 1.4-6.3 4.1-16.2 6-22 1.8-5.8 6.2-16.3 9.8-23.5 3.5-7.2 9.1-17.1 12.3-22 3.3-4.9 9.3-13.3 13.3-18.5 4-5.2 12.3-14.4 18.4-20.4 6.1-6 13.3-12.7 16-14.8z"/>
		<path id="Path 6" class="s6" d="m142.7 185.5c0.2 49 0.2 129.3 0 178.5-0.1 49.2-0.2 9.2-0.2-89 0-98.2 0.1-138.5 0.2-89.5zm227 0.5c0.2 49.2 0.2 130 0 179.5-0.1 49.5-0.2 9.2-0.2-89.5 0-98.7 0.1-139.2 0.2-90z"/>
		<path id="Path 7" class="s7" d="m160.7 360c0.2 18.4 0.2 49 0 68-0.1 19-0.2 3.9-0.2-33.5 0-37.4 0.1-52.9 0.2-34.5z"/>
		<path id="Path 8" class="s8" d="m257 29.4c6.9 0 9.6 0.1 6 0.3-3.6 0.2-9.2 0.2-12.5 0-3.3-0.2-0.4-0.3 6.5-0.3z"/>
		<path id="Path 9" class="s0" d="m161 97h39.5l-0.7 19.7c-0.4 13.9-1.4 24.6-3.3 35.8-1.4 8.8-2.7 17.7-2.8 19.7-0.1 2 0.2 3.8 0.8 4 0.5 0.2 2.9-4.6 5.2-10.7 2.3-6.1 5.8-16.4 7.8-23 2-6.6 4.7-17.8 6-25 1.4-7.2 2.7-14.7 3.5-20.5h51v2.8c0 1.5-0.7 6.8-1.5 11.7-0.9 5-2.7 13.1-4.1 18-1.4 4.9-5.4 16.2-8.9 25-3.5 8.8-9.4 22.5-13.2 30.5-3.9 8-11.5 23.1-17 33.5-5.5 10.4-10.3 20.1-11.6 24l2.3-2c1.2-1.1 7.3-8.7 13.5-17 6.2-8.2 15.3-21.3 20.2-29 5-7.7 12-19.4 15.6-26 3.7-6.6 8.9-16.9 11.6-23 2.7-6.1 6.3-15.3 8-20.5 1.8-5.2 4-13.5 6.8-27.5l26-0.3c14.3-0.1 26.1 0 26.1 0.3 0.1 0.3-3.8 6.9-8.7 14.8-4.8 7.8-18.8 31.8-31.1 53.2-12.2 21.4-26.1 45.1-30.8 52.5-4.7 7.4-12.9 19.3-18.2 26.5-5.3 7.2-13.4 17.1-17.9 22-4.5 4.9-11.5 11.8-15.4 15.3-4 3.5-11.3 9-16.2 12.4-4.9 3.3-11 7.1-13.5 8.3-2.5 1.3-7.2 3-10.5 3.8-3.3 0.9-7.6 1.6-9.5 1.7-1.9 0.1-4.7 0.2-9 0v-105.5z"/>
		<path id="Path 10" class="s7" d="m160.7 150c0.2 29.4 0.2 77.1 0 106-0.1 28.9-0.2 4.8-0.2-53.5 0-58.3 0.1-81.9 0.2-52.5z"/>
	</g>
</svg>