<svg version="1.2" xmlns="http://www.w3.org/2000/svg" viewBox="0 0 512 512" width="512" height="512">
	<title>m-sloth-svg</title>
	<style>
		.s0 { fill: #cd59f7 } 
		.s1 { opacity: .1;fill: #cd59f7 } 
		.s2 { opacity: .5;fill: #cd59f7 } 
		.s3 { fill: #000000 } 
		.s4 { fill: #9340b1 } 
		.s5 { fill: #31153a } 
	</style>
	<g id="star-swirl">
		<path id="Path 0" class="s0" d="m292.5 10.9l18 3.7c9.9 2 21.6 4.9 26 6.4 4.4 1.6 13.6 5.4 20.5 8.5 6.9 3.1 16.6 7.9 21.5 10.7 4.9 2.8 13.3 7.9 18.5 11.4 5.2 3.4 14.4 10.5 20.5 15.7 6.1 5.1 15.8 14.4 21.8 20.5 5.9 6.2 14.2 15.9 18.4 21.6 4.3 5.7 10.7 15.3 14.2 21.3 3.6 5.9 9.3 16.6 12.7 23.8 3.4 7.2 7.8 17.9 9.7 24 2 6.1 4.3 13.9 5.1 17.5 0.9 3.6 2.5 10.8 3.6 16 1.7 8.4 2 13.4 2 43.5 0 26.2-0.3 36.1-1.5 43-0.9 4.9-3.1 15-5 22.2-1.9 7.3-4.9 17-6.7 21.5-1.7 4.6-7 15.9-11.7 25.3-4.8 9.4-10.9 20.4-13.7 24.5-2.8 4.1-8 11.1-11.5 15.5-3.5 4.4-11.5 13.4-17.9 20-6.3 6.5-14.6 14.7-18.5 18-3.9 3.4-10.8 9-15.5 12.4-4.7 3.5-12.3 8.6-17 11.3-4.7 2.8-13.8 7.7-20.3 10.9-6.4 3.3-15.1 7.3-19.2 8.9-4.1 1.6-12.3 4.3-18.3 5.9-5.9 1.6-15.2 3.8-20.7 4.9-5.5 1.2-13.6 2.6-18 3.2-5.2 0.8-17.9 1-36.5 0.7-28.3-0.4-28.6-0.4-46-4.1-9.6-2.1-22.2-5.3-28-7.2-5.8-1.9-18.6-7.5-28.5-12.4-9.9-4.8-22.7-12-28.5-15.8-5.8-3.8-15.5-11.2-21.5-16.4-6-5.2-16.6-15.3-23.6-22.4-6.9-7.1-16-17.6-20.3-23.4-4.3-5.8-9.5-13.4-11.6-17-2-3.6-6.2-11.2-9.3-17-3-5.8-7.5-15.7-10-22-2.5-6.3-5.8-15.6-7.2-20.5-1.4-4.9-3.8-13.9-5.2-20-2.6-10.5-2.7-12.4-3.4-77l3.1-16c1.7-8.8 4.2-20.1 5.6-25 1.4-4.9 4.1-13.3 6.1-18.5 2-5.2 6.4-14.9 9.8-21.5 3.4-6.6 9-16.5 12.5-22 3.4-5.5 9.2-13.8 12.8-18.5 3.6-4.7 13.6-15.5 22.1-24 8.6-8.6 19.3-18.5 23.9-22 4.6-3.6 13.1-9.5 19-13.3 5.9-3.7 17-10 24.7-13.9 7.7-3.9 18.3-8.6 23.5-10.5 5.2-1.9 14.7-4.7 21-6.3 6.3-1.6 16-3.5 21.5-4.4 5.5-0.9 11.3-1.7 13-1.8 1.7-0.2 16.7-0.2 64 0.1z"/>
		<path id="Path 1" class="s1" d="m505.7 245.5c0.2 4.9 0.2 13.5 0 19-0.1 5.5-0.3 1.4-0.3-9 0-10.4 0.2-14.9 0.3-10z"/>
		<path id="Path 2" class="s2" d="m260 10.4c8.5 0 12.1 0.2 8 0.3-4.1 0.2-11.1 0.2-15.5 0-4.4-0.1-1-0.3 7.5-0.3z"/>
		<path id="Path 3" class="s3" d="m260.5 30.4c19.7 0.2 30 0.8 38 2 6.1 1 16.2 3.4 22.5 5.3 6.3 1.9 16 5.2 21.5 7.5 5.5 2.2 15.4 6.9 22 10.5 6.6 3.6 15.1 8.6 19 11.1 3.9 2.5 9.5 6.6 18.3 13.7l-2 4.5c-1.1 2.5-2.8 6.9-3.9 9.8-1.3 3.6-2.7 5.5-4.4 6.2-1.4 0.5-7.3 1.4-13.3 2-5.9 0.5-13.3 1.3-16.6 1.7-3.2 0.5-6.2 1.4-6.7 2.1-0.7 0.9 2 2.9 9.6 7.5 5.8 3.4 11.7 6.8 13.2 7.6 1.6 0.8 4.5 2.7 6.6 4.2 3.1 2.4 3.7 3.5 3.7 6.7 0 2-0.3 4-0.7 4.4-0.4 0.4-3.5-0.7-6.8-2.4-3.3-1.7-9.6-4.6-14-6.4-4.4-1.9-8.4-3.4-9-3.4-0.6 0-4.6-1.3-9-2.9-4.4-1.6-12.9-4.1-19-5.5-6.1-1.4-17.3-3.5-25-4.8-12.5-2-18-2.3-50.5-2.4-20.1-0.1-39.3-0.5-49-1.4l-7.7-12.5c-4.3-6.9-8.3-13.6-9-14.8-0.6-1.2-1.8-2.9-2.7-3.7-1.6-1.4-1.7-0.2-1.6 31.5l-17.7 5.9c-9.8 3.3-18.4 6.4-19 7-0.9 0.8 3.9 1.6 17.5 2.9 10.3 1 20 2 21.7 2.2 2.9 0.4 3.1 0.9 5.2 9.2 1.3 4.9 2.6 10.5 3 12.7 0.5 2.1 1.1 4 1.6 4.2 0.4 0.2 3.1-4.7 6-10.8 2.9-6.2 6.1-13 7-15 1.1-2.4 2.5-4 4-4.2 1.2-0.3 4.5-0.7 7.2-1 2.8-0.2 9.1-0.1 14 0.4 4.9 0.4 14.2 2 20.5 3.5 6.3 1.4 17.1 4.4 24 6.5 6.9 2.1 15.4 4.9 19 6.3 3.6 1.4 11.6 5.1 17.9 8.3 6.2 3.3 12.5 6.5 14 7.3 1.4 0.8 6.2 4 10.6 7.2 4.4 3.1 11.2 8.6 15.2 12 3.9 3.5 9.8 9.6 13 13.4 3.2 3.9 6.4 7.9 7 9 0.7 1.1 2.6 4.3 4.3 7 1.6 2.8 3.9 7.5 5.1 10.5 1.1 3 2.8 8.2 3.6 11.5 1 4 1.4 8.7 1.1 14-0.4 6.2-1.3 9.8-3.9 16-2.8 6.5-4.7 9.2-10.4 14.8-3.9 3.8-9.9 8.5-13.5 10.4-3.6 1.9-10.1 4.9-14.5 6.5-4.4 1.6-11.1 3.5-15 4.3-3.9 0.8-11.6 2.1-17.2 3-5.7 0.8-13.2 1.5-23.3 1.5l0.5-4.7c0.4-2.7 1.3-9.7 3.6-26.8l12-14.5c6.7-8 13.7-16.2 19.4-21.9l-20-9.6c-11-5.3-21-10.2-22.3-10.8-1.2-0.7-2.2-1.4-2.2-1.7 0-0.3-3.1-5.4-7-11.5-3.8-6.1-8.8-14.2-11.1-18-2.3-3.8-4.8-7.8-5.5-8.7-1.3-1.6-2.4-0.8-12.8 10-6.2 6.4-13.6 14-16.2 16.8-2.7 2.8-5.6 5.4-6.4 5.7-0.8 0.3-11.8-0.1-24.5-0.9-18.5-1.2-26-1.3-38.5-0.4-8.5 0.6-18.2 1.6-21.5 2.1-3.3 0.6-9.8 1.9-14.5 3-4.7 1.1-12.1 3.4-16.5 5.1-4.4 1.7-10.2 4.2-13 5.6-2.7 1.4-7.7 4.4-11 6.7-3.3 2.3-8.9 7.4-12.5 11.3-3.6 3.8-7.7 9.4-9.2 12.4-1.5 2.9-3.7 8.9-4.9 13.3-1.5 6-1.9 9.7-1.5 15 0.3 3.9 1.6 10.6 2.9 15 1.4 4.4 4.1 11.1 6.1 15 2 3.9 5.8 9.9 8.5 13.5 2.7 3.6 7.3 9 10.3 12 2.9 3 7.7 7.5 10.6 10 2.9 2.5 7.6 6.1 10.4 8 2.7 1.9 5.7 4 6.6 4.5 1 0.6 3.8 2.3 6.5 3.8 2.6 1.5 4.7 3 4.7 3.4-0.1 0.5-1.7 2.6-3.7 4.8-2 2.2-4.2 4.3-5 4.7-0.7 0.5-3.9-0.1-7-1.1-3.2-1-9.8-3.1-14.8-4.6-4.9-1.5-10.3-3.1-12-3.6-1.6-0.5-3.1-0.9-3.2-0.9-0.2 0-0.3 0.4-0.3 1 0 0.6 4.2 6.1 9.4 12.2 5.2 6.2 10.8 12.9 12.5 14.8 1.6 1.9 3 3.9 3.1 4.5 0 0.6-0.8 3.2-1.9 6-1.1 2.7-3 7.8-4.3 11.3-1.3 3.4-2.6 6.1-2.9 6-0.3-0.2-3.4-3.4-6.9-7.3-3.5-3.9-9.3-11.1-13-16-3.7-4.9-9.5-13.9-12.9-20-3.3-6.1-8.3-15.9-11-22-2.7-6.1-6.3-15.3-8.1-20.5-1.7-5.2-4.2-14-5.5-19.5-1.3-5.5-3.1-15.1-3.9-21.3-1-6.5-1.6-18.2-1.6-28.2 0-9.6 0.7-22.1 1.5-28.8 0.9-6.4 2.7-16.6 4-22.7 1.3-6.1 3.6-15.1 5-20 1.4-4.9 4.8-14.2 7.6-20.5 2.7-6.3 7.9-16.4 11.6-22.5 3.6-6.1 8-12.8 9.8-15 3.1-4 3.2-4 3.7-1.5 0.5 2-0.5 3.7-4.5 8.5-2.8 3.3-5.9 6.8-6.9 7.7-1 1-1.6 2.6-1.3 3.5 0.5 1.5 1.3 1.7 5.3 1.1 2.6-0.4 7.2-1 15.7-1.9l6.5 9.1c3.6 5 6.8 9 7.3 9 0.4 0 0.7-5.4 0.7-24l20.5-14.5-5.5-0.7c-3-0.3-8.5-0.6-12.2-0.7-3.8-0.1-8.3-0.8-10-1.6-1.8-0.8-4.6-2.8-9.3-7.4l4.1-4.8c2.3-2.6 10-10.4 17-17.3 7.1-6.9 15.6-14.6 18.9-17.1 3.3-2.5 9.6-7 14-9.9 4.4-3 14.8-8.9 23-13 9.3-4.7 20.4-9.4 29-12.2 7.7-2.5 18.3-5.5 23.5-6.7 5.2-1.2 12.9-2.5 17-3 4.1-0.5 19.7-0.8 34.5-0.7zm163.7 71.3c2.4 2.3 4.1 4.5 3.8 4.8-0.3 0.3-1.8 0-3.5-0.6-1.6-0.6-3.3-1.6-3.7-2.2-0.4-0.7-0.8-2.3-0.8-3.7 0-2.4 0.2-2.3 4.2 1.7zm17.6 21.4c0.6-0.1 4.4 4.7 8.3 10.6 3.8 6 10.1 17.1 13.9 24.8 3.8 7.7 8.5 18.7 10.5 24.5 2 5.8 5 16.3 6.6 23.5 2 8.7 3.4 18.1 4.1 28.5 0.5 8.5 0.7 23.6 0.4 33.5-0.4 9.9-1.1 20.9-1.7 24.5-0.5 3.6-1.9 10.6-3 15.5-1.1 4.9-3.7 13.9-5.6 20-2 6.2-7.6 18.8-12.7 29-5 9.9-10.7 20.3-16.1 28.3l-12 0.6c-6.6 0.3-14.7 0.6-18 0.6-4.8 0.1-6.4-0.4-8-2-1.1-1.1-2.4-2.1-3-2.1-0.5 0.1-1.9-0.8-3-1.8-1.1-1.1-5.8-4.7-10.5-8.1-4.7-3.4-10.9-7.8-13.8-9.8-2.9-2-5.4-3.5-5.7-3.2-0.2 0.3 0.2 2.7 1 5.5 0.7 2.7 2.5 9.1 3.8 14 1.4 4.9 3.2 11.5 4.1 14.5 0.9 3 1.6 6.4 1.6 7.5 0 1.1-1.9 4.5-4.2 7.5-2.3 3-4.5 5.7-4.8 6-0.4 0.3-3.9 4.9-7.8 10.2-4 5.4-7.2 10-7.2 10.3 0 0.3 0.9 0.5 2 0.5 1.1 0 5.9-1.1 10.8-2.5 4.8-1.3 13-3.5 27.7-7.4l2.2 2.7c1.6 2.1 1.9 3 1 4.1-0.7 0.7-5.2 4.2-10.2 7.6-4.9 3.4-12.1 8-16 10.2-3.9 2.3-12.6 6.9-19.5 10.3-6.9 3.5-16.3 7.8-21 9.6-4.7 1.8-11.9 4.1-16 5.2-4.1 1.1-12.7 2.9-19 4.1-6.3 1.1-16.4 2.5-22.5 3.1-6 0.5-17.5 1-25.5 1-9.3 0-19-0.7-27-2-6.9-1-16.5-2.8-21.5-4-4.9-1.1-11.2-2.8-14-3.6-2.7-0.9-8.4-2.9-12.5-4.6-4.1-1.6-13.8-6.1-21.5-9.8-7.7-3.8-19.3-10.4-25.7-14.7-6.5-4.3-16.5-12.1-32.9-26.8l5-4.5c2.8-2.5 6.3-5.6 7.8-6.9 1.6-1.4 4.3-3.8 9.3-8.1l6.8 2.6c3.7 1.5 9.9 3.9 13.7 5.4 3.9 1.6 9 3.5 11.5 4.4 2.5 0.9 4.8 1.3 5.2 0.9 0.4-0.4-4.2-8-10.2-16.8-6.1-8.8-11.3-16.7-11.7-17.5-0.3-0.8 0.3-4 3.2-12.8l3.5 1.3c1.9 0.7 5.5 2.2 8 3.4 2.5 1.2 5 2.1 5.5 2.1 0.6 0 4.6 1.3 9 2.9 4.4 1.6 12.5 4.1 18 5.4 5.5 1.4 13.4 3.3 17.5 4.1 4.1 0.9 10.9 2 15 2.6 4.1 0.5 14.1 1.7 22.3 2.5 8.4 0.9 24.2 1.5 37 1.5 12.6 0 28.2-0.7 36.2-1.5 7.7-0.8 16-1.5 18.6-1.5 2.5 0 4.9-0.4 5.5-0.9 0.5-0.5 2-1.1 3.4-1.4 1.4-0.2-8.5-0.5-22-0.6-18.3 0-28.1-0.6-39-2.1-8-1.1-17.2-2.4-20.5-2.9-3.3-0.5-10.5-2.1-16-3.5-5.5-1.5-13.4-3.8-17.5-5.3-4.1-1.4-10.2-3.6-13.5-5-3.3-1.3-9.8-4.3-14.5-6.6-4.7-2.3-13.4-7.5-19.5-11.5-6-4-14.3-10.6-18.3-14.5-4.1-4-9.3-9.7-11.7-12.7-2.3-3-5.7-7.9-7.4-10.8-1.7-2.8-4.3-8.9-5.8-13.5-2.2-6.6-2.7-10.1-2.7-17.7-0.1-7.2 0.5-11.2 2.2-16.5 1.3-3.9 3.6-9 5.1-11.5 1.6-2.5 5.2-7.1 8.2-10.3 3-3.2 8.7-8.1 12.7-10.8 3.9-2.7 10.4-6.5 14.2-8.4 3.9-1.9 7.8-3.3 8.8-3 0.9 0.3 3.2 3.6 5 7.3 1.8 3.7 5.3 10.3 7.8 14.7 2.4 4.4 4.9 9 5.4 10.3 0.7 1.4 0.7 9.1 0 21.9-0.5 10.9-1.2 21.6-1.6 23.8-0.4 2.6-0.3 4.3 0.5 4.8 0.6 0.4 5.5-0.2 10.9-1.2 5.3-1.1 15.6-3 35.7-6.5l6 2.3c3.3 1.3 8.9 3.6 12.5 5.1 3.6 1.6 9.1 4 12.3 5.4 3.1 1.4 6 2.6 6.5 2.6 0.4 0 3.4 1.1 6.7 2.4 3.3 1.3 9.8 3.5 14.5 4.9 4.7 1.4 14.1 3.8 21 5.4 11.6 2.6 14 2.8 34 2.8 20.6 0 21.9-0.1 31.5-2.8 5.5-1.6 12.7-4.1 16-5.5 3.3-1.5 9.1-4.7 13-7.1 3.9-2.4 9.9-7.4 13.5-11 3.6-3.6 8.4-9.4 10.8-12.8 2.3-3.5 4.2-6.6 4.2-7 0-0.5 0.9-2.6 2-4.8 1.1-2.2 3-7.6 4.2-12 1.8-6.5 2.2-10.5 2.2-21.5 0-10.3-0.5-15.4-2.1-21.5-1.1-4.4-3.8-12.1-5.9-17-2.1-4.9-6.9-13.5-10.6-19-3.7-5.5-10-13.2-14-17-4-3.9-9.4-8.9-16.8-15.5l3.8-6c2-3.4 4.4-7.3 5.3-8.8 1-1.7 3.6-3.5 7-4.8 3-1.2 8.3-3.3 11.9-4.7 3.6-1.4 7.1-2.6 7.8-2.6z"/>
		<path id="Path 4" class="s4" d="m256.5 29.4c7.7 0 10.6 0.2 6.5 0.3-4.1 0.2-10.4 0.2-14 0-3.6-0.2-0.2-0.3 7.5-0.3zm-1.5 80c6.3 0 8.8 0.1 5.5 0.3-3.3 0.2-8.5 0.2-11.5 0-3-0.2-0.3-0.3 6-0.3z"/>
		<path id="Path 5" class="s5" d="m175.5 197.4c4.9 0 7.2 0.1 5 0.3-2.2 0.2-6.3 0.2-9 0-2.8-0.2-0.9-0.3 4-0.3z"/>
	</g>
</svg>