<svg version="1.2" xmlns="http://www.w3.org/2000/svg" viewBox="0 0 512 512" width="512" height="512">
	<title>m-arcane_protection-svg</title>
	<style>
		.s0 { fill: #cd59f7 } 
		.s1 { opacity: .1;fill: #cd59f7 } 
		.s2 { opacity: .9;fill: #cd59f7 } 
		.s3 { opacity: .4;fill: #cd59f7 } 
		.s4 { opacity: .7;fill: #cd59f7 } 
		.s5 { fill: #000000 } 
		.s6 { fill: #4b215a } 
		.s7 { fill: #692e7f } 
		.s8 { fill: #9842b7 } 
	</style>
	<g id="octogonal-eye">
		<path id="Path 0" class="s0" d="m257.5 11.1c35.5-0.1 37.5 0 49.5 2.4 6.9 1.3 15.9 3.3 20 4.3 4.1 1.1 12.2 3.8 18 6.1 5.8 2.3 15.8 6.9 22.3 10.2 6.4 3.2 15.9 8.5 20.9 11.6 5.1 3.1 10.9 6.8 12.8 8.2 1.9 1.4 7.8 6 13 10.2 5.2 4.2 15.2 13.5 22.1 20.5 6.9 7.1 15 16.1 18.1 19.9 3 3.8 8.4 11.3 11.8 16.5 3.5 5.2 9.2 14.7 12.6 21 3.4 6.3 8 15.8 10.2 21 2.2 5.2 5.1 13.1 6.5 17.5 1.5 4.4 4.1 13.8 9 34l0.2 84-2.7 11c-1.5 6.1-4.1 15.6-5.8 21.3-1.6 5.6-5.3 15.3-8.1 21.5-2.8 6.1-8.4 17.3-12.5 24.7-4.1 7.4-11.1 18.4-15.6 24.5-4.6 6.1-13.9 16.8-20.8 23.9-6.9 7.1-17.7 17.4-24 22.9-6.3 5.5-15.6 12.7-20.5 15.9-4.9 3.3-13.5 8.4-19 11.3-5.5 2.9-14.9 7.6-21 10.4-6.1 2.7-16.4 6.6-23 8.5-6.6 1.9-15.6 4.2-20 5.1-4.4 0.9-11.6 2.2-16 2.8-5.1 0.8-19.8 1.2-40.5 1.1-30.6-0.1-33.2-0.3-45-2.7-6.9-1.4-16.8-3.7-22-5.2-5.2-1.5-13.3-4.2-18-6.2-4.7-1.9-15.3-6.8-23.5-11-8.3-4.1-18.6-9.8-23-12.7-4.4-2.9-11.8-8.3-16.5-12.1-4.7-3.7-15.2-13.3-23.3-21.4-8.2-8-18.5-19.1-23-24.6-4.4-5.5-10.4-13.6-13.3-18-2.8-4.4-8-13.6-11.4-20.5-3.5-6.9-8-16.6-10.2-21.5-2.1-4.9-6.4-18-14.8-49l-0.1-38c-0.1-34.6 0.1-39 2-49.5 1.1-6.3 2.8-14.2 3.6-17.5 0.8-3.3 3-10.5 4.7-16 1.8-5.5 6.9-17.4 11.4-26.5 4.6-9.1 10.8-20.6 13.9-25.5 3.2-4.9 9.4-13.7 13.9-19.4 4.4-5.7 15.1-17.2 23.6-25.5 8.5-8.3 19.1-17.9 23.5-21.2 4.4-3.3 11.2-8.1 15-10.6 3.8-2.5 12.4-7.6 19-11.2 6.6-3.6 16.7-8.6 22.5-11.1 5.8-2.4 16.1-6 23-8 6.9-2 17.2-4.4 23-5.5 9-1.6 16-1.9 47.5-1.9z"/>
		<path id="Path 1" class="s1" d="m250.5 10.4c13.2 0 18.8 0.2 12.5 0.3-6.3 0.2-17.1 0.2-24 0-6.9-0.1-1.7-0.3 11.5-0.3z"/>
		<path id="Path 2" class="s2" d="m504.7 239c0.2 2.5 0.2 6.8 0 9.5-0.2 2.8-0.3 0.7-0.3-4.5 0-5.2 0.1-7.5 0.3-5z"/>
		<path id="Path 3" class="s3" d="m10.7 251c0.2 8.5 0.2 22 0 30-0.1 8-0.3 1-0.3-15.5 0-16.5 0.2-23 0.3-14.5z"/>
		<path id="Path 4" class="s4" d="m266.5 503.4c8.8 0 12.6 0.2 8.5 0.3-4.1 0.2-11.3 0.2-16 0-4.7-0.1-1.3-0.3 7.5-0.3z"/>
		<path id="Path 5" class="s5" d="m245.8 29.2c1.7-0.1 3.2 0.1 3.2 0.6 0 0.4-11.8 12.6-26.3 27.1-14.4 14.5-25.3 26-24.2 25.7 1.1-0.4 6.3-1.8 11.5-3.1 5.2-1.3 12.6-3 16.5-3.7 4.4-0.8 15.3-1.3 29.5-1.3 14.2 0 25.3 0.5 30 1.3 4.1 0.8 11.6 2.4 16.5 3.7 4.9 1.3 9.9 2.7 11 3.1 1.1 0.3-9.9-11.3-24.5-25.9-14.6-14.7-26.3-26.9-26-27.2 0.3-0.3 8.4-0.1 18 0.5 9.6 0.6 22 2 27.5 3.1 5.5 1.2 15.2 3.9 21.5 6.1 6.3 2.2 16 6.2 21.5 8.7 5.5 2.6 14.5 7.4 20 10.6 5.5 3.2 13.6 8.4 18 11.6 4.4 3.1 12 9.2 25.9 21.4l-76.8 1 9.5 5.4c5.2 2.9 12.8 7.9 16.9 10.9 4.1 3 11.1 8.7 15.4 12.6 4.4 3.9 11.5 11.2 15.8 16.1 4.3 4.9 10.3 12.6 13.3 17 2.9 4.4 7.4 11.8 14.5 25l-0.1-79 2.7 2.5c1.4 1.4 6.1 6.8 10.3 12 4.2 5.2 10.6 14 14.3 19.5 3.6 5.5 8.6 13.8 11.2 18.5 2.5 4.7 6.6 13.4 9.1 19.5 2.6 6.1 6 15.5 7.6 21 1.6 5.5 3.8 14.5 4.9 20 1 5.5 2.2 16.4 2.7 24.3 0.5 9.3 0.5 14.2-0.2 14.2-0.6 0-12.8-11.8-27.3-26.3-14.4-14.4-26.2-25.6-26.2-24.9 0 0.6 1.1 5.4 2.5 10.4 1.3 5.1 3.2 13.8 4.1 19.3 1.2 6.9 1.8 15.7 1.8 28.5 0 12.8-0.6 21.6-1.8 28.5-0.9 5.5-2.8 14.2-4.1 19.2-1.4 5.1-2.5 9.9-2.5 10.5 0 0.7 11.9-10.5 26.4-25 14.5-14.4 26.8-26.2 27.2-26.2 0.5 0 0.5 5.6 0.1 12.7-0.5 7.1-1.9 18-3.3 24.3-1.3 6.3-4.3 17.1-6.6 24-2.3 6.9-7.9 19.9-12.4 29-4.5 9.1-10.9 20.4-14.1 25.2-3.2 4.8-10.3 14-25.8 32.2l-0.5-74.9-4.6 8.5c-2.5 4.7-7.2 12.3-10.4 17-3.3 4.7-9.4 12.4-13.7 17.2-4.3 4.8-11.2 11.8-15.3 15.5-4.1 3.6-10.6 9-14.5 11.8-3.9 2.9-11.7 8-28 17.5l74 0.5-8 6.4c-4.4 3.5-13 9.7-19 13.7-6.1 3.9-16.6 10.1-23.5 13.7-6.9 3.6-17 8.3-22.5 10.6-5.5 2.2-14.3 5.1-19.5 6.5-5.2 1.4-13.6 3.2-18.5 4-5 0.8-14.4 2-21 2.6-6.6 0.6-12.2 0.8-12.5 0.5-0.3-0.3 10.4-11.6 23.8-25 13.4-13.5 24.2-24.5 24-24.5-0.2 0-2.3 0.7-4.8 1.5-2.5 0.9-8.6 2.5-13.5 3.5-5 1.1-12.8 2.4-17.5 3-4.7 0.5-15 1-23 1-8 0-18.6-0.5-23.5-1.1-5-0.6-14-2.4-20-3.9-6.1-1.6-12.1-3.2-13.5-3.6-1.6-0.4 5.9 7.8 21.7 23.7 13.4 13.4 24.3 24.7 24.3 25.2 0 0.4-1.4 0.7-3 0.7-1.7 0-8.5-0.7-15.3-1.6-6.7-0.9-18.1-3.1-25.2-4.9-7.2-1.8-17.7-5.2-23.5-7.5-5.8-2.2-17-7.5-25-11.7-8-4.2-18.3-10.2-23-13.3-4.7-3.1-11.9-8.9-23.5-19.9l69-0.1-8.5-4.8c-4.7-2.6-10.8-6.3-13.5-8.2-2.8-1.8-7.9-5.7-11.5-8.5-3.6-2.9-9.4-7.8-12.9-11.1-3.5-3.2-9.8-10-13.9-14.9-4.2-4.9-10.2-13.1-13.5-18-3.2-4.9-7.3-11.7-12.2-21l-1 69.6-7.5-8.6c-4.1-4.7-10.3-12.7-13.8-17.8-3.5-5.1-9.6-15.7-13.6-23.7-4-8-9-18.8-11.1-24-2-5.2-5-14.4-6.6-20.5-1.6-6.1-3.8-16.3-4.9-22.7-1.1-6.5-2-13.9-2-16.5 0-2.7 0.3-5.2 0.7-5.6 0.4-0.4 12.2 10.6 26.2 24.5 13.9 13.9 25 24.4 24.7 23.3-0.4-1.1-1.8-5.6-3.1-10-1.2-4.4-3.1-12.9-4.1-19-1.3-7.9-1.9-16.2-1.9-29.5 0-12.9 0.6-21.7 1.8-29 0.9-5.8 2.8-14.6 4.2-19.5 1.4-4.9 2.5-9.4 2.5-10 0-0.6-11.1 10.1-24.7 23.7-13.7 13.7-25.3 24.8-25.8 24.8-0.7 0-0.7-3.7-0.2-10.7 0.5-6 1.7-15.7 2.8-21.8 1.1-6.1 2.9-14.6 4-19 1.1-4.4 3.1-11.6 4.6-16 1.4-4.4 5.6-14.3 9.3-22 3.8-7.7 9.4-17.8 12.6-22.5 3.1-4.7 9.2-13 13.5-18.5 4.3-5.5 8.9-11.1 13-15l-0.1 75 4.8-8.5c2.6-4.7 6.8-11.4 9.2-15 2.4-3.6 7.6-10.3 11.6-15 3.9-4.7 10.5-11.8 14.7-15.7 4.3-4 12.1-10.6 17.5-14.5 5.3-4 13.8-9.5 27.7-17.3l-74-1 12-10.3c6.6-5.7 16.1-13 21-16.3 4.9-3.3 16-9.5 24.5-13.8 8.5-4.2 21.1-9.6 28-11.8 6.9-2.3 17-5.1 22.5-6.3 5.5-1.2 15.4-2.5 22-2.9 6.6-0.5 13.5-0.9 15.2-0.9z"/>
		<path id="Path 6" class="s6" d="m423.7 120c0.2 10.7 0.2 28.5 0 39.5-0.1 11-0.2 2.2-0.2-19.5 0-21.7 0.1-30.7 0.2-20zm0 237c0.2 10.2 0.2 27.1 0 37.5-0.1 10.4-0.2 2.1-0.2-18.5 0-20.6 0.1-29.2 0.2-19z"/>
		<path id="Path 7" class="s7" d="m89.7 122c0.2 10.2 0.2 27.1 0 37.5-0.1 10.4-0.2 2.1-0.2-18.5 0-20.6 0.1-29.2 0.2-19zm0 234.5c0.2 9.4 0.2 25.1 0 35-0.1 9.9-0.2 2.3-0.2-17-0.1-19.3 0.1-27.4 0.2-18zm50.8 69c19.3 0 26.9 0.1 17 0.2-9.9 0.2-25.7 0.2-35 0-9.3-0.1-1.3-0.3 18-0.2zm234 0c20.4 0 28.9 0.1 19 0.2-9.9 0.2-26.6 0.2-37 0-10.4-0.1-2.4-0.2 18-0.2z"/>
		<path id="Path 8" class="s8" d="m137.5 92.5c20.3 0 28.9 0.1 19 0.2-9.9 0.2-26.6 0.2-37 0-10.5-0.1-2.3-0.2 18-0.2zm239.5 0c21.2 0 29.7 0.1 19 0.2-10.7 0.2-28.1 0.2-38.5 0-10.4-0.1-1.7-0.2 19.5-0.2z"/>
		<path id="Path 9" class="s0" d="m260.5 96.5c11.1 0.3 19.4 1 27 2.5 6.1 1.2 15.5 3.8 21 5.7 5.5 1.9 14.5 5.7 20 8.5 5.5 2.8 13.4 7.3 17.5 10.1 4.1 2.7 11.3 8.2 15.9 12.1 4.7 3.9 11.8 10.9 15.9 15.6 4.1 4.7 10.5 13 14.1 18.5 3.7 5.5 8.5 13.8 10.8 18.5 2.3 4.7 5.7 13.2 7.7 19 1.9 5.8 4.5 15.2 5.7 21 2 9 2.3 13.5 2.3 31.5 0 18.2-0.3 22.4-2.2 31.5-1.3 5.8-3.6 14.3-5.1 19-1.6 4.7-5.1 13.2-7.9 19-2.8 5.8-7.7 14.4-10.9 19.2-3.2 4.8-9.2 12.7-13.4 17.5-4.1 4.8-12 12.5-17.5 17.1-5.4 4.6-12.8 10.3-16.4 12.6-3.6 2.4-11 6.6-16.5 9.3-5.5 2.8-14.7 6.7-20.5 8.6-5.8 2-14 4.3-18.3 5.1-4.2 0.9-13.4 2.1-20.5 2.8-9.9 0.9-15.7 0.9-26.2 0-7.4-0.7-18.2-2.4-24-3.8-5.8-1.4-13.7-3.6-17.5-5-3.8-1.4-11.1-4.5-16-6.9-4.9-2.4-12.6-6.7-17-9.5-4.4-2.9-11.4-8.1-15.5-11.5-4.1-3.5-10.4-9.4-14-13.1-3.6-3.8-8.2-8.9-10.2-11.4-1.9-2.5-5.8-7.9-8.6-12-2.7-4.1-7.1-11.8-9.7-17-2.6-5.2-6.5-14.7-8.6-21-2.1-6.3-4.8-16.8-5.9-23.3-1.5-8.5-2-16.1-2-28.2 0-11.8 0.6-19.7 1.9-27.8 1.1-6.1 3.5-15.9 5.5-21.7 1.9-5.8 5.1-14.1 7.2-18.5 2.1-4.4 5.5-10.9 7.7-14.5 2.2-3.6 6.4-9.8 9.3-13.8 3-3.9 8.7-10.6 12.6-14.8 4-4.2 10.7-10.4 14.8-13.9 4.1-3.4 10.4-8.1 14-10.5 3.6-2.4 11.7-7 18-10.1 6.3-3.2 15.6-7.1 20.5-8.8 4.9-1.6 13.9-3.8 20-5 6.1-1.1 12.8-2.2 15-2.5 2.2-0.2 11.2-0.3 20-0.1z"/>
		<path id="Path 10" class="s5" d="m260.5 118.5c7.7 0.2 17.8 1.1 22.5 2 4.7 0.9 12.1 2.8 16.5 4.2 4.4 1.4 12.1 4.4 17 6.7 4.9 2.3 11.7 5.9 15 8 3.3 2.1 10 7.1 14.8 11 4.9 3.9 11.8 10.5 15.4 14.6 3.6 4.1 9.2 11.6 12.4 16.5 3.3 4.9 5.9 9.6 5.9 10.3 0 0.6-3.5-1.8-7.8-5.4-4.2-3.6-10.8-8.6-14.7-11.2-3.9-2.5-10.8-6.5-15.5-8.8-4.7-2.3-12.8-5.8-18-7.7-5.2-2-13.1-4.5-17.5-5.6-4.4-1.1-12.3-2.7-17.5-3.5-5.2-0.8-13.2-1.7-17.8-2-5-0.4-8.4-0.2-8.7 0.4-0.3 0.6 1.9 5.8 10.4 22.5l-4.2 3.4c-2.3 1.9-5.5 5-7.1 7-1.5 2-3.6 5.4-4.6 7.6-1 2.2-2.3 6.9-3 10.5-0.9 5-0.9 8 0 13 0.7 3.6 2.3 8.8 3.7 11.5 1.5 2.8 4.7 7.3 7.3 10 2.6 2.8 7.4 6.4 10.6 8.2 3.3 1.7 7.8 3.5 14.4 4.8v13.8c0 7.5-0.5 18.1-1.1 23.4-0.5 5.4-2.1 15.4-3.5 22.3-1.4 6.9-4.5 18.6-7 26-2.5 7.4-7.2 18.9-10.5 25.5-3.3 6.6-5.7 12.4-5.2 12.8 0.4 0.4 6.2 0.3 12.8-0.3 6.6-0.6 16.5-2 22-3.1 5.5-1.2 14.7-3.7 20.5-5.6 5.8-1.8 14.8-5.4 20-7.9 5.2-2.5 12.2-6.2 15.5-8.1 3.3-2 8.7-5.7 12-8.2 3.3-2.5 7.9-6.4 10.3-8.6 2.7-2.5 4.3-3.4 4.3-2.5 0 0.8-2.8 5.6-6 10.5-3.3 4.9-8.6 12-11.8 15.7-3.2 3.6-8.7 9.2-12.3 12.3-3.6 3.2-10.6 8.4-15.5 11.7-4.9 3.3-12.6 7.7-17 9.8-4.4 2.1-12.3 5.1-17.5 6.8-5.2 1.7-13.8 3.9-19 4.8-6.9 1.3-14.1 1.8-26 1.8-14.1-0.1-18.1-0.5-28-2.7-6.3-1.5-16.2-4.5-22-6.7-5.8-2.2-14.1-6.1-18.5-8.6-4.4-2.5-11.4-7.1-15.5-10.2-4.1-3.1-11.1-9.2-15.5-13.6-4.4-4.5-11.3-12.9-15.3-18.9-3.9-5.9-7.2-11.4-7.2-12.2 0-0.9 2.5 0.7 6.2 4.1 3.5 3.1 10.4 8.3 15.3 11.6 4.9 3.3 13.1 8 18 10.3 4.9 2.4 13.5 5.9 19 7.8 5.5 1.9 15.2 4.6 21.5 6 6.3 1.4 17.2 3.2 24.2 3.9 7 0.7 12.9 1 13.2 0.5 0.3-0.4-2.1-6-5.3-12.5-3.3-6.4-7.6-16.4-9.6-22.2-2-5.8-4.9-15.7-6.5-22-1.5-6.3-3.6-17.6-4.5-25-1.4-10.7-1.6-18.3-1.2-36.5 0.3-17.6 0.9-25.6 2.6-34 1.1-6.1 3.2-15.1 4.5-20 1.3-4.9 4.1-13.5 6.1-19 2.1-5.5 6.1-14.7 9.1-20.5q5.3-10.5 4.3-11.5-1-1-13.7 0.3c-7 0.7-17.9 2.4-24.2 3.8-6.3 1.4-16.2 4.3-22 6.4-5.8 2-14.3 5.6-19 8-4.7 2.3-12.1 6.6-16.5 9.5-4.4 3-10.9 7.8-14.5 10.9-3.6 3-6.7 5.3-7 5.1-0.3-0.3 1.4-3.5 3.6-7.2 2.3-3.8 7-10.4 10.5-14.7 3.5-4.4 9.7-10.9 13.7-14.5 4-3.6 10.8-9 15-11.9 4.2-2.9 11.5-7.2 16.2-9.6 4.7-2.4 12.3-5.7 17-7.4 4.7-1.6 11.9-3.7 16-4.6 4.1-1 10.7-2.1 14.5-2.6 3.8-0.5 13.3-0.7 21-0.5z"/>
	</g>
</svg>