<svg version="1.2" xmlns="http://www.w3.org/2000/svg" viewBox="0 0 512 512" width="512" height="512">
	<title>m-arcane_protection-svg</title>
	<style>
		.s0 { fill: #cd59f7 } 
		.s1 { opacity: .9;fill: #cd59f7 } 
		.s2 { opacity: .7;fill: #cd59f7 } 
		.s3 { opacity: .5;fill: #cd59f7 } 
		.s4 { opacity: .3;fill: #cd59f7 } 
		.s5 { opacity: .2;fill: #cd59f7 } 
		.s6 { fill: #000000 } 
		.s7 { fill: #9641b4 } 
		.s8 { fill: #371842 } 
	</style>
	<g id="all-seeing-eye">
		<path id="Path 0" class="s0" d="m18-11h4.8c4 0 5.1 0.4 7.7 3.2 1.7 1.8 3.9 4.3 7 7.9l-19.5-0.1v-5.5zm78.4-0.1l19.6 0.6 6 10.5h-20l-2.8-5.5zm91 0h17.6l1 4.5c0.6 2.5 1 5 1 5.5 0 0.6-3.4 0.9-17.4 0.5l-1.1-5.2zm59.6 0h18v11h-18v-5.5zm60.2 0h17.8l-2.5 10.5-8.7 0.2c-4.8 0.2-8.8 0.1-8.8-0.2 0-0.3 0.5-2.8 1.1-5.5zm88.9 0h20l-6 11h-20l1.3-2.3c0.8-1.2 2.1-3.7 3-5.5zm98 0v11l-19.5 0.1 2-2.3c1.1-1.2 3.3-3.7 4.9-5.5 2.6-2.8 3.7-3.3 12.6-3.3zm-214 21.8c9.7 0.3 18.6 1.2 27 2.8 6.9 1.3 15.9 3.2 20 4.3 4.1 1 12 3.7 17.5 5.9 5.5 2.2 14.8 6.3 20.8 9.1 5.9 2.8 15.5 8.1 21.5 11.8 5.9 3.7 12.3 7.9 14.2 9.3 1.9 1.4 7.6 5.7 12.5 9.7 5 3.9 15.1 13.3 22.6 21 7.4 7.6 16 17 19.1 20.8 3 3.9 8.7 12 12.5 18 3.8 6.1 9.4 15.8 12.5 21.5 3.1 5.8 7.2 14.4 9.1 19 1.9 4.7 4.6 12.1 6.1 16.5 1.4 4.4 4 13.9 8.9 34l0.4 38c0.2 23.9 0 40.6-0.7 45-0.6 3.9-2.4 12.4-4.1 19-1.6 6.6-4.3 16.1-6 21-1.7 5-6.7 16.5-11.3 25.5-4.5 9.1-10.4 20.1-13.1 24.5-2.6 4.4-9 13.2-14 19.5-5.1 6.4-16.2 18.3-24.6 26.6-8.5 8.2-18.5 17.5-22.4 20.6-3.8 3-10.8 8-15.5 11-4.7 3.1-12.8 7.8-18 10.6-5.2 2.8-14.7 7.4-21 10.3-6.3 2.8-16.7 6.6-23 8.4-6.3 1.9-15.1 4.1-19.5 5-4.4 0.9-11.6 2.2-16 2.9-5.1 0.7-19.8 1.1-40.5 1-30.6-0.1-33.2-0.3-45-2.7-6.9-1.4-16.8-3.7-22-5.2-5.2-1.4-13.3-4.2-18-6.1-4.7-2-15.2-6.9-23.5-11-8.2-4.2-18.6-9.9-23-12.8-4.4-2.9-12.5-8.9-18-13.3-5.5-4.4-16.3-14.3-24-22-7.7-7.7-17.7-18.6-22.1-24.4-4.5-5.7-10-13.1-12.1-16.4-2.2-3.3-7.3-12.5-11.3-20.5-4-7.9-8.8-18.1-10.7-22.5-1.8-4.4-5.8-17-14.3-48l-0.2-38c-0.1-35.2 0-38.8 2-49.5 1.2-6.3 2.9-14.2 3.7-17.5 0.9-3.3 3-10.5 4.7-16 1.8-5.5 6.9-17.4 11.4-26.5 4.5-9 11.4-21.4 15.2-27.5 3.9-6 10-14.6 13.7-19 3.6-4.4 12.6-14 19.8-21.4 7.3-7.3 16.8-16.3 21.2-19.8 4.4-3.5 12.3-9.2 17.5-12.7 5.2-3.4 12.7-8.1 16.5-10.3 3.9-2.2 10.2-5.6 14-7.5 3.9-2 10.8-5.1 15.5-7.1 4.7-1.9 14.1-5.1 21-7.1 6.9-2 16.1-4.3 20.5-5.2 5.5-1.2 15.9-1.9 33-2.3 13.8-0.4 31.5-0.5 39.5-0.3z"/>
		<path id="Path 1" class="s1" d="m504.7 240.5c0.2 2.8 0.2 6.8 0 9-0.2 2.2-0.3-0.1-0.3-5 0-4.9 0.1-6.8 0.3-4z"/>
		<path id="Path 2" class="s2" d="m266.5 503.4c8.8 0 12.6 0.2 8.5 0.3-4.1 0.2-11.3 0.2-16 0-4.7-0.1-1.3-0.3 7.5-0.3z"/>
		<path id="Path 3" class="s3" d="m256 10.4c5.2 0 7.3 0.1 4.5 0.3-2.8 0.2-7 0.2-9.5 0-2.5-0.2-0.2-0.3 5-0.3zm-245.3 237.6c0.2 2.5 0.2 6.8 0 9.5-0.2 2.8-0.3 0.7-0.3-4.5 0-5.2 0.1-7.5 0.3-5z"/>
		<path id="Path 4" class="s4" d="m10.7 270.5c0.2 4.9 0.2 12.6 0 17-0.1 4.4-0.3 0.4-0.3-9 0-9.4 0.2-12.9 0.3-8z"/>
		<path id="Path 5" class="s5" d="m237 10.4c5.8 0 8 0.1 5 0.3-3 0.2-7.8 0.2-10.5 0-2.8-0.2-0.3-0.3 5.5-0.3z"/>
		<path id="Path 6" class="s6" d="m244.7 29.1c2.3-0.1 2.3-0.1 2.8 38.4l3.6-6c1.9-3.3 4.1-6 4.9-6 0.8 0 3 2.7 8.5 12l0.5-38.5 12.3 0.6c6.7 0.4 14 1 16.2 1.4 2.2 0.3 3.9 1.1 3.9 1.6-0.1 0.5-3.4 15.8-14.6 66.9l12.6 22 9.4-42.5c5.2-23.4 9.8-43 10.3-43.5 0.7-0.7 5.3 0.5 13.7 3.4 7 2.4 16.9 6.3 22 8.7 5 2.4 9.2 5 9.2 5.6-0.1 0.7-11.5 21.8-50.7 92.3l4.6 7.9c2.5 4.3 4.9 8 5.4 8.2 0.4 0.2 12.9-21.8 27.8-48.9 15-27 27.7-49.7 28.3-50.4 0.8-0.9 2.5-0.2 7.1 2.9 3.3 2.2 9.3 6.6 20.6 15.3l-2.4 2.5c-1.3 1.4-18.6 20.7-38.4 43-19.8 22.3-36.5 41.4-37.2 42.5-1.1 1.7-0.7 3 7.4 17.5l41.5-46.5c22.8-25.6 41.7-46.6 42-46.6 0.3 0 4.7 4.3 9.8 9.6 5 5.2 9.2 9.8 9.2 10.2 0.1 0.5-22.4 17.7-49.9 38.3-27.5 20.6-50 37.8-50.1 38.3 0 0.4 1.8 3.9 4 7.7 2.2 3.8 4.2 7 4.5 7 0.3 0 23-16.9 50.5-37.5 27.5-20.6 50.7-37.7 51.5-38 1-0.3 3.3 2.2 7.2 8.3 3.2 4.8 8.4 13.9 11.6 20.2 4.7 9.2 5.6 11.7 4.5 12.6-0.7 0.6-27.7 11-60 23-32.3 12-58.8 22.2-58.8 22.7 0 0.4 1.8 3.9 4 7.7 3.9 6.8 4.1 7 6.8 5.9 1.5-0.6 27.9-10.5 58.7-22 45.3-17 56.2-20.7 57.2-19.7 0.7 0.7 2.5 6.5 4.2 12.8 1.6 6.3 3.2 13.5 3.6 16 0.4 2.5 0.4 4.8-0.1 5.2-0.5 0.4-28 4.1-61.1 8.2-33.2 4.2-60.5 7.6-60.8 7.6-0.3 0 1.6 3.5 4.1 7.8 2.5 4.2 4.7 7.8 4.8 8 0 0.1 25.6-2.9 56.9-6.8 31.2-3.8 57.1-6.8 57.7-6.5 0.6 0.3 1 8 1 20 0 12.3-0.4 19.5-1 19.5-0.6 0-24.5-2.9-53.3-6.5-28.7-3.6-52.5-6.4-52.8-6.3-0.4 0.2 1.7 4.3 4.5 9.1 3.2 5.7 5.8 9 7.1 9.3 1.1 0.2 22.5 2.9 47.5 6 25 3.1 45.6 5.7 45.7 5.7 0.1 0.1-0.9 4.9-2.2 10.7-1.3 5.8-3.5 13.6-4.8 17.5-1.6 4.5-2.9 6.9-3.8 6.8-0.8-0.2-17.2-6.1-36.4-13.3-19.3-7.2-35.1-12.8-35.3-12.5-0.1 0.3 2.6 5.4 12.3 22.1l26.4 10c14.5 5.4 26.5 10.2 26.7 10.7 0.2 0.4-2 5.5-5 11.5-2.9 5.9-6 11.2-6.7 11.9-1.1 0.9-3.5-0.2-11.7-5.3-5.6-3.5-10.4-6.4-10.7-6.4-0.3 0 2.5 5.1 6.1 11.3 3.6 6.1 7 11.8 7.5 12.5 0.6 0.8-1.4 4-6.4 10.2-6.4 8-7.4 8.8-8.7 7.5-1.2-1.1-4.4-1.4-27.5-1.4l17 15.8-5 5c-2.8 2.8-5.2 5.1-5.5 5.1-0.3 0-5.4-5.9-22.5-26h-11.3c-6.1 0-11.2 0.2-11.2 0.5 0 0.3 7 8.6 15.5 18.5 8.5 9.9 15.3 18.4 15 19-0.3 0.6-4.4 3.6-9.3 6.8-4.8 3.2-9.3 6.1-10 6.5-0.8 0.5-5.8-7.5-30.7-51.3h-9.8c-5.3 0-9.7 0.1-9.7 0.3-0.1 0.1 7.6 13.6 17 29.9 12.3 21.6 16.7 30 15.7 30.6-0.6 0.4-3.5 2-6.2 3.4-2.8 1.5-9.7 4.5-15.5 6.9-5.8 2.3-15.4 5.4-21.5 6.9-6.1 1.6-15.9 3.6-22 4.5-6.1 0.9-20.4 1.9-32 2.2-16.5 0.5-23.9 0.2-34.5-1.1-7.4-1-19.4-3.3-26.5-5.1-7.2-1.8-17.3-5-22.5-7-5.2-2.1-13.4-5.7-27-12.5l1.4-2.8c0.8-1.5 8.2-14.6 16.5-29.2 8.4-14.6 15.2-26.6 15.1-26.8 0-0.1-4.4-0.2-19.5-0.2l-14.3 25c-7.8 13.7-14.4 25-14.7 25-0.3 0-3.8-2.2-7.8-5-3.9-2.7-8.4-6-12.5-9.5l14.9-17.3c8.2-9.4 14.9-17.4 14.9-17.7 0-0.3-5.1-0.5-22.5-0.5l-9.8 11.5c-5.3 6.3-10 11.5-10.5 11.5-0.4 0-2.9-2.1-10.3-9.5l7-6c3.8-3.3 7-6.3 7-6.8 0.1-0.4-5.6-0.6-12.7-0.5-7 0-13.2-0.1-13.7-0.4-0.6-0.3-4-4.5-14.3-18.3l6.4-10.8c3.5-5.9 6.2-10.7 5.9-10.7-0.3 0-4.4 2.4-9.3 5.4-4.8 3-9 5.3-9.5 5-0.4-0.2-3.2-5.3-6.2-11.4-3.6-7.2-5.2-11.4-4.6-12.3 0.5-0.6 11.6-5.2 48.6-19.1l6.2-10.8c3.5-5.9 6.2-11 6-11.3-0.1-0.3-15.4 5.1-34 12-18.5 6.9-34.2 12.3-34.7 12-0.6-0.3-1.8-3.3-2.9-6.7-1-3.5-2.9-10.7-4.2-16.1-1.6-6.3-2.1-10-1.4-10.5 0.5-0.5 20.3-3.2 44-6.1 23.6-2.9 43.8-5.5 44.8-5.9 0.9-0.4 3.9-4.5 6.6-9.2 2.7-4.7 4.6-8.6 4.2-8.8-0.3-0.1-22.4 2.5-49.1 5.8-26.7 3.3-49.7 6.2-54 7v-40l2.2 0.5c1.3 0.2 26.4 3.4 55.8 7 29.4 3.6 53.6 6.4 53.6 6.3 0.1-0.2 2.3-3.8 4.8-8 2.7-4.6 4.1-7.8 3.3-7.8-0.6-0.1-27.1-3.3-58.9-7.3-31.7-4-57.8-7.4-58.1-7.7-0.3-0.3 0.3-4.8 1.3-10 1-5.2 2.6-12.7 3.5-16.5 1-3.8 2.1-7.3 2.4-7.8 0.3-0.4 23.3 7.8 51.1 18.2 27.8 10.4 53.5 20.1 64 24.1l4-7c2.2-3.8 4-7.3 4-7.7 0-0.5-26.4-10.7-58.6-22.8-32.1-12.1-58.5-22.1-58.4-22.2 0-0.2 1.6-3.8 3.6-8 1.9-4.3 5.6-11.4 8.1-15.8 2.6-4.4 6.1-10.1 11.3-17.5l50 37.5c27.5 20.6 50.2 37.5 50.5 37.5 0.3 0 2.3-3.2 4.5-7 2.2-3.8 4-7.3 4-7.7-0.1-0.5-21.5-16.8-47.6-36.3-26.1-19.5-48.1-36.3-48.9-37.3-1.4-1.5-0.6-2.6 17.5-21.2l2.7 3c1.4 1.7 19.8 22.2 78.8 88.5l4.3-7.7c2.3-4.3 4.3-8 4.3-8.3 0-0.3-17.4-20.1-77.2-87.5l3.8-3.3c2.1-1.8 7.6-6.2 12.3-9.7 4.7-3.6 8.9-6.4 9.5-6.2 0.6 0.2 13.3 22.2 28.3 49 14.9 26.8 27.5 48.8 27.9 48.9 0.4 0.2 2.7-3.1 5-7.2 2.4-4.1 4.3-8.1 4.3-8.8 0-0.6-11.1-21.1-24.6-45.4-13.5-24.4-24.8-44.6-25-45-0.2-0.5 4.7-3.3 10.9-6.3 6.1-3 16.2-7.2 22.4-9.2 6.2-2.1 11.5-3.6 11.8-3.3 0.3 0.3 4.8 19.2 10 42 5.2 22.8 9.6 41.6 9.7 41.7 0.2 0.1 3-4.6 6.3-10.4 3.3-5.8 5.9-11 5.8-11.7-0.1-0.6-3.4-15.5-7.3-33.1-3.9-17.6-6.8-32.4-6.3-32.8 0.4-0.4 6.6-1.1 13.8-1.6 7.2-0.4 14-0.9 15.2-1z"/>
		<path id="Path 7" class="s7" d="m94.3 400.2c7-0.1 12.7 0.1 12.7 0.6 0 0.4-3.9 0.6-8.7 0.4-4.9-0.1-10.6-0.4-12.8-0.5-2.2-0.2 1.7-0.4 8.8-0.5zm40 0c6.4-0.1 11.7 0.1 11.7 0.6 0 0.4-3.7 0.6-8.2 0.4-4.6-0.1-9.9-0.4-11.8-0.6-1.9-0.1 1.8-0.3 8.3-0.4zm40.7 0.2c5.8 0 8 0.1 5 0.3-3 0.2-7.8 0.2-10.5 0-2.8-0.2-0.3-0.3 5.5-0.3zm162 0c5.8 0 8 0.1 5 0.3-3 0.2-7.8 0.2-10.5 0-2.8-0.2-0.3-0.3 5.5-0.3zm40.8-0.2c6.4 0.1 10.1 0.3 8.2 0.4-1.9 0.2-7.2 0.5-11.8 0.6-4.5 0.2-8.2 0-8.2-0.4 0-0.5 5.3-0.7 11.8-0.6zm40.2 0.2c7.4 0 10.4 0.1 6.5 0.3-3.9 0.2-9.9 0.2-13.5 0-3.6-0.2-0.4-0.3 7-0.3z"/>
		<path id="Path 8" class="s0" d="m256.3 91c0.5 0 16.9 28.1 36.5 62.5 19.7 34.4 35.8 63 35.9 63.5 0.2 0.6-4-0.6-9.2-2.5-5.2-1.9-15-4.6-21.8-6-6.7-1.4-18.8-2.9-27-3.5-9.9-0.7-19.5-0.7-29.5 0-8.1 0.6-20.2 2.1-27 3.5-6.7 1.4-16.5 4.1-21.7 6-5.2 1.9-9.4 3.1-9.3 2.5 0.2-0.5 16.5-29.1 36.3-63.4 19.8-34.4 36.4-62.5 36.8-62.6zm-0.8 132c1.6 0 5.4 0.7 8.2 1.5 3.4 0.9 6.9 2.9 9.5 5.4 2.4 2.2 4.1 4.2 3.8 4.5-0.3 0.2-2.5 0-5-0.5-2.5-0.6-6.5-0.8-9-0.4-2.5 0.3-6.3 1.4-8.5 2.4-2.2 1-5.8 3.6-7.9 5.7-2.2 2.1-5 6.1-6.3 8.9-1.6 3.5-2.3 6.9-2.4 18l-2.4-3c-1.4-1.6-3.2-5.3-4.1-8-1.1-3.3-1.5-6.9-1.2-10.5 0.3-3 1.5-7.3 2.6-9.5 1.1-2.2 3.5-5.5 5.4-7.3 1.8-1.8 5.8-4.1 8.8-5.2 3-1.1 6.8-2 8.5-2zm-39.3 4.1c0.5 0-0.3 2.5-1.7 5.6-1.3 3.2-2.7 8.5-3.1 11.8-0.4 3.6-0.2 8.6 0.6 12.5 0.6 3.6 2.6 9.2 4.3 12.5 1.6 3.3 5.3 8.3 8.1 11.1 2.8 2.7 7.1 6.2 9.6 7.7 2.5 1.4 7.2 3.3 10.5 4.2 3.3 0.8 8.5 1.5 11.5 1.5 3 0 8.2-0.7 11.5-1.5 3.3-0.9 8-2.8 10.5-4.2 2.5-1.5 6.8-5 9.6-7.7 2.8-2.8 6.5-7.8 8.1-11.1 1.7-3.3 3.6-8.7 4.3-12 0.8-3.7 1-8.5 0.6-12.5-0.4-3.6-1.7-9.1-5.1-17.8l2.5 0.5c1.4 0.3 6.8 1.9 12 3.5 5.2 1.7 12.6 4.6 16.5 6.5 3.9 1.9 8.4 4.4 10 5.5 1.6 1.2 5 4 7.4 6.2 2.4 2.3 5.4 6.3 6.7 9.1 1.3 2.8 2.4 6.6 2.4 8.5 0 1.9-1.1 5.8-2.3 8.5-1.4 2.9-4.7 7.1-7.8 10-3 2.8-9.5 7.1-14.4 9.6-5 2.6-13.3 6-18.5 7.7-5.2 1.7-13.3 3.8-18 4.6-4.7 0.9-14.6 2.2-22 2.8-10.3 0.9-16.8 0.9-27.5 0-7.7-0.6-17.8-1.9-22.5-2.8-4.7-0.8-12.8-2.9-18-4.6-5.2-1.7-13.5-5.1-18.5-7.7-4.9-2.5-11.4-6.8-14.4-9.6-3.1-2.9-6.4-7.1-7.8-10-1.2-2.8-2.3-6.6-2.3-8.5 0-1.9 1.1-5.8 2.4-8.5 1.3-2.8 4.3-6.8 6.7-9.1 2.4-2.2 5.7-5 7.4-6.2 1.6-1.1 6.1-3.6 10-5.5 3.8-1.9 11.3-4.8 16.5-6.5 5.2-1.6 10.4-3.2 11.5-3.5 1.1-0.2 2.3-0.5 2.7-0.6zm-71.9 56.9l2 3.2c1.1 1.8 2.9 4.5 4.1 5.9 1.1 1.4 4.8 4.9 8.1 7.8 3.3 2.9 9.2 7 13 9.2 3.8 2.2 11.1 5.6 16 7.6 4.9 2 13.1 4.6 18 5.9 4.9 1.2 14.4 3 21 3.9 7.5 1.1 18.5 1.7 29.5 1.7 11 0 22-0.6 29.5-1.7 6.6-0.9 16.1-2.7 21-3.9 4.9-1.3 13.1-3.9 18-5.9 4.9-2 12.4-5.5 16.5-7.9 4.1-2.3 10.6-7.2 14.4-10.8 3.8-3.6 8.1-8.4 12.1-15l56.5 97.5-84.3 0.3c-46.3 0.1-121.9 0.1-251.7-0.3l28.2-48.8zm81.6 117.1l-3.3 10.7c-1.9 5.9-6.3 20.3-16.2 53.3h-8.7c-4.8 0-8.7-0.3-8.7-0.7 0.1-0.3 4.2-14.1 9.1-30.7 4.9-16.6 9.1-30.7 9.3-31.4 0.3-0.9 3.2-1.2 18.5-1.2zm21 0h18v64h-18v-32zm58.5 0l18 63.9-17.5 0.1-1.9-6.8c-1.1-3.7-5.1-17.9-9-31.5-3.9-13.6-7.1-25-7.1-25.2 0-0.3 4-0.5 17.5-0.5z"/>
		<path id="Path 9" class="s8" d="m256 382.5c92.7 0 130.5 0.1 84 0.2-46.5 0.2-122.3 0.2-168.5 0-46.2-0.1-8.2-0.2 84.5-0.2z"/>
		<path id="Path 10" class="s7" d="m217 400.4c5.2 0 7.3 0.1 4.5 0.3-2.8 0.2-7 0.2-9.5 0-2.5-0.2-0.2-0.3 5-0.3zm39 0c5.2 0 7.3 0.1 4.5 0.3-2.8 0.2-7 0.2-9.5 0-2.5-0.2-0.2-0.3 5-0.3zm40 0c5.2 0 7.3 0.1 4.5 0.3-2.8 0.2-7 0.2-9.5 0-2.5-0.2-0.2-0.3 5-0.3z"/>
	</g>
</svg>