<svg version="1.2" xmlns="http://www.w3.org/2000/svg" viewBox="0 0 512 512" width="512" height="512">
	<title>m-arcane_protection-svg</title>
	<style>
		.s0 { fill: #cd59f7 } 
		.s1 { opacity: .8;fill: #cd59f7 } 
		.s2 { opacity: .2;fill: #cd59f7 } 
		.s3 { opacity: .7;fill: #cd59f7 } 
		.s4 { opacity: .4;fill: #cd59f7 } 
		.s5 { opacity: .3;fill: #cd59f7 } 
		.s6 { fill: #000000 } 
		.s7 { fill: #75338d } 
		.s8 { fill: #a045c0 } 
	</style>
	<g id="double-face-mask">
		<path id="Path 0" class="s0" d="m282.5 10.8c7.3 0.2 16.9 1.3 24.5 2.7 6.9 1.4 15.9 3.3 20 4.3 4.1 1.1 12.1 3.8 17.8 6.1 5.6 2.2 15.6 6.8 22.2 10.1 6.6 3.3 16.2 8.6 21.3 11.7 5 3.1 10.8 6.8 12.7 8.2 1.9 1.4 8 6.2 13.5 10.7 5.5 4.5 15.9 14.2 23 21.5 7.2 7.4 16 17.3 19.5 22.1 3.6 4.8 9.4 13.3 12.9 19 3.6 5.7 9.3 15.9 12.7 22.8 3.5 6.9 7.9 17 10 22.5 2 5.5 5.5 17 11.6 41l0.3 85-2.7 11c-1.5 6.1-4.1 15.6-5.8 21.3-1.6 5.6-5.7 15.9-8.9 22.9-3.3 7.1-8.3 17.1-11.1 22.3-2.9 5.2-6.8 12-8.7 15-2 3-6.5 9.3-10.2 14-3.6 4.7-11.5 13.6-17.6 19.9-6 6.3-16.4 16.2-23.1 22-6.6 5.8-15.4 12.9-19.5 15.7-4.1 2.8-12.1 7.8-17.9 11-5.8 3.1-16.1 8.3-23 11.5-6.9 3.2-17.9 7.3-24.5 9.2-6.6 1.9-15.6 4.3-20 5.2-4.4 0.9-11.6 2.2-16 2.8-5.1 0.8-19.8 1.2-40.5 1.1-31-0.1-33.1-0.3-45.5-2.8-7.2-1.5-17.7-4-23.5-5.7-5.8-1.7-16.8-5.9-24.5-9.4-7.7-3.5-18.3-8.7-23.5-11.5-5.2-2.9-12.9-7.5-17-10.2-4.1-2.8-11.8-8.6-17-12.8-5.2-4.3-16.5-14.9-25-23.6-8.6-8.8-18.9-20.4-23.1-25.9-4.1-5.5-9.3-13.1-11.6-17-2.2-3.9-6.7-12.4-10-19-3.3-6.6-7.6-16.1-9.6-21-2.1-4.9-6-17.3-13.7-46l-0.2-38c-0.1-35 0.1-38.9 2-49.5 1.2-6.3 3.1-15.1 4.3-19.5 1.1-4.4 3.2-11.4 4.6-15.5 1.4-4.1 5.8-14.2 9.7-22.5 4-8.2 9.9-19.3 13.1-24.5 3.2-5.2 9-13.7 12.9-18.9 3.9-5.2 12.1-14.6 18.1-21 6-6.3 15.5-15.4 21-20.3 5.5-4.9 15.2-12.4 21.5-16.7 6.3-4.3 16.4-10.6 22.5-13.9 6.1-3.4 16.2-8.4 22.5-11.1 6.3-2.8 17.1-6.6 24-8.6 6.9-1.9 16.1-4.3 20.5-5.2 5.8-1.2 15.7-1.8 35.5-2.2 15.1-0.3 32.9-0.5 39.5-0.3z"/>
		<path id="Path 1" class="s1" d="m504.7 237.5c0.2 2.8 0.2 6.8 0 9-0.2 2.2-0.3-0.1-0.3-5 0-4.9 0.1-6.8 0.3-4z"/>
		<path id="Path 2" class="s2" d="m248.5 10.4c12.1 0 16.8 0.2 10.5 0.3-6.3 0.2-16.2 0.2-22 0-5.8-0.1-0.6-0.3 11.5-0.3z"/>
		<path id="Path 3" class="s3" d="m266.5 503.4c8.8 0 12.6 0.2 8.5 0.3-4.1 0.2-11.3 0.2-16 0-4.7-0.1-1.3-0.3 7.5-0.3z"/>
		<path id="Path 4" class="s4" d="m10.7 250.5c0.2 4.9 0.2 12.6 0 17-0.1 4.4-0.3 0.4-0.3-9 0-9.3 0.2-12.9 0.3-8z"/>
		<path id="Path 5" class="s5" d="m10.7 279.5c0.2 2.8 0.2 7.5 0 10.5-0.2 3-0.3 0.8-0.3-5 0-5.8 0.1-8.3 0.3-5.5z"/>
		<path id="Path 6" class="s6" d="m257.5 29.7c8.3 0.1 15.8 0.2 16.8 0.3 1.6 0 1.7 11.5 1.7 227 0 200.9-0.2 227.1-1.5 227.5-0.8 0.3-9.1 0.5-18.5 0.5-9.7 0-22.2-0.7-29.3-1.6-6.7-0.9-18-3.1-25.2-4.9-7.2-1.8-17.7-5.2-23.5-7.5-5.8-2.2-17-7.5-25-11.7-8-4.2-18.3-10.2-23-13.3-4.7-3.2-13.9-10.7-20.5-16.7-6.6-6-15.6-14.7-19.9-19.4-4.4-4.6-10.2-11.1-12.9-14.4-2.8-3.3-7.6-9.8-10.7-14.5-3.2-4.7-8.9-14.8-12.7-22.5-3.9-7.7-8.7-18.3-10.8-23.5-2-5.2-5.2-15.4-7-22.5-1.8-7.1-4.1-17.9-5-24-1.4-9-1.6-15.4-1.2-35 0.3-15.2 1.1-27.4 2.1-33.3 0.9-5 2.7-14 4.1-20 1.4-5.9 3.7-14.3 5.1-18.7 1.5-4.4 5.7-14.3 9.4-22 3.8-7.7 9.4-17.8 12.6-22.5 3.1-4.7 9.2-13 13.5-18.5 4.2-5.5 13.7-15.9 21.1-23 7.3-7.2 17.8-16.6 23.3-21.1 5.5-4.4 14.1-10.4 19-13.3 4.9-2.9 13.5-7.6 19-10.4 5.5-2.7 13.8-6.4 18.5-8.3 4.7-1.8 12.6-4.4 17.5-5.8 4.9-1.4 12.4-3.2 16.5-4.1 4.1-0.9 12.9-2 19.5-2.3 6.6-0.4 18.7-0.6 27-0.5zm106.4 25.3c5.3 2.9 14.1 8.2 19.6 11.8 5.5 3.7 14 10 19 14.2 4.9 4.1 13 11.6 18 16.5 4.9 5 12.1 12.9 15.8 17.5 3.7 4.7 9.7 12.8 13.2 18 3.5 5.2 9.1 14.7 12.4 21 3.3 6.3 7.8 16.1 10 21.7 2.3 5.7 5.5 15.1 7.1 21 1.7 6 3.8 14.9 4.7 19.8 1.4 7.3 1.7 15.2 1.7 41.5 0 31.6-0.1 32.8-2.7 44.5-1.4 6.6-4.7 18-7.2 25.2-2.5 7.3-7.7 19.7-11.6 27.5-3.9 7.9-9.2 17.9-11.9 22.3-2.7 4.4-7.4 11.1-10.4 15-3.1 3.9-10.9 12.6-17.3 19.5-6.5 6.9-15.2 15.4-19.3 18.8-4.1 3.4-11.3 8.8-16 12.1-4.7 3.2-13 8.3-18.5 11.4-5.5 3.1-10.4 5.7-11 5.7-0.6 0.1 3.1-4.1 8-9.2 4.9-5.1 12-13.1 15.6-17.8 3.7-4.7 10-13.9 14-20.5 4-6.6 9.6-16.9 12.5-23 2.8-6.1 6.8-15.5 8.9-21 2-5.5 5.2-15.4 7.1-22 1.9-6.6 4.6-17.9 6-25 1.3-7.1 3.2-18.9 4.1-26 1.1-8.7 1.7-21 1.7-37 0-13.2-0.6-29.2-1.3-35.5-0.7-6.3-2.4-17.6-3.7-25-1.4-7.4-3.8-18.4-5.4-24.5-1.6-6.1-4.7-16.4-7-23-2.3-6.6-7.9-19.7-12.5-29-4.6-9.4-11-21.1-14.3-26-3.3-5-9-12.6-12.5-17-3.6-4.4-11.1-12.5-16.6-18-5.6-5.5-10.1-10.2-10-10.3 0.1-0.2 4.5 2 9.8 4.8zm28.1 173.6c11.3 0.2 22 0.6 27 1.4v6.3c0 3.4-0.5 10.3-1 15.2-0.6 4.9-2 12.1-3.1 16-1.2 3.9-3 8.7-4 10.8-1 2-3.4 5.4-5.3 7.5-1.8 2-6 4.9-9.2 6.4-3.2 1.5-9.3 3.3-13.4 3.9-5.9 1-11 0.9-24-0.1-9.1-0.7-26.5-1.4-61-2l0.6-2.2c0.3-1.3 2.1-6.1 4-10.8 1.9-4.7 4.9-10.9 6.7-13.8 1.7-3 5.2-7.9 7.7-11 2.5-3.1 7.2-7.8 10.5-10.5 3.3-2.6 9.6-6.6 14-8.7 4.4-2.1 11.8-4.7 16.5-5.8 4.7-1.2 9.6-2.3 11-2.6 1.4-0.2 11.7-0.3 23 0z"/>
		<path id="Path 7" class="s7" d="m276.7 143.5c0.2 62.7 0.2 165.1 0 227.5-0.1 62.4-0.2 11.1-0.2-114 0-125.1 0.1-176.2 0.2-113.5z"/>
		<path id="Path 8" class="s8" d="m257 29.4c8 0 11.4 0.2 7.5 0.3-3.9 0.2-10.4 0.2-14.5 0-4.1-0.1-1-0.3 7-0.3z"/>
		<path id="Path 9" class="s0" d="m155 228.1c9.4-0.1 17.5 0.4 23 1.4 4.7 0.9 10.8 2.3 13.5 3.2 2.8 0.9 7.9 3.1 11.5 4.9 3.6 1.8 7.8 4.2 9.5 5.3 1.7 1.2 5.6 4.7 8.8 7.8 3.3 3.2 8 8.9 10.5 12.8 2.6 3.9 6.8 12.2 13.9 30l-22.1 0.6c-12.1 0.3-28.9 1.2-37.1 1.9-11.6 1-17.2 1-24.5 0.1q-9.5-1.1-15.4-3.9c-3.2-1.5-7.2-4.2-8.7-5.9-1.6-1.8-4.1-5.7-5.5-8.5-1.5-2.9-3.5-8.7-4.6-12.8-1.2-4.6-2.2-12.9-3.3-34.8l6-0.7c3.3-0.3 6.9-0.7 8-0.9 1.1-0.2 8.5-0.4 16.5-0.5z"/>
	</g>
</svg>