<svg version="1.2" xmlns="http://www.w3.org/2000/svg" viewBox="0 0 512 512" width="512" height="512">
	<title>m-arcaneProtection-svg</title>
	<style>
		.s0 { fill: #cd59f7 } 
		.s1 { opacity: .1;fill: #cd59f7 } 
		.s2 { opacity: .9;fill: #cd59f7 } 
		.s3 { opacity: .4;fill: #cd59f7 } 
		.s4 { opacity: .7;fill: #cd59f7 } 
		.s5 { fill: #000000 } 
		.s6 { fill: #a045c1 } 
		.s7 { fill: #1e0d24 } 
		.s8 { fill: #411d4f } 
		.s9 { fill: #8c3da9 } 
		.s10 { fill: #7d3696 } 
	</style>
	<g id="zodiac">
		<path id="Path 0" class="s0" d="m257.5 11.1c35.5-0.1 37.5 0 49.5 2.4 6.9 1.3 15.9 3.3 20 4.3 4.1 1.1 12.2 3.8 18 6.1 5.8 2.3 15.8 6.9 22.3 10.2 6.4 3.2 15.9 8.5 20.9 11.6 5.1 3.1 10.9 6.8 12.8 8.2 1.9 1.4 7.8 6 13 10.2 5.2 4.2 15.2 13.5 22.1 20.5 6.9 7.1 15 16.1 18.1 19.9 3 3.8 8.4 11.3 11.8 16.5 3.5 5.2 9.2 14.7 12.6 21 3.4 6.3 8 15.8 10.2 21 2.2 5.2 5.1 13.1 6.5 17.5 1.5 4.4 4.1 13.8 9 34l0.2 84-2.7 11c-1.5 6.1-4.1 15.6-5.8 21.3-1.6 5.6-5.3 15.3-8.1 21.5-2.8 6.1-8.4 17.3-12.5 24.7-4.1 7.4-11.1 18.4-15.6 24.5-4.6 6.1-13.9 16.8-20.8 23.9-6.9 7.1-17.7 17.4-24 22.9-6.3 5.5-15.6 12.7-20.5 15.9-4.9 3.3-13.5 8.4-19 11.3-5.5 2.9-14.9 7.6-21 10.4-6.1 2.7-16.4 6.6-23 8.5-6.6 1.9-15.6 4.2-20 5.1-4.4 0.9-11.6 2.2-16 2.8-5.1 0.8-19.8 1.2-40.5 1.1-30.6-0.1-33.2-0.3-45-2.7-6.9-1.4-16.8-3.7-22-5.2-5.2-1.5-13.3-4.2-18-6.2-4.7-1.9-15.3-6.8-23.5-11-8.3-4.1-18.6-9.8-23-12.7-4.4-2.9-11.8-8.3-16.5-12.1-4.7-3.7-15.2-13.3-23.3-21.4-8.2-8-18.5-19.1-23-24.6-4.4-5.5-10.4-13.6-13.3-18-2.8-4.4-8-13.6-11.4-20.5-3.5-6.9-8-16.6-10.2-21.5-2.1-4.9-6.4-18-14.8-49l-0.1-38c-0.1-34.6 0.1-39 2-49.5 1.1-6.3 2.8-14.2 3.6-17.5 0.8-3.3 3-10.5 4.7-16 1.8-5.5 6.9-17.4 11.4-26.5 4.6-9.1 10.8-20.6 13.9-25.5 3.2-4.9 9.4-13.7 13.9-19.4 4.4-5.7 15.1-17.2 23.6-25.5 8.5-8.3 19.1-17.9 23.5-21.2 4.4-3.3 11.2-8.1 15-10.6 3.8-2.5 12.4-7.6 19-11.2 6.6-3.6 16.7-8.6 22.5-11.1 5.8-2.4 16.1-6 23-8 6.9-2 17.2-4.4 23-5.5 9-1.6 16-1.9 47.5-1.9z"/>
		<path id="Path 1" class="s1" d="m250.5 10.4c13.2 0 18.8 0.2 12.5 0.3-6.3 0.2-17.1 0.2-24 0-6.9-0.1-1.7-0.3 11.5-0.3z"/>
		<path id="Path 2" class="s2" d="m504.7 239c0.2 2.5 0.2 6.8 0 9.5-0.2 2.8-0.3 0.7-0.3-4.5 0-5.2 0.1-7.5 0.3-5z"/>
		<path id="Path 3" class="s3" d="m10.7 251c0.2 8.5 0.2 22 0 30-0.1 8-0.3 1-0.3-15.5 0-16.5 0.2-23 0.3-14.5z"/>
		<path id="Path 4" class="s4" d="m266.5 503.4c8.8 0 12.6 0.2 8.5 0.3-4.1 0.2-11.3 0.2-16 0-4.7-0.1-1.3-0.3 7.5-0.3z"/>
		<path id="Path 5" class="s5" d="m261 29.6c10.2 0.1 22.8 0.5 28 0.8 5.2 0.4 14 1.6 19.5 2.8 5.5 1.1 15.2 3.8 21.5 6 6.3 2.2 16 6.2 21.5 8.7 5.5 2.6 14.5 7.4 20 10.6 5.5 3.2 13.1 8.1 17 10.9 3.9 2.7 9.5 7 12.5 9.5 3 2.5 10.2 9.1 15.9 14.6 5.6 5.5 13.4 13.6 17.1 18 3.7 4.4 9.8 12.3 13.5 17.5 3.7 5.2 9.1 13.8 12.1 19 2.9 5.2 7.3 14 9.8 19.5 2.4 5.5 6 14.9 8 21 2 6.1 4.9 16.6 6.3 23.5 2.6 12 2.7 13.9 2.7 44.5 0.1 29.8-0.1 32.8-2.3 43.5-1.2 6.3-4.3 17.6-6.7 25-2.4 7.4-7.7 20.3-11.7 28.5-4.1 8.3-9.8 18.8-12.7 23.5-2.9 4.7-8.5 12.6-12.5 17.5-4 4.9-12.4 14.3-18.6 20.9-6.3 6.5-15.2 14.9-19.9 18.6-4.7 3.7-13 9.7-18.5 13.3-5.5 3.5-15.6 9.4-22.5 13-6.9 3.6-17.2 8.4-23 10.7-5.8 2.4-15.7 5.6-22 7.2-6.3 1.6-16.4 3.5-22.5 4.4-6.1 0.8-20.2 1.8-31.5 2.1-16.2 0.4-23.4 0.2-34-1.2-7.4-0.9-19.3-3.2-26.5-5-7.2-1.8-17.7-5.2-23.5-7.5-5.8-2.2-17-7.5-25-11.7-8-4.2-18.3-10.2-23-13.3-4.7-3.2-14.5-11.3-21.9-18.1-7.4-6.8-18.1-17.6-23.8-23.9-5.7-6.3-13.6-16.2-17.6-22-3.9-5.8-10.8-18.1-15.3-27.5-4.5-9.4-9.6-21.1-11.2-26-1.7-4.9-4-12.6-5.1-17-1.1-4.4-2.9-13.2-4-19.5-1.6-9.7-1.9-15.5-1.6-37.5 0.2-21.5 0.7-28 2.4-37.5 1.2-6.3 3.1-15.1 4.2-19.5 1.1-4.4 3.1-11.6 4.6-16 1.4-4.4 5.6-14.3 9.4-22 3.7-7.7 8.9-17.2 11.5-21 2.5-3.8 7.8-11.3 11.7-16.5 3.9-5.2 13.8-16.3 22.1-24.5 8.3-8.3 19.4-18.5 24.6-22.7 5.2-4.1 13.8-10.2 19-13.3 5.2-3.2 15.3-8.7 22.5-12.2 7.2-3.4 18.4-8 25-10.2 6.6-2.1 16.5-4.9 22-6.1 5.5-1.2 15.4-2.5 22-2.8 6.6-0.4 20.3-0.6 30.5-0.6z"/>
		<path id="Path 6" class="s6" d="m257.5 29.4c7.7 0 10.6 0.2 6.5 0.3-4.1 0.2-10.4 0.2-14 0-3.6-0.2-0.2-0.3 7.5-0.3z"/>
		<path id="Path 7" class="s7" d="m29.7 259.5c0.2 2.2 0.2 5.6 0 7.5-0.2 1.9-0.4 0.1-0.4-4 0-4.1 0.2-5.7 0.4-3.5z"/>
		<path id="Path 8" class="s0" d="m305.5 43.1c4.1 0 9.3 0.7 12.5 1.7 3 0.9 7.6 3.2 10.3 5 2.6 1.7 6.2 5.3 7.9 7.9 1.8 2.7 4.1 7.3 5 10.3 1 3 1.8 8.4 1.8 12 0 3.6-0.7 8.7-1.7 11.5-0.9 2.7-2.6 6.6-3.9 8.5-1.2 1.9-3.9 5.1-6 7.1-2.2 1.9-5 4.2-6.4 5.1-1.4 0.8-4.8 2.2-7.5 3.1-4.2 1.5-9.6 1.7-66.5 1.7l-3.8-3.6c-3.6-3.5-3.7-3.9-3.2-9 0.4-4.1 1.1-6 6-10.9l61.2-1 3.4-3.8c2-2.2 3.4-4.8 3.5-6.5 0.1-1.5 0-3.8-0.1-5.2-0.1-1.4-1.6-4-3.3-5.8-2.8-2.9-3.8-3.3-8.2-3.3-3.2 0-5.9 0.7-7.4 1.8-1.3 1-3.3 2.4-4.5 3.1-1.2 0.7-4.3 1.2-7.2 1q-5.2-0.3-7.3-2.3c-1.2-1.1-2.6-3.7-3.2-5.8-0.6-2.6-0.5-5 0.3-7.9 1-3.1 2.5-5 5.8-7.5 2.5-1.8 7-4.1 10-5.2 3.3-1.2 8.3-2 12.5-2zm-175.3 50.1c5.9 0.3 7.1 0.7 9.5 3.1 2.2 2.2 2.9 3.9 3.2 8 0.3 4.4 0 5.7-2.3 8.4-1.8 2.3-3.7 3.5-6.3 3.9-2.1 0.3-5.1 1-6.8 1.4-1.6 0.5-4.2 2.1-5.6 3.7q-2.5 2.8-3.4 8.3c-0.5 3.7-1.7 6.5-3.4 8.4-2.1 2.3-3.7 3-8.2 3.5-5.5 0.6-5.7 0.5-9.3-3.2-3.3-3.4-3.6-4.2-3.6-9.5 0-3.1 0.8-8.2 1.8-11.2 1-3 3.2-7.5 4.8-9.9 1.6-2.4 4.9-5.8 7.4-7.6 2.5-1.8 7-4.2 10-5.4 4-1.5 7.3-2 12.2-1.9zm76.4-0.1c4.2 0.3 5.9 1 8.1 3.2 2.2 2.2 2.9 3.9 3.2 8 0.3 4.6 0 5.6-2.5 8.6-2.5 2.8-3.8 3.4-8.5 4-5.5 0.6-5.7 0.5-9.5-3.3-3.8-3.8-3.9-4-3.3-9.5 0.6-4.7 1.2-6.1 3.9-8.5 2.9-2.5 3.9-2.8 8.6-2.5zm176.2 0c3-0.1 7.6 0.8 11 2 3.1 1.2 7.7 3.6 10.2 5.4 2.5 1.8 5.8 5.2 7.4 7.6 1.6 2.4 3.8 6.9 4.8 9.9 1 3 1.8 8.1 1.8 11.2 0 5.3-0.3 6.1-3.6 9.5-3.6 3.7-3.8 3.8-9.3 3.2-4.5-0.5-6.1-1.2-8.2-3.5-1.7-1.9-2.9-4.7-3.4-8.4q-0.9-5.5-3.4-8.3c-1.4-1.6-4-3.2-5.6-3.7-1.6-0.4-4.7-1.1-6.7-1.4-2.7-0.4-4.6-1.6-6.4-3.9-2.2-2.7-2.6-4-2.3-8.3 0.2-3.1 1.2-6.1 2.2-7.4 1-1.3 2.8-2.6 4-3.1 1.2-0.4 4.6-0.8 7.5-0.8zm-181.8 49.9h56c54.7 0 56.1 0 61.8 2.1 3.1 1.2 7.7 3.6 10.2 5.4 2.5 1.8 5.8 5.2 7.4 7.6 1.6 2.4 3.8 6.9 4.8 9.9 1 3.1 1.8 8.3 1.8 12 0 3.6-0.7 8.7-1.7 11.5-0.9 2.7-2.6 6.6-3.9 8.5-1.2 1.9-3.9 5.1-6 7.1-2.2 1.9-5 4.2-6.4 5.1-1.4 0.8-4.7 2.2-7.5 3.1-2.7 1-7.9 1.7-11.5 1.7-3.6 0-8.7-0.7-11.5-1.7-2.7-0.9-6.1-2.3-7.5-3.1-1.4-0.9-4-2.9-5.8-4.6-1.8-1.7-3.7-4.4-4.3-6.1-0.7-2-0.7-4.3 0-7 0.5-2.2 2-4.9 3.2-6q2.1-2 7.3-2.3c2.9-0.2 6 0.3 7.2 1 1.2 0.7 3.2 2.1 4.5 3.1 1.5 1.1 4.2 1.8 7.3 1.8 4.2 0.1 5.4-0.4 8.3-3.3 3-2.9 3.4-3.9 3.4-8.3q0-5-1.9-7.5c-1-1.4-3.4-3.3-5.3-4.2-3.1-1.6-7.9-1.8-109.9-1.8l-3.7-3.6c-3.7-3.6-3.8-3.8-3.2-9.3 0.5-4.6 1.2-6.1 3.8-8.3zm-110.5 12.5c2.7 0.2 8.6 0.7 13 1 4.4 0.4 11.9 2 16.7 3.6 4.8 1.6 11.1 4.1 14 5.6 2.9 1.4 7.1 3.8 9.3 5.2 2.3 1.4 6.5 4.5 9.5 7 3 2.4 8.4 7.9 12 12.3 3.5 4.3 7.6 9.9 9 12.5 1.4 2.6 3.1 5.7 3.6 6.8 0.6 1 2.1 4.1 3.2 6.7 1.2 2.6 3.2 8.7 4.4 13.5 1.8 7 2.2 11.6 2.2 23.3 0.1 11-0.4 16-1.8 20.9-1 3.6-3.4 9.9-5.3 14.1-2 4.1-5.3 9.7-7.3 12.5-2.1 2.7-6.2 7.2-9.2 10-2.9 2.8-7.8 6.7-10.8 8.8-3.1 2-9.6 5.3-23.5 11.2l-17-0.1c-14.4 0-17.8-0.3-22-1.9-2.8-1-5.5-2.3-6-2.7-0.6-0.5-1.6-0.9-2.3-0.9-0.7 0-3.8-1.6-7-3.6-3.1-2-7.9-5.7-10.6-8.3-2.7-2.5-6.8-7.2-9.1-10.5-2.4-3.4-5.3-8.3-6.5-11-1.3-2.8-3.1-8.2-4.1-12-1.3-4.6-1.9-10.5-1.9-17 0-6.6 0.6-12.5 1.9-17 1-3.9 3-9.3 4.4-12 1.4-2.8 4.7-7.2 7.3-9.8 2.7-2.6 7.1-6.2 9.9-8 2.7-1.9 6.5-5.6 8.3-8.3 1.8-2.7 4-7.4 4.8-10.4 1-3.4 1.3-7.1 1-9.5-0.4-2.2-2-6.7-3.6-10-1.8-3.6-3-7.7-3-10 0-2.5 0.8-5.2 2.1-7.2 1.3-1.9 3.6-3.5 5.8-4.2 1.9-0.6 5.8-0.8 8.6-0.6zm316.2 12.5c3.1 0 5 0.6 7 2.3 1.5 1.3 3.7 4.1 4.8 6.2 1.1 2.2 3.2 5.7 4.7 7.9 1.6 2.2 2.8 4.5 2.7 5.1 0 0.5 0.7 1.6 1.6 2.5 0.9 0.8 2.5 3.3 3.6 5.5 1.1 2.1 2.8 5.3 3.7 7 1 1.6 3.5 5.9 5.6 9.5 2.1 3.5 4.6 7.8 5.6 9.5 0.9 1.6 3.4 5.9 5.6 9.5 2.1 3.5 4.6 7.8 5.6 9.5 1 1.6 3.2 5.9 4.9 9.5 1.8 3.5 4 9.6 5 13.5 1.1 4.2 1.8 10.5 1.8 16 0 5.4-0.7 11.7-1.8 16-1 3.8-3.3 9.9-5.2 13.4-1.9 3.6-6.4 9.6-9.9 13.4-3.6 3.8-9.5 8.6-13 10.7-3.6 2.1-9.7 4.9-13.5 6.2-5.8 1.8-9.2 2.2-19.5 2.2-11.2 0-13.4-0.3-20.5-2.8-4.4-1.6-10.3-4.3-13-6.1-2.8-1.8-7.5-5.7-10.4-8.7-3-2.9-6.9-7.6-8.7-10.3-1.7-2.8-4.5-8.7-6.1-13-2.5-7.2-2.8-9.3-2.8-20.5 0-10.5 0.4-13.8 2.4-20 1.3-4.2 3.7-10 5.3-13 1.6-3.1 3.3-6 3.8-6.5 0.5-0.6 2.5-4.2 4.5-8 2.1-3.9 4.3-7.7 4.9-8.5 0.7-0.9 2-2.9 2.8-4.5 0.8-1.7 2.7-5.3 4.2-8 1.5-2.8 3.1-5.5 3.6-6 0.5-0.6 2.5-4.2 4.5-8 2.1-3.9 4.3-7.7 4.9-8.5 0.7-0.9 2-2.9 2.8-4.5 0.8-1.7 2.7-5.3 4.2-8 1.5-2.8 3.4-5.9 4.2-6.9 0.9-1.1 2.5-2.3 3.7-2.7 1.2-0.5 4.1-0.9 6.4-0.9zm-70.7 152l3.5 3.5c3.3 3.3 3.5 3.8 3.4 10.2 0 3.7-0.9 10.1-1.9 14.3-1.1 4.1-3.3 9.9-4.8 12.8-1.5 3-5 8.2-7.8 11.5-2.8 3.5-8 8.1-12 10.7-3.8 2.5-8.1 5-9.4 5.6-1.4 0.6-5 1.9-8 2.9-3.7 1.3-9.7 2.1-30.5 3v50l43.4 1 2.8 2.7c2.1 2.2 2.9 4.1 3.3 8.2 0.4 5 0.3 5.5-6.8 12.6h-110.2l-3.8-3.7c-3.6-3.5-3.7-3.8-3.2-8.9 0.3-4.1 1.1-6 6-10.9l43.5-1v-25l-12.5-0.6c-8.3-0.3-14.4-1.1-18-2.4-3.1-1-6.7-2.3-8-2.9-1.4-0.6-5.7-3.1-9.5-5.6-3.9-2.6-9.1-7.2-12-10.7-2.8-3.3-6.3-8.5-7.8-11.5-1.5-2.9-3.7-8.7-4.7-12.8-1.1-4.2-2-10.6-2-14.3 0-6.3 0.2-7 6.8-13.7h19.1c13.9 0 20.9 0.4 25.8 1.5 3.7 0.9 9.2 2.8 12.3 4.2 3 1.5 7.3 3.9 9.5 5.5 2.4 1.7 4.3 2.4 5 1.8 0.5-0.4 2-2.8 3.2-5.2 1.2-2.4 4.4-7 7-10.3 2.7-3.3 7.1-7.7 9.8-9.8 2.7-2.1 7.4-5.1 10.5-6.5 3-1.5 8.4-3.5 12-4.4 4.8-1.2 11.5-1.6 46-1.8zm-229.2 50.2c4.6 0.4 6.1 1 8.2 3.4 1.8 1.9 2.9 4.7 3.5 8.4 0.5 3.2 1.7 6.5 3 8 1.2 1.3 3.7 3 5.6 3.6 1.8 0.6 5.1 1.4 7.1 1.8 2.6 0.4 4.6 1.5 6.4 3.8 2.2 2.8 2.5 4 2.2 8.5-0.3 4-0.9 5.8-3.1 8-2.6 2.5-3.4 2.8-10.5 2.8-6.4 0-8.8-0.5-13.7-2.9-3.3-1.5-7.8-4.4-9.9-6.5-2.1-2-4.9-5.2-6.1-7.1-1.2-2-3-5.8-3.9-8.5-0.9-2.8-1.6-7.7-1.5-10.9 0.1-5.3 0.4-6.2 3.5-9.4 3.3-3.4 3.7-3.5 9.2-3zm299.9-0.2c3.6 0 4.8 0.5 7.8 3.5 3.1 3.1 3.5 4 3.5 9.2 0 3.2-0.8 8-1.7 10.8-0.9 2.7-2.7 6.5-3.9 8.5-1.2 1.9-4 5.1-6.1 7.1-2.1 2.1-6.5 5-9.8 6.5-5 2.4-7.4 2.9-13.8 2.9-7.1 0-7.9-0.3-10.5-2.8-2.1-2.2-2.8-4-3.1-8.1-0.4-4.5-0.1-5.7 2.2-8.4 1.8-2.2 3.9-3.4 6.4-3.8 2.1-0.4 5.3-1.2 7.1-1.8 1.9-0.6 4.4-2.3 5.6-3.6 1.3-1.5 2.5-4.6 2.9-7.5 0.4-2.8 1.6-6.3 2.7-7.9 1.1-1.5 3-3.2 4.3-3.7 1.2-0.4 4.1-0.9 6.4-0.9z"/>
		<path id="Path 9" class="s8" d="m280.5 92.4c14.9 0 21.1 0.2 14 0.3-7.1 0.2-19.3 0.2-27 0-7.7-0.1-1.9-0.3 13-0.3zm-24 50.1c29.1 0 41.3 0.1 27 0.2-14.3 0.2-38.2 0.2-53 0-14.8-0.1-3.2-0.2 26-0.2zm20.5 251.8c4.7 0 6.5 0.2 4 0.4-2.5 0.2-6.3 0.2-8.5 0-2.2-0.2-0.2-0.4 4.5-0.4zm-42 25c4.7 0 6.5 0.2 4 0.4-2.5 0.2-6.3 0.2-8.5 0-2.2-0.2-0.2-0.4 4.5-0.4zm-11.5 25.1c11 0 15.7 0.2 10.5 0.3-5.2 0.2-14.2 0.2-20 0-5.8-0.1-1.5-0.3 9.5-0.3zm65 0c11 0 15.7 0.2 10.5 0.3-5.2 0.2-14.2 0.2-20 0-5.8-0.1-1.5-0.3 9.5-0.3z"/>
		<path id="Path 10" class="s9" d="m281 117.4c14.6 0 20.4 0.2 13 0.3-7.4 0.2-19.4 0.2-26.5 0-7.1-0.1-1.1-0.3 13.5-0.3zm-24.5 50.1c28.6 0 40.5 0.1 26.5 0.2-14 0.2-37.4 0.2-52 0-14.6-0.1-3.1-0.2 25.5-0.2zm62 151.9c7.7 0 10.6 0.2 6.5 0.3-4.1 0.2-10.4 0.2-14 0-3.6-0.2-0.2-0.3 7.5-0.3zm-125 25c7.7 0 10.6 0.2 6.5 0.3-4.1 0.2-10.4 0.2-14 0-3.6-0.2-0.2-0.3 7.5-0.3zm75.2 63.1c0.2 7.1 0.2 18.4 0 25-0.1 6.6-0.3 0.7-0.3-13 0-13.8 0.2-19.1 0.3-12zm-25 18c0.2 3.3 0.2 8.9 0 12.5-0.2 3.6-0.3 0.9-0.3-6 0-6.9 0.1-9.8 0.3-6.5z"/>
		<path id="Path 11" class="s10" d="m256 469.5c28.3 0 39.8 0.1 25.5 0.2-14.3 0.2-37.5 0.2-51.5 0-14-0.1-2.3-0.2 26-0.2z"/>
		<path id="Path 12" class="s5" d="m106.9 182c0.9 0 4.3 1.2 7.6 2.5 3.3 1.4 6.3 2.5 6.7 2.5 0.5 0 4 2 7.8 4.5 3.8 2.5 9.3 6.9 12.1 9.8 2.9 2.8 6.9 7.6 9 10.4 2.2 2.9 3.9 5.6 3.9 6 0 0.5 1 2.8 2.3 5.3 1.4 2.5 3.5 8.6 4.7 13.5 1.8 7.4 2.1 10.8 1.7 19-0.2 5.5-1.2 12.3-2.1 15-1 2.7-2.3 6.4-3.1 8-0.7 1.6-2 3.7-2.9 4.5-0.9 0.8-1.7 1.3-1.9 1-0.1-0.3-1.5-3.2-3.1-6.5-1.6-3.3-3.5-6.7-4.1-7.5-0.7-0.8-2.8-4.4-4.7-8-1.9-3.6-6-11-9.1-16.5-3-5.5-6.5-10.9-7.8-12-1.3-1.3-3.9-2.1-6.8-2.3-2.5-0.2-5.7 0.3-7.1 1-1.3 0.7-3.6 3.1-5.1 5.3-1.4 2.2-4.1 6.7-5.9 10-1.8 3.3-5.7 10.1-8.5 15-2.9 4.9-6.4 11.3-7.7 14-1.4 2.7-3.2 6.9-5.3 13.6l-1.8-2.3c-0.9-1.3-2.4-3.7-3.2-5.3-0.7-1.6-2.2-5.5-3.1-8.5-1.3-4.1-1.6-7.6-1.2-14 0.3-5.6 1.2-10.1 2.7-13.3 1.5-3.3 3.5-5.7 6.8-7.9 2.7-1.8 7.7-6.2 11.3-9.8 3.6-3.6 8-9 9.7-12 1.7-3 4.1-9.6 5.3-14.5 1.6-6.3 2.1-10.7 1.7-14.8-0.4-4.8-0.2-5.7 1.2-5.7zm299.7 25c0.8 0 1.7 0.8 2 1.8 0.3 0.9 3 5.8 5.9 10.7 3 4.9 5.4 9.3 5.5 9.8 0 0.4 1.4 2.6 3 5 1.7 2.3 3.1 4.6 3.1 5.2 0 0.6 0.6 1.7 1.3 2.5 0.8 0.8 2.5 3.4 3.8 5.7 1.3 2.3 3.9 7 5.9 10.5 2 3.5 4.4 8.8 5.3 11.8 0.9 3 1.6 8.3 1.6 11.8 0 3.6-0.8 8.6-2 11.9-1.1 3.2-3.3 7.6-4.8 9.7-1.5 2.2-4.9 5.6-7.7 7.6-2.7 2.1-7.7 4.8-11 6-4.9 1.8-7.5 2.1-14 1.8-6-0.3-9.5-1.1-14-3.2-3.3-1.5-8.1-4.8-10.7-7.4-2.8-2.7-5.9-7.2-7.5-10.7-1.7-3.9-2.8-8.4-3.1-13-0.3-3.9 0-9.2 0.7-12 0.7-2.7 2.3-7 3.5-9.5 1.3-2.5 3.2-6.1 4.3-8 1.1-1.9 4.6-8 7.8-13.5 3.1-5.5 6.9-12 8.3-14.5 1.4-2.5 3.1-5.4 3.7-6.5 0.6-1.1 2.6-4.6 4.4-7.8 1.8-3.1 3.9-5.7 4.7-5.7zm-290.7 63c0.3 0 1.5 1.7 2.7 3.7 1.1 2.1 3.7 6.8 5.7 10.6 2.5 4.5 3.7 8 3.7 10.7 0 2.9-0.7 4.8-2.7 7.1-2.3 2.6-3.8 3.3-8.4 3.8-5.5 0.6-5.7 0.5-9.3-3.1-2.9-3.1-3.6-4.6-3.6-7.8 0-2.8 1.3-6.4 4.1-11.7 2.3-4.3 4.8-9 5.7-10.5 0.9-1.6 1.8-2.8 2.1-2.8zm191.3 75.1c8-0.1 8.7 0.1 8.1 1.7-0.3 0.9-1.7 3.3-2.9 5.2-1.2 1.9-3.9 5.2-6 7.2-2.2 2-6.6 5-9.9 6.5-5.1 2.4-7.5 2.8-25.5 3.3l1.2-2.7c0.7-1.6 2.6-4.8 4.4-7.3 1.7-2.5 5.1-5.8 7.5-7.4 2.4-1.6 6.6-3.7 9.4-4.7 3.2-1.1 8.1-1.8 13.7-1.8zm-102.9 24.9c5.4 0 10.1 0.6 13.7 1.8 3 1 7.5 3.2 9.9 4.8 2.4 1.6 5.8 4.9 7.5 7.4 1.8 2.5 3.7 5.7 5.6 10l-9.8-0.3c-8.2-0.2-10.6-0.6-15.7-3-3.3-1.5-7.7-4.5-9.9-6.5-2.1-2-4.8-5.3-6-7.2-1.2-1.9-2.5-4.3-2.9-5.2-0.5-1.6 0.2-1.8 7.6-1.8z"/>
	</g>
</svg>