<svg version="1.2" xmlns="http://www.w3.org/2000/svg" viewBox="0 0 512 512" width="512" height="512">
	<title>m-arcaneProtection-svg</title>
	<style>
		.s0 { fill: #cd59f7 } 
		.s1 { opacity: .9;fill: #cd59f7 } 
		.s2 { opacity: .4;fill: #cd59f7 } 
		.s3 { opacity: .2;fill: #cd59f7 } 
		.s4 { opacity: .7;fill: #cd59f7 } 
		.s5 { fill: #000000 } 
		.s6 { fill: #371843 } 
		.s7 { fill: #9742b6 } 
	</style>
	<g id="shaking-hands">
		<path id="Path 0" class="s0" d="m282.5 10.8c7.3 0.2 16.9 1.3 24.5 2.7 6.9 1.4 15.9 3.3 20 4.3 4.1 1.1 12.2 3.8 18 6.1 5.8 2.3 15.8 6.9 22.3 10.2 6.4 3.2 15.9 8.5 20.9 11.6 5.1 3.1 10.9 6.8 12.8 8.2 1.9 1.4 7.8 6 13 10.2 5.2 4.2 15.4 13.7 22.5 21 7.2 7.4 15.6 16.6 18.7 20.4 3.1 3.8 8 10.8 11.1 15.5 3 4.7 8.2 13.4 11.6 19.5 3.4 6.1 8.1 15.7 10.5 21.5 2.4 5.8 5.5 14.1 7 18.5 1.4 4.4 4 13.8 8.9 34l0.2 84-2.7 11c-1.5 6.1-4.1 15.6-5.8 21.3-1.6 5.6-5.3 15.3-8.1 21.5-2.8 6.1-8.4 17.3-12.5 24.7-4.1 7.4-11.1 18.4-15.6 24.5-4.6 6.1-13.9 16.8-20.8 23.9-6.9 7.1-17.7 17.4-24 22.9-6.3 5.5-15.6 12.7-20.5 15.9-4.9 3.3-13.5 8.4-19 11.3-5.5 2.9-14.9 7.6-21 10.4-6.1 2.7-16.4 6.6-23 8.5-6.6 1.9-15.6 4.2-20 5.1-4.4 0.9-11.6 2.2-16 2.8-5.1 0.8-19.8 1.2-40.5 1.1-30.6-0.1-33.2-0.3-45-2.7-6.9-1.4-16.8-3.7-22-5.2-5.2-1.5-13.3-4.2-18-6.2-4.7-1.9-15.2-6.8-23.5-11-8.2-4.1-18.6-9.8-23-12.7-4.4-2.9-11.8-8.3-16.5-12.1-4.7-3.7-15.2-13.3-23.3-21.4-8.2-8-18.5-19.1-23-24.6-4.4-5.5-10.4-13.6-13.3-18-2.8-4.4-8-13.6-11.4-20.5-3.5-6.9-8-16.6-10.2-21.5-2.1-4.9-6.4-18-15-49v-38c0-24.5 0.4-40.3 1.2-44.5 0.6-3.6 1.8-9.9 2.6-14 0.9-4.1 2.9-12.2 4.6-18 1.6-5.8 5.4-16.1 8.4-23 3-6.9 8.4-17.7 12-24 3.7-6.3 8.4-14.2 10.6-17.5 2.3-3.3 7.3-10 11.3-15 4-4.9 14.2-15.8 22.6-24 8.5-8.3 19-17.7 23.4-21.1 4.4-3.3 11.2-8.1 15-10.6 3.8-2.5 12.4-7.6 19-11.2 6.6-3.6 16.7-8.6 22.5-11.1 5.8-2.4 16.1-6 23-8 6.9-1.9 16.1-4.3 20.5-5.2 5.8-1.2 15.7-1.8 35.5-2.2 15.1-0.3 32.9-0.5 39.5-0.3z"/>
		<path id="Path 1" class="s1" d="m504.7 239c0.2 2.5 0.2 6.8 0 9.5-0.2 2.8-0.3 0.7-0.3-4.5 0-5.2 0.1-7.5 0.3-5z"/>
		<path id="Path 2" class="s2" d="m10.7 250.5c0.2 7.1 0.2 18.4 0 25-0.1 6.6-0.3 0.8-0.3-13 0-13.8 0.2-19.2 0.3-12z"/>
		<path id="Path 3" class="s3" d="m248.5 10.4c12.1 0 16.8 0.2 10.5 0.3-6.3 0.2-16.2 0.2-22 0-5.8-0.1-0.6-0.3 11.5-0.3z"/>
		<path id="Path 4" class="s4" d="m266.5 503.4c8.8 0 12.6 0.2 8.5 0.3-4.1 0.2-11.3 0.2-16 0-4.7-0.1-1.3-0.3 7.5-0.3z"/>
		<path id="Path 5" class="s5" d="m264.5 29.7c12.1 0.1 26.1 0.7 31 1.3 4.9 0.6 12.8 2 17.5 3.2 4.7 1.1 13 3.6 18.5 5.5 5.5 2 14.5 5.7 20 8.2 5.5 2.6 14.5 7.4 20 10.6 5.5 3.2 13.4 8.3 17.5 11.2 4.1 3 11.3 8.6 15.9 12.6 4.6 4 13.7 12.7 20.2 19.5 6.6 6.7 11.9 12.5 11.9 13 0 0.4-5.6 5.9-12.4 12.2-6.8 6.3-12.5 11.7-12.5 12-0.1 0.3 5.3 9.7 12 21 6.7 11.3 16.3 27.5 21.4 36 5.1 8.5 16.5 27.9 41.8 70.5l-0.8 12.5c-0.4 6.9-1.8 17.7-3.1 24-1.3 6.3-4.2 16.9-6.4 23.5-2.2 6.6-7.3 18.8-11.3 27-4.1 8.3-9.9 19.1-13 24-3 4.9-9.3 13.5-13.8 19-4.6 5.5-13 14.9-18.8 20.9-5.9 5.9-14.2 13.7-18.6 17.1-4.4 3.4-12.5 9.2-18 12.8-5.5 3.5-15.6 9.4-22.5 13-6.9 3.6-17.2 8.4-23 10.7-5.8 2.4-15.7 5.6-22 7.2-6.3 1.6-16.4 3.5-22.5 4.4-6.1 0.8-20.2 1.8-31.5 2.1-16.2 0.4-23.4 0.2-34-1.2-7.4-0.9-19.3-3.2-26.5-5-7.1-1.8-17.7-5.2-23.5-7.5-5.8-2.2-17-7.5-25-11.7-8-4.2-18.3-10.2-23-13.3-4.7-3.2-14.5-11.3-21.9-18.1-7.4-6.8-18.1-17.6-23.8-23.9-5.7-6.3-13.5-16-17.2-21.5-3.8-5.5-10-16.3-13.8-24-3.9-7.7-8.7-18.3-10.8-23.5-2.1-5.2-5.2-15.4-7-22.5-1.8-7.1-3.6-15-4.7-22l9.4-0.7c5.1-0.4 11.7-1.1 20.1-2.3l25.9-65.5c14.2-36 25.8-65.9 25.9-66.5 0-0.6-8.1-9-36.1-36.5l3.9-5.2c2.2-2.9 9.9-11.2 17.3-18.3 7.3-7.2 18-16.8 23.8-21.4 5.8-4.6 14.6-10.7 19.5-13.6 4.9-3 14.6-8.1 21.5-11.4 6.9-3.3 17.9-7.8 24.5-10 6.6-2.1 16.5-4.9 22-6.1 5.5-1.2 15.4-2.5 22-2.8 6.6-0.4 21.9-0.6 34-0.5z"/>
		<path id="Path 6" class="s6" d="m39.5 289.3c4.4 0 6.4 0.2 4.5 0.4-1.9 0.2-5.5 0.2-8 0-2.5-0.2-0.9-0.4 3.5-0.4z"/>
		<path id="Path 7" class="s7" d="m257 29.4c7.4 0 10.4 0.1 6.5 0.3-3.9 0.2-9.9 0.2-13.5 0-3.6-0.2-0.4-0.3 7-0.3z"/>
		<path id="Path 8" fill-rule="evenodd" class="s0" d="m297 168.2l7.3 1.9c3.9 1.1 10.8 3.1 15.2 4.6 4.4 1.4 12.7 4.5 18.5 6.8 5.8 2.3 14.2 6.1 27 12.5l4.8-2.8c2.6-1.6 12-7.4 21-13 8.9-5.6 16.3-10.1 16.5-9.9 0.2 0.1 13.4 22.3 29.4 49.2 16 26.9 29.4 49.8 29.7 50.8 0.5 1.3-3.7 4.6-20.6 15.9-11.7 7.8-22 14.2-22.8 14.2-0.8 0-27.1-18.5-58.5-41.1-50.6-36.4-57.4-41.6-60.2-46.2-1.8-2.8-3.5-5.1-3.8-5.1-0.3 0-4.9 2.7-10.2 6-5.4 3.4-13.3 7.4-17.5 9-4.3 1.7-10.6 3.7-14 4.5-3.5 0.8-9.9 1.5-14.3 1.5-4.9 0-11.1-0.8-16-2-4.4-1.2-10.5-3.4-13.5-5.1-3-1.6-8.2-5.3-11.5-8.3-4-3.7-5.7-5.8-5-6.4 0.6-0.6 4.6-2.5 9-4.2 4.4-1.7 18.6-7.2 31.5-12.2 12.9-5 31.3-11.6 40.8-14.8zm-170.7 2.8h3.6c1.9 0 21.5 1.4 43.5 3 22 1.7 40.7 3.1 41.5 3.3 0.9 0.1-7.2 3.6-17.9 7.7-14.3 5.5-20 8.2-21.7 10.3-1.3 1.5-2.4 3.9-2.4 5.5 0 1.5 1.5 4.7 3.3 7.2 1.8 2.5 5 6.7 7.2 9.4 2.2 2.6 7.4 7.5 11.5 10.8 4.2 3.3 10.5 7.5 14 9.3 3.6 1.8 9.7 4.3 13.5 5.5 4.3 1.3 10.9 2.4 17 2.7 6.9 0.4 12.9 0 19.3-1.1 5.1-0.9 13.4-3.2 18.5-5.2 5.1-1.9 11.3-4.7 13.7-6.1 3.9-2.3 4.8-2.4 6.5-1.3 1.1 0.7 26 18.6 108.5 78v3.8c-0.1 2-0.7 5.3-1.4 7.2-0.7 1.9-2.3 4.3-3.7 5.2-1.3 1-4 2.4-9.9 4.8l-48.7-34.6c-26.8-19-49.2-35-49.8-35.5-0.6-0.5-2.9 1.9-6.2 6.4-4.5 6.3-5 7.4-3.8 8.7 0.8 0.8 23 16.8 97.5 69.5v5c0 3.3-0.7 6.1-2 8.3-1.1 1.7-3.2 4-4.7 4.9-1.5 1-4.2 1.7-5.9 1.8-2.6 0-11.1-5.6-45.8-30.2-23.4-16.7-43-30.3-43.6-30.3-0.5 0-3.5 3.7-6.6 8.3-5.3 7.8-5.5 8.3-3.7 9.5 1 0.7 18.6 13.3 76.4 54.7v4.3c0 2.3-0.6 5.7-1.4 7.5-0.7 1.7-2.8 4.2-4.7 5.4-1.9 1.2-4.6 2.5-6 2.8-2.1 0.6-7.3-2.8-35.5-22.9-18.1-12.9-33.2-23.6-33.5-23.6-0.2 0-2.7 3.1-5.5 7-2.7 3.9-5.2 7.1-5.5 7-0.2 0-1-3.5-1.7-7.7-0.7-4.3-2.5-10.3-3.8-13.3-1.4-3-4.5-7.5-6.9-10-2.4-2.5-6.8-5.6-9.7-6.9-3-1.3-6-2.7-6.9-3.1-0.8-0.4-1.8-2.9-2.2-5.9-0.4-2.8-1.6-7.5-2.7-10.3-1.1-2.9-3.9-7.5-6.3-10.2-2.3-2.7-6.3-6-8.8-7.4-2.4-1.5-6.9-3.2-10-3.9-3-0.7-7.9-1.3-16.5-1.2l-3.2-6.6c-2.4-4.9-4.7-7.6-9-11-3.2-2.5-8-5.1-10.8-6-2.7-0.8-8.6-1.8-21.3-3l-3.8 4.2c-2.1 2.4-9.7 11-16.9 19.2-8.7 10.1-13.4 14.8-14.5 14.4-0.8-0.2-4.5-2.8-8.2-5.6-5.2-4-6.6-5.6-6.3-7.2 0.3-1.1 10.3-26.9 22.2-57.2zm13.1 106.8l4 0.6c2.2 0.4 5.6 1.4 7.5 2.4 2.4 1.2 4 3 5.3 6.2 1.1 2.4 2 5.4 2.1 6.6 0.1 1.5-7.2 10.4-46.9 55.4l-4-0.6c-2.2-0.4-5.5-1.4-7.4-2.3-2.3-1.1-4-2.9-5.2-5.6-1-2.2-1.9-5.2-2.1-6.6-0.2-2.1 3.8-7.3 23.2-29.3zm46 26.1c1.7 0 5 1 7.5 2.3 2.5 1.2 5.2 3.6 6.2 5.2 0.9 1.7 2 4.6 2.3 6.5 0.6 3.4 0.1 4.2-52 63.2l-5.1-0.3c-3.3-0.3-6.3-1.2-8-2.5-1.6-1.1-3.7-3.8-4.7-6-1-2.1-1.7-5.1-1.5-6.6 0.2-1.8 8.5-12 26.3-32.2 23.3-26.5 26.3-29.6 29-29.6zm28.3 38c1 0 3.4 0.5 5.5 1 2 0.6 5 2.1 6.5 3.4 1.5 1.3 3.3 4.3 4.1 6.7 0.7 2.4 1.2 5.2 1 6.1-0.2 0.9-10.7 13.4-46.4 53.9l-4.5-0.6c-2.5-0.3-5.8-1.3-7.5-2.3-1.6-0.9-3.7-3.3-4.7-5.2-0.9-1.9-2-4.8-2.3-6.5-0.5-2.8 1.2-5 23-29.7 13.4-15.2 24.4-26.8 25.3-26.8zm26.6 39.6c1.7 0.3 5 1.5 7.4 2.5 3 1.4 4.7 2.9 5.7 5.4 0.8 1.9 1.8 4.8 2.2 6.3 0.6 2.5-1.2 4.8-18.2 24.2-15.9 18.2-19.3 21.6-21.9 21.9-1.7 0.1-4.7-0.2-6.6-0.7-1.9-0.6-4.4-2.1-5.6-3.4-1.2-1.2-2.9-4.5-5.2-12.3l19.5-22.3c19.1-21.8 19.6-22.3 22.7-21.6zm33.7 6c0.8 0.6 8.6 6.2 17.4 12.4 8.8 6.3 16.2 11.5 16.5 11.8 0.3 0.2 0.5 2.3 0.4 4.6-0.1 2.2-0.9 5.8-1.8 7.9-1.1 2.7-2.7 4.3-5.8 5.7-2.4 1.1-5.1 2-6 2-1 0-7.4-3.9-14.3-8.7-6.8-4.8-12.5-9-12.5-9.3 0-0.3 1.8-2.6 8-10l-0.7-6.8c-0.5-3.8-1.2-7.7-1.7-8.8-0.8-1.5-0.7-1.7 0.5-0.8z"/>
	</g>
</svg>