<svg version="1.2" xmlns="http://www.w3.org/2000/svg" viewBox="0 0 512 512" width="512" height="512">
	<title>m-arcane_protection-svg</title>
	<style>
		.s0 { fill: #cd59f7 } 
		.s1 { opacity: .9;fill: #cd59f7 } 
		.s2 { opacity: .4;fill: #cd59f7 } 
		.s3 { opacity: .2;fill: #cd59f7 } 
		.s4 { opacity: .7;fill: #cd59f7 } 
		.s5 { fill: #000000 } 
		.s6 { fill: #c154e8 } 
		.s7 { fill: #26112e } 
		.s8 { fill: #150919 } 
		.s9 { fill: #3b1a47 } 
		.s10 { fill: #ac4ace } 
		.s11 { fill: #77348f } 
		.s12 { fill: #9c44bc } 
	</style>
	<g id="embrassed-energy">
		<path id="Path 0" class="s0" d="m282.5 10.8c7.3 0.2 16.9 1.3 24.5 2.7 6.9 1.4 15.9 3.3 20 4.3 4.1 1.1 12.2 3.8 18 6.1 5.8 2.3 15.8 6.9 22.3 10.2 6.4 3.2 15.9 8.5 20.9 11.6 5.1 3.1 10.9 6.8 12.8 8.2 1.9 1.4 7.8 6 13 10.2 5.2 4.2 15.6 13.9 23 21.5 7.5 7.7 15.6 16.6 18.1 19.9 2.6 3.3 7.7 10.7 11.5 16.5 3.9 5.8 9.7 15.7 13.1 22 3.4 6.3 7.7 15.3 9.6 20 1.9 4.7 4.6 12.1 6 16.5 1.5 4.4 4.1 13.8 9 34l0.2 84-2.7 11c-1.5 6.1-4.1 15.6-5.8 21.3-1.6 5.6-5.3 15.3-8.1 21.5-2.8 6.1-8.4 17.3-12.5 24.7-4.1 7.4-11.1 18.4-15.6 24.5-4.6 6.1-13.9 16.8-20.8 23.9-6.9 7.1-17.7 17.4-24 22.9-6.3 5.5-15.6 12.7-20.5 15.9-4.9 3.3-13.5 8.4-19 11.3-5.5 2.9-14.9 7.6-21 10.4-6.1 2.7-16.4 6.6-23 8.5-6.6 1.9-15.6 4.2-20 5.1-4.4 0.9-11.6 2.2-16 2.8-5.1 0.8-19.8 1.2-40.5 1.1-30.6-0.1-33.2-0.3-45-2.7-6.9-1.4-16.8-3.7-22-5.2-5.2-1.5-13.3-4.2-18-6.2-4.7-1.9-15.3-6.8-23.5-11-8.3-4.1-18.6-9.8-23-12.7-4.4-2.9-11.8-8.3-16.5-12.1-4.7-3.7-15.2-13.3-23.3-21.4-8.2-8-18.5-19.1-23-24.6-4.4-5.5-10.4-13.6-13.3-18-2.8-4.4-8-13.6-11.4-20.5-3.5-6.9-8-16.6-10.2-21.5-2.1-4.9-6.3-18-14.8-49l-0.1-38c-0.1-34.7 0-39 2-49.5 1.1-6.3 3-15.1 4.2-19.5 1.1-4.4 3.2-11.4 4.6-15.5 1.4-4.1 4.4-11.6 6.5-16.5 2.2-4.9 6.5-13.5 9.5-19 3.1-5.5 8.4-14.3 11.9-19.5 3.4-5.2 9.2-13.1 12.7-17.5 3.5-4.4 13.4-14.8 21.8-23 8.5-8.3 19-17.7 23.4-21.1 4.4-3.3 11.2-8.1 15-10.6 3.8-2.5 12.4-7.6 19-11.2 6.6-3.6 16.7-8.6 22.5-11.1 5.8-2.4 16.1-6 23-8 6.9-1.9 16.1-4.3 20.5-5.2 5.8-1.2 15.7-1.8 35.5-2.2 15.1-0.3 32.9-0.5 39.5-0.3z"/>
		<path id="Path 1" class="s1" d="m504.7 239c0.2 2.5 0.2 6.8 0 9.5-0.2 2.8-0.3 0.7-0.3-4.5 0-5.2 0.1-7.5 0.3-5z"/>
		<path id="Path 2" class="s2" d="m10.7 251.5c0.2 7.7 0.2 20.8 0 29-0.1 8.3-0.3 1.9-0.3-14 0-15.9 0.2-22.7 0.3-15z"/>
		<path id="Path 3" class="s3" d="m248.5 10.4c12.1 0 16.8 0.2 10.5 0.3-6.3 0.2-16.2 0.2-22 0-5.8-0.1-0.6-0.3 11.5-0.3z"/>
		<path id="Path 4" class="s4" d="m266.5 503.4c8.8 0 12.6 0.2 8.5 0.3-4.1 0.2-11.3 0.2-16 0-4.7-0.1-1.3-0.3 7.5-0.3z"/>
		<path id="Path 5" fill-rule="evenodd" class="s5" d="m326 39c0.6 0 5.4 1.6 10.8 3.6 5.3 2 15.8 6.7 23.2 10.6 7.4 3.8 17.8 9.8 23 13.2 5.2 3.4 13.6 9.6 18.5 13.8 4.9 4.1 12.8 11.2 17.5 15.6 5.4 5.2 8.1 8.4 7.5 9-0.6 0.5-12.7 3.1-27 5.6-14.3 2.6-29 5.4-32.8 6.2-3.7 0.8-7.8 1.4-9.2 1.4-1.4 0-2.5-0.3-2.5-0.7 0-0.5 3.3-9.6 7.5-20.3 4.1-10.7 7.5-20.3 7.5-21.3 0-1.6-0.2-1.6-3.3 0-1.7 0.9-11.6 6.7-22 13-10.3 6.2-18.9 11.3-19.2 11.3-0.3 0-0.5-13.7-0.5-30.5 0-19.7 0.4-30.5 1-30.5zm-145.8 3c0.5 0 0.8 12.2 0.8 27 0 20.9-0.3 27-1.2 27-0.7 0-6.7-3.3-13.3-7.4-6.6-4-14.8-8.9-18.2-10.9-3.5-2.1-6.6-3.5-7-3.2-0.5 0.2 2.7 9.7 7 21 4.2 11.3 7.5 20.8 7.3 21.3-0.3 0.4-15.4-2.1-33.8-5.5-18.3-3.5-33.4-6.5-33.5-6.8-0.2-0.3 5.7-6 13-12.6 7.2-6.7 16.8-14.9 21.2-18.3 4.4-3.4 11.4-8.2 15.5-10.7 4.1-2.5 9.8-5.9 12.5-7.4 2.8-1.6 10.4-5.3 17-8.1 6.6-2.9 12.3-5.3 12.8-5.4zm76.2 4.4c5.4 0.3 8.6 1.3 14 3.9 4.6 2.3 8.7 5.3 11.9 8.8 2.7 3 6.4 8.6 8.2 12.4 1.8 3.8 4.2 10.4 5.3 14.5 1.2 4.1 2.4 12 2.7 17.5 0.4 6 0.2 13-0.5 17.5-0.7 4.1-2.5 11.3-4.2 16-1.6 4.7-4.6 11-6.7 14-2 3-3.8 5.8-3.9 6.3-0.2 0.4 2.3 1.4 5.5 2.3 3.1 0.9 20.6 6.2 38.7 11.9 18.1 5.7 36.8 11.3 50 14.8l19.5-2.3c10.7-1.2 22.6-2.6 26.5-3 3.9-0.4 16.2-2.2 27.5-3.8 11.3-1.7 20.6-3 20.6-2.9 0.1 0.1 1.1 2.9 2.4 6.2 1.2 3.3 3.7 11.6 5.6 18.5 1.9 6.9 3.4 13.3 3.4 14.2 0 1.2-1.2 2.1-3.8 2.8-2 0.5-19.2 4.1-38.2 7.9-19 3.8-41 8.1-63.5 12.2l-12.5-2.7c-6.9-1.5-18.8-4.2-26.5-6-7.7-1.8-14.1-3.2-14.2-3.1-0.2 0.1-1 2.7-1.8 5.7-0.8 3-2.9 12-4.6 20-1.7 8-7.1 30.9-12.1 51-8.1 32.9-8.9 37.1-8.4 43 0.3 3.6 1.1 10.1 1.6 14.5 0.6 4.4 1.9 15.4 3 24.5 1 9.1 2.6 22.1 3.4 29 0.9 6.9 2.7 21.7 4.1 33 1.3 11.3 2.8 23.3 4 32.8l-4 1c-2.2 0.6-7.1 1.5-11 2.1-3.9 0.6-11.7 1.6-17.5 2.2-5.8 0.6-18.1 1.1-27.5 1.1-10.4-0.1-21.1-0.7-27.5-1.7-5.8-0.9-14.6-2.6-19.5-3.7-4.9-1.1-9.3-2.3-9.6-2.7-0.4-0.3-0.1-7.1 0.7-15.1 0.7-8 3.1-34.5 5.3-59 2.3-24.5 4.5-48.4 5.1-53.3 1-8.6 0.9-9.4-6.5-49-4.1-22.1-8.2-44.9-9-50.7-0.9-5.8-1.9-12.5-2.2-15-0.2-2.5-1-5.8-1.6-7.3-0.7-1.5-1.6-2.6-2.2-2.4-0.6 0.2-7.3 1.9-15 3.6-7.7 1.8-19.2 4.3-37 8.3l-14-2.6c-7.7-1.5-30.2-5.8-50-9.8-19.8-3.9-36.3-7.4-36.7-7.7-0.4-0.3 0.4-5.5 1.7-11.6 1.4-6.1 3.7-15 5.2-19.9 1.6-4.9 3.3-9.1 3.8-9.3 0.6-0.2 14.1 1.4 30 3.6 16 2.2 36 4.8 44.5 5.7 12.7 1.4 16.4 1.5 20.5 0.5 2.8-0.7 22.6-6.6 44-13.2 21.4-6.6 40-12.4 43.5-13.9l-2.6-3.2c-1.5-1.8-3.8-5.5-5.2-8.3-1.4-2.7-3.5-8.2-4.8-12-1.3-3.8-2.9-10.6-3.5-15-0.7-4.5-0.9-11.9-0.6-17 0.4-5 1.6-12.3 2.7-16.3 1.1-3.9 3.6-10.5 5.5-14.4 1.8-4 4.9-9.1 6.8-11.3 1.8-2.2 5.8-5.6 8.8-7.5 3-1.9 7.6-4.3 10.4-5.3 3.6-1.3 6.9-1.6 12-1.3zm-177.6 71.5c0.9 0.3 7 3.8 13.6 7.7 6.6 3.9 16.2 9.5 21.3 12.5 5.1 3 9.2 5.7 9.2 6.2 0 0.4-14.4 0.7-32 0.7-17.6 0-32-0.4-32-0.8 0-0.5 2.6-4.6 5.8-9.3 3.1-4.6 7.2-10.5 9.1-13 2.4-3.3 3.8-4.5 5-4zm358.6-1l2.8 3.3c1.5 1.8 4.9 6.5 7.6 10.3 2.6 3.8 5.7 8.7 9.1 14.5h-32.5c-17.9 0-32.3-0.3-32.1-0.7 0.2-0.5 5.2-3.7 11.2-7.2 6-3.5 16.1-9.5 22.4-13.3zm-407.2 164.1h50.1c27.5 0 49.6 0.4 49.1 0.8-0.6 0.5-10.9 6.7-23 13.9-12.1 7.2-25.4 14.9-29.5 17.3-4.1 2.4-11.6 6.8-16.5 9.8-5 3-9.2 5.6-9.5 5.8-0.3 0.3-0.1 0.9 0.5 1.4 0.6 0.6 16.6-2 43-7 23.1-4.3 46.8-8.5 52.8-9.4 5.9-0.9 11.1-1.3 11.6-0.9 0.5 0.5-3.4 11.8-8.5 25.3-5.2 13.5-9.1 24.8-8.7 25.2 0.4 0.3 8-3.8 16.8-9.2 8.8-5.5 16.6-9.9 17.2-10 0.8 0 1.1 0.8 0.8 2.2-0.3 1.3-1.2 5.7-2.1 9.8-0.8 4.1-3.4 16-5.6 26.5-2.2 10.4-5 24.8-6.3 32-1.3 7.1-3.8 19.7-5.5 28-1.7 8.2-3.3 15.2-3.6 15.5-0.3 0.3-3.5-1.1-7.1-3-3.7-1.9-11.2-6.5-16.7-10.1-7.3-4.8-14.9-11.3-27.5-23.5-9.5-9.3-20.2-20.3-23.6-24.4-3.4-4.1-9-11.8-12.4-17-3.4-5.2-9.1-15.4-12.6-22.5-3.5-7.2-8-17.3-10.1-22.5-2-5.2-5.2-15.4-6.9-22.5-1.8-7.2-3.9-17.2-4.7-22.3zm454.6 0v5.3c0 2.9-1.3 11.1-2.9 18.2-1.6 7.2-4.8 18.3-7 24.8-2.2 6.5-6.7 17.3-10 24-3.3 6.7-8.6 16.7-11.9 22.2-3.2 5.5-9.5 14.4-13.8 19.6-4.3 5.3-11.9 13.9-16.9 19.3-4.9 5.3-12.8 12.8-17.5 16.5-4.6 3.8-12.1 9.3-16.5 12.4-4.4 3-12.5 8-18 11.1-5.5 3.1-10.4 5.6-11 5.7-0.5 0-3.1-7.8-5.6-17.3-2.6-9.5-5-18.8-5.4-20.8-0.4-1.9-5.4-20.6-11.1-41.5-5.7-20.9-10.3-38.8-10.1-39.8 0.2-1.5 4 0.5 21 10.8 11.4 6.9 21 12.1 21.2 11.5 0.3-0.5-3.7-12.2-9-26-5.2-13.7-9.4-25.1-9.2-25.4 0.1-0.2 7.2 0.7 15.7 2 8.6 1.3 31.5 5.4 51 9 19.6 3.7 37.8 7.1 40.5 7.5 3.1 0.6 5.4 0.5 6-0.1 0.6-0.5 0.8-1.1 0.5-1.3-0.2-0.1-7.7-4.5-16.5-9.6-8.8-5.1-19.3-11.4-23.5-13.8-4.1-2.5-14.2-8.5-22.5-13.4-8.2-4.9-15.3-8.9-15.7-8.9-0.4 0-0.8-0.4-0.8-1 0-0.6 17.2-1 99-1z"/>
		<path id="Path 6" class="s6" d="m323.7 53.5c0.2 8.8 0.2 23 0 31.5-0.1 8.5-0.3 1.3-0.3-16 0-17.3 0.2-24.3 0.3-15.5z"/>
		<path id="Path 7" class="s7" d="m80.3 280.2c27.9-0.1 50.7 0.1 50.7 0.6 0 0.4-14.7 0.6-32.7 0.4-18.1-0.1-40.9-0.3-50.8-0.5-9.9-0.1 4.8-0.3 32.8-0.5zm354.4 0c28 0.1 44.5 0.4 36.8 0.5-7.7 0.2-30.5 0.4-50.8 0.5-20.2 0.2-36.7 0-36.7-0.4 0-0.5 22.8-0.7 50.8-0.6z"/>
		<path id="Path 8" class="s8" d="m181.5 42c0.3 0 0.5 12.4 0.5 27.5 0 25.6-0.1 27.5-1.8 27.4-0.9 0-1.1-0.2-0.4-0.5 0.9-0.3 1.2-6.7 1.2-27.4 0-14.9 0.2-27 0.5-27z"/>
		<path id="Path 9" class="s9" d="m91 144.5c18.2 0 33 0.3 33 0.8 0 0.4-14.8 0.7-33 0.7-18.2 0-33-0.3-33-0.8 0-0.4 14.8-0.7 33-0.7zm321.7 0.3c12 0.1 27 0.3 33.3 0.5 6.3 0.1-3.5 0.4-21.7 0.5-18.3 0.1-33.3-0.1-33.3-0.6 0-0.4 9.8-0.6 21.7-0.4z"/>
		<path id="Path 10" class="s10" d="m125.2 144.5c0.6 0.3 1 1 0.9 1.6-0.1 0.5-13.7 0.8-69.6 0.4l33.7-0.2c22.9-0.2 33.8-0.6 33.9-1.4 0.1-0.5 0.6-0.7 1.1-0.4zm289.5 1.3c14.2 0.1 29.9 0.3 34.8 0.5 4.9 0.2-6.6 0.4-25.7 0.5-19.2 0.1-34.8-0.1-34.8-0.6 0-0.4 11.6-0.6 25.7-0.4z"/>
		<path id="Path 11" class="s11" d="m324.7 53.5c0.2 8.8 0.2 23 0 31.5-0.1 8.5-0.3 1.3-0.3-16 0-17.3 0.2-24.3 0.3-15.5z"/>
		<ellipse id="Path 12" class="s12" cx="182.4" cy="69.5" rx=".6" ry="28.5"/>
	</g>
</svg>