<svg version="1.2" xmlns="http://www.w3.org/2000/svg" viewBox="0 0 512 512" width="512" height="512">
	<title>0-summoned-svg</title>
	<style>
		.s0 { fill: #cd59f7 } 
		.s1 { opacity: .5;fill: #cd59f7 } 
		.s2 { fill: #000000 } 
		.s3 { fill: #9641b4 } 
	</style>
	<g id="growth">
		<path id="Path 0" class="s0" d="m260 10.6c14 0 27.8 0.4 30.5 0.8 2.8 0.4 11.8 2.1 20 3.7 8.3 1.7 19.5 4.6 25 6.4 5.5 1.9 14.7 5.5 20.5 8 5.8 2.5 15 7.1 20.5 10.2 5.5 3.1 14.3 8.4 19.5 11.9 5.2 3.4 12.9 8.9 17 12.1 4.1 3.3 12.4 10.7 18.4 16.4 6 5.7 14.5 14.9 18.9 20.4 4.4 5.5 11.6 15.4 16 22 4.3 6.6 11.4 19.2 15.8 28 4.3 8.8 9.4 20.7 11.3 26.5 1.8 5.8 4.5 15.7 6 22 1.4 6.3 3.3 15.8 4.3 21 1.3 7.5 1.7 15.2 1.7 36 0 20.4-0.5 29-1.8 37.5-1 6.1-2.8 15.5-4.1 21-1.3 5.5-4 14.9-6 21-2 6.1-7.6 19.1-12.5 29-4.9 9.9-11.6 22.1-14.9 27-3.3 4.9-9.5 13.3-13.8 18.5-4.3 5.2-11.6 13.5-16.3 18.4-4.7 4.8-12.6 12.3-17.5 16.5-4.9 4.3-12.6 10.4-17 13.7-4.4 3.3-9.9 7.2-12.2 8.7-2.4 1.5-11.4 6.2-20 10.6-8.7 4.3-20.2 9.4-25.5 11.5-5.4 2-15.8 5-23 6.7-7.3 1.7-19.7 4.1-27.5 5.5-12 2-17.7 2.4-35.3 2.4-17.6 0-23.3-0.4-35.3-2.4-7.8-1.4-19.4-3.6-25.7-5-6.3-1.4-15.1-3.8-19.5-5.2-4.4-1.4-16.1-6.5-26-11.3-9.9-4.8-22.1-11.3-27-14.5-5-3.3-13.3-9.3-18.5-13.4-5.2-4.2-16.3-14.3-24.5-22.6-8.3-8.3-17.7-18.7-21-23.1-3.3-4.4-7.1-9.6-8.4-11.5-1.3-1.9-3.8-5.7-5.4-8.5-1.6-2.7-5.2-9.1-7.9-14-2.7-4.9-6.7-13.1-9-18-2.2-4.9-5.4-12.8-7-17.5-1.6-4.7-4.2-13.9-5.9-20.5-1.6-6.6-3.6-15.8-4.5-20.5-1.1-5.7-1.8-16.8-2.1-34-0.5-21.1-0.3-27.3 1.2-36 0.9-5.8 2.8-16.1 4.2-23 1.3-6.9 4.2-17.9 6.4-24.5 2.1-6.6 7.2-18.7 11.2-27 4.1-8.2 9.3-18.1 11.8-22 2.4-3.8 7.5-11.5 11.4-17 3.8-5.5 11.1-14.5 16.1-20 4.9-5.5 14.8-15.1 22-21.4 7.1-6.2 17.8-14.6 23.9-18.6 6-4 15.5-9.8 21-12.8 5.5-3.1 14.3-7.5 19.5-9.8 5.2-2.2 12.9-5.4 17-6.9 4.1-1.5 12.4-4 18.5-5.5 6.1-1.5 17.5-3.7 25.5-4.9 11.9-1.7 19.1-2.1 40-2z"/>
		<path id="Path 1" class="s1" d="m251 10.4c8.5 0 12.1 0.2 8 0.3-4.1 0.2-11.1 0.2-15.5 0-4.4-0.1-1-0.3 7.5-0.3zm254.7 247.1c0.2 2.2 0.2 5.6 0 7.5-0.2 1.9-0.4 0.1-0.4-4 0-4.1 0.2-5.7 0.4-3.5z"/>
		<path id="Path 2" class="s2" d="m264.5 29.7c10.1 0.2 22.6 1 28.5 1.9 5.8 0.8 13.4 2.2 17 3 3.6 0.8 9 2.1 12 3 3 0.9 9.3 2.9 14 4.6 4.7 1.7 14.1 5.8 21 9.2 6.9 3.5 17 9.1 22.5 12.6 5.5 3.4 14.1 9.5 19 13.5 4.9 4 13.2 11.3 18.4 16.1 5.2 4.9 13.1 13.4 17.6 18.9 4.5 5.5 10.2 12.9 12.7 16.5 2.5 3.6 7.3 11.2 10.6 17 3.3 5.8 7.7 14.3 9.7 19 2.1 4.7 5.3 12.8 7.2 18 1.9 5.2 4.7 14.9 6.3 21.5 1.6 6.6 3.4 16.5 4.1 22 0.7 5.5 1.3 19.7 1.3 31.5 0 15.1-0.5 24.9-1.8 33-0.9 6.3-3 16.4-4.6 22.5-1.6 6.1-4.3 14.8-6 19.5-1.7 4.7-6.6 15.7-10.9 24.5-4.4 8.8-10.8 20.2-14.3 25.4-3.4 5.2-9.7 13.3-13.8 18-4.1 4.7-12 13.1-17.5 18.6-5.5 5.5-13.1 12.5-17 15.6-3.9 3.1-9.4 7-17.5 11.9l-11.1-10.7c-6.1-6-14.4-14.6-18.4-19.3-3.9-4.7-10.1-12.6-13.7-17.5-3.5-4.9-9-13.2-12.1-18.2-3.1-5.1-8.3-14.6-11.6-21-3.2-6.5-7.9-17-10.4-23.3-2.5-6.3-6.1-17.1-8.1-24-2-6.9-4.5-17-5.6-22.5-1.1-5.5-2.8-15.6-3.6-22.5-0.9-6.9-1.7-20.7-1.9-49.1l-2.5-0.7c-1.4-0.4-14-0.7-28-0.7-14 0-26.7 0.4-31 1.5l0.6 7.8c0.3 4.2 0.1 14.9-0.5 23.7-0.7 8.8-1.9 20.5-2.7 26-0.8 5.5-3.1 16.3-4.9 24-1.9 7.7-5.3 19.4-7.5 26-2.3 6.6-6.6 17.4-9.6 24-3 6.6-7.9 16.3-10.8 21.5-3 5.2-8.5 14-12.1 19.5-3.7 5.5-10 14.1-14 19-4 4.9-10.9 12.8-15.2 17.5-4.4 4.7-10.3 10.4-18.3 17l-8.3-5.7c-4.6-3.2-15-12.5-23.8-21.3-8.6-8.5-19-20-23-25.5-4.1-5.5-9.9-14.1-12.9-19-3-4.9-7.7-13.9-10.6-20-2.9-6.1-6.9-15.7-8.9-21.5-2-5.8-4.9-15.9-6.5-22.5-1.6-6.6-3.6-17.2-4.5-23.5-0.9-6.3-1.9-16.4-2.2-22.5-0.3-6.3-0.1-16.1 0.6-23 0.7-6.6 2.1-16.7 3.1-22.5 1.1-5.8 3.5-16.8 5.5-24.5 2-7.7 5.2-17.8 7.2-22.5 1.9-4.7 5.1-11.7 7-15.5 2-3.8 6.1-11.1 9.2-16 3-4.9 8.8-13.3 12.7-18.5 4-5.2 13.5-15.8 21.1-23.5 7.7-7.7 17.1-16.5 20.9-19.7 3.8-3.1 11.6-8.6 17.4-12.2 5.8-3.7 16.6-9.7 24-13.5 7.4-3.8 19.6-9 27-11.4 7.4-2.5 19.1-5.7 26-7.2 6.9-1.5 17.7-3 24-3.3 6.3-0.4 19.6-0.6 29.5-0.5z"/>
		<path id="Path 3" class="s3" d="m255.5 29.3c4.4 0 6.4 0.2 4.5 0.4-1.9 0.2-5.5 0.2-8 0-2.5-0.2-0.9-0.4 3.5-0.4z"/>
		<path id="Path 4" class="s0" d="m256.4 35c0.5 0 4.3 6 8.5 13.3 4.2 7.2 12.4 20.4 18.2 29.2 5.9 8.8 15.3 22.3 20.9 30 5.6 7.7 14.1 19 18.8 25 4.7 6.1 13.9 17.3 20.3 25 6.4 7.7 16.7 19.6 22.9 26.5 6.2 6.9 17.5 19 25.1 27 7.6 8 13.6 14.8 13.4 15.3-0.3 0.4-3.3-0.4-6.7-1.8-3.5-1.4-13.5-4.8-22.3-7.4-8.8-2.7-22.3-6.3-30-8.1-7.7-1.7-21.4-4.2-30.5-5.6-9.1-1.3-23.2-2.9-31.5-3.5-8.9-0.7-24.5-0.9-38.5-0.6-17.1 0.5-28.5 1.3-42 3.2-10.2 1.4-25.7 4.2-34.5 6.1-8.8 2-22.5 5.5-30.5 7.9-8 2.4-18 5.7-22.2 7.4-4.3 1.7-8 2.8-8.2 2.3-0.2-0.4 6.8-8.4 15.6-17.7 8.8-9.3 22.5-24.4 30.5-33.5 8-9.1 20.5-23.9 27.8-33 7.3-9.1 18.3-23.5 24.6-32 6.2-8.5 16.3-22.9 22.4-32 6-9.1 14.6-22.5 19-29.7 4.4-7.3 8.4-13.3 8.9-13.3z"/>
	</g>
</svg>