<svg version="1.2" xmlns="http://www.w3.org/2000/svg" viewBox="0 0 512 512" width="512" height="512">
	<title>m-arcane_protection-svg</title>
	<style>
		.s0 { fill: #cd59f7 } 
		.s1 { opacity: .4;fill: #cd59f7 } 
		.s2 { opacity: .2;fill: #cd59f7 } 
		.s3 { opacity: .9;fill: #cd59f7 } 
		.s4 { opacity: .7;fill: #cd59f7 } 
		.s5 { fill: #020103 } 
		.s6 { fill: #9f44bd } 
		.s7 { fill: #74328a } 
		.s8 { fill: #ce58f4 } 
		.s9 { fill: #2f1437 } 
		.s10 { fill: #ae4bcf } 
		.s11 { fill: #c755ec } 
		.s12 { fill: #b94fdd } 
		.s13 { fill: #180a1c } 
		.s14 { fill: #471f55 } 
		.s15 { fill: #893ba3 } 
	</style>
	<g id="ghost-ally">
		<path id="Path 0" class="s0" d="m219.5 11.1l81 0.4 16 3.8c8.8 2.1 21.2 5.9 27.5 8.4 6.3 2.5 16.8 7.2 23.3 10.5 6.4 3.2 15.9 8.4 20.9 11.5 5.1 3.1 13.8 9.1 19.3 13.2 5.4 4.2 15.7 13.2 22.9 20.1 7.1 6.9 16.3 16.5 20.4 21.5 4.2 5 11.1 14.4 15.5 21 4.4 6.6 11.7 19.7 16.3 29 4.7 9.6 10.3 22.9 12.8 30.5 2.4 7.4 5.5 19.1 6.8 26 2.5 12.2 2.5 13.5 2.3 52-0.2 36.9-0.4 40.2-2.5 49.5-1.2 5.5-4.2 16.1-6.6 23.5-2.7 8.4-7.8 20.4-13.5 32-5 10.2-12.1 23-15.7 28.5-3.7 5.5-10.5 14.5-15.3 20-4.7 5.5-14.8 16.1-22.5 23.5-7.7 7.4-18.2 16.7-23.4 20.6-5.2 3.9-12.4 8.9-16 11.1-3.6 2.2-12.6 7.1-20 11-7.4 3.9-17.6 8.7-22.5 10.6-4.9 2-13.5 4.8-19 6.2-5.5 1.4-15.6 3.7-22.5 5.1-11.5 2.4-15 2.6-44 2.9-17.3 0.2-34.5-0.1-38.3-0.6-3.7-0.5-14.2-2.6-23.5-4.8-9.2-2.1-20.5-5.4-25.2-7.2-4.7-1.8-16.4-7.2-26-12-9.6-4.8-21.3-11.3-26-14.5-4.7-3.1-11.9-8.4-16-11.7-4.1-3.4-13.7-12.2-21.4-19.7-7.6-7.4-17.4-17.8-21.8-23-4.4-5.2-10.4-13.1-13.3-17.5-3-4.4-9.6-16.3-14.7-26.5-5.8-11.3-10.8-23-13.1-30-2-6.3-5.3-17.6-10.9-38.5v-37.5c0-34 0.2-38.6 2.2-49 1.1-6.3 3.4-16.4 5-22.5 1.6-6.1 4.4-14.8 6.3-19.5 1.9-4.7 5.8-13.2 8.7-19 2.9-5.8 8-15 11.3-20.5 3.3-5.5 9.2-14.3 13.1-19.5 3.9-5.2 12-14.6 18.1-20.9 6-6.3 15.5-15.4 21-20.3 5.5-4.9 15.2-12.4 21.5-16.7 6.3-4.3 16-10.3 21.5-13.4 5.5-3 15.2-7.9 21.5-10.7 6.3-2.8 15.8-6.4 21-8.1 5.2-1.6 15.8-4.2 23.5-5.9z"/>
		<path id="Path 1" class="s1" d="m10.7 244c0.2 3 0.2 8.4 0 12-0.2 3.6-0.3 1.1-0.3-5.5 0-6.6 0.1-9.5 0.3-6.5zm0 26c0.2 4.1 0.2 10.6 0 14.5-0.1 3.9-0.3 0.5-0.3-7.5 0-8 0.2-11.1 0.3-7z"/>
		<path id="Path 2" class="s2" d="m255 10.4c15.7 0 22 0.2 14 0.3-8 0.2-20.8 0.2-28.5 0-7.7-0.1-1.2-0.3 14.5-0.3z"/>
		<path id="Path 3" class="s3" d="m504.7 235.5c0.2 2.8 0.2 6.8 0 9-0.2 2.2-0.3-0.1-0.3-5 0-4.9 0.1-6.8 0.3-4zm0 31c0.2 2.8 0.2 6.8 0 9-0.2 2.2-0.3-0.1-0.3-5 0-4.9 0.1-6.8 0.3-4z"/>
		<path id="Path 4" class="s4" d="m262.5 503.4c8.8 0 12.6 0.2 8.5 0.3-4.1 0.2-11.3 0.2-16 0-4.7-0.1-1.3-0.3 7.5-0.3z"/>
		<path id="Path 5" class="s5" d="m261.5 29.6c10.4 0.1 23.1 0.5 28 0.8 4.9 0.4 13.5 1.6 19 2.8 5.5 1.1 15.2 3.8 21.5 6 6.3 2.2 16 6.2 21.5 8.7 5.5 2.6 14.5 7.4 20 10.6 5.5 3.2 13.1 8.1 17 10.9 3.9 2.7 9.5 7 12.5 9.5 3 2.5 10.6 9.5 16.9 15.6 6.2 6 14.8 15.3 19 20.5 4.2 5.2 10.6 14 14.3 19.5 3.6 5.5 8.6 13.8 11.2 18.5 2.5 4.7 6.6 13.4 9.1 19.5 2.6 6.1 6 15.5 7.6 21 1.6 5.5 3.9 14.9 5.1 21 1.9 9.9 2.1 14.3 2.1 43.5-0.1 31.4-0.1 32.9-2.7 44.5-1.4 6.6-4.4 17.4-6.6 24-2.2 6.6-7.3 18.8-11.3 27-4.1 8.3-9.9 19.1-13 24-3 4.9-9.3 13.5-13.8 19-4.6 5.5-12.8 14.7-18.4 20.4-5.5 5.7-13.8 13.4-18.5 17.1-4.7 3.7-13 9.7-18.5 13.3-5.5 3.5-16.2 9.7-23.7 13.6-7.6 3.9-14 7.1-14.3 7.1-0.3 0-2.6 0.9-5.2 2.1-2.7 1.2-7.9 3.2-11.8 4.5-3.9 1.3-11.9 3.5-18 4.9-6.1 1.3-17.6 3.1-25.7 4-8.2 0.8-21.8 1.5-30.3 1.5-8.5 0-21-0.7-27.7-1.6-6.8-0.9-18.1-3.1-25.3-4.9-7.2-1.8-17.7-5.2-23.5-7.5-5.8-2.2-17-7.5-25-11.7-8-4.2-18.3-10.2-23-13.3-4.7-3.2-14.5-11.3-21.9-18.1-7.4-6.8-18.1-17.6-23.8-23.9-5.7-6.3-13.5-16-17.2-21.5-3.8-5.5-10-16.3-13.8-24-3.9-7.7-8.7-18.3-10.8-23.5-2-5.2-5.2-15.4-7-22.5-1.8-7.1-4.1-17.9-5-24-1.4-9-1.7-15.4-1.2-35.5 0.4-19.1 1-27 2.6-36 1.2-6.3 3.1-15.1 4.2-19.5 1.1-4.4 3.1-11.6 4.6-16 1.4-4.4 5.6-14.3 9.4-22 3.7-7.7 8.9-17.2 11.5-21 2.5-3.8 7.8-11.3 11.7-16.5 3.9-5.2 13.8-16.3 22.1-24.6 8.3-8.2 19.8-18.7 25.6-23.3 5.8-4.6 14.6-10.7 19.5-13.6 4.9-3 14.6-8.1 21.5-11.4 6.9-3.3 17.9-7.8 24.5-10 6.6-2.1 16.5-4.9 22-6.1 5.5-1.2 15.4-2.5 22-2.8 6.6-0.4 20.6-0.6 31-0.6z"/>
		<path id="Path 6" class="s6" d="m257 29.4c7.4 0 10.4 0.1 6.5 0.3-3.9 0.2-9.9 0.2-13.5 0-3.6-0.2-0.4-0.3 7-0.3z"/>
		<path id="Path 7" class="s7" d="m486.7 254c0.2 2.5 0.2 6.8 0 9.5-0.2 2.8-0.3 0.7-0.3-4.5 0-5.2 0.1-7.5 0.3-5z"/>
		<path id="Path 8" class="s8" d="m229 37.5c5.7 0.3 10.1 1.1 13.5 2.5 2.8 1.2 7.5 4.2 10.5 6.6 3 2.4 6.1 5.2 6.8 6.4 1 1.7 0.8 2.5-1.9 5.8-1.7 2-4.5 6.4-6.1 9.7-1.7 3.3-4.2 10.3-5.5 15.5-1.9 7.3-2.4 12.1-2.4 21 0 8.9 0.5 13.7 2.4 21 1.3 5.2 3.4 11.5 4.7 14 1.2 2.5 3.6 6.3 5.2 8.5 1.7 2.2 2.7 4.6 2.4 5.3-0.3 0.6-2.5 1.5-4.9 1.8-2.3 0.4-6.9 2.1-10.1 3.8-3.3 1.7-8.2 5.1-11 7.6-2.7 2.5-6.6 6.8-8.6 9.5-2 2.8-4.4 6.3-5.3 8-0.8 1.7-3.2 7.1-5.2 12-2 4.9-4.7 13.3-6 18.5-1.2 5.2-3 14.9-3.9 21.5-0.8 6.6-2 17.4-2.5 24-0.6 6.6-1.3 23.5-1.7 37.5-0.3 14-0.4 26.5 0 27.8 0.6 2.2 0.8 2.2 37.1 2.2l0.8 14.2c0.4 7.9 1.7 28.5 2.8 45.8 1.1 17.3 2.6 40.1 3.4 50.5 0.8 10.4 1.5 20.7 1.5 26.5h-71l-0.5-6.2c-0.3-3.5-0.9-12.8-1.5-20.8-0.5-8-1.9-27.3-3-43-1.1-15.7-2.7-37.2-3.5-47.7-0.8-10.6-1.3-19.7-1-20.3 0.3-0.6-5.8-1-35.5-1v-30.7c0-19.5 0.6-37.2 1.5-48.3 0.9-9.6 2.4-21.3 3.4-26 1.1-4.7 3.7-13.7 5.8-20 2.2-6.3 5-13.3 6.2-15.5 1.2-2.2 3.9-6.3 5.9-9.2 2-2.8 5.9-7.1 8.7-9.6 2.7-2.4 6.8-5.3 9-6.4 2.2-1.1 6.5-2.8 9.5-3.7 3-1 6.1-1.9 6.7-2.2 0.9-0.3 0.5-1.6-1.3-4.6-1.4-2.4-4.1-7.5-6-11.3-1.8-3.8-4-10.6-4.9-15-0.8-4.4-1.5-12.6-1.5-18.2 0-6.1 0.8-14.1 1.9-19.5 1-5.1 2.8-11.5 4-14.3 1.3-2.7 4.4-8.1 6.9-11.9 2.6-3.8 7.2-8.9 10.2-11.4 3-2.4 7.7-5.6 10.5-7 2.7-1.3 7.2-2.8 10-3.3 2.7-0.4 8.8-0.6 13.5-0.4zm69.2-0.6l5.6 0.6c3.1 0.4 8.6 2 12.2 3.7 3.6 1.6 8.9 5.1 11.9 7.6 2.9 2.6 7 7.2 9.1 10.2 2 3 4.7 7.5 6 10 1.2 2.5 3.4 8.8 4.7 14 2 7.6 2.5 12.1 2.5 22 0 9.7-0.5 14.4-2.2 21-1.2 4.7-3.6 11.2-5.2 14.5-1.7 3.3-4.4 7.9-5.9 10.3-1.6 2.3-2.9 4.5-2.9 5 0 0.4 2.1 1 4.7 1.4 2.7 0.4 7 1.9 9.8 3.4 2.7 1.4 7.4 4.9 10.3 7.7 3 2.9 7.1 7.7 9.2 10.7 2 3 5.1 8.2 6.7 11.5 1.7 3.3 4.7 11.2 6.6 17.5 2 6.3 4.6 15.6 5.6 20.5 1.1 4.9 2.7 15.8 3.5 24 0.8 8.3 1.8 24.9 2.1 37 0.3 12.1 0.8 25.3 1.5 36.5h-38.5l-0.3 5.3c-0.1 2.8-2 26.3-4.2 52.2-2.1 25.9-4.1 52.9-4.5 60-0.3 7.1-0.8 14.9-1.5 21.5h-47l0.1-214.1z"/>
		<path id="Path 9" class="s9" d="m296.7 114c0.2 42.6 0.4 139.3 0.5 214.8 0.2 75.4 0 137.2-0.4 137.2-0.5 0-0.7-96.6-0.6-214.8 0.2-118.1 0.4-179.8 0.5-137.2zm-151.2 213.4c10.4 0 14.9 0.2 10 0.3-4.9 0.2-13.5 0.2-19 0-5.5-0.1-1.4-0.3 9-0.3z"/>
		<path id="Path 10" class="s10" d="m297.7 143.5c0.2 58.8 0.2 155.4 0 214.5-0.1 59.1-0.2 11-0.2-107 0-118 0.1-166.3 0.2-107.5z"/>
		<path id="Path 11" class="s11" d="m392.7 277.5c0.2 2.2 0.2 6 0 8.5-0.2 2.5-0.4 0.7-0.4-4 0-4.7 0.2-6.7 0.4-4.5zm-264 14c0.2 6.1 0.2 16.4 0 23-0.1 6.6-0.3 1.6-0.3-11 0-12.6 0.2-18.1 0.3-12z"/>
		<path id="Path 12" class="s6" d="m146.5 326.4c10.4 0 14.9 0.2 10 0.3-4.9 0.2-13.5 0.2-19 0-5.5-0.1-1.4-0.3 9-0.3zm63 139.1c19.8 0 28.1 0.1 18.5 0.2-9.6 0.2-25.8 0.2-36 0-10.2-0.1-2.3-0.2 17.5-0.2z"/>
		<path id="Path 13" class="s12" d="m393.7 304c0.2 2.5 0.2 6.8 0 9.5-0.2 2.8-0.3 0.7-0.3-4.5 0-5.2 0.1-7.5 0.3-5zm-19.7 22.4c10.7 0 15 0.2 9.5 0.3-5.5 0.2-14.3 0.2-19.5 0-5.2-0.1-0.7-0.3 10-0.3zm-53 139c12.9 0 18.1 0.2 11.5 0.3-6.6 0.2-17.2 0.2-23.5 0-6.3-0.1-0.9-0.3 12-0.3z"/>
		<path id="Path 14" class="s13" d="m218.3 326.2c10.3-0.1 18.7 0.1 18.7 0.6 0 0.4-5.5 0.6-12.2 0.4-6.8-0.1-15.2-0.4-18.8-0.5-3.6-0.2 1.9-0.4 12.2-0.5z"/>
		<path id="Path 15" class="s14" d="m393.8 326.2c0.1-0.1 0.2 0.3 0.2 0.8 0 0.6-6.9 0.9-38.5 0.6l19-0.6c10.4-0.3 19.1-0.7 19.2-0.8zm-49 139c0.2-0.1 0.3 0.3 0.3 0.8 0 0.6-8.6 0.9-48.5 0.6l24-0.6c13.2-0.3 24.1-0.7 24.2-0.8z"/>
		<path id="Path 16" class="s15" d="m127.7 306c0.2 3.6 0.2 9.6 0 13.5-0.2 3.9-0.3 0.9-0.3-6.5 0-7.4 0.1-10.6 0.3-7zm90.3 21.4c10.2 0 14.2 0.2 9 0.3-5.2 0.2-13.6 0.2-18.5 0-4.9-0.1-0.7-0.3 9.5-0.3z"/>
		<path id="Path 17" class="s7" d="m199.7 305c0.2 3.6 0.2 9.9 0 14-0.1 4.1-0.3 1.2-0.3-6.5 0-7.7 0.1-11.1 0.3-7.5z"/>
	</g>
</svg>