<svg version="1.2" xmlns="http://www.w3.org/2000/svg" viewBox="0 0 512 512" width="512" height="512">
	<title>m-arcane_protection-svg</title>
	<style>
		.s0 { fill: #cd59f7 } 
		.s1 { opacity: .7;fill: #cd59f7 } 
		.s2 { opacity: .2;fill: #cd59f7 } 
		.s3 { opacity: .1;fill: #cd59f7 } 
		.s4 { opacity: .8;fill: #cd59f7 } 
		.s5 { opacity: .9;fill: #cd59f7 } 
		.s6 { opacity: .3;fill: #cd59f7 } 
		.s7 { opacity: .4;fill: #cd59f7 } 
		.s8 { opacity: .5;fill: #cd59f7 } 
		.s9 { fill: #000000 } 
		.s10 { fill: #ad4bd0 } 
		.s11 { fill: #1a0b1f } 
		.s12 { fill: #2f1439 } 
		.s13 { fill: #9742b7 } 
		.s14 { fill: #612a75 } 
		.s15 { fill: #7d3696 } 
		.s16 { fill: #471f56 } 
	</style>
	<g id="telepathy">
		<path id="Path 0" class="s0" d="m279 10.8c6.7 0.2 16.7 1.4 24 2.8 6.9 1.4 16.6 3.4 21.5 4.6 4.9 1.1 13.5 3.8 19 6 5.5 2.2 14.7 6.3 20.5 9 5.8 2.8 16.5 8.8 23.8 13.2 7.3 4.5 17.9 11.8 23.5 16.2 5.6 4.5 15.4 13.3 21.7 19.5 6.4 6.3 14.5 15 18 19.4 3.6 4.4 9.6 12.7 13.5 18.5 3.9 5.8 9.8 15.7 13.2 22 3.4 6.3 8.1 16 10.3 21.5 2.2 5.5 5.4 14.3 7.1 19.5 1.7 5.2 4.2 14.2 5.6 20 2.1 8.9 2.6 14.2 3.2 34.5 0.5 13.2 0.5 32.6 0 43-0.6 15.8-1.3 21.2-3.8 32-1.7 7.1-4.5 17.3-6.2 22.5-1.7 5.2-7.1 17.6-12 27.5-4.9 9.9-11.6 22.3-15 27.5-3.4 5.2-9.4 13.6-13.4 18.5-4.1 4.9-11.5 13.3-16.7 18.6-5.1 5.2-14 13.7-19.8 18.8-5.8 5.1-15.7 12.8-22 17-6.3 4.2-19.8 11.8-30 16.8-10.2 5-22.8 10.5-28 12.2-5.2 1.7-14.4 4.2-20.5 5.6-6.1 1.3-15.5 3.2-21 4.1-8.4 1.4-15.1 1.6-42 1.2-29.8-0.5-32.9-0.7-44.5-3.2-6.9-1.4-16.8-3.8-22-5.2-5.2-1.4-16.5-5.7-25-9.6-8.5-3.8-20-9.5-25.5-12.5-5.5-3-12.7-7.3-16-9.5-3.3-2.3-10.3-7.5-15.5-11.6-5.2-4.2-15.6-13.7-23-21.2-7.4-7.4-16.4-17.1-19.9-21.5-3.5-4.4-9.1-12.1-12.4-17-3.3-4.9-9.7-16.6-14.4-26-4.6-9.4-9.7-20.5-11.3-24.8-1.7-4.2-5.3-16.4-13.1-46.2l0.4-37.5c0.4-37.3 0.5-37.6 3.5-52 1.7-8 4.6-19.2 6.5-25 1.9-5.8 5.8-15.7 8.7-22 2.9-6.3 7.9-16.2 11.3-22 3.3-5.8 7.8-13.2 10-16.5 2.2-3.3 7.4-10.3 11.6-15.5 4.2-5.2 13-14.9 19.6-21.5 6.7-6.6 15.7-14.9 20.1-18.4 4.3-3.5 11.7-9 16.4-12.1 4.7-3.1 13.4-8.4 19.5-11.8 6.1-3.4 15.9-8.4 22-11.1 6.1-2.7 17.1-6.8 24.5-9 7.4-2.2 18.7-5 25-6.2 8.7-1.7 17.1-2.3 34.5-2.8 12.6-0.3 28.2-0.4 34.5-0.3zm234 343.2c0.5 0 1 0.3 1 0.8 0 0.4 0.9 5.4 2.1 11.2 1.1 5.8 2.9 14.1 3.9 18.5 1 4.4 2.4 13.2 3 19.5 0.6 6.3 1.4 19.6 1.9 29.5 0.4 9.9 0.6 27.6 0.1 60.5h-13v-70c0-46 0.3-70 1-70zm-513.9 1c0.5 0 0.9 27.2 0.9 139h-12.5l-0.7-17.7c-0.3-9.8-0.2-28.2 0.3-40.8 0.5-12.6 1.5-28.2 2.3-34.5 0.8-6.3 2.2-15.1 3.1-19.5 0.9-4.4 2.5-12.2 3.6-17.2 1.1-5.1 2.5-9.3 3-9.3zm57.9 157v6.3c0 3.4 0.3 13 0.7 21.4 0.5 8.3 1.1 14.9 1.5 14.7 0.5-0.2 0.8 1.1 0.8 2.9 0 1.7 1.3 25.5 2.9 52.7 1.5 27.2 3.1 50.1 3.4 50.8 0.5 0.9 5.2 1.2 18.2 1.2 14.7 0 17.6-0.2 18-1.5 0.3-0.8 0.5-34.6 0.5-148.5h20v74.5c0 65.3 0.2 74.6 1.5 75 0.8 0.3 9.4 0.5 19 0.5 13.1 0 17.6-0.3 18-1.2 0.2-0.7 1.2-13.4 2-28.3 0.9-14.9 1.8-27.3 2.1-27.7 0.2-0.5 1.3-16 2.5-34.5 1.1-18.6 2.3-39.3 2.9-58.3h21v6.8c0 3.7-0.9 22.3-2 41.5-1.1 19.1-2.2 35-2.4 35.5-0.3 0.4-1.4 17.6-2.6 38.2-1.1 20.6-2.3 39.9-3 48h-136v-7.3c-0.1-3.9-0.5-10.3-1-14.2-0.5-3.9-1.7-18.5-2.5-32.5-0.8-14-1.9-34-2.5-44.5-0.5-10.5-1.3-26.5-1.7-35.8-0.5-9.2-1.1-16.7-1.6-16.7-0.4 0-1-3.7-1.3-8.3-0.4-4.5-0.4-8.8 0-9.5 0.5-0.8 3.8-1.2 21.6-1.2zm284 0l0.5 9.2c0.3 5.1 1.2 23.5 2 40.8 0.8 17.3 1.5 34.3 1.5 37.8 0 3.4 0.3 6.2 0.7 6.2 0.5 0 1.4 9.3 2.1 20.7 0.7 11.5 1.6 23.9 2.7 34.8l17.5 0.2c13.1 0.2 17.7 0 18.2-1 0.4-0.6 0.8-34.4 0.8-148.7h20v73.5c0 40.4 0.2 74.2 0.5 75 0.4 1.3 3.4 1.5 19 1.5 16.6 0 18.6-0.2 19.4-1.8 0.4-0.9 1.1-8.7 1.5-17.2 0.3-8.5 1.3-28.3 2.1-44 0.8-15.7 2.2-34.8 3-42.5 0.8-7.7 1.8-20.9 3-44.5h10.2c9.9 0 10.3 0.1 10.7 2.2 0.3 1.3 0 8.6-0.5 16.3-0.5 7.7-1.1 14.6-1.4 15.2-0.3 0.7-1.9 25.2-3.5 54.3-1.7 29.1-3 54.2-3.1 55.7 0 2.5-0.1 2.6-0.9 0.8-0.6-1.3-0.9 1.5-0.9 8-0.1 5.5-0.5 11.7-1.6 17.5h-134.5l-0.5-4.3c-0.2-2.3-1.1-17.5-2-33.7-0.8-16.2-1.8-37.1-2.1-46.5-0.4-9.4-1.1-17.2-1.5-17.5-0.5-0.3-1.7-15.4-2.8-33.5-1-18.1-1.7-33.3-1.4-33.8 0.2-0.4 5.1-0.7 21.3-0.7z"/>
		<path id="Path 1" class="s1" d="m386.7 548.5c0.2 20.4 0.2 53.9 0 74.5-0.1 20.6-0.2 4-0.2-37 0-41 0.1-57.9 0.2-37.5zm-216-31c0.2 2.8 0.2 7.5 0 10.5-0.2 3-0.3 0.8-0.3-5 0-5.8 0.1-8.3 0.3-5.5zm-86.2 143.9c9.9 0 13.7 0.2 8.5 0.3-5.2 0.2-13.3 0.2-18 0-4.7-0.1-0.4-0.3 9.5-0.3zm58.5 0c10.2 0 14.2 0.2 9 0.3-5.2 0.2-13.5 0.2-18.5 0-4.9-0.1-0.7-0.3 9.5-0.3zm225.5 0c9.9 0 13.7 0.2 8.5 0.3-5.2 0.2-13.3 0.2-18 0-4.7-0.1-0.4-0.3 9.5-0.3zm58 0c10.5 0 15 0.2 10 0.3-4.9 0.2-13.5 0.2-19 0-5.5-0.1-1.4-0.3 9-0.3zm-312.5 21.1c37.1 0 52.4 0.1 34 0.2-18.4 0.2-48.8 0.2-67.5 0-18.7-0.1-3.6-0.2 33.5-0.2zm283.5 0c37.4 0 52.9 0.1 34.5 0.2-18.4 0.2-49 0.2-68 0-19-0.1-3.9-0.2 33.5-0.2z"/>
		<path id="Path 2" class="s2" d="m169.7 516.5c0.2 2.8 0.2 7.7 0 11-0.2 3.3-0.3 1-0.3-5 0-6 0.1-8.8 0.3-6zm-111 1c0.2 2.8 0.2 7.7 0 11-0.2 3.3-0.3 1-0.3-5 0-6 0.1-8.8 0.3-6zm24.8 142.9c9.9 0 13.7 0.2 8.5 0.3-5.2 0.2-13.3 0.2-18 0-4.7-0.1-0.4-0.3 9.5-0.3zm60 0c10.4 0 14.9 0.2 10 0.3-4.9 0.2-13.5 0.2-19 0-5.5-0.1-1.4-0.3 9-0.3zm224.5 0c10.2 0 14.2 0.2 9 0.3-5.2 0.2-13.6 0.2-18.5 0-4.9-0.1-0.7-0.3 9.5-0.3zm59.5 0c10.4 0 14.9 0.2 10 0.3-4.9 0.2-13.5 0.2-19 0-5.5-0.1-1.4-0.3 9-0.3zm-313.5 22.1c37.4 0 68 0.3 68 0.7 0 0.5-30.6 0.8-68 0.8-37.4 0-68-0.3-68-0.8 0-0.4 30.6-0.7 68-0.7zm284 1c37.7 0 53 0.1 34 0.2-19 0.2-49.8 0.2-68.5 0-18.7-0.1-3.2-0.2 34.5-0.2z"/>
		<path id="Path 3" class="s3" d="m101.7 549.5c0.2 20.9 0.2 54.6 0 75-0.1 20.4-0.2 3.3-0.2-38 0-41.3 0.1-57.9 0.2-37zm307 0c0.2 20.9 0.2 54.6 0 75-0.1 20.4-0.2 3.3-0.2-38 0-41.3 0.1-57.9 0.2-37z"/>
		<path id="Path 4" class="s4" d="m267 503.4c8.5 0 12.1 0.2 8 0.3-4.1 0.2-11.1 0.2-15.5 0-4.4-0.1-1-0.3 7.5-0.3zm-143.3 34.6c0.2 14.6 0.4 48.2 0.5 74.8 0.2 26.5 0 48.2-0.4 48.2-0.5 0-0.7-33.6-0.6-74.7 0.2-41.2 0.4-62.9 0.5-48.3zm-66-20c0.2 3 0.2 8.2 0 11.5-0.2 3.3-0.3 0.8-0.3-5.5 0-6.3 0.1-9 0.3-6z"/>
		<path id="Path 5" class="s5" d="m-14 460c0.4 5.2 0.8 15.1 0.9 22 0.1 6.9 0 12.3-0.2 12-0.3-0.3-0.7-10.2-0.9-22-0.4-13.4-0.3-17.9 0.2-12zm539.7 7c0.2 4.7 0.2 12.8 0 18-0.1 5.2-0.3 1.4-0.3-8.5 0-9.9 0.2-14.2 0.3-9.5z"/>
		<path id="Path 6" class="s6" d="m247.5 10.4c11 0 15.7 0.2 10.5 0.3-5.2 0.2-14.2 0.2-20 0-5.8-0.1-1.5-0.3 9.5-0.3zm-236.8 270.6c0.2 2.5 0.2 6.7 0 9.5-0.2 2.7-0.3 0.7-0.3-4.5 0-5.2 0.1-7.5 0.3-5zm114 267.5c0.2 20.3 0.2 53.9 0 74.5-0.1 20.6-0.2 4-0.2-37 0-41 0.1-57.9 0.2-37.5z"/>
		<path id="Path 7" class="s7" d="m10.7 249.5c0.2 4.9 0.2 13.3 0 18.5-0.1 5.2-0.3 1.2-0.3-9 0-10.2 0.2-14.4 0.3-9.5zm516 216c0.2 4.9 0.2 13.5 0 19-0.1 5.5-0.3 1.4-0.3-9 0-10.4 0.2-14.9 0.3-10zm-424 83c0.2 20.4 0.2 53.9 0 74.5-0.1 20.6-0.2 4-0.2-37 0-41 0.1-57.9 0.2-37.5z"/>
		<path id="Path 8" class="s8" d="m-14.3 474c0.2 3.6 0.2 9.6 0 13.5-0.2 3.9-0.3 0.9-0.3-6.5 0-7.4 0.1-10.6 0.3-7zm422 74.5c0.2 20.4 0.2 53.9 0 74.5-0.1 20.6-0.2 4-0.2-37 0-41 0.1-57.9 0.2-37.5z"/>
		<path id="Path 9" class="s9" d="m255 30.2c11.3-0.1 25.7 0.3 32 0.8 6.3 0.6 16 2 21.5 3.1 5.5 1.2 15.2 3.9 21.5 6 6.3 2.2 18.3 7.3 26.5 11.4 8.3 4.1 19.7 10.5 25.5 14.3 5.8 3.7 14.8 10.4 20 14.7 5.2 4.4 14 12.5 19.5 18 5.5 5.5 14.1 15.4 19.1 22 4.9 6.6 11.4 16.1 14.3 21 2.9 4.9 7 12.4 9.1 16.5 2.1 4.1 5.4 11.3 7.3 16 2 4.7 5.1 13.9 7.1 20.5 1.9 6.6 4.2 16.3 5.2 21.5 1.5 7.8 1.8 15.1 1.8 41.5 0.1 21.9-0.3 33.8-2.4 43.5l-4.8-3.9c-2.6-2.1-8-5.5-12-7.5-3.9-2-7.1-3.9-6.9-4.3 0.2-0.5 1.3-3 2.6-5.8 1.3-2.8 2.7-6.1 3.1-7.5 0.5-1.4 1.8-5.2 3-8.5 1.2-3.3 2.8-10.3 3.6-15.5 0.8-5.2 1.4-14 1.4-19.5 0-5.5-0.5-12.9-1-16.5-0.6-3.6-1.5-8.5-2.1-11-0.6-2.5-1.5-5.4-1.9-6.5-0.5-1.1-2.1-5.2-3.6-9-1.4-3.8-3.4-7.9-4.3-9-1-1.1-2.2-3.1-2.8-4.5-0.6-1.4-3.5-5.2-6.4-8.5-2.9-3.3-7.4-7.8-10-10-2.6-2.2-8.5-5.9-13.1-8.2-4.8-2.4-11.6-4.8-16.1-5.7-4.2-0.9-10.4-1.6-13.7-1.6-3.3 0-9.5 0.7-13.8 1.6-4.7 0.9-11.4 3.4-17.1 6.2-7.4 3.7-10.9 6.3-17 12.3-4.2 4.2-8.6 9-9.7 10.5-1.2 1.6-3.3 5.1-4.7 7.9-1.4 2.7-3.7 7.5-5.1 10.5-1.4 3-3.2 8.4-4.1 12-0.8 3.6-1.7 6.6-2 6.7-0.3 0.2-1.3-0.1-2.3-0.6-0.9-0.5-8.2-2.3-16.2-4.1-8-1.8-15.9-3.8-17.5-4.5-1.6-0.7-7.7-2.2-13.5-3.4-5.8-1.2-11.4-2.6-12.5-3.1-1.1-0.6-9-2.6-17.5-4.5-8.5-1.9-15.6-3.4-15.8-3.2-0.2 0.1 0.6 3.1 1.8 6.7 1.1 3.6 2.2 6.9 2.4 7.5 0.1 0.6 1.7 5.7 3.5 11.5 1.8 5.8 3.6 11.2 4 12 0.5 0.8 2.3 6.4 4 12.5q3.2 11 2.2 12-1.1 1-6.3-0.8c-2.9-1.1-11.8-3.4-19.8-5.2-8-1.8-17-4-20-4.8-3-0.8-6.6-1.7-8-2-2.4-0.6-2.5-1-3.2-9.9-0.4-5.1-1.2-10.6-1.8-12.3-0.5-1.7-1.9-6.8-3-11.5-1.2-4.9-3.9-12.2-6.5-17.3-2.5-4.8-6.1-10.8-8.1-13.5-2-2.6-6.4-7.4-9.9-10.7q-6.3-6-15.6-10.7c-6-3-12.2-5.3-17.1-6.3-4.3-0.8-10.5-1.5-13.8-1.5-3.3 0-9.5 0.7-13.7 1.6-4.5 0.9-11.2 3.2-15.8 5.6-4.4 2.2-9.6 5.2-11.5 6.6-1.9 1.4-6.1 5.3-9.3 8.7-3.2 3.3-7 8-8.5 10.5-1.4 2.5-3.1 5.2-3.8 6-0.7 0.8-2.4 4.7-3.9 8.5-1.4 3.8-3 7.9-3.5 9-0.5 1.1-1.7 4.9-2.7 8.5-1.3 5-1.7 10.7-1.8 24.5 0 11.6 0.5 20.5 1.4 25 0.8 3.9 3.1 11.5 5.1 17 2 5.5 4.4 11.2 7 15.5l-4.6 2.7c-2.5 1.6-6.9 4.3-9.7 6.1-3.9 2.5-5.4 3-5.9 2-0.4-0.7-1.2-5.6-1.9-10.8-0.7-6.2-1-17.7-0.6-33 0.3-15.3 1-26.6 2.1-32.5 0.9-4.9 2.8-13.7 4.2-19.5 1.3-5.8 3.8-14.6 5.4-19.5 1.6-4.9 5.9-14.8 9.4-22 3.5-7.2 8.8-16.6 11.6-21 2.9-4.4 7.3-10.7 9.8-14 2.5-3.3 7.6-9.6 11.3-14 3.6-4.4 12.4-13.3 19.5-19.7 7.1-6.4 16.1-14.1 19.9-17 3.8-3 9.9-7.2 13.5-9.4 3.6-2.2 9.9-5.9 14-8.1 4.1-2.3 12.4-6.2 18.5-8.8 6.1-2.6 16.8-6.4 24-8.5 7.2-2.2 17.3-4.6 22.6-5.3 5.3-0.8 11.6-1.7 14-1.9 2.4-0.3 13.6-0.5 24.9-0.6zm-138.5 130.3c5 0.2 10.5 1.2 14.5 2.7 3.6 1.3 8 3.4 9.9 4.8 1.8 1.4 5.1 4.3 7.3 6.5 2.1 2.2 5.6 6.5 7.6 9.5 2 3 5.1 9.6 6.9 14.5 1.8 4.9 3.7 12.8 4.3 17.5 0.6 4.7 0.8 8.7 0.5 9-0.3 0.3-4.5-0.4-9.3-1.4-4.8-1-9.4-2.2-10.2-2.6-0.8-0.4-2.7-3.2-4.2-6.1-1.5-3-4-7-5.6-8.9-1.6-1.9-5.8-5.1-9.3-7-5.9-3.1-7.1-3.4-14.9-3.5-6.8 0-9.5 0.5-13.2 2.2-2.7 1.3-5.1 2.3-5.5 2.3-0.5 0-2.6 1.5-4.7 3.2-2.3 1.9-5.4 6.2-7.4 10.3-3.2 6.3-3.6 7.8-3.6 15-0.1 7.5 0.2 8.5 3.9 15.3 2.9 5.4 5.4 8.4 9.3 11.3 2.8 2.1 7.1 4.6 9.5 5.4 2.3 0.9 6.9 1.5 10.2 1.5 3.3 0 8.4-0.7 11.3-1.5 4-1.1 6.6-2.9 11-7.3 3.2-3.1 6.5-6.8 8.9-10.7l11.2 2.5c6.9 1.6 11.1 3 11.1 3.7 0 0.7-0.6 2.8-1.4 4.5-0.7 1.8-2.2 6.2-3.4 9.8-1.1 3.6-3.7 9.4-5.8 13-2.1 3.6-6.7 9.9-10.1 14-3.5 4.1-6.3 8.1-6.3 8.7 0 0.7 1.5 1.5 3.3 1.7 1.7 0.3 5.5 0.8 8.2 1.2 2.8 0.3 5.6 1.2 6.3 1.8 0.7 0.6 1.3 0.8 1.2 0.3 0-0.4 3.3 0.4 7.3 1.8 3.9 1.4 9.6 4.2 12.6 6.3 2.9 2 7.4 6 10 8.9 2.5 2.8 5.5 6.4 6.7 8 1.2 1.5 4 6.6 6.3 11.3 2.3 4.7 5.4 12.5 6.7 17.5 1.4 4.9 2.9 9.9 3.4 11 0.5 1.1 1.1 3.1 1.4 4.5 0.3 1.4 1.7 10.4 3.2 20 1.4 9.6 2.9 21.8 3.4 27 0.4 5.2 1.2 19.1 2.5 52h-28.5v-68h-10c-5.5 0-10.7 0.2-11.5 0.5-1.3 0.4-1.5 4.8-1.5 62.5l-15.2-7.8c-8.4-4.2-19.8-10.7-25.3-14.3-7.1-4.7-15-11.5-27.4-23.5-9.5-9.3-20.2-20.3-23.6-24.4-3.4-4.1-8.7-11.3-11.7-16-3.1-4.7-7.6-12.3-10.1-17-2.5-4.7-6.8-13.7-9.5-20-2.7-6.3-5.7-14-8.4-22.5l3.4-3.3c1.8-1.8 5.8-4.9 8.8-7 3-2.1 9-4.7 13.5-6.1 4.4-1.3 11.4-3 15.5-3.8 4.1-0.8 8-1.9 8.5-2.3 0.6-0.6-0.1-2.3-1.9-4.7-1.7-2.1-3.9-4.8-5-5.9-1.2-1.2-3.5-4.1-5.3-6.5-1.7-2.4-4.3-7.1-5.8-10.4-1.5-3.3-3.3-7.4-4.1-9-0.7-1.6-2.1-5.9-3-9.5-0.8-3.6-1.8-13-2.1-21-0.4-11.9-0.2-16.2 1.4-24 1.3-6 3.4-12.4 5.9-17.3 2.1-4.3 6-10.2 8.5-13 2.5-2.9 6.8-6.9 9.5-8.9 2.7-2 6.9-4.4 9.4-5.3 2.5-0.9 6.3-2 8.5-2.5 2.2-0.5 7.6-0.7 12-0.5zm281 0.5c8.6 0 12.3 0.4 17 2 3.3 1.2 8.4 3.9 11.3 6 2.8 2.2 6.8 5.7 8.7 7.7 1.9 2.1 5.5 7.7 8 12.5 2.5 4.9 5.3 11.8 6.2 15.5 1.3 5.1 1.7 11.1 1.7 23.8 0 13.2-0.4 18.6-1.8 24-1 3.9-2.9 9.4-4.2 12.2-1.3 2.9-2.4 5.6-2.4 6 0.1 0.5-2.6 5-6 10-3.3 5.1-6.4 9.4-6.8 9.5-0.4 0.2-2.1 2-3.7 4.1-1.9 2.4-2.6 4.1-2 4.7 0.6 0.4 4.4 1.5 8.5 2.3 4.1 0.8 8.4 1.7 9.5 2 1.1 0.3 4.9 1.5 8.5 2.6 4.3 1.3 8.8 3.7 13.4 7.3 3.8 2.9 8.3 7 13.1 12.8l-2.9 7.7c-1.5 4.3-5.5 13.2-8.6 19.8-3.2 6.6-8.5 16.5-11.8 22-3.3 5.5-9.5 14.3-13.8 19.6-4.4 5.2-12 13.9-16.9 19.2-4.9 5.4-12.8 12.8-17.5 16.6-4.7 3.8-13.5 10.2-19.5 14.3-6.1 4-18.1 10.9-26.7 15.3-8.6 4.4-15.8 7.8-16 7.5-0.3-0.3 0-14.4 0.6-31.3 1-27.1 0.9-30.9-0.4-31.7-0.8-0.6-6-0.9-21.5-0.5l-0.7 4.5c-0.3 2.5-0.7 17.7-0.8 63h-29.5l0.8-23.2c0.5-12.8 1.5-26.2 2.2-29.8 0.7-3.6 1.6-10.8 2-16 0.3-5.2 1.5-14.7 2.6-21 1.1-6.3 2.3-12 2.6-12.5 0.4-0.6 1.6-4.8 2.9-9.5 1.2-4.7 4.3-12.9 6.8-18.3 2.5-5.3 6.4-12.1 8.5-15 2.1-2.8 5.6-6.8 7.7-8.8 2.2-2 5.9-5 8.4-6.7 2.5-1.8 7.9-4.3 12-5.7 4.1-1.4 7.7-2.6 8-2.7 0.3 0 0.9-0.2 1.5-0.3 0.6-0.2 4.3-0.9 8.4-1.7 4.1-0.7 7.6-1.8 7.8-2.3 0.2-0.6-1.7-3.5-4.2-6.5-2.5-3-5.4-6.4-6.4-7.5-0.9-1.1-3.1-4.3-4.7-7-1.7-2.8-3.7-6.6-4.6-8.5-0.9-1.9-2.9-7.8-4.3-13-1.5-5.2-3.1-12.2-3.6-15.5-0.5-3.3-0.6-6.3-0.1-6.7 0.4-0.4 4.9 0.5 10 2 8.4 2.5 9.3 3 10.2 5.7 0.5 1.6 2.4 4.9 4.2 7.2 1.8 2.3 5.3 5.6 7.8 7.4 2.5 1.8 6.1 3.9 8 4.6 1.9 0.6 6.4 1.2 10 1.3 3.6 0 8.8-0.6 11.5-1.4 3.4-1 6.9-3.2 11-6.9 4.1-3.6 6.8-7.1 8.4-10.8 1.3-3 2.6-8.3 2.9-11.9 0.4-5 0-8.1-1.7-13.5-1.4-4.5-3.6-8.5-5.9-11.1-2.5-2.8-6.4-5.5-11.7-7.9-7.7-3.7-8.3-3.8-16-3.2-6.5 0.5-9 1.3-13.5 3.8-3 1.8-7 4.8-8.9 6.8-1.8 2-4 4.9-4.8 6.6-0.9 1.6-1.6 3.1-1.7 3.2 0 0.1-3-0.5-6.6-1.3-3.6-0.8-7.8-2-9.3-2.7-1.5-0.6-2.8-1.2-2.7-1.2 0 0 1.1-4.1 2.5-9 1.5-5.3 4.2-11.7 6.5-15.5 2.2-3.6 6-8.5 8.4-11 2.4-2.5 5.9-5.6 7.7-7 1.9-1.4 6.1-3.5 9.4-4.7 4.8-1.7 8.3-2.2 17-2.3zm-134.9 52c1.1 0.1 8.2 1.6 15.9 3.5 7.7 1.8 20.1 4.9 27.5 6.7 7.4 1.8 14.1 3.6 14.8 4.1 0.7 0.4 1.2 3 1.2 6.9 0 3.5 0.6 8.5 1.4 11.3 0.8 2.7 2.3 8.8 3.4 13.5 1.1 4.7 3.7 12.4 5.8 17.3 2.5 5.6 3.5 9 2.9 9.6-0.6 0.5-3.9 2.4-7.5 4.4-3.6 1.9-7.8 4.5-9.4 5.8-1.6 1.3-5.4 5-8.5 8.1-3.1 3.2-6.8 7.2-8.3 9-1.4 1.8-3.9 5.8-5.4 8.8-1.5 3-3.3 6.2-3.9 7-0.6 0.8-1.9 3.5-2.9 6-1.1 2.5-2.7 6.4-3.7 8.7-1.1 2.4-2.8 8.2-4 13-1.1 4.9-2.9 11.5-3.9 14.8-1.1 3.3-2.6 11.6-3.4 18.5-0.9 6.9-2 17.7-2.6 24-0.5 6.3-1.4 13.3-2 15.5-0.5 2.2-1 15.2-1 54l-5.7 0.6c-3.2 0.4-8.8 0.4-19.3-0.6v-9c0-5-0.7-20.3-1.4-34-0.7-13.8-1.6-25.6-2-26.3-0.3-0.6-1.3-7.2-2.1-14.5-0.9-7.2-2-15.9-2.6-19.2-0.5-3.3-1.8-8.9-2.8-12.5-1-3.6-2.9-10.3-4.1-15-1.2-4.7-2.8-9.4-3.4-10.5-0.7-1.1-2.4-5.3-3.9-9.3-1.5-3.9-3.1-7.4-3.7-7.7-0.6-0.3-2-2.4-3.1-4.8-1.2-2.3-3.3-5.7-4.8-7.5-1.4-1.8-4.6-5.5-7.1-8.1-2.5-2.7-6.6-6.5-9.2-8.5-2.7-2-7.5-5-10.8-6.6-3.3-1.6-6.3-3.6-6.6-4.3-0.3-0.6 0.8-4.1 2.4-7.7 1.7-3.6 3.7-8.5 4.5-11 0.8-2.5 1.7-6.4 2.1-8.8 0.3-2.3 1.2-4.4 1.9-4.7 0.6-0.3 5.9 0.6 11.7 2 5.8 1.5 16.6 4 24 5.6 7.4 1.7 14.2 3.3 15 3.6 0.8 0.3 1.9 0.7 2.5 0.9 0.6 0.2 7.5 1.9 15.5 3.8 8 1.9 16.4 4 18.7 4.8 2.9 0.9 4.6 1 5.4 0.3 0.7-0.7-0.8-6.5-5.4-20.5-3.6-10.7-7.5-22.9-8.7-27-1.1-4.1-2.6-8.6-3.2-10-0.7-1.4-1.4-2.8-1.6-3.3-0.2-0.4 0.4-0.7 1.4-0.7z"/>
		<path id="Path 10" class="s10" d="m321.7 448c0.2 4.1 0.2 10.6 0 14.5-0.1 3.9-0.3 0.5-0.3-7.5 0-8 0.2-11.1 0.3-7zm-130 4c0.2 3.6 0.2 9.6 0 13.5-0.2 3.9-0.3 0.9-0.3-6.5 0-7.4 0.1-10.6 0.3-7zm109 20.8c5.4 0.1 12.1 0.4 14.8 0.5 2.8 0.2-1.6 0.4-9.7 0.5-8.2 0.1-14.8-0.1-14.8-0.6 0-0.4 4.4-0.6 9.7-0.4zm-94.2 0.6c7.7 0 10.6 0.2 6.5 0.3-4.1 0.2-10.4 0.2-14 0-3.6-0.2-0.2-0.3 7.5-0.3z"/>
		<path id="Path 11" class="s11" d="m170.7 409c0.2 2.5 0.2 6.8 0 9.5-0.2 2.8-0.3 0.7-0.3-4.5 0-5.2 0.1-7.5 0.3-5zm172.6-4c0.4 0 0.6 6.6 0.5 14.8-0.1 8.1-0.3 12.4-0.5 9.7-0.1-2.8-0.4-9.4-0.5-14.8-0.2-5.3 0-9.7 0.5-9.7zm-73.5 27c0.5 0 0.7 3.9 0.5 8.8-0.3 4.8-0.6 9.1-0.8 9.7-0.2 0.6-0.4-3.4-0.4-8.8-0.1-5.3 0.3-9.7 0.7-9.7zm-26.1 32.5c0.2 3.3 0.2 9.1 0 13-0.2 3.9-0.3 1.1-0.3-6 0-7.1 0.1-10.3 0.3-7z"/>
		<path id="Path 12" class="s12" d="m182.3 404.2c5.9-0.1 10.7 0.1 10.7 0.6 0 0.4-3.3 0.6-7.2 0.4-4-0.1-8.9-0.4-10.8-0.6-1.9-0.1 1.3-0.3 7.2-0.4zm149.8 0.2c5.8 0 8 0.1 5 0.3-3 0.2-7.8 0.2-10.5 0-2.8-0.2-0.3-0.3 5.5-0.3zm-11.3 14.6c0.2 4.1 0.2 10.6 0 14.5-0.1 3.9-0.3 0.5-0.3-7.5 0-8 0.2-11.1 0.3-7zm-150 14.5c0.2 6.1 0.2 16.2 0 22.5-0.1 6.3-0.3 1.4-0.3-11 0-12.4 0.2-17.6 0.3-11.5zm72 10.5c0.2 2.5 0.2 6.8 0 9.5-0.2 2.8-0.3 0.7-0.3-4.5 0-5.2 0.1-7.5 0.3-5z"/>
		<path id="Path 13" class="s13" d="m257 29.4c7.4 0 10.4 0.1 6.5 0.3-3.9 0.2-9.9 0.2-13.5 0-3.6-0.2-0.4-0.3 7-0.3zm-75.5 376c6.1 0 8.8 0.1 6 0.3-2.8 0.2-7.7 0.2-11 0-3.3-0.2-1.1-0.3 5-0.3zm150 0c6.1 0 8.8 0.1 6 0.3-2.8 0.2-7.7 0.2-11 0-3.3-0.2-1.1-0.3 5-0.3zm-159.8 24.6c0.2 4.1 0.2 10.7 0 14.5-0.1 3.9-0.3 0.5-0.3-7.5 0-8 0.2-11.1 0.3-7z"/>
		<path id="Path 14" class="s14" d="m342.7 440.5c0.2 3.9 0.2 10.6 0 15-0.1 4.4-0.3 1.3-0.3-7 0-8.3 0.2-11.9 0.3-8zm-150.3 5l0.6 26.5 28.5 0.6-29.5 0.4 0.2-13.8zm50.3 19.1c0.2 3.3 0.2 9.1 0 12.9-0.2 3.9-0.3 1.2-0.3-6 0-7.1 0.1-10.3 0.3-7zm63.3 7.9c8 0 11.3 0.2 7.5 0.4-3.9 0.2-10.4 0.2-14.5 0-4.1-0.2-1-0.4 7-0.4z"/>
		<path id="Path 15" class="s15" d="m342.7 413c0.2 4.1 0.2 10.6 0 14.5-0.1 3.9-0.3 0.5-0.3-7.5 0-8 0.2-11.1 0.3-7zm-21 4.5c0.2 3.9 0.2 10.6 0 15-0.1 4.4-0.3 1.3-0.3-7 0-8.3 0.2-11.9 0.3-8zm-129 5.5c0.2 4.1 0.2 11.1 0 15.5-0.1 4.4-0.3 1-0.3-7.5 0-8.5 0.2-12.1 0.3-8z"/>
		<path id="Path 16" class="s16" d="m320.7 446.5c0.2 3.9 0.2 10.6 0 15-0.1 4.4-0.3 1.3-0.3-7 0-8.3 0.2-11.9 0.3-8z"/>
	</g>
</svg>