<svg version="1.2" xmlns="http://www.w3.org/2000/svg" viewBox="0 0 512 512" width="512" height="512">
	<title>0-summoned-svg</title>
	<style>
		.s0 { fill: #74eb00 } 
		.s1 { opacity: .5;fill: #74eb00 } 
		.s2 { fill: #000000 } 
		.s3 { fill: #6cda00 } 
		.s4 { fill: #63c800 } 
		.s5 { fill: #162d00 } 
		.s6 { fill: #2d5b00 } 
		.s7 { fill: #58b200 } 
		.s8 { fill: #3c7900 } 
		.s9 { fill: #214200 } 
		.s10 { fill: #4b9700 } 
	</style>
	<g id="puppeteer">
		<path id="Path 0" class="s0" d="m260 10.6c14 0 27.8 0.4 30.5 0.8 2.8 0.4 11.8 2.1 20 3.7 8.3 1.7 19.1 4.4 24 6 4.9 1.7 13.3 4.9 18.5 7.1 5.2 2.2 13.8 6.2 19 9 5.2 2.8 14.4 8.2 20.5 12 6.1 3.9 14.8 10 19.5 13.7 4.6 3.6 13.3 11.3 19.3 17.1 6 5.8 14.6 15 19 20.5 4.4 5.5 11.6 15.4 16 22 4.3 6.6 11.4 19.2 15.8 28 4.3 8.8 9.4 20.7 11.3 26.5 1.8 5.8 4.5 15.7 6 22 1.4 6.3 3.3 15.8 4.3 21 1.3 7.5 1.7 15.2 1.7 36 0 20.4-0.5 29-1.8 37.5-1 6.1-2.8 15.5-4.1 21-1.3 5.5-4 14.9-6 21-2 6.1-7.6 19.1-12.5 29-4.9 9.9-11.6 22.1-14.9 27-3.3 4.9-9.3 13.1-13.3 18-4 4.9-11.4 13.2-16.3 18.4-4.9 5.1-13.1 12.8-18 17.1-4.9 4.3-14.2 11.5-20.5 16-8.1 5.9-17 11-30.5 17.5-10.4 5.1-22.4 10.5-26.5 12-4.1 1.4-13.4 4-20.5 5.6-7.1 1.7-19.4 4.1-27.3 5.5-11.9 2-17.6 2.4-35.2 2.4-17.6 0-23.3-0.4-35.3-2.4-7.8-1.4-19.4-3.6-25.7-5-6.3-1.4-15.1-3.7-19.5-5.1-4.4-1.4-17.4-7.3-29-13-12.4-6.2-24.7-13.1-30-17-5-3.5-15.1-11.5-22.5-17.8-7.8-6.5-17.5-16-23-22.3-5.2-6-12.2-14.5-15.5-18.9-3.4-4.4-8.7-12.5-12-18-3.2-5.5-8.7-15.6-12.1-22.5-3.4-6.9-8-17.7-10.2-24-2.1-6.3-5.2-16.7-6.7-23-1.5-6.3-3.4-15.1-4.2-19.5-1-5.2-1.7-17-2-33.5-0.5-21.1-0.3-27.3 1.2-36 0.9-5.8 2.8-16.1 4.2-23 1.3-6.9 4.2-17.9 6.3-24.5 2.2-6.7 7.7-19.6 12.4-29 4.6-9.3 11.3-21.3 14.8-26.5 3.5-5.2 9-13.1 12.3-17.5 3.3-4.4 12.3-14.3 20-22 7.7-7.7 17.8-17 22.5-20.6 4.7-3.7 13.7-10 20-14 6.3-4 16.9-10 23.5-13.4 6.6-3.4 16.9-8.1 23-10.4 6.1-2.3 16.2-5.6 22.5-7.2 6.3-1.7 18.3-4 26.5-5.2 12.5-1.8 19.2-2.2 40.5-2.1z"/>
		<path id="Path 1" class="s1" d="m251 10.4c8.5 0 12.1 0.2 8 0.3-4.1 0.2-11.1 0.2-15.5 0-4.4-0.1-1-0.3 7.5-0.3zm254.7 247.1c0.2 2.2 0.2 5.6 0 7.5-0.2 1.9-0.4 0.1-0.4-4 0-4.1 0.2-5.7 0.4-3.5z"/>
		<path id="Path 2" fill-rule="evenodd" class="s2" d="m262 30.5c11.5 0.2 25.3 1.1 31.5 2 6.1 0.9 16.9 3.1 24 5 7.1 1.9 17.9 5.4 24 7.8 6.1 2.4 15.5 6.8 21 9.7 5.5 3 13.6 7.6 18 10.4 4.4 2.7 13.2 9.1 19.5 14.2 6.3 5 16.2 14.1 22 20 5.8 6 13.5 14.7 17.2 19.4 3.6 4.7 9.9 13.9 13.9 20.5 4 6.6 9.2 16.3 11.7 21.5 2.5 5.2 6.2 14.2 8.2 20 2.1 5.8 5 15.2 6.5 21 1.4 5.8 3.4 15.2 4.2 21 1.1 7.2 1.6 17.7 1.7 33.5 0 16.7-0.4 26.2-1.7 34.5-0.9 6.3-3.2 17.1-5.1 24-1.9 6.9-5.3 17.2-7.5 23-2.3 5.8-6.8 15.7-10 22-3.1 6.3-7.7 14.6-14.6 25.5l-0.2-90.5c-0.3-88.7-0.3-90.6 1.7-94.8 1.1-2.3 2-5.7 2-7.5 0-1.7-1.4-5.9-3.1-9.2-1.7-3.3-3.6-7-4.2-8.1-0.7-1.2-2.3-3.4-3.7-4.9-1.4-1.5-4.1-3.3-6-4.1-1.9-0.8-4.9-1.4-6.5-1.4-1.6 0-5.8 1.4-9.2 3.2-3.4 1.8-9.7 5.3-14 7.8-4.3 2.4-14.9 8.6-23.6 13.7-8.6 5.1-15.9 9.3-16.2 9.3-0.3 0-4.9 2.6-10.2 5.8-5.4 3.2-12.4 7.3-15.5 9-3.2 1.8-6.2 3-6.8 2.7-0.6-0.3-6.8-12.3-13.9-26.8-7.7-15.4-15-28.9-17.9-32.7-2.7-3.6-10.3-12.3-16.7-19.5-6.5-7.2-14.8-16.2-18.5-20-3.7-3.8-9.4-9.9-12.6-13.5-3.3-3.6-8-9.2-10.5-12.5-2.6-3.3-6.5-9.2-8.9-13-2.3-3.8-4.6-7.9-5-9-0.4-1.1-1.9-3.5-6-8.5h-26l-2 2.8c-1.2 1.5-2.1 3.8-2.1 5.2 0 1.4 1.2 3.6 2.7 5 2.2 2.2 3.7 2.6 11.2 3 7.4 0.4 8.8 0.8 9.7 2.5 0.5 1.1 2.3 4.3 3.9 7 1.6 2.8 5.9 8.8 9.4 13.5 3.6 4.7 9.1 11.2 12.2 14.5 3.1 3.3 11 11.8 17.5 19 6.6 7.2 14.9 16.2 18.5 20 3.6 3.8 8.4 9.5 10.6 12.5 2.2 3 12.1 21.9 22.1 42 10 20.1 19.4 39.2 23.8 48.5l0.2 26.3c0.2 14.4 0.1 26.2-0.2 26.2-0.3 0-2.2-0.9-4.3-2.1-2-1.1-5.5-3.1-11.7-6.7l-1-35.7-4-5.7c-2.2-3.1-8.9-12.4-15-20.7-6.1-8.4-13.3-18.4-16.1-22.4-2.9-4.1-6.3-7.6-7.8-8.2q-2.6-1-5.2 0c-1.4 0.6-3.3 2.1-4.1 3.5-1.5 2.3-1.4 3.7 0.1 16.5 1 7.7 2.6 20.2 3.7 27.8 1.6 11.5 1.9 19.8 1.9 91.7l-2.5 3c-1.9 2.3-3.3 3-6 3-1.9 0-4.4-0.4-5.5-1-1.1-0.6-2.5-2.5-3-4.3-0.6-1.9-1-17.6-1-39.2 0-26.4-0.4-37.7-1.4-42.5-0.7-3.6-1.8-8.3-2.5-10.5-0.7-2.2-2-6.9-3.1-10.5-1-3.6-2.5-9-3.4-12-0.8-3-2.1-7.7-2.9-10.5-0.8-2.7-2.2-7.7-3.2-11-0.9-3.3-2.5-6.8-3.4-7.8-1-1.1-3-1.7-5.1-1.7-2.2 0-4.3 0.9-5.8 2.3-1.2 1.2-2.2 3.3-2.2 4.7 0 1.4 0.7 4.5 1.5 7 0.8 2.5 1.5 6.9 1.5 9.8 0 2.8-0.6 8-1.4 11.5-0.8 3.4-2.2 10.7-3.1 16.2-0.9 5.5-2.3 13.1-3.1 17-0.7 3.9-2.3 11.9-3.4 18-1.1 6.1-2.7 14.1-3.5 18-0.7 3.9-1.7 9.3-2.1 12-0.3 2.8-1.1 6-1.8 7.2-0.6 1.3-2.1 2.7-3.4 3.3-1.2 0.5-3.2 1-4.5 1-1.2 0-3.2-0.7-4.5-1.5-1.2-0.8-2.7-2.5-3.3-3.7-0.8-1.8-0.7-4 0.6-9.3 0.9-3.9 2.3-10.1 3.1-14 0.9-3.9 2.1-9.7 2.9-13 0.7-3.3 2.1-9.6 3.1-14 1.5-6.8 1.8-12.4 1.6-36.3-0.1-20.5-0.5-28.7-1.5-30.2-0.6-1.1-2.3-2.5-3.7-3-1.7-0.8-3.3-0.8-5.3 0-1.5 0.5-3.4 2-4.2 3.2-1.3 2-1.4 5.7-0.9 24.3 0.6 17.9 0.4 24.1-1 33-0.9 6.1-2.4 14.1-3.2 18-0.9 3.9-2.2 9.5-2.9 12.5-0.7 3-1.6 7.2-1.9 9.2-0.3 2.1-1 4-1.6 4.3-0.6 0.3-2-0.3-3.1-1.3-2.1-1.7-2.2-2-1.5-29.2 0.6-24.2 0.5-27.9-1-30.5-0.8-1.7-4-8.2-6.9-14.5-2.9-6.3-7.1-15.3-9.3-20-2.2-4.7-6.4-13.9-9.5-20.5-3-6.6-6.9-15.2-8.7-19-1.7-3.8-3.8-8.3-4.5-10-0.8-1.7-2.3-5.9-3.4-9.5-1.1-3.6-2.8-9.9-3.7-14-1.3-5.5-1.7-11.8-1.7-24 0.1-9.1 0.6-18.5 1.2-21 0.8-3.7 0.7-5.6-0.9-11-1-3.6-1.7-6.8-1.4-7.3 0.2-0.4 3.1-0.7 6.4-0.7 3.3 0 7.2-0.6 8.6-1.3 1.4-0.6 3.2-2.2 4-3.5 0.8-1.2 1.2-3.4 0.9-5-0.6-2.6 0-3 10.2-8.8 5.9-3.3 12.6-6.9 14.8-8.1 2.2-1.1 9.2-4 15.5-6.3 6.3-2.3 17.3-5.7 24.5-7.5 7.2-1.8 17.1-3.8 22-4.4 4.9-0.6 10.8-1.3 13-1.5 2.2-0.2 13.2-0.3 24.5-0.1zm-158.2 61.1c0.2 1-0.1 6.3-0.7 11.6-0.6 5.4-1.1 12.4-1.1 15.5 0 3.2 0.5 9.4 1.1 13.8 0.6 4.4 1.9 11.8 3 16.5 1 4.7 2.8 11 4 14 1.2 3 2.7 6.8 3.3 8.5 0.7 1.6 2.4 5.5 3.8 8.5 1.4 3 2.4 5.6 2.2 5.7-0.2 0.2-2.8-1-5.7-2.7-3.7-2.1-6.5-3-10-3-2.6 0-5.9 0.6-7.5 1.4-1.5 0.8-3.6 2.5-4.8 3.8-1.1 1.2-3.7 5-5.6 8.3-2 3.3-4.1 7.8-4.8 10-0.9 3-0.9 5-0.1 8 0.6 2.2 2.6 5.5 4.4 7.3 1.7 1.7 4.2 3.8 5.3 4.5 1.2 0.6 4.5 2.5 12.4 7.2v119l-5.7 3.3c-3.2 1.7-8.3 4.6-11.3 6.3-3 1.7-8.4 4.9-12 7.1-3.6 2.2-7.5 4.9-11 7.8l-2.4-4.3c-1.4-2.3-5-9.4-8-15.7-3-6.3-7.2-16.7-9.4-23-2.2-6.3-5.1-16.4-6.5-22.5-1.4-6.1-3.3-15.7-4.2-21.5-0.8-5.8-1.8-16.6-2.1-24-0.5-9.8-0.2-17.4 1-27.5 1-7.7 2.8-19.2 4.2-25.5 1.4-6.3 3.6-15.8 5.1-21 1.4-5.2 3.8-12.8 5.4-16.8 1.6-3.9 5-11.4 7.5-16.5 2.6-5 7.4-13.5 10.7-18.7 3.3-5.2 8.5-12.9 11.7-17 3.2-4.1 10.6-12.6 16.6-18.9 8.5-8.9 11-11 11.2-9.5zm322.7 89.4c0.6 0 2.5 2.5 4.3 5.5 1.7 3 3.2 5.9 3.2 6.5 0 0.5-3.1 2.8-7 5-3.9 2.2-7.2 4-7.5 4-0.3 0-6.2 3.4-13.3 7.6-7 4.2-15.6 9.2-19.2 11.2-3.6 1.9-8.9 5-11.8 6.9-2.8 1.8-5.4 3.3-5.7 3.3-0.3 0-3.8 2-7.7 4.5-4 2.4-7.6 4.4-8 4.5-0.5 0-2.6 1.1-4.8 2.5-2.2 1.4-4.2 2.4-4.4 2.2-0.2-0.1-1.8-3-3.5-6.5-2.4-4.7-2.8-6.4-1.8-7 0.6-0.5 1.9-1.2 2.7-1.6 0.8-0.3 3.3-1.7 5.5-3.1 2.2-1.4 4.9-3 6-3.5 1.1-0.6 3.4-1.9 5-3 1.6-1.1 3.7-2.3 4.5-2.7 0.8-0.4 4.8-2.6 8.8-5 3.9-2.4 7.4-4.3 7.7-4.3 0.3 0 3-1.6 6-3.5 3-1.9 5.7-3.5 6-3.5 0.3 0 3.3-1.7 6.8-3.8 3.4-2.1 9.3-5.6 13.2-7.7 3.9-2.1 8.6-4.9 10.5-6.1 1.9-1.3 3.9-2.4 4.5-2.4zm-323.1 15c0.6 0.1 3.8 1.6 7.1 3.4 3.3 1.8 9 5.1 12.8 7.4 3.7 2.3 7 4.2 7.5 4.2 0.4 0 1.8 2.4 3.1 5.2 1.3 2.9 3.4 7.5 4.7 10.3 1.5 3.2 2.1 5.4 1.5 6-0.7 0.7-2.3 0.2-4.8-1.4-2.1-1.3-5.1-3.1-6.8-4.1-1.6-0.9-8.5-4.9-15.2-8.9-6.8-3.9-12.6-7.1-13-7.1-0.5 0.1-1.6-0.7-2.5-1.7-1.5-1.5-1.5-2.2-0.5-4.3 0.7-1.4 2.2-4 3.2-5.8 1-1.7 2.3-3.2 2.9-3.2zm325.1 19.1l0.3 37.2c0.1 20.5 0.1 54.2-0.3 112.8l-11.8-7.1c-6.4-3.8-11.9-7-12.2-7-0.3 0-8.3-4.5-17.8-10.1-9.4-5.5-19.3-11.4-21.9-13-2.7-1.6-5-2.9-5.3-2.9-0.3 0-2.8-1.4-10.5-6v-58l3.7-2.4c2.1-1.3 6-3.5 8.8-5 2.7-1.5 5.9-3.2 7-3.9 1.1-0.7 4.3-2.7 7.2-4.5 2.9-1.7 5.5-3.2 5.8-3.2 0.3 0 3.8-1.9 7.7-4.3 4-2.4 8-4.6 8.8-5 0.8-0.4 2.4-1.3 3.5-1.9 1-0.7 3.7-2.4 6-3.7 2.2-1.4 7.8-4.6 12.5-7.2zm-306.6 26.3c0.9 0.4 5.2 2.9 9.6 5.5 4.4 2.6 8.7 5 9.5 5.4 0.8 0.4 2.9 1.6 4.5 2.7 1.7 1.1 3.8 2.2 4.8 2.5 1.4 0.4 1.7 1.7 1.7 9.2 0 4.8-0.5 15-1 22.5-0.8 11.6-0.8 14.6 0.6 19 0.8 2.9 2.4 6.4 5.3 10.3l-3.7 1.9c-2 1.1-6.1 3.5-8.9 5.3-2.9 1.8-5.5 3.3-5.8 3.3-0.3 0-4.5 2.4-18.5 11l0.2-49.6c0.1-45 0.3-49.6 1.7-49zm160 3.1l1.8 2.4c1 1.4 5 6.8 15.8 21.6l-0.5 21.5-5.7-3.1c-3.2-1.7-6.3-3.7-6.9-4.3-0.7-0.6-1.7-7.9-2.3-16.6-0.6-8.6-1.4-16.9-1.7-18.5zm-50.6 15l1.5 4c1.1 2.8 1.6 9.9 2.5 45l-6.7 3.7c-3.6 2.1-6.8 3.7-7 3.5-0.2-0.1 0-2.3 0.5-4.7 0.4-2.5 1.7-9.3 2.8-15 1.1-5.8 2.7-14.1 3.5-18.5 0.8-4.4 1.8-10.3 2.2-13zm54.5 41.5c0.4 0 4.1 2 8.2 4.4 4.2 2.4 9.1 5.2 11 6.3 2 1.1 6.2 3.5 9.4 5.4 3.2 1.8 7 4.2 8.5 5.1 1.4 1 3.3 2.1 4.1 2.4 0.9 0.4 4.8 2.7 8.8 5.1 4 2.3 7.5 4.3 7.7 4.3 0.3 0 6.5 3.5 13.8 7.8 7.3 4.2 13.9 8.1 14.7 8.5 0.9 0.4 2.9 1.6 4.5 2.7 1.7 1.1 3.7 2.3 4.5 2.6 0.9 0.4 6.3 3.5 12 6.9 5.8 3.3 11.2 6.4 12 6.8 0.9 0.3 2.2 1.1 3 1.6 0.9 0.6 5.2 3.3 9.8 6 4.5 2.8 8.6 5.1 9 5.1 0.4-0.1 1.3 0.5 1.9 1.2 1 1 0.6 2.5-2 7.1-2.5 4.6-3.6 5.7-5.2 5.3-1.1-0.3-5.6-2.6-10-5.1-4.4-2.5-8.6-5-9.5-5.5-0.8-0.5-6.9-4-13.5-7.8-6.6-3.8-17.8-10.3-25-14.4-7.1-4.2-20.2-11.8-29-16.9-8.8-5.1-18-10.4-20.6-11.8-2.5-1.5-10-5.8-28.9-16.6v-8.3c0-4.5 0.4-8.2 0.8-8.2zm-51.4 26.1l0.7 10.7c0.3 5.9 1 12.2 1.5 14.1 0.5 1.9 3 5.7 5.4 8.4 2.5 2.7 6.4 5.8 8.8 6.8 2.5 1.1 6.5 1.9 9.7 1.9 3.1 0 7-0.7 8.8-1.7 1.8-0.8 4.7-2.6 6.5-4 1.8-1.3 4.3-4.2 5.7-6.6 1.8-3 2.7-6.5 3.3-12.4 0.6-6.6 1-8 2.2-7.5 0.9 0.3 3.9 2 6.8 3.9 2.9 1.8 5.5 3.3 5.7 3.3 0.3 0 3.8 1.9 7.8 4.3 4 2.4 7.9 4.6 8.7 5 0.9 0.3 2.2 1.1 3 1.6 0.9 0.6 5.2 3.3 9.8 6 4.5 2.8 8.5 5.1 8.7 5.1 0.3 0 3.9 2 8 4.5 4.2 2.4 7.8 4.5 8 4.5 0.3 0 4.2 2.2 8.8 5 4.5 2.8 8.9 5.5 9.7 6 0.9 0.5 2.4 1.4 3.5 1.8 1.1 0.5 5.1 2.8 8.8 5 3.7 2.3 7 4.2 7.2 4.2 0.3 0 2.1 1 7.5 4.5v34.5l-3.2 2.2c-1.8 1.3-8.4 5.4-14.8 9.1-6.3 3.8-17.1 9.7-24 13.1-6.8 3.5-15.6 7.4-19.5 8.9-3.8 1.4-11.9 4-18 5.7-6 1.6-15.9 3.9-22 5-6 1.1-17.5 2.5-25.5 3.1-10.4 0.8-18.4 0.7-28.5-0.1-7.7-0.6-17.6-1.7-22-2.5-4.4-0.8-12-2.3-17-3.5-4.9-1.1-11.7-2.8-15-3.9-3.3-1-9.3-3.2-13.5-4.9-4.1-1.7-12.2-5.2-18-7.9-5.7-2.8-14.5-7.4-19.5-10.4-4.9-3-10.6-6.9-12.7-8.7-2.1-1.8-4.2-3.2-4.8-3.2-0.6 0-0.9-8.1-0.7-22.7 0.2-18.9 0.5-22.8 1.7-23.5 0.9-0.4 7.6-4.3 15-8.6 7.5-4.3 14.2-8.2 15-8.6 0.9-0.3 3.1-1.6 5-2.8 2-1.1 9.9-5.8 17.8-10.5 7.8-4.6 14.5-8.3 14.7-8.3 0.3 0 3.8-2 7.8-4.3 4-2.4 7.9-4.7 8.7-5.1 0.9-0.3 2.7-1.4 4.2-2.4 1.4-0.9 5.7-3.5 9.5-5.7 3.8-2.2 8.6-5 10.8-6.2zm-63.6 2c0.6-0.1 1.2 0.2 1.2 0.6-0.1 0.5 1.5 3.2 3.5 6 1.9 2.9 3.2 5.5 2.8 5.7-0.5 0.2-2.4 1.3-4.3 2.4-1.9 1-12.8 7.4-24.2 14.1-11.5 6.6-20.9 12.1-21 12.1-0.2-0.1-7.2 4-15.5 9-8.4 4.9-15.5 9-15.8 9-0.3 0-3.2 1.6-6.5 3.5-3.3 1.9-6.6 3.3-7.2 3.1-0.7-0.2-2.6-2.9-4.3-6-3-5.5-3-5.5-1-7 1.1-0.8 3.1-2.1 4.5-2.8 1.4-0.7 4.8-2.6 7.5-4.2 2.8-1.5 7.9-4.4 11.5-6.4 3.6-1.9 8.4-4.8 10.8-6.3 2.3-1.6 4.5-2.9 5-2.9 0.4-0.1 3.9-2 7.7-4.3 3.9-2.4 7.7-4.6 8.5-5 0.8-0.4 2.2-1.1 3-1.7 0.8-0.5 7.8-4.6 15.5-9 7.7-4.4 14.7-8.4 15.5-8.9 0.8-0.6 2.1-1 2.8-1zm-68.4 73.9l0.3 9.3c0.2 5 0 9.4-0.3 9.7-0.3 0.3-3-2.2-6-5.5-3-3.3-5.1-6.3-4.7-6.7 0.5-0.5 3-2.1 5.8-3.8zm312.6 8l4.2 0.6c2.3 0.4 4.3 0.7 4.5 0.8 0.1 0-1.8 2.1-8.8 9.1z"/>
		<path id="Path 3" class="s3" d="m444.7 251c0.2 25.6 0.2 67 0 92-0.1 25-0.2 4.1-0.2-46.5 0-50.6 0.1-71.1 0.2-45.5zm-96 28.5c0.2 7.1 0.2 19.1 0 26.5-0.1 7.4-0.3 1.6-0.3-13 0-14.6 0.2-20.6 0.3-13.5zm-98 17.5c0.2 8.5 0.2 22.9 0 32-0.1 9.1-0.3 2.1-0.3-15.5 0-17.6 0.2-25 0.3-16.5z"/>
		<path id="Path 4" class="s4" d="m104.7 260.5c0.2 16.5 0.2 43.3 0 59.5-0.1 16.2-0.2 2.7-0.2-30 0-32.7 0.1-46 0.2-29.5zm14 4c0.2 13.8 0.2 36.5 0 50.5-0.1 14-0.2 2.8-0.2-25 0-27.8 0.1-39.3 0.2-25.5zm196 9.5c0.2 4.7 0.2 12.6 0 17.5-0.1 4.9-0.3 1.1-0.3-8.5 0-9.6 0.2-13.7 0.3-9zm-14 0.5c0.2 2.8 0.2 7.5 0 10.5-0.2 3-0.3 0.8-0.3-5 0-5.8 0.1-8.3 0.3-5.5zm-182 128.5c0.2 5.8 0.2 15.7 0 22-0.1 6.3-0.3 1.6-0.3-10.5 0-12.1 0.2-17.3 0.3-11.5zm-14 4.5c0.2 2.8 0.2 7.7 0 11-0.2 3.3-0.3 1.1-0.3-5 0-6.1 0.1-8.8 0.3-6z"/>
		<path id="Path 5" class="s5" d="m429.7 251.5c0.2 20.9 0.2 55.3 0 76.5-0.1 21.2-0.2 4.1-0.2-38 0-42.1 0.1-59.4 0.2-38.5zm-326 9c0.2 16.5 0.2 43.3 0 59.5-0.1 16.2-0.2 2.7-0.2-30 0-32.7 0.1-46 0.2-29.5zm196 14c0.2 2.8 0.2 7.7 0 11-0.2 3.3-0.3 1.1-0.3-5 0-6.1 0.1-8.8 0.3-6zm-196.1 128.5c0.2 0 0.4 4.5 0.4 10 0 5.5-0.3 10-0.7 10-0.5 0-0.7-4.5-0.5-10 0.2-5.5 0.5-10 0.8-10z"/>
		<path id="Path 6" class="s6" d="m205 76.3c4.7 0 6.5 0.2 4 0.4-2.5 0.2-6.3 0.2-8.5 0-2.2-0.2-0.2-0.4 4.5-0.4zm-85.3 163.7c0.5 0 0.7 14.7 0.5 32.7-0.1 18.1-0.3 40.7-0.5 50.3-0.1 9.6-0.4-5.1-0.5-32.8-0.1-27.6 0.1-50.2 0.5-50.2zm196 35.5c0.2 4.9 0.2 12.6 0 17-0.1 4.4-0.3 0.4-0.3-9 0-9.4 0.2-12.9 0.3-8zm-196 128c0.2 6.1 0.2 16.2 0 22.5-0.1 6.3-0.3 1.4-0.3-11 0-12.4 0.2-17.6 0.3-11.5z"/>
		<path id="Path 7" class="s7" d="m255.5 29.3c4.4 0 6.4 0.2 4.5 0.4-1.9 0.2-5.5 0.2-8 0-2.5-0.2-0.9-0.4 3.5-0.4zm175.2 222.7c0.2 20.6 0.2 54.6 0 75.5-0.1 20.9-0.2 4-0.2-37.5 0-41.5 0.1-58.6 0.2-38zm-247-11.5c0.2 2.8 0.2 7.5 0 10.5-0.2 3-0.3 0.8-0.3-5 0-5.8 0.1-8.2 0.3-5.5zm303 13c0.2 2.2 0.2 5.6 0 7.5-0.2 1.9-0.4 0.1-0.4-4 0-4.1 0.2-5.7 0.4-3.5z"/>
		<path id="Path 8" class="s8" d="m333.5 266c0.3 0 0.5 9.9 0.5 22 0 12.1-0.3 22-0.8 22-0.4 0-0.6-9.9-0.4-22 0.1-12.1 0.5-22 0.7-22zm-97.8 21c0.2 4.1 0.2 10.6 0 14.5-0.1 3.9-0.3 0.5-0.3-7.5 0-8 0.2-11.1 0.3-7zm49 17.5c0.2 2.8 0.2 6.8 0 9-0.2 2.2-0.3-0.1-0.3-5 0-4.9 0.1-6.8 0.3-4zm-49 26.5c0.2 2.5 0.2 7 0 10-0.2 3-0.3 1-0.3-4.5 0-5.5 0.1-8 0.3-5.5z"/>
		<path id="Path 9" class="s9" d="m445.4 204c0.3 0.3 0.5 41.4 0.6 91.5 0 50.1-0.3 91.2-0.5 91.5-0.3 0.3-0.6-40.9-0.6-91.5 0-50.6 0.3-91.8 0.5-91.5z"/>
		<path id="Path 10" class="s10" d="m198.7 244.5c0.2 2.2 0.2 5.6 0 7.5-0.2 1.9-0.4 0.1-0.4-4 0-4.1 0.2-5.7 0.4-3.5zm71 49.5c0.2 9.6 0.2 25.1 0 34.5-0.1 9.4-0.3 1.5-0.3-17.5 0-19 0.2-26.6 0.3-17zm130 116.5c0.2 4.9 0.2 12.6 0 17-0.1 4.4-0.3 0.4-0.3-9 0-9.4 0.2-12.9 0.3-8z"/>
		<path id="Path 11" class="s0" d="m164.2 62c3.8 0 5 0.4 5.8 2 0.6 1.1 1 3.2 1 4.8 0 1.5-0.7 3.7-1.5 5-1.1 1.6-2.5 2.2-5 2.2-2.2 0-4.3-0.8-5.5-2-1.2-1.2-2.1-3.5-2.2-5.8-0.1-2.2 0.4-4.3 1.2-5 0.8-0.7 3.6-1.2 6.2-1.2z"/>
	</g>
</svg>