<svg version="1.2" xmlns="http://www.w3.org/2000/svg" viewBox="0 0 512 512" width="512" height="512">
	<title>0-summoned-svg</title>
	<style>
		.s0 { fill: #cd59f7 } 
		.s1 { opacity: .5;fill: #cd59f7 } 
		.s2 { fill: #000000 } 
		.s3 { fill: #a046c1 } 
	</style>
	<g id="sprint">
		<path id="Path 0" class="s0" d="m260 10.6c14 0 27.8 0.4 30.5 0.8 2.8 0.4 11.8 2.1 20 3.7 8.3 1.7 19.1 4.4 24 6 4.9 1.7 13.3 4.9 18.5 7.1 5.2 2.2 13.8 6.2 19 9 5.2 2.8 14.4 8.2 20.5 12 6.1 3.9 14.8 10 19.5 13.7 4.6 3.6 13.3 11.3 19.3 17.1 6 5.8 14.6 15 19 20.5 4.4 5.5 11.6 15.4 16 22 4.3 6.6 11.4 19.2 15.8 28 4.3 8.8 9.4 20.7 11.3 26.5 1.8 5.8 4.5 15.7 6 22 1.4 6.3 3.3 15.8 4.3 21 1.3 7.5 1.7 15.2 1.7 36 0 20.4-0.5 29-1.8 37.5-1 6.1-2.8 15.5-4.1 21-1.3 5.5-4 14.9-6 21-2 6.1-7.6 19.1-12.5 29-4.9 9.9-11.6 22.1-14.9 27-3.3 4.9-9.5 13.3-13.8 18.5-4.3 5.2-11.6 13.5-16.3 18.4-4.7 4.8-12.6 12.3-17.5 16.6-4.9 4.3-14.2 11.5-20.5 16-8.1 5.9-17 11-30.5 17.5-10.4 5.1-22.4 10.5-26.5 12-4.1 1.4-13.4 4-20.5 5.6-7.1 1.7-19.4 4.1-27.3 5.5-11.9 2-17.6 2.4-35.2 2.4-17.6 0-23.3-0.4-35.3-2.4-7.8-1.4-19.4-3.6-25.7-5-6.3-1.4-15.1-3.7-19.5-5.1-4.4-1.4-17.4-7.3-29-13-12.5-6.3-24.6-13.1-30-17-5-3.5-13.5-10.2-18.9-14.7-5.4-4.6-15.3-13.9-21.9-20.8-6.6-6.9-15.2-16.8-19.1-22-4-5.2-9.8-14-13.1-19.5-3.2-5.5-8.7-15.6-12.1-22.5-3.4-6.9-8-17.7-10.2-24-2.1-6.3-5.2-16.7-6.7-23-1.5-6.3-3.4-15.1-4.2-19.5-1-5.2-1.7-17-2-33.5-0.5-21.1-0.3-27.3 1.2-36 0.9-5.8 2.8-16.1 4.2-23 1.3-6.9 4.2-17.9 6.3-24.5 2.2-6.7 7.7-19.6 12.4-29 4.6-9.3 11.3-21.3 14.8-26.5 3.5-5.2 9-13.1 12.3-17.5 3.3-4.4 12-14.1 19.5-21.5 7.4-7.4 17.3-16.6 22-20.3 4.7-3.8 13.9-10.3 20.5-14.5 6.6-4.2 17.4-10.3 24-13.7 6.6-3.4 16.9-8.1 23-10.4 6.1-2.3 16.2-5.6 22.5-7.2 6.3-1.7 18.3-4 26.5-5.2 12.5-1.8 19.2-2.2 40.5-2.1z"/>
		<path id="Path 1" class="s1" d="m251 10.4c8.5 0 12.1 0.2 8 0.3-4.1 0.2-11.1 0.2-15.5 0-4.4-0.1-1-0.3 7.5-0.3zm254.7 247.1c0.2 2.2 0.2 5.6 0 7.5-0.2 1.9-0.4 0.1-0.4-4 0-4.1 0.2-5.7 0.4-3.5z"/>
		<path id="Path 2" class="s2" d="m265 29.8c12.6 0.1 22.5 0.9 31 2.2 6.9 1.2 17 3.2 22.5 4.7 5.5 1.4 14.1 4.1 19 6 4.9 1.9 14.4 6.1 21 9.5 6.6 3.3 16.3 8.8 21.5 12.1 5.2 3.3 13.6 9.2 18.5 13.2 4.9 4 13.2 11.3 18.4 16.1 5.2 4.9 13.1 13.4 17.6 18.9 4.5 5.5 10.2 12.9 12.7 16.5 2.5 3.6 7.3 11.2 10.6 17 3.3 5.8 7.7 14.3 9.7 19 2.1 4.7 5.3 12.8 7.2 18 1.9 5.2 4.6 14 5.9 19.5 1.4 5.5 3.2 14.9 4.1 21 0.9 6.9 1.5 19.3 1.5 33.5 0 16.2-0.5 25.9-1.7 34.5-1 6.6-3.2 17.4-5 24-1.9 6.6-4.8 15.8-6.6 20.5-1.8 4.7-6.7 15.3-10.8 23.5-4.2 8.3-10.3 19-13.6 23.9-3.3 4.9-9.8 13.3-14.5 18.5-4.6 5.3-12.7 13.8-18 19-5.2 5.2-12.4 11.8-16 14.6-3.6 2.9-12.4 8.7-19.5 13-7.1 4.3-18.6 10.5-25.5 13.8-6.9 3.2-14.7 6.8-17.5 7.9-2.7 1.1-9.5 3.3-15 4.9-5.5 1.6-16.1 4.1-23.5 5.5-7.4 1.3-20 2.9-28 3.4-9.3 0.6-19.2 0.6-27.5 0-7.2-0.6-17.1-1.7-22-2.6-4.9-0.8-12.8-2.4-17.5-3.4-4.7-1.1-11.2-2.8-14.5-3.9-3.3-1-8.5-2.8-11.5-4-3-1.3-8.9-3.8-13-5.6-4.1-1.9-12.2-5.9-18-9-5.8-3.2-15.7-9.4-22-13.8-6.3-4.5-17.2-13.8-24.3-20.7-7.1-6.9-16.6-17-21-22.5-4.4-5.5-10.7-14.1-14-19-3.2-4.9-8.9-15.3-12.7-23-3.7-7.7-8.4-18.7-10.5-24.5-2-5.8-4.7-14.8-6-20-1.3-5.2-2.9-12.4-3.5-16-0.6-3.6-1.8-11.9-2.6-18.5-0.7-6.6-1.4-15.8-1.4-20.5 0-4.7 0.7-14.3 1.5-21.5 0.9-7.2 2.5-17.5 3.6-23 1.1-5.5 3.4-15.2 5-21.5 1.7-6.3 4.7-15.3 6.6-20 1.9-4.7 5.1-11.7 7-15.5 2-3.8 6.1-11.1 9.2-16 3-4.9 8.5-12.9 12.1-17.7 3.6-4.7 10.6-12.8 15.5-18 5-5.1 13.5-13.5 19-18.7 5.5-5.1 14.3-12.1 19.5-15.5 5.2-3.5 12.2-7.9 15.5-9.8 3.3-2 11.1-6.1 17.3-9.2 6.1-3.1 17.2-7.6 24.5-10 7.2-2.5 18.8-5.6 25.7-7.1 6.9-1.5 17.7-3 24-3.3 6.3-0.4 19.8-0.6 30-0.4z"/>
		<path id="Path 3" class="s3" d="m256 29.3c4.7 0 6.5 0.2 4 0.4-2.5 0.2-6.3 0.2-8.5 0-2.2-0.2-0.2-0.4 4.5-0.4zm230.7 223.2c0.2 2.7 0.2 6.8 0 9-0.2 2.2-0.3-0.1-0.3-5 0-4.9 0.1-6.8 0.3-4z"/>
		<path id="Path 4" class="s0" d="m212.6 86c4.3 1.5 11.1 4 14.9 5.5 3.8 1.4 8.1 3 9.5 3.5 1.4 0.4 5.7 2 9.5 3.5 3.8 1.4 8.1 3 9.5 3.5 1.4 0.4 5.6 2 9.5 3.5 3.9 1.4 8.1 3 9.5 3.5 1.4 0.4 5.6 2 9.5 3.5 3.9 1.4 11.1 4.1 16 5.9 4.9 1.9 13.5 5 19 7.1 5.5 2 13.6 5 18 6.5 4.4 1.6 11.1 4.1 15 5.6 3.9 1.4 8.2 3 9.8 3.5 2.4 0.8 2.8 0.6 3.2-1.3 0.2-1.3 1-5 1.6-8.3 0.7-3.3 3-9.6 5.3-14 2.4-4.7 6.1-10 9.1-13 2.7-2.8 7.3-6.1 10-7.3 3.5-1.7 6.8-2.4 11-2.3 3.3 0 7.6 0.6 9.5 1.4 1.9 0.8 5 3.1 6.8 5.1 1.7 2 3.9 5.1 4.9 6.9 0.9 1.7 2.2 5.9 2.9 9.2 0.7 3.3 1.3 8.6 1.4 11.8 0 3.1-0.7 9.2-1.5 13.5-0.8 4.2-2.8 10.4-4.3 13.7-1.6 3.3-4.6 8.5-6.9 11.5-2.2 3-4.9 6.2-5.9 7.2-1.1 0.9-4.1 2.9-6.9 4.4-4.3 2.4-6.1 2.8-21.1 2.9l-6.3 5c-3.4 2.8-13.3 10.7-21.9 17.8-8.7 7-18.4 14.9-21.6 17.5-3.3 2.6-6.7 5.4-7.6 6.2-0.9 0.8-3.7 3.3-6.4 5.5-2.6 2.2-4.4 4.3-3.9 4.7 0.4 0.4 3.5 1.4 6.8 2.4 3.3 0.9 8 2.2 10.5 2.9 2.5 0.7 8.1 2.3 12.5 3.5 4.4 1.2 11.8 3.3 16.5 4.6 4.7 1.2 11 3 14 3.9 3 0.9 8.6 2.4 19.5 5.1l-4.5 3c-2.5 1.6-5.4 3.4-6.5 4.1-1.1 0.6-5.6 3.3-10 6-4.4 2.6-8.9 5.2-10 5.9-1.1 0.6-10.3 6.2-20.5 12.4-10.2 6.2-19.9 12.1-21.5 13-1.6 1-7.4 4.5-12.7 7.9-5.4 3.3-10 6.1-10.3 6.1-0.3 0-3.6 2-7.5 4.5-3.9 2.5-7.2 4.5-7.5 4.5-0.3 0-2 1.1-3.7 2.5-1.8 1.3-3.5 2.4-3.8 2.4-0.3 0-4.6 2.5-9.5 5.6-4.9 3-9.7 5.8-10.5 6.2-0.8 0.3-3.3 1.8-5.5 3.3-2.2 1.5-6.1 3.9-8.7 5.3-2.7 1.5-5 2.4-5.3 2-0.2-0.5 1.3-3.4 3.5-6.5 2.2-3.2 4-6 4-6.3 0-0.3 2.9-4.7 6.5-9.7 3.5-5.1 9.9-14.6 22-32.7l4.3 3.4c2.3 1.9 4.5 3.5 5 3.5 0.4-0.1 2.7-2.2 5.2-4.8 2.5-2.6 8.3-8.7 21.5-22.4l-2.5-1.4c-1.4-0.7-3.6-1.3-5-1.4-1.4 0-4.5-0.6-7-1.4-2.5-0.7-6.7-1.8-9.5-2.4-2.7-0.6-6.6-1.3-8.5-1.7-3.3-0.5-4.4 0.2-19 12-8.5 7-18.2 14.8-21.5 17.5-3.3 2.8-15.7 12.9-27.5 22.5-11.8 9.7-23.1 18.9-25 20.4-1.9 1.6-8.6 7.1-14.9 12.2-6.2 5.2-13.9 11.4-17.1 13.9-3.1 2.5-8.8 7.1-12.6 10.2-3.8 3.1-11.2 9.2-16.5 13.5-5.3 4.3-11.9 9.7-14.7 12.1-2.9 2.3-5.4 3.8-5.7 3.2-0.3-0.6 5.4-12.6 12.7-26.7 7.2-14.2 14.2-28 15.6-30.8 1.4-2.7 2.7-5.2 2.9-5.5 0.3-0.3 1 0.4 1.6 1.5 0.6 1.1 2.7 3.7 4.7 5.8 1.9 2.1 3.8 3.7 4.2 3.5 0.3-0.2 4.3-4.8 8.7-10.3 4.5-5.5 11.9-14.7 16.6-20.5 4.7-5.8 13.9-17.2 20.6-25.5 6.6-8.2 13.3-16.6 14.7-18.5 1.5-1.9 6.3-8 10.7-13.5 4.4-5.5 8.3-10.2 8.7-10.5 0.3-0.3 2.4-2.8 4.5-5.6 2.1-2.8 5.7-7.6 8.1-10.5 2.4-3 5.8-7.2 7.5-9.3 1.8-2.2 4.4-5.3 5.8-7 1.5-1.7 5.1-6.3 8-10.2 3-3.8 7.9-10.1 10.9-13.8 3-3.7 7.2-8.9 9.2-11.4 2.1-2.6 3.4-5 3-5.4-0.4-0.4-4.5-1.9-9.2-3.3-4.7-1.5-10-3-11.7-3.6-1.8-0.5-4.9-1.3-6.8-1.9-1.9-0.6-5-1.4-6.7-1.9-1.8-0.6-7.8-2.4-13.3-4.1-5.5-1.7-13.8-4.2-18.5-5.6-4.7-1.3-11.9-3.5-16-4.8-4.1-1.3-9.5-2.9-12-3.6-2.5-0.7-7.9-2.3-12-3.6-4.1-1.2-11.6-3.5-16.5-4.9-4.9-1.5-10.1-3-11.5-3.5-1.4-0.4-4.5-1.3-7-2-2.5-0.7-6.1-1.9-8-2.7-3.1-1.2-1.7-1.3 14-0.8 9.6 0.4 28.3 1 41.5 1.5 13.2 0.5 30.3 1.3 38 1.9 7.7 0.5 23.7 1.5 35.5 2.1 11.8 0.6 29.4 1.5 39 2.2 9.6 0.6 18.1 0.8 18.8 0.4 0.7-0.4 1.2-2.9 1.2-13.1l-9.7-0.7c-5.4-0.5-16.3-1-24.3-1.4-8-0.3-16-0.7-17.7-1-2.4-0.3-9.1-5-24-16.9-11.5-9.1-22.8-18.3-25.3-20.3-2.5-2.1-6.2-5.1-8.3-6.7-2.1-1.7-3.8-3.3-3.9-3.6-0.1-0.4 3.4 0.6 7.8 2.1z"/>
	</g>
</svg>