<svg version="1.2" xmlns="http://www.w3.org/2000/svg" viewBox="0 0 512 512" width="512" height="512">
	<title>m-arcaneProtection-svg</title>
	<style>
		.s0 { fill: #cd59f7 } 
		.s1 { opacity: .1;fill: #cd59f7 } 
		.s2 { opacity: .9;fill: #cd59f7 } 
		.s3 { opacity: .4;fill: #cd59f7 } 
		.s4 { opacity: .7;fill: #cd59f7 } 
		.s5 { fill: #020103 } 
		.s6 { fill: #a246c3 } 
		.s7 { fill: #cb58f4 } 
	</style>
	<g id="relief">
		<path id="Path 0" class="s0" d="m210 13c-5.8 1.1-16.1 3.5-23 5.5-6.9 2-17.2 5.6-23 8-5.8 2.5-15.9 7.5-22.5 11.1-6.6 3.6-15.2 8.7-19 11.2-3.8 2.5-10.6 7.3-15 10.6-4.4 3.3-15 12.9-23.5 21.2-8.5 8.3-19.2 19.8-23.6 25.5-4.5 5.7-10.7 14.4-13.9 19.4-3.1 4.9-9.3 16.4-13.9 25.5-4.5 9.1-9.6 21-11.4 26.5-1.7 5.5-3.9 12.7-4.7 16-0.8 3.3-2.5 11.2-3.6 17.5-1.9 10.5-2.1 14.9-2 49.5l0.1 38c8.4 31 12.7 44.1 14.8 49 2.2 4.9 6.7 14.6 10.2 21.5 3.4 6.9 8.6 16.1 11.4 20.5 2.9 4.4 8.9 12.5 13.3 18 4.5 5.5 14.8 16.6 23 24.6 8.1 8.1 18.6 17.7 23.3 21.4 4.7 3.8 12.1 9.2 16.5 12.1 4.4 2.9 14.8 8.6 23 12.7 8.3 4.2 18.8 9.1 23.5 11 4.7 2 12.8 4.7 18 6.2 5.2 1.5 15.1 3.8 22 5.2 11.8 2.4 14.4 2.6 45 2.7 20.7 0.1 35.4-0.3 40.5-1.1 4.4-0.6 11.6-1.9 16-2.8 4.4-0.9 13.4-3.2 20-5.1 6.6-1.9 16.9-5.8 23-8.5 6.1-2.8 15.5-7.5 21-10.4 5.5-2.9 14.1-8 19-11.3 4.9-3.2 14.2-10.4 20.5-15.9 6.3-5.5 17.1-15.8 24-22.9 6.9-7.1 16.2-17.8 20.8-23.9 4.5-6.1 11.5-17.1 15.6-24.5 4.1-7.4 9.7-18.6 12.5-24.7 2.8-6.2 6.5-15.9 8.1-21.5 1.7-5.7 4.3-15.2 5.8-21.3l2.7-11-0.2-84c-4.9-20.2-7.5-29.6-9-34-1.4-4.4-4.3-12.3-6.5-17.5-2.2-5.2-6.8-14.7-10.2-21-3.4-6.3-9.1-15.8-12.6-21-3.4-5.2-8.8-12.7-11.8-16.5-3.1-3.8-11.2-12.8-18.1-19.9-6.9-7-16.9-16.3-22.1-20.5-5.2-4.2-11.1-8.8-13-10.2-1.9-1.4-7.7-5.1-12.7-8.2-5.1-3.1-14.6-8.4-21-11.6-6.5-3.3-16.5-7.9-22.3-10.2-5.8-2.3-13.9-5-18-6.1-4.1-1-13.1-3-20-4.3-12-2.4-14-2.5-49.5-2.4-31.5 0-38.5 0.3-47.5 1.9z"/>
		<path id="Path 1" class="s1" d="m239 10.7c6.9 0.2 17.7 0.2 24 0 6.3-0.1 0.7-0.3-12.5-0.3-13.2 0-18.4 0.2-11.5 0.3z"/>
		<path id="Path 2" class="s2" d="m504.4 244c0 5.2 0.1 7.3 0.3 4.5 0.2-2.8 0.2-7 0-9.5-0.2-2.5-0.3-0.2-0.3 5z"/>
		<path id="Path 3" class="s3" d="m10.4 265.5c0 16.5 0.2 23.5 0.3 15.5 0.2-8 0.2-21.5 0-30-0.1-8.5-0.3-2-0.3 14.5z"/>
		<path id="Path 4" class="s4" d="m259 503.7c4.7 0.2 11.9 0.2 16 0 4.1-0.1 0.3-0.3-8.5-0.3-8.8 0-12.2 0.2-7.5 0.3z"/>
		<path id="Path 5" class="s5" d="m230.5 30.2c-6.6 0.3-16.5 1.6-22 2.8-5.5 1.2-15.4 4-22 6.1-6.6 2.2-17.6 6.7-24.5 10-6.9 3.3-16.6 8.4-21.5 11.4-4.9 2.9-13.7 9-19.5 13.6-5.8 4.6-16.5 14.2-23.8 21.4-7.4 7.1-16.9 17.5-21.1 23-4.3 5.5-10.4 13.8-13.5 18.5-3.2 4.7-8.8 14.8-12.6 22.5-3.7 7.7-7.9 17.6-9.3 22-1.5 4.4-3.5 11.6-4.6 16-1.1 4.4-3 13.2-4.2 19.5-1.6 9-2.2 16.9-2.6 36-0.5 20.1-0.2 26.5 1.2 35.5 0.9 6.1 3.2 16.9 5 24 1.8 7.1 4.9 17.3 7 22.5 2.1 5.2 6.9 15.8 10.8 23.5 3.8 7.7 10 18.5 13.8 24 3.7 5.5 11.5 15.2 17.2 21.5 5.7 6.3 16.4 17.1 23.8 23.9 7.4 6.8 17.2 14.9 21.9 18.1 4.7 3.1 15 9.1 23 13.3 8 4.2 19.2 9.5 25 11.7 5.8 2.3 16.3 5.7 23.5 7.5 7.2 1.8 19.1 4.1 26.5 5 10.6 1.4 17.8 1.6 34 1.2 11.3-0.3 25.4-1.3 31.5-2.1 6.1-0.9 16.2-2.8 22.5-4.4 6.3-1.6 16.2-4.8 22-7.2 5.8-2.3 16.1-7.1 23-10.7 6.9-3.6 17-9.5 22.5-13 5.5-3.6 13.6-9.4 18-12.8 4.4-3.4 12.7-11.2 18.6-17.1 5.8-6 14.2-15.4 18.8-20.9 4.5-5.5 10.8-14.1 13.8-19 3.1-4.9 8.9-15.7 13-24 4-8.2 9.1-20.4 11.3-27 2.2-6.6 5.2-17.4 6.7-24 2.6-11.7 2.7-12.8 2.7-44.5 0-29.5-0.2-33.5-2.2-43.5-1.2-6.1-3.5-15.5-5.1-21-1.6-5.5-5-14.9-7.6-21-2.5-6.1-6.6-14.8-9.1-19.5-2.6-4.7-7.6-13-11.2-18.5-3.7-5.5-10.1-14.3-14.3-19.5-4.2-5.2-12.8-14.5-19-20.5-6.3-6.1-13.9-13.1-16.9-15.6-3-2.5-8.6-6.8-12.5-9.5-3.9-2.8-11.5-7.7-17-10.9-5.5-3.2-14.5-8-20-10.6-5.5-2.5-15.2-6.5-21.5-8.7-6.3-2.2-16-4.9-21.5-6-5.5-1.2-14.3-2.4-19.5-2.8-5.2-0.3-17.8-0.7-28-0.8-10.2 0-23.9 0.2-30.5 0.6z"/>
		<path id="Path 6" class="s6" d="m250 29.7c4.1 0.2 10.6 0.2 14.5 0 3.9-0.1 0.5-0.3-7.5-0.3-8 0-11.1 0.2-7 0.3z"/>
		<path id="Path 7" class="s7" d="m320.5 53.5c-3.9 0.7-9.4 2.5-12.4 4.1-3 1.6-6.4 4.3-7.6 5.9-1.2 1.7-2.9 4.9-3.8 7.3-1 2.5-1.7 7.1-1.7 11.2 0 3.8 0.8 10 1.8 13.8 1 3.7 4.4 11 7.4 16.2 3.9 6.7 8.3 12.2 14.5 18.5 4.9 4.9 12.4 11.4 16.6 14.3 4.2 2.8 12.5 7.5 18.4 10.3 6 2.8 13 5.5 15.8 6 2.7 0.5 8.4 1.4 12.5 2.1 5.9 0.9 9.3 0.9 16 0 4.7-0.7 10.3-2.1 12.5-3.2 2.2-1 5.5-3.4 7.4-5.2 1.9-1.8 4.3-5.3 5.4-7.8 1.1-2.5 2.2-6.8 2.5-9.5 0.3-3-0.2-8.2-1.3-13-1.1-4.8-3.5-11.4-6.3-16.5-2.4-4.7-5.6-10-7.1-11.8-1.4-1.8-6.2-6.9-10.6-11.3-4.4-4.4-10.7-9.9-14-12.1-3.3-2.3-9.6-6.1-14-8.4-4.4-2.3-11.6-5.4-16-6.9-4.4-1.5-11.4-3.3-15.5-4.1-4.1-0.7-8.9-1.3-10.5-1.3-1.6 0.1-6.1 0.7-10 1.4zm-37.6 71.8c-2.3 3.4-6 8.8-8.1 12-3.5 5.3-4 5.7-7.1 5.2-1.7-0.2-6.6-1-10.7-1.6-4.1-0.7-11.6-1.2-16.5-1.2-4.9 0-12.9 0.8-17.8 1.7-6 1.1-11.7 3.1-18.3 6.4-7.4 3.6-11.4 6.3-16.9 11.7-3.9 3.8-8.7 9.5-10.7 12.5-2 3-4.3 6.2-5.2 7-0.9 0.8-1.7 1.9-1.6 2.5 0 0.6-1.5 2.8-3.2 5-1.8 2.2-6.1 8-9.6 13-3.4 4.9-7.8 11.3-9.7 14-1.9 2.8-6.3 9.1-9.9 14-3.6 4.9-7.8 10.8-9.5 13-1.7 2.2-3 4.4-3 5 0 0.6-1 1.9-2.2 3-1.1 1.1-4.2 5.1-6.7 8.9-2.6 3.8-5.4 7.9-6.2 9.1-0.8 1.2-3.1 4.3-5 7-1.9 2.6-4.8 6.6-6.5 8.8-1.7 2.2-3.7 5-4.5 6.2-0.8 1.2-3.6 5.3-6.2 9.1-2.5 3.8-5.6 7.8-6.7 8.9-1.2 1.1-2.2 2.4-2.2 3 0 0.6-1.3 2.8-3 5-1.7 2.2-5.3 7.1-8 11-2.7 3.9-5 7.6-4.9 8.3 0 0.6 1.3 3.1 2.9 5.5 1.6 2.3 4.4 6.7 6.3 9.7 1.9 3 7.3 11.5 11.9 18.7 4.6 7.3 10.2 16.1 12.4 19.6 2.2 3.5 6.7 10.6 9.9 15.8 3.2 5.2 8.6 13.7 12 18.9 3.4 5.3 6.7 10.4 7.4 11.5 0.6 1.1 1.7 2.9 2.2 4 0.9 1.6 4.7 2.9 19.3 6.4 10 2.3 24.7 5.8 32.7 7.7 8 1.8 21.2 5 29.5 7 8.2 2 17.2 4 20 4.4 2.7 0.5 8.4 1.8 12.5 2.9 4.1 1.2 8.4 2.1 9.5 2.1 1.4 0 4.4-3.5 10.2-11.8 4.6-6.4 10.4-14.6 12.9-18.2 2.6-3.6 6.9-9.6 9.6-13.5 2.7-3.9 8.3-11.7 12.4-17.5 4.1-5.8 9-12.7 10.8-15.5 1.9-2.7 7.4-10.5 12.3-17.2 4.8-6.8 11.5-16.2 14.8-20.9 3.3-4.8 8.5-12.1 11.6-16.3 3-4.2 9.8-13.7 15.1-21.1 5.2-7.4 10.7-15.6 12.2-18.2 1.4-2.7 3.5-7.4 4.5-10.5 1-3.2 2.4-8.3 3.1-11.3 0.8-3.4 1.1-9.5 0.8-16-0.3-6.3-1.4-13.7-2.7-18.5-1.2-4.4-4.1-11.8-6.3-16.5-2.3-4.7-5.7-10.6-7.5-13.2-1.8-2.7-3.3-5.1-3.3-5.5 0.1-0.5-0.8-1.6-2-2.5-2-1.8-2-1.8 2.2-8 2.3-3.5 5.8-8.2 7.7-10.6 2.2-2.6 3.2-4.6 2.6-5.1-0.6-0.4-4.1-1.8-8-3.1l-7-2.2c-4.6 5.9-6.4 8.3-7 9.2-0.6 0.9-2.4 3.8-4.2 6.5-2 3-4.6 5.4-7.2 6.6-2.3 1.1-5.6 1.9-7.4 1.9-1.7 0-6.8-1.1-11.2-2.6-4.4-1.4-10.9-4.5-14.5-6.8-3.6-2.4-9.1-6.9-12.3-10.2-3.1-3.2-7-8.6-8.7-11.9-1.6-3.3-3-7.1-3-8.5 0-1.4 1.4-4.8 3.2-7.7 1.8-2.9 5.4-8.2 8-11.8l4.8-6.5c-7.4-10.9-9.8-14.1-10.1-14-0.4 0-2.6 2.8-5 6.3z"/>
		<path id="Path 8" class="s5" d="m227.5 157c-5.2 0.6-9.1 1.9-15 4.9-4.4 2.3-10 6-12.5 8.4-2.5 2.3-6.8 7.3-9.5 11-2.8 3.8-6.5 9-8.4 11.5-1.9 2.6-4.2 5.9-5 7.3-0.9 1.4-4.3 6.3-7.6 10.8-3.3 4.6-6.7 9.3-7.5 10.5-0.8 1.3-4.2 6-7.5 10.5-3.3 4.6-6.4 9-7 10-0.6 0.9-2.3 3.5-4 5.7-1.7 2.1-3.4 4.6-4 5.5-0.6 0.9-3 4.5-5.4 8-2.4 3.5-5.3 7.5-6.5 8.8-1.2 1.3-2.6 3.1-3.1 4.1-0.5 1-3.1 4.8-5.8 8.4-2.6 3.6-4.2 6.8-3.7 7.1 0.5 0.3 4 0.1 7.8-0.5 3.7-0.5 12.8-2.3 20.2-4 7.4-1.7 14.4-3 15.5-3 1.1 0 10.3-1.8 20.5-3.9 10.2-2.2 26.2-5.5 35.5-7.5 9.3-1.9 19.3-3.7 22-4.1l5-0.6c14.7-20.5 20.6-28.8 22.7-31.7l3.8-5.2c10.1 7 13 9.2 13 9.5 0 0.3-2.1 3.5-4.6 7.2-2.6 3.8-5.5 7.7-6.5 8.8-1 1.1-1.9 2.4-1.9 3 0 0.6-1.5 2.9-3.5 5.2-1.9 2.4-3.5 4.6-3.5 5 0 0.5 7.6 4.7 16.8 9.4 9.2 4.7 25.7 13.3 36.7 18.9 11 5.7 22 11.4 24.5 12.7l4.5 2.4c4.4-5.1 8.4-10.7 11.7-15.6 3.6-5.5 6.8-11.7 8.1-16 1.6-5.2 2.1-9.5 2.1-16.5 0-6.6-0.7-11.9-2.3-17.5-1.2-4.4-4.2-11.8-6.8-16.5-2.5-4.7-5.5-9.6-6.7-11-1.2-1.4-2.4-3.2-2.7-4-0.5-1.3-1.2-1.3-6-0.1-3.5 0.9-8 1.2-12.9 0.8-4.2-0.3-10.8-1.8-15-3.2-4.1-1.5-9.4-3.9-11.8-5.3-2.4-1.5-7.6-5.2-11.5-8.3-4-3.1-9.2-8.1-11.7-11-2.5-3-5.9-8.4-7.7-12.2-1.8-3.7-3.6-8.6-3.9-11-0.5-3.8-0.9-4.3-4.2-5.4-2-0.7-9.1-1.4-15.7-1.7-6.6-0.2-15.2-0.1-19 0.4zm-122.8 145.3c-1.3 1.7-4.3 6-6.8 9.4-2.4 3.4-6 8.5-7.9 11.3-1.9 2.8-4.5 6.4-5.8 8-2.2 3-2.2 3-0.3 5.7 1 1.6 3.8 5.9 6.3 9.8 2.5 3.9 6.7 10.5 9.4 14.7 2.7 4.3 5.4 8.6 5.9 9.5 0.6 1 1.7 2.9 2.6 4.3 0.9 1.4 4.9 7.7 8.9 14 4 6.3 9.4 14.6 11.9 18.5 2.4 3.9 4.8 7.3 5.3 7.7 0.4 0.5 3.2-2.5 6.1-6.5 2.9-3.9 5.9-8.2 6.7-9.4 0.8-1.2 4.4-6.3 8-11.3 3.6-5.1 7.4-10.4 8.6-11.9 1.1-1.4 4.5-6.2 7.5-10.6 3.1-4.4 8.1-11.5 11.2-15.8 3.1-4.2 5.5-8.3 5.2-9-0.3-0.6-5-3.4-10.3-6-5.3-2.6-13.5-6.8-18.2-9.3-4.7-2.6-10.8-5.7-13.5-7.1-2.8-1.4-6.3-3.2-8-4.1-1.7-0.9-6.8-3.6-11.5-6-4.7-2.4-10.6-5.5-13.3-6.8-2.6-1.3-4.9-2.4-5.2-2.4-0.2 0-1.5 1.5-2.8 3.2zm225.3 18.4c-3 0.7-8.4 1.7-12 2.2-3.6 0.5-15.1 2.6-25.5 4.6-10.5 2.1-26.9 5.3-36.5 7.1-9.6 1.9-24.2 4.6-32.4 6.2-8.2 1.5-15.9 3.5-17 4.4-1.2 0.9-4.4 4.9-7.1 8.9-2.8 4-5.7 8.3-6.5 9.5-0.8 1.2-3 4.2-4.8 6.6-1.8 2.4-4.9 6.8-7 9.8-2 2.9-5.3 7.5-7.2 10.2-1.9 2.6-6.4 8.9-10 13.9-3.6 5-7.4 10.6-8.5 12.4-1.1 1.8-3.3 4.8-4.8 6.7-1.5 1.9-2.4 3.7-2 4 0.4 0.4 6.2 1.9 12.8 3.4 6.6 1.5 18.5 4.2 26.5 6.1 8 1.8 22.1 5.1 31.5 7.3 9.3 2.2 18.3 4.2 20 4.5 1.6 0.2 3.8 0.7 4.7 1 1.4 0.5 4.8-3.7 16-19.5 7.9-11 15-21.1 15.8-22.4 0.8-1.2 4.6-6.7 8.4-12.1 3.8-5.5 8.3-11.7 10-13.9 1.7-2.1 3.5-4.7 4.1-5.6 0.5-0.9 3.2-4.9 6-8.9 2.7-4 6.6-9.3 8.6-11.9 1.9-2.5 6.3-8.7 9.8-13.6 3.5-5 8.2-11.7 10.7-15 2.4-3.3 4.3-6.3 4.4-6.8 0-0.4-0.6-0.7-1.3-0.6-0.6 0.1-3.7 0.7-6.7 1.5z"/>
	</g>
</svg>