<svg version="1.2" xmlns="http://www.w3.org/2000/svg" viewBox="0 0 512 512" width="512" height="512">
	<title>m-arcane_protection-svg</title>
	<style>
		.s0 { fill: #cd59f7 } 
		.s1 { opacity: .2;fill: #cd59f7 } 
		.s2 { opacity: .8;fill: #cd59f7 } 
		.s3 { opacity: .9;fill: #cd59f7 } 
		.s4 { opacity: .3;fill: #cd59f7 } 
		.s5 { opacity: .5;fill: #cd59f7 } 
		.s6 { fill: #000000 } 
		.s7 { fill: #6a2e7f } 
		.s8 { fill: #351741 } 
		.s9 { fill: #200e26 } 
		.s10 { fill: #9e45be } 
	</style>
	<g id="mute">
		<path id="Path 0" class="s0" d="m282.5 10.8c6.6 0.2 16.7 1.2 22.5 2.3 5.8 1.1 15 3.1 20.5 4.4 5.5 1.3 14.1 4.1 19 6.1 4.9 1.9 14.9 6.4 22 9.9 7.1 3.5 17.8 9.4 23.8 13.2 5.9 3.7 15.1 10.3 20.5 14.5 5.3 4.3 14.9 12.9 21.2 19 6.4 6.2 14.7 15.1 18.6 19.8 3.9 4.7 9.6 12.1 12.6 16.5 3 4.4 8.1 12.5 11.4 18 3.2 5.5 7.7 14.1 10 19 2.3 4.9 5.9 13.5 7.9 19 2.1 5.5 5.6 17 11.8 41l0.1 42.5c0.1 41.4 0 42.7-2.2 52-1.3 5.2-3.5 13.6-4.9 18.5-1.4 4.9-3.9 12.4-5.5 16.5-1.7 4.1-6.3 14-10.3 22-3.9 8-9.1 17.6-11.5 21.5-2.3 3.9-7.5 11.3-11.4 16.5-3.9 5.2-12.3 14.8-18.6 21.4-6.3 6.5-16.4 16.2-22.5 21.6-6.1 5.4-14.6 12.3-19 15.5-4.4 3.1-12.5 8.2-18 11.3-5.5 3.1-16.1 8.4-23.5 11.8-7.4 3.5-18.9 7.8-25.5 9.7-6.6 2-15.6 4.3-20 5.2-4.4 0.9-11.6 2.2-16 2.8-5.1 0.8-19.8 1.2-40.5 1.1-30.6-0.1-33.2-0.3-45-2.7-6.9-1.4-16.8-3.7-22-5.2-5.2-1.5-13.3-4.2-18-6.2-4.7-1.9-14.8-6.6-22.5-10.3-7.7-3.8-17.4-9.1-21.5-11.8-4.1-2.7-12-8.4-17.5-12.6-5.5-4.3-16.7-14.4-24.8-22.5-8.2-8-18.5-19.1-22.9-24.6-4.5-5.5-10.3-13.4-13-17.5-2.7-4.1-8-13.6-11.8-21-3.7-7.4-8.6-17.8-10.7-23-2.2-5.2-6.3-18.1-14.2-47.5l-0.4-33.5c-0.3-18.4-0.1-37.1 0.4-41.5 0.5-4.4 1.8-12.7 2.9-18.5 1.2-5.8 3.2-14.3 4.6-19 1.4-4.7 4.1-12.8 6.1-18 2-5.2 6.2-14.4 9.3-20.5 3.1-6.1 8.4-15.5 11.9-21 3.5-5.5 8.8-13.4 11.9-17.5 3.1-4.1 12.4-14.4 20.7-22.8 8.2-8.5 18.4-18.2 22.5-21.6 4.1-3.5 11.1-8.8 15.5-11.8 4.4-3.1 12.1-7.9 17-10.8 4.9-2.9 12.4-6.9 16.5-9 4.1-2.1 11.3-5.4 16-7.3 4.7-2 14.1-5.2 21-7.1 6.9-2 16.1-4.4 20.5-5.3 5.8-1.2 15.7-1.8 35.5-2.2 15.1-0.3 32.9-0.5 39.5-0.3z"/>
		<path id="Path 1" class="s1" d="m248.5 10.4c12.1 0 16.8 0.2 10.5 0.3-6.3 0.2-16.2 0.2-22 0-5.8-0.1-0.6-0.3 11.5-0.3z"/>
		<path id="Path 2" class="s2" d="m267 503.4c8.5 0 12.1 0.2 8 0.3-4.1 0.2-11.1 0.2-15.5 0-4.4-0.1-1-0.3 7.5-0.3z"/>
		<path id="Path 3" class="s3" d="m504.7 239.5c0.2 2.8 0.2 6.8 0 9-0.2 2.2-0.3-0.1-0.3-5 0-4.9 0.1-6.8 0.3-4z"/>
		<path id="Path 4" class="s4" d="m10.7 270.5c0.2 4.9 0.2 12.6 0 17-0.1 4.4-0.3 0.4-0.3-9 0-9.4 0.2-12.9 0.3-8z"/>
		<path id="Path 5" class="s5" d="m10.7 249.5c0.2 2.8 0.2 6.8 0 9-0.2 2.2-0.3-0.1-0.3-5 0-4.9 0.1-6.8 0.3-4z"/>
		<path id="Path 6" class="s6" d="m309.5 33.9l7.5 2.2c4.1 1.2 8.3 2.4 9.2 2.8 1.1 0.4 1.8 1.9 2 4.3 0.3 3.4 0.1 3.6-3.2 4.2-1.9 0.3-5.9 0.6-14 0.6v-4.7c0-2.7-0.4-5.8-0.8-7.1zm-109.7 2.2c0.9-0.1 1.2 1.7 1.2 11.9h-9c-7.9 0-9-0.2-8.9-1.8 0-0.9 0.4-2.6 0.9-3.7 0.5-1.4 2.9-2.7 7.6-4.2 3.8-1.2 7.5-2.2 8.2-2.2zm-9.3 32.5c2.8 0.3 7.3 1.5 10 2.8 3.2 1.4 9.4 6.3 17 13.5 8.6 8.1 13.9 12.2 18.5 14.4 6.3 3.1 6.9 3.2 20 3.2 13.2 0 13.8-0.1 20.1-3.2 4.6-2.2 9.9-6.3 18.4-14.4 8.2-7.7 13.8-12.1 17.5-13.8 4.2-1.9 7.1-2.5 12-2.5 4.3 0.1 8.6 0.9 12.5 2.4 3.3 1.3 7.2 3.5 8.5 5 1.4 1.4 3.1 4.5 3.8 6.8 0.7 2.3 1 5.4 0.6 6.9-0.3 1.6-1.6 4.5-2.7 6.6-1.4 2.4-3.7 4.5-6.2 5.7-2.2 1.1-5.4 2-7.2 2-1.8 0-4.7-0.6-6.5-1.4-1.8-0.7-4.3-2.4-5.5-3.7-1.2-1.3-2.9-4.1-5.3-9.9l-8.7 8.2c-4.9 4.6-11.3 9.9-14.3 11.9-3 2.1-7.7 4.7-10.5 5.9-2.7 1.1-7.7 2.8-11 3.7-3.4 0.9-10 1.5-15.5 1.5-5.4 0-12-0.6-15.5-1.5-3.3-0.9-8.2-2.6-11-3.7-2.7-1.2-7.4-3.8-10.4-5.9-3-2-9.5-7.3-23.1-20.1l-1.5 3.7c-0.9 2.1-2.6 4.9-3.8 6.2-1.2 1.3-3.6 3-5.4 3.7-1.8 0.8-4.7 1.4-6.5 1.4-1.8 0-5.1-0.9-7.3-2-2.6-1.2-4.8-3.4-6.4-6.2-1.4-2.5-2.4-6-2.5-8.3 0-2.2 0.9-5.8 2-8 1.3-2.4 3.7-4.9 6-6.2 2.2-1.2 6.4-2.9 9.4-3.7 3.4-1 7.5-1.4 10.5-1zm97.5 66.9c7.5 0.2 13.6 0.5 13.7 0.7 0.1 0.2 0.8 8.6 2.8 37.3l4.5 0.7c2.5 0.5 18 2.4 34.5 4.3 16.5 1.9 30.4 3.5 30.8 3.5 0.4 0 0.7-1.4 0.7-6h18v32h-9c-8.9 0-9 0-9-2.5 0-1.4-0.5-2.5-1.2-2.5-0.7 0-7.6 1.1-15.3 2.6-7.7 1.4-22.5 3.8-52 8.1l0.3 12.4c0.2 6.8 1 20.7 1.8 30.9 1.3 15 1.9 18.7 3.2 19.7 1 0.7 3.4 1.5 5.5 1.8 2 0.3 3.7 1.1 3.7 1.7 0.1 0.7-0.7 4.6-1.7 8.6-1.5 6.1-2 7.2-3.5 6.8-1-0.4-2 0-2.3 0.6-0.3 0.7 0.6 7.6 2.1 15.3 1.4 7.7 3.9 19.6 5.6 26.5 1.6 6.9 3.3 12.9 3.7 13.3 0.3 0.4 4.9-0.3 10.1-1.7 5.3-1.4 12.9-3.9 17-5.5 4.2-1.6 11.8-5 17-7.6 5.3-2.6 12.7-6.8 16.5-9.3 3.9-2.4 11.1-7.7 16-11.7 5-4 12-10.4 15.5-14.1 3.6-3.8 9.1-10.1 12.2-13.9 3-3.9 8.4-11.3 11.9-16.5 3.5-5.2 9.4-15.4 13.1-22.5 3.7-7.2 8.4-16.8 10.4-21.5 2-4.7 5.8-14.4 13.2-34.5l1.6 5.5c0.9 3 2.3 8.6 3.1 12.5 0.9 3.8 2 12.6 2.6 19.5 0.7 7.6 0.9 22.1 0.6 37-0.5 22.4-0.8 25.6-3.5 37.5-1.7 7.1-4.8 18.3-7.1 24.7-2.2 6.5-6.7 17.3-10 24-3.2 6.8-8.6 16.8-11.9 22.3-3.2 5.5-9.4 14.3-13.8 19.5-4.3 5.3-11.9 14-16.9 19.3-4.9 5.4-12.8 12.8-17.5 16.6-4.6 3.7-12.1 9.3-16.5 12.3-4.4 3-11.2 7.4-22.5 13.8l-3.2-1.9c-1.8-1.1-6.2-2.6-9.8-3.5-3.5-0.9-17.9-3.4-32-5.6-14-2.2-34.5-5.6-45.5-7.6-11-2-29.4-5.6-41-8.1-11.5-2.5-33.6-7.6-49-11.4-15.4-3.8-29-7.2-30.2-7.4-1.3-0.3-4.2 0-6.5 0.5-2.4 0.6-6 2.5-8.2 4.3-2.2 1.7-5.6 5.7-7.5 8.7-2 3-4.5 7.9-5.6 10.8-1.1 2.8-2.4 5.2-3 5.2-0.5 0-3.2-1.8-6-4.1-2.7-2.4-11.4-10.6-19.3-18.3-7.9-7.8-17.1-17.5-20.6-21.6-3.5-4.1-8.8-11.3-11.8-16-3-4.7-7.6-12.3-10.1-17-2.5-4.7-6.9-13.9-9.7-20.5-2.8-6.6-6.4-16.3-8-21.5-1.6-5.2-4.2-15.4-5.7-22.5-2.7-12.5-2.8-14.1-2.7-41.5 0-22.9 0.3-30.4 1.8-38 0.9-5.2 2.4-12.7 4.9-23.5l4.2 11.5c2.4 6.3 6 15.3 8 20 2 4.7 6.1 13.2 9.1 19 2.9 5.8 7.9 14.5 11 19.5 3.1 4.9 8.2 12.4 11.3 16.5 3.1 4.1 10.1 12.2 15.6 17.9 5.5 5.7 13.8 13.3 18.5 17 4.7 3.6 13 9.3 18.5 12.6 5.5 3.3 15 8.2 21 10.7 6.1 2.6 16.4 6.2 23 8.1 6.6 1.9 17.4 4.4 24 5.5 6.6 1.1 15.6 2.4 27.8 3.7l-0.7-6.5c-0.3-3.6-1.3-19.1-2.1-34.5-0.9-15.4-1.6-28.1-1.8-28.3-0.1-0.2-6.9 1.3-15.2 3.2-8.2 2-15 3.5-15.1 3.3 0-0.1-0.8-3.2-1.7-7-0.9-3.7-1.7-7.3-1.7-8 0-0.8 6.1-2.7 33-9.2v-18.5c0-10.2-0.3-22.9-1.5-37.9l-4.5-0.6c-2.4-0.3-10.5-1.2-18-2.1-7.4-0.9-24.6-3.5-62.9-9.9l-0.1 5.5h-18v-32h18v3c0 1.6 0.4 3 0.8 3 0.4 0 13.6-1.6 29.2-3.4 15.7-1.9 35.4-4.1 59.1-6.1l3.4-7c1.8-3.9 5.3-9.2 7.7-11.9 2.4-2.8 7-6.7 10.3-8.8 3.3-2.1 8.7-4.8 12-5.8 3.3-1.1 8.1-2.4 10.5-3 2.5-0.5 10.6-0.7 18-0.5zm-112 320.7c2.5 0.5 12.9 1.9 23 3.3 10.2 1.3 34.1 4 53 6 19 1.9 43.3 4.7 54 6.1 10.8 1.4 19.6 2.6 19.8 2.7 0.1 0.1-4.4 1.4-10 2.9-5.7 1.4-13.6 3.2-17.8 3.8-6.1 1-10.3 0.9-23.5-0.4-8.8-0.9-29.9-2.7-47-4.1-17-1.4-32.7-2.5-34.7-2.5-2.1 0-6.6-0.9-10-2.1-3.5-1.1-10.4-4.1-15.5-6.5-5.1-2.4-9.3-4.6-9.3-4.9 0-0.3 1.4-1.2 3-2 1.7-0.8 4.7-1.9 6.7-2.3 2-0.5 5.8-0.5 8.3 0z"/>
		<path id="Path 7" class="s7" d="m486.7 256.5c0.2 2.2 0.2 5.6 0 7.5-0.2 1.9-0.4 0.1-0.4-4 0-4.1 0.2-5.7 0.4-3.5z"/>
		<path id="Path 8" class="s8" d="m223.7 232c0.2 1.9 0.2 5.5 0 8-0.2 2.5-0.4 0.9-0.4-3.5 0-4.4 0.2-6.4 0.4-4.5z"/>
		<path id="Path 9" class="s9" d="m29.7 259.5c0.2 2.2 0.2 5.6 0 7.5-0.2 1.9-0.4 0.1-0.4-4 0-4.1 0.2-5.7 0.4-3.5z"/>
		<path id="Path 10" class="s0" d="m285 153l0.6 10.3c0.3 5.6 0.9 19.2 1.4 30.2 0.4 11 0.7 20.1 0.7 20.2-0.1 0.2-2.2-0.7-4.7-2-3.8-1.8-4.8-3-6.3-7.2-1-2.7-2.3-9.9-2.8-16-0.5-6.1-1-16.3-1.1-22.7-0.2-9.4 0.1-11.7 1.3-12.1 0.7-0.3 3.5-0.6 10.9-0.7zm-32 10c0.4 0 1.1 7.3 1.4 16.3 0.4 8.9 1.3 19.1 2 22.7 0.8 3.6 2.5 8.9 4 11.8 1.4 2.8 4.4 7 6.6 9.2 2.2 2.2 5.8 4.9 8 6 2.2 1.1 6.3 2.4 14 4v4.3c0 2.3 0.7 12.1 1.5 21.7 0.8 9.6 2.4 24.3 3.6 32.5 1.1 8.3 3.3 21.8 5 30 1.6 8.3 4.3 20.2 6 26.5 1.7 6.3 4.9 17.1 7.1 24 2.2 6.9 6.1 17.7 8.6 24 2.4 6.3 6.9 16.6 15.2 34l-3.2-0.5c-1.8-0.3-10.7-1.6-19.8-3-9.1-1.4-26.6-4.4-39-6.6-12.4-2.3-22.6-4.2-22.7-4.3-0.1 0-1.3-16.1-2.7-35.6-1.5-19.5-3.3-47.4-4.1-62-0.8-14.6-2-47.9-2.6-74-0.9-36.3-0.9-49.6 0-56.5 0.6-4.9 2-10.8 2.9-13 1-2.2 3.1-5.7 4.6-7.7 1.5-2.1 3.2-3.8 3.6-3.8z"/>
		<path id="Path 11" class="s10" d="m254.3 162c0.4 0 0.6 4.8 0.5 10.8-0.1 5.9-0.3 9.1-0.4 7.2-0.2-1.9-0.5-6.8-0.6-10.8-0.2-3.9 0-7.2 0.4-7.2zm-12.5 70c0.2 1.9 0.2 5.5 0 8-0.2 2.5-0.4 0.9-0.4-3.5 0-4.4 0.2-6.4 0.4-4.5z"/>
	</g>
</svg>