<svg version="1.2" xmlns="http://www.w3.org/2000/svg" viewBox="0 0 512 512" width="512" height="512">
	<title>m-arcane_protection-svg</title>
	<style>
		.s0 { fill: #cd59f7 } 
		.s1 { opacity: .1;fill: #cd59f7 } 
		.s2 { opacity: .9;fill: #cd59f7 } 
		.s3 { opacity: .4;fill: #cd59f7 } 
		.s4 { opacity: .7;fill: #cd59f7 } 
		.s5 { fill: #000000 } 
		.s6 { fill: #9b43bb } 
	</style>
	<g id="night-sleep">
		<path id="Path 0" class="s0" d="m257.5 11.1c35.5-0.1 37.5 0 49.5 2.4 6.9 1.3 15.9 3.3 20 4.3 4.1 1.1 12.2 3.8 18 6.1 5.8 2.3 15.8 6.9 22.3 10.2 6.4 3.2 15.9 8.5 20.9 11.6 5.1 3.1 10.9 6.8 12.8 8.2 1.9 1.4 7.8 6 13 10.2 5.2 4.2 15.2 13.5 22.1 20.5 6.9 7.1 15 16.1 18.1 19.9 3 3.8 8.4 11.3 11.8 16.5 3.5 5.2 9.2 14.7 12.6 21 3.4 6.3 8 15.8 10.2 21 2.2 5.2 5.1 13.1 6.5 17.5 1.5 4.4 4.1 13.8 9 34l0.2 84-2.7 11c-1.5 6.1-4.1 15.6-5.8 21.3-1.6 5.6-5.3 15.3-8.1 21.5-2.8 6.1-8.4 17.3-12.5 24.7-4.1 7.4-11.1 18.4-15.6 24.5-4.6 6.1-13.9 16.8-20.8 23.9-6.9 7.1-17.7 17.4-24 22.9-6.3 5.5-15.6 12.7-20.5 15.9-4.9 3.3-13.5 8.4-19 11.3-5.5 2.9-14.9 7.6-21 10.4-6.1 2.7-16.4 6.6-23 8.5-6.6 1.9-15.6 4.2-20 5.1-4.4 0.9-11.6 2.2-16 2.8-5.1 0.8-19.8 1.2-40.5 1.1-30.6-0.1-33.2-0.3-45-2.7-6.9-1.4-16.8-3.7-22-5.2-5.2-1.5-13.3-4.2-18-6.2-4.7-1.9-15.3-6.8-23.5-11-8.3-4.1-18.6-9.8-23-12.7-4.4-2.9-11.8-8.3-16.5-12.1-4.7-3.7-15.2-13.3-23.3-21.4-8.2-8-18.5-19.1-23-24.6-4.4-5.5-10.4-13.6-13.3-18-2.8-4.4-8-13.6-11.4-20.5-3.5-6.9-8-16.6-10.2-21.5-2.1-4.9-6.4-18-14.8-49l-0.1-38c-0.1-34.6 0.1-39 2-49.5 1.1-6.3 2.8-14.2 3.6-17.5 0.8-3.3 3-10.5 4.7-16 1.8-5.5 6.9-17.4 11.4-26.5 4.6-9.1 10.8-20.6 13.9-25.5 3.2-4.9 9.4-13.7 13.9-19.4 4.4-5.7 15.1-17.2 23.6-25.5 8.5-8.3 19.1-17.9 23.5-21.2 4.4-3.3 11.2-8.1 15-10.6 3.8-2.5 12.4-7.6 19-11.2 6.6-3.6 16.7-8.6 22.5-11.1 5.8-2.4 16.1-6 23-8 6.9-2 17.2-4.4 23-5.5 9-1.6 16-1.9 47.5-1.9z"/>
		<path id="Path 1" class="s1" d="m250.5 10.4c13.2 0 18.8 0.2 12.5 0.3-6.3 0.2-17.1 0.2-24 0-6.9-0.1-1.7-0.3 11.5-0.3z"/>
		<path id="Path 2" class="s2" d="m504.7 239c0.2 2.5 0.2 6.8 0 9.5-0.2 2.8-0.3 0.7-0.3-4.5 0-5.2 0.1-7.5 0.3-5z"/>
		<path id="Path 3" class="s3" d="m10.7 251c0.2 8.5 0.2 22 0 30-0.1 8-0.3 1-0.3-15.5 0-16.5 0.2-23 0.3-14.5z"/>
		<path id="Path 4" class="s4" d="m266.5 503.4c8.8 0 12.6 0.2 8.5 0.3-4.1 0.2-11.3 0.2-16 0-4.7-0.1-1.3-0.3 7.5-0.3z"/>
		<path id="Path 5" class="s5" d="m261.5 29.6c10.4 0.1 23.1 0.5 28 0.8 4.9 0.4 13.5 1.6 19 2.8 5.5 1.1 15.2 3.8 21.5 6 6.3 2.2 16 6.2 21.5 8.7 5.5 2.6 14.5 7.4 20 10.6 5.5 3.2 13.1 8.1 17 10.9 3.9 2.7 9.5 7 12.5 9.5 3 2.5 10.2 9.1 15.9 14.6 5.6 5.5 13.4 13.6 17.1 18 3.7 4.4 9.8 12.3 13.5 17.5 3.7 5.2 9.1 13.8 12.1 19 2.9 5.2 7.3 14 9.8 19.5 2.4 5.5 6 14.9 8 21 2 6.1 4.9 16.6 6.3 23.5 2.6 12.1 2.7 13.6 2.7 45.5 0 32.3-0.1 33.3-2.7 45-1.5 6.6-4.5 17.4-6.7 24-2.2 6.6-7.3 18.8-11.3 27-4.1 8.3-9.8 18.8-12.7 23.5-2.9 4.7-8.5 12.6-12.5 17.5-4 4.9-12.4 14.3-18.6 20.9-6.3 6.5-15.2 14.9-19.9 18.6-4.7 3.7-13 9.7-18.5 13.3-5.5 3.5-15.6 9.4-22.5 13-6.9 3.6-17.2 8.4-23 10.7-5.8 2.4-15.7 5.6-22 7.2-6.3 1.6-16.4 3.5-22.5 4.4-6.1 0.8-20.2 1.8-31.5 2.1-16.2 0.4-23.4 0.2-34-1.2-7.4-0.9-19.3-3.2-26.5-5-7.2-1.8-17.7-5.2-23.5-7.5-5.8-2.2-17-7.5-25-11.7-8-4.2-18.3-10.2-23-13.3-4.7-3.2-14.5-11.3-21.9-18.1-7.4-6.8-18.1-17.6-23.8-23.9-5.7-6.3-13.6-16.2-17.6-22-3.9-5.8-10.8-18.1-15.3-27.5-4.5-9.4-9.8-21.7-11.7-27.5-1.9-5.8-4.6-15.7-6-22-1.4-6.3-3.1-15.3-3.8-20-0.8-5.7-1-16.4-0.6-32.5 0.4-18.5 1-26.6 2.7-35.5 1.1-6.3 3-15.1 4.1-19.5 1.1-4.4 3.1-11.6 4.6-16 1.4-4.4 5.6-14.3 9.4-22 3.7-7.7 8.9-17.2 11.5-21 2.5-3.8 7.8-11.3 11.7-16.5 3.9-5.2 13.8-16.3 22.1-24.5 8.3-8.3 19.4-18.5 24.6-22.7 5.2-4.1 13.8-10.2 19-13.3 5.2-3.2 15.3-8.7 22.5-12.2 7.2-3.4 18.4-8 25-10.2 6.6-2.1 16.5-4.9 22-6.1 5.5-1.2 15.4-2.5 22-2.8 6.6-0.4 20.6-0.6 31-0.6z"/>
		<path id="Path 6" class="s6" d="m257 29.4c7.4 0 10.4 0.1 6.5 0.3-3.9 0.2-9.9 0.2-13.5 0-3.6-0.2-0.4-0.3 7-0.3z"/>
		<path id="Path 7" fill-rule="evenodd" class="s0" d="m293.5 37c0.5 0 1.8 2.4 2.9 5.3 1.9 5.1 1.9 5.4 0.2 18.7-1 7.4-2.9 20.7-4.2 29.5-1.4 8.8-2.2 16.6-1.9 17.3 0.3 0.8 3.1-0.5 8.8-4.2 4.5-3 10.9-6.8 14.2-8.6 3.3-1.8 6.9-3.9 8-4.6 1.1-0.8 2.4-1.4 3-1.4 0.6 0 2.5 2.5 4.3 5.5 1.7 3 3.2 5.6 3.2 5.8 0.1 0.1-3.9 2.7-8.7 5.8-4.8 3.1-11.1 6.9-13.8 8.5-2.8 1.5-11.2 6.5-18.8 11.1-7.5 4.6-14 8.1-14.4 7.9-0.5-0.2-2-2.3-3.4-4.7-2.6-4.4-2.6-4.4-1.2-12.4 0.7-4.4 1.8-10.7 2.4-14 0.5-3.3 1.4-8.9 1.9-12.5 0.5-3.6 1.4-11 2-16.5 0.6-5.5 0.9-10.1 0.8-10.2-0.2-0.2-7.3 3.8-15.8 8.7-8.5 4.9-15.8 9-16.2 9-0.5 0-2.4-2.5-4.3-5.5-1.9-3-3.5-5.7-3.4-5.9 0-0.2 5.5-3.8 12.2-7.9 6.7-4.1 14-8.3 16.2-9.5 2.2-1.1 8.7-5 14.5-8.6 5.8-3.6 10.9-6.6 11.5-6.6zm-143.9 34.9c0.3 0.3-1.4 3.8-3.7 7.6-2.4 3.8-6.2 11.2-8.6 16.3-2.4 5-6.1 14.7-8.3 21.5-2.3 6.7-5.2 17.6-6.5 24.2-1.3 6.6-2.9 18.5-3.6 26.5-0.8 10.7-0.8 17.5 0 26 0.6 6.3 2.2 16.7 3.5 23 1.4 6.3 4.3 17.3 6.6 24.5 2.2 7.2 6.1 17.3 8.7 22.5 2.5 5.2 6.8 13.1 9.6 17.5 2.7 4.4 6 9.6 7.2 11.5 1.3 1.9 6.3 8.3 11.1 14.1 4.9 5.8 13.4 14.6 18.9 19.6 5.5 4.9 15 12.4 21 16.5 6.1 4.1 14.4 9.3 18.5 11.6 4.1 2.2 13.4 6.4 20.5 9.2 7.2 2.8 17.9 6.4 24 8 6.1 1.6 15.7 3.6 21.5 4.4 6.2 1 17.5 1.6 27.5 1.6 10.1 0 21.1-0.6 27-1.5 5.5-0.9 15-2.9 21-4.6 6.1-1.7 16.9-5.3 24-8.1 7.1-2.8 16.4-7 20.5-9.3 4.1-2.3 12-7.1 17.5-10.8 5.5-3.7 14.7-10.9 20.5-16.1 7.7-7 10.6-9.1 10.8-7.8 0.2 0.9-1.1 5.5-2.7 10.2-1.7 4.7-6.1 14.4-9.7 21.5-3.6 7.1-8.5 15.9-10.8 19.5-2.3 3.6-7.4 10.6-11.2 15.5-3.8 4.9-11.8 14-17.9 20.1-6 6.1-15.7 14.7-21.5 19-5.8 4.4-14.8 10.5-20 13.6-5.2 3.1-13.1 7.4-17.5 9.5-4.4 2.2-11.8 5.3-16.5 7-4.7 1.7-12.1 4.1-16.5 5.4-4.4 1.2-11.1 2.8-15 3.6-3.9 0.7-12.2 2-18.5 2.8-6.3 0.8-18.5 1.5-27 1.5-8.5-0.1-20-0.7-25.5-1.5-5.5-0.8-13.4-2.1-17.5-3-4.1-0.9-10.6-2.5-14.5-3.7-3.8-1.1-10.4-3.2-14.5-4.6-4.1-1.4-12.2-4.9-18-7.7-5.8-2.9-14.1-7.4-18.5-10-4.4-2.6-12.9-8.5-19-13-6-4.6-16-13.5-22.1-19.7-6.1-6.2-14.5-15.8-18.7-21.3-4.1-5.5-9.6-13.6-12.2-18-2.6-4.4-7.1-12.7-10-18.5-2.8-5.8-6.3-13.9-7.8-18-1.4-4.1-3.7-11.8-5.1-17-1.4-5.2-3.2-12.6-4-16.5-0.8-3.9-2-11.7-2.7-17.5-0.7-6.7-1-17.3-0.6-29.5 0.3-10.4 1.3-22.8 2.2-27.5 0.8-4.7 2.4-12.1 3.5-16.5 1.1-4.4 2.9-11.2 3.9-15 1.1-3.8 3.4-10.4 5.1-14.5 1.7-4.1 5.4-11.8 8.2-17 2.8-5.2 6.5-12 8.1-15 1.7-3 6.2-9.8 10.2-15 4-5.2 10.3-12.9 14-17 3.6-4.1 10.1-10.6 14.3-14.3 4.3-3.8 11.8-9.9 16.7-13.6 4.9-3.8 11.4-8.1 14.4-9.8 2.9-1.6 5.5-2.7 5.7-2.4zm236 47.1c0.4 0 8.9 3.6 18.8 8 10 4.4 18.4 8 18.9 8 0.4 0 6.7 2.5 14 5.6 7.2 3.2 13.7 6.2 14.3 6.8 0.9 0.8 0.5 2.6-1.5 6.9-2.3 5.2-3.3 6.3-8.6 9.2-3.3 1.8-13.6 7.2-23 12-9.4 4.8-17.4 9.1-18 9.5-0.6 0.4-4.7 2.6-9.2 4.9-4.6 2.2-8.1 4.5-7.8 5.1 0.3 0.6 1.2 1 2 1 0.8 0 9.5 3.4 19.3 7.6 9.7 4.2 18.7 8.1 22 9.9l-2.9 7c-1.6 3.8-3 7.4-3.1 7.9-0.2 0.5-2.5-0.3-5.3-1.6-2.7-1.4-11.3-5.1-19-8.2-7.7-3.2-20.9-8.8-29.4-12.4-8.4-3.7-15.5-7-15.7-7.4-0.2-0.5 0.8-3.5 5.1-12.9l12.5-6.3c6.9-3.4 18.6-9.6 26-13.6 7.4-4.1 15.9-8.4 18.8-9.7 2.8-1.3 5.1-2.8 5-3.4-0.2-0.6-6.4-3.8-13.8-7-7.4-3.2-16-6.9-19-8-3-1.2-5.8-2.5-6.2-2.8-0.4-0.3 0.2-2.8 1.2-5.6 0.9-2.7 2.3-6.2 2.9-7.7 0.6-1.6 1.4-2.8 1.7-2.8zm-110.4 61.6c0.4 0.2 2 4.1 3.5 8.7 2.2 6.8 2.4 8.8 1.6 11.7-0.6 1.9-3.6 10.5-6.6 19-3 8.5-8.8 24.5-12.8 35.5-3.9 11-8.2 23-9.5 26.8-1.3 3.7-2.2 7-1.9 7.5 0.3 0.4 7.4-1.8 15.7-5 8.4-3.1 17.1-6.1 19.3-6.7 2.2-0.6 8.1-2.6 13-4.6 5-1.9 9.8-3.5 10.8-3.5 1.2 0 2.5 2.2 4.7 8.5 1.6 4.7 3 9.5 3 10.8 0 1.9-1.3 2.6-11.2 5.8-6.2 2-21.9 7.5-34.8 12.2q-19.4 7-49 17.7l-1.4-2.2c-0.8-1.3-2.2-5-3.1-8.3-1.5-5.2-1.6-6.7-0.5-11 0.7-2.7 5.7-16.9 11-31.5 5.4-14.6 12.1-33.1 14.9-41.3 2.8-8.1 5-15 4.9-15.3-0.2-0.3-3.4 0.6-7.3 1.9-3.8 1.4-15.1 5.5-25 9.2-9.9 3.7-19.2 7.1-20.7 7.6-2 0.6-3 0.5-3.6-0.3-0.5-0.7-2.3-5.1-4-9.8-1.8-4.7-3.2-8.9-3.2-9.5 0-0.6 8.9-4.3 19.8-8.3 10.8-4 23.1-8.3 27.2-9.7 4.1-1.3 11.8-3.9 17-5.9 5.2-1.9 13.5-5 18.4-6.9 4.9-1.9 9.3-3.3 9.8-3.1z"/>
		<path id="Path 8" class="s6" d="m118.7 177c0.2 1.9 0.2 5.5 0 8-0.2 2.5-0.4 0.9-0.4-3.5 0-4.4 0.2-6.4 0.4-4.5z"/>
	</g>
</svg>