<svg version="1.2" xmlns="http://www.w3.org/2000/svg" viewBox="0 0 512 512" width="512" height="512">
	<title>0-summoned-svg</title>
	<style>
		.s0 { fill: #cd59f7 } 
		.s1 { opacity: .5;fill: #cc58f6 } 
		.s2 { opacity: .3;fill: #cc58f6 } 
		.s3 { fill: #000000 } 
		.s4 { fill: #9c44bc } 
		.s5 { fill: #ae4cd2 } 
		.s6 { fill: #0a040b } 
		.s7 { fill: #c053e7 } 
		.s8 { fill: #5f2973 } 
		.s9 { fill: #471f56 } 
	</style>
	<g id="tortoise">
		<path id="Path 0" class="s0" d="m263 10.6c22.9 0.1 28.1 0.5 38 2.4 6.3 1.2 16.2 3.3 22 4.6 5.8 1.4 15.4 4.5 21.5 6.8 6.1 2.4 16.4 7 23 10.3 6.6 3.3 16.5 8.9 22 12.3 5.5 3.4 14.1 9.3 19 12.9 4.9 3.7 14.8 12.3 21.9 19.2 7.1 6.8 16.3 16.7 20.5 21.9 4.2 5.2 10 12.9 12.8 17 2.8 4.1 8.2 13.1 12.1 20 3.8 6.9 9.5 18.3 12.6 25.5 3 7.2 6.9 18.2 8.5 24.5 1.7 6.3 4.2 17.1 5.7 24 2.5 11.9 2.6 13.9 2.6 43.5 0 24.8-0.3 33-1.7 41-0.9 5.5-3.2 16.1-5.1 23.5-1.9 7.4-5.1 17.6-7.1 22.5-1.9 4.9-6.5 14.9-10 22-3.6 7.1-8.3 16.1-10.6 20-2.2 3.9-7 11.1-10.7 16-3.7 4.9-10.6 13.3-15.2 18.5-4.7 5.2-12.9 13.7-18.4 18.9-5.4 5.2-14 12.6-18.9 16.4-4.9 3.9-12 8.9-15.8 11.3-3.7 2.4-12.9 7.5-20.5 11.3-7.5 3.8-17.3 8.4-21.7 10.4-4.4 2-11.8 4.7-16.5 6-4.7 1.4-14 3.7-20.8 5.1-6.7 1.4-16.7 3.3-22.2 4.1-6.6 1-17.6 1.5-32.3 1.5-15.2 0-25.2-0.5-31.7-1.5-5.2-0.9-15.1-2.7-22-4.1-6.9-1.4-16.3-3.6-21-4.9-4.7-1.3-13.9-4.9-20.5-7.9-6.6-3-17.9-8.6-25-12.4-7.2-3.9-18.4-11-24.9-15.9-6.6-4.8-18.5-15.1-26.4-22.8-8-7.7-18.2-18.5-22.7-24-4.5-5.5-10.9-14.1-14.1-19-3.2-4.9-9.7-16.6-14.5-26-5-10.1-10.3-22.3-12.8-30-2.4-7.1-5.9-19.7-7.8-28-3.5-14.9-3.5-15.2-4-45-0.5-29.4-0.5-30.3 2.2-45 1.5-8.2 3.7-19.3 5.1-24.5 1.3-5.2 3.4-12.7 4.7-16.5 1.4-3.8 4.2-11.1 6.4-16 2.2-4.9 7.1-14.8 11-22 3.9-7.2 10.8-18.2 15.3-24.5 4.4-6.3 13.2-16.9 19.4-23.5 6.2-6.6 15.9-16.1 21.7-21 5.7-5 14.7-12 19.9-15.7 5.2-3.6 14.9-9.6 21.5-13.3 6.6-3.7 16.9-8.9 23-11.7 6.1-2.7 15.9-6.5 22-8.3 6.1-1.9 17.1-4.6 24.5-6 7.4-1.5 17.1-2.9 21.5-3.3 4.4-0.4 19.9-0.6 34.5-0.6z"/>
		<path id="Path 1" class="s1" d="m257 10.4c8.5 0 12.1 0.2 8 0.3-4.1 0.2-11.1 0.2-15.5 0-4.4-0.1-1-0.3 7.5-0.3z"/>
		<path id="Path 2" class="s2" d="m505.7 251c0.2 3 0.2 8.2 0 11.5-0.2 3.3-0.3 0.8-0.3-5.5 0-6.3 0.1-9 0.3-6z"/>
		<path id="Path 3" class="s3" d="m262 29.7c10.7 0.1 22.2 0.4 25.5 0.7 3.3 0.4 10.9 1.5 17 2.7 6.1 1.1 16.6 3.9 23.5 6.1 6.9 2.2 17 6.2 22.5 8.8 5.5 2.5 14.9 7.5 21 11 6.1 3.5 14.4 8.8 18.5 11.8 4.1 3.1 12 9.4 17.4 14.1 5.5 4.7 13.7 12.6 18.3 17.6 4.7 5 11.7 13.3 15.7 18.5 4.1 5.2 9.9 13.8 13.1 19 3.2 5.2 7.7 13.3 10 18 2.3 4.7 5.8 12.6 7.8 17.5 1.9 4.9 4.9 13.5 6.5 19 1.6 5.5 4 15.8 5.2 23 1.9 11.2 2.2 16.7 2.1 40 0 22.4-0.3 29-2 38.5-1.1 6.3-3.5 16.9-5.4 23.5-1.9 6.6-4.7 14.9-6.2 18.5-1.5 3.6-5.4 11.9-8.7 18.5-3.3 6.6-7.8 15.1-10.1 19-2.3 3.9-7 10.8-10.6 15.5-3.5 4.7-11.6 14.1-18 20.9-6.4 6.8-15.4 15.6-20.1 19.6-4.7 3.9-12.6 9.8-17.5 13-4.9 3.2-13.7 8.3-19.5 11.4-5.8 3.1-15.2 7.8-21 10.5-5.8 2.6-13.9 5.9-18 7.3-4.1 1.3-11.3 3.3-16 4.4-4.7 1.1-14.4 2.9-21.5 4-7.1 1-19.1 2.2-26.5 2.5-7.6 0.4-18.8 0.2-25.7-0.5-6.8-0.6-19.4-2.5-28-4.2-8.7-1.7-20.7-4.9-26.8-7-6.1-2.2-18.2-7.5-27-11.8-8.8-4.4-19.8-10.5-24.5-13.6-4.7-3.1-11.7-8.2-15.5-11.3-3.8-3.1-11.9-10.4-17.9-16.2-6-5.8-14.4-14.8-18.8-20-4.4-5.2-10.5-13.3-13.7-18-3.1-4.7-8.9-14.8-12.8-22.5-3.8-7.7-8.6-18.3-10.6-23.5-2-5.2-4.7-13.6-6.1-18.5-1.4-4.9-3.2-12.1-4-16-0.8-3.9-2.2-12.9-3.1-20-1.4-9.9-1.6-17.1-1.2-30 0.3-11.6 1.3-21.6 3-31.5 1.4-8 3.9-19.7 5.6-26 1.6-6.3 4.2-14.7 5.6-18.5 1.4-3.8 5-11.9 8-18 3-6.1 8.9-16.4 13.3-23 4.4-6.6 12.3-17 17.5-23 5.3-6 14.6-15.8 20.9-21.6 6.2-5.8 14.2-12.8 17.8-15.6 3.6-2.7 10.8-7.7 16-11 5.2-3.3 13.8-8.2 19-10.8 5.2-2.6 13.3-6.3 18-8.2 4.7-1.9 13.7-4.9 20-6.8 6.3-1.8 15.6-4.1 20.5-5 4.9-1 13.3-2 18.5-2.4 5.2-0.3 18.3-0.5 29-0.4z"/>
		<path id="Path 4" class="s4" d="m257.5 29.4c7.7 0 10.6 0.2 6.5 0.3-4.1 0.2-10.4 0.2-14 0-3.6-0.2-0.2-0.3 7.5-0.3z"/>
		<path id="Path 5" class="s5" d="m486.7 255c0.2 1.9 0.2 5.5 0 8-0.2 2.5-0.4 0.9-0.4-3.5 0-4.4 0.2-6.4 0.4-4.5z"/>
		<path id="Path 6" fill-rule="evenodd" class="s0" d="m211.5 122h9c4.9 0.1 11.7 0.7 15 1.4 3.3 0.8 8.5 2 11.5 2.9 3 0.8 7.4 2.4 9.8 3.6 2.3 1.1 4.6 2.1 5.2 2.1 0.6 0 2.1 0.7 6 3l-3.1 5.8c-1.7 3.1-5.4 8.1-8.2 11.1-3.9 4-7.6 6.4-14.7 9.8-5.2 2.4-12.4 5.1-16 6-3.6 0.8-8.1 1.8-13.7 2.8l0.4-12c0.3-6.6 0.1-17.5-0.4-24.3zm-16.7 2.1c0.8 0 1.4 3.5 1.8 12.7 0.4 7 0.5 17.5 0.3 23.4-0.2 5.9-0.7 11-1.2 11.5-0.4 0.5-5.6 0.3-11.5-0.5-5.9-0.7-14.3-2.2-18.7-3.2-4.4-1.1-9.1-2.7-10.5-3.6-1.3-1-5.3-4.4-8.8-7.8-3.4-3.3-6.2-6.5-6.3-7 0-0.6 1.7-2.4 3.8-4 2.1-1.7 5.6-4.2 7.8-5.6 2.2-1.4 6.5-3.7 9.5-5.1 3.1-1.4 8.7-3.8 12.5-5.1 3.9-1.4 10-3.3 13.5-4.1 3.6-0.8 7.1-1.5 7.8-1.6zm86.5 19.2l4.1 3.1c2.2 1.7 8.5 7.5 13.9 12.9 5.3 5.4 12.3 13.2 15.5 17.5 3.1 4.3 7 9.7 8.5 12 1.5 2.3 2.7 4.5 2.7 4.8 0 0.2 1 1.9 2.3 3.7 1.2 1.8 3 4.8 3.9 6.8 1 1.9 1.4 3.8 1 4.3-0.4 0.5-1.6 0.6-2.7 0.2-1.1-0.3-7.4-2-14-3.7-9.5-2.5-13.9-3.1-21.5-3-5.2 0-10.6 0.2-11.9 0.3-2.3 0.3-3.2-1.2-20.6-35.1l4.2-3.8c2.4-2.1 4.3-4.2 4.3-4.7 0-0.6 1.1-2.2 2.5-3.5 1.4-1.4 2.6-2.9 2.6-3.3-0.1-0.4 1.1-2.5 2.6-4.6zm-152.6 17.8c0.7 0 3 1.9 5 4.2 2.1 2.4 5.8 6 12.8 11.9l-3.7 6.2c-2 3.4-5.8 10.4-8.3 15.6-2.6 5.3-5 10.8-5.3 12.4-0.4 1.6-1.2 3.2-1.7 3.6-0.6 0.4-5.3 1.7-10.5 2.9-5.2 1.2-11.3 2.7-13.5 3.2-2.2 0.6-4.1 0.9-4.3 0.7-0.2-0.1 0.7-3.6 1.9-7.8 1.2-4.1 3.8-11.5 5.7-16.5 1.9-4.9 4.9-11.7 6.7-15 1.7-3.3 4.5-8 6.1-10.5 1.6-2.5 4-6 5.4-7.7 1.4-1.7 3.1-3.2 3.7-3.2zm121 15.3c0.7 0.6 4.9 8.3 9.3 17.1 7.2 14.3 7.9 16.2 6.4 17-0.9 0.6-5.8 4.1-10.8 7.9-5 3.8-10.2 8-11.6 9.4-1.4 1.3-5.4 4.3-9 6.7-3.6 2.4-8.4 5.3-10.8 6.4-2.3 1.2-5.9 2.5-11.9 3.6l-0.7-6.5c-0.3-3.5-0.6-16.5-0.6-28.7 0-12.2 0.3-22.5 0.7-22.7 0.5-0.2 3.7-0.9 7.3-1.4 3.6-0.5 10.2-2.1 14.7-3.5 4.6-1.5 10-3.5 12-4.6 2.9-1.5 4-1.6 5-0.7zm-85.5 7.6c1.8 0.4 9.5 1.4 31 3.5l-0.9 6c-0.4 3.3-0.8 10.5-0.8 16 0.1 5.5 0.6 15.2 1.2 21.5 0.6 6.4 1.1 11.7 1 11.8-0.1 0.1-2.5-0.7-5.2-1.9-2.8-1.2-8.8-4.4-13.5-7.2-4.7-2.7-9.6-5.7-11-6.5-1.4-0.9-5-2.7-8-4.2-3-1.5-7.6-3.4-15-6l1.6-3.7c0.9-2.1 3.4-7.4 5.6-11.8 2.2-4.4 5.5-10.3 7.4-13.1 3.1-4.9 3.4-5.1 6.6-4.4zm256 17.2c1.6-0.1 5.4 0.8 8.5 1.9 3.2 1.1 7.4 3.1 9.3 4.4 1.9 1.3 5.4 4.4 7.8 6.7 2.4 2.4 5.5 6.6 7 9.3 1.5 2.8 3.9 8.6 5.4 13 1.4 4.4 3.8 13 5.3 19 1.9 7.8 2.6 12.4 2.2 15.5-0.4 2.5-1.5 5.7-2.5 7-1 1.4-3.8 3.9-6.1 5.5-3.5 2.5-5.5 3.1-10.9 3.4-6.1 0.4-7.2 0.1-12.7-2.9-3.3-1.8-7.6-4.5-9.5-5.9-1.9-1.4-6-4.5-9-6.8-3.9-3.1-6.1-4.2-7.5-3.7-1.1 0.3-4 1.5-6.5 2.6-2.5 1.2-5.4 2.4-6.5 2.9-1.9 0.7-2 0.2-2.7-10.9-0.4-7.9-1.4-14.2-3.1-19.7-1.3-4.4-3.2-9.4-4.1-11.2-1.6-3.2-1.6-3.3 2.3-9 2.1-3.2 5.4-7.3 7.3-9.3 1.8-1.9 4.5-4.5 5.8-5.7 1.4-1.3 4.3-2.8 6.5-3.3 2.2-0.6 5.6-1.5 7.5-1.9 1.9-0.5 4.7-0.9 6.2-0.9zm-121.2 16.4c7 0.4 13 1.6 23 4.6 7.4 2.2 13.8 4.3 14.2 4.7 0.4 0.3 0 3.3-0.8 6.6-0.7 3.3-1.4 10.8-1.4 27l-5.7 3c-3.2 1.6-7.8 3.7-10.3 4.6-2.5 1-6.3 2.5-8.5 3.5-2.2 0.9-4.7 1.5-5.5 1.2-1-0.3-2-3.1-2.8-7.9-0.8-4-2.5-11.6-3.9-16.9-1.4-5.2-4-13.5-5.8-18.5-1.7-4.9-3.5-9.5-3.8-10.2-0.4-0.7-0.1-1.5 0.5-1.7 0.7-0.3 5.6-0.3 10.8 0zm-26.8 6.5c0.5 0 1.9 2.8 3.2 6.2 1.3 3.4 3.5 9.8 4.9 14.2 1.4 4.4 3.7 13 5.1 19 1.4 6.1 2.6 11.8 2.6 12.8 0 1-0.1 1.7-0.3 1.7-0.1 0-3.8 0.9-8.2 2.1-4.4 1.1-14.8 2.9-23 4-8.3 1.1-20.7 2.3-27.6 2.7-12.1 0.7-12.7 0.7-13.2-1.3-0.4-1.1-1.1-7.1-1.6-13.5-0.6-6.3-0.9-11.5-0.8-11.5 0.1 0 2.9-0.8 6.2-1.9 3.3-1 6.4-1.9 7-2.1 0.5-0.2 3.6-1.9 6.7-3.7 3.2-1.8 8.8-5.5 12.4-8.3 3.6-2.7 7.3-5.4 8.2-6 0.9-0.5 2.8-1.9 4.2-3.1 1.4-1.2 5-4.2 8-6.7 3-2.5 5.8-4.6 6.2-4.6zm90.3 3.7c1.1 0.3 3.2 1.9 4.6 3.6 1.5 1.7 3.9 6.3 5.4 10.1 2.6 6.5 2.8 8.1 2.9 21.8 0.1 11.8-0.2 15-1.4 16.1-0.8 0.8-3.3 2.5-5.5 3.7-2.2 1.3-9.3 4.9-15.8 8.1-6.4 3.2-12.3 5.8-13 5.8-0.7 0-1.7 0.5-2.3 1-0.5 0.5-4.1 2.1-7.9 3.6-3.9 1.4-12.2 4.4-18.5 6.5-6.3 2.1-15.6 4.9-20.5 6.3-5 1.3-14.2 3.3-20.5 4.5-6.3 1.1-15.8 2.5-21 3.1-5.2 0.6-16.3 1.5-24.5 2-9.2 0.6-21.2 0.6-31 0-8.8-0.5-20.5-1.4-26-2-5.5-0.6-15.2-2-21.5-3.1-6.3-1.1-16.2-3.1-22-4.4-5.8-1.4-14.6-3.7-19.5-5.2-5-1.4-13-4-17.9-5.7-6.6-2.3-9.4-3.8-10.8-5.8-1-1.5-1.8-4.3-1.8-6.3 0-2 0.7-4.1 1.7-5.1 1.4-1.2 2.9-1.5 6.3-1 2.5 0.3 8.8 1.7 14 3.1 5.2 1.3 12.9 3.2 17 4.1 4.1 0.9 11.3 2.2 16 3 4.7 0.7 12.8 2 18 2.8 5.2 0.8 16.2 2 24.5 2.8 8.2 0.7 25.8 1.3 39 1.3 16.1 0 29.1-0.6 39.5-1.8 8.5-0.9 19.8-2.6 25-3.8 5.2-1.1 13.1-2.9 17.5-4.1 4.4-1.1 12.2-3.4 17.4-5.1 5.2-1.8 14.8-5.9 21.5-9.2 9.6-4.7 12.6-6.8 14.9-10 2.8-3.8 2.9-4.3 3.1-18 0.2-12.8 0.4-14.3 2.7-17.7 1.4-2.2 3.6-4.1 5.4-4.6 1.6-0.5 3.9-0.7 5-0.4zm-221.7 4.9c1.5 0.3 5.4 1.7 8.7 3.2 3.3 1.4 7.2 3.3 8.7 4.3 1.6 1 3 1.8 3.3 1.8 0.3 0 2 1.1 3.7 2.3 1.8 1.2 4.6 2.9 6.3 3.8 1.6 0.9 5.9 3.2 9.5 5.1 3.6 2 8.6 4.2 15.8 6.3l1.6 12c0.9 6.6 1.6 12.8 1.6 13.8 0 1.5-1 1.7-7.3 1.7-3.9 0-13.3-0.7-20.7-1.5-7.4-0.8-17.6-1.9-22.5-2.4-5-0.5-11.3-1.5-19-3.1l0.8-8.2c0.5-4.6 2-14.3 3.4-21.8 1.3-7.4 2.7-14.5 3-15.7 0.4-1.8 1-2.1 3.1-1.6zm-21.1 0.4c1.3 0 2.3 0.4 2.3 0.9 0 0.6-0.7 3.9-1.5 7.3-0.8 3.4-2.4 12.8-3.6 20.7-1.2 8-2.3 14.7-2.3 14.8-0.1 0.2-3.7-0.6-8.1-1.6-4.4-1.1-9.7-2.3-11.8-2.6-2-0.3-3.9-0.9-4.1-1.3-0.2-0.4 0.2-4.8 0.9-9.8 0.8-4.9 1.6-11.5 1.9-14.7 0.5-5.3 0.8-5.9 3.8-7.2 1.8-0.7 7.1-2.5 11.8-3.9 4.7-1.4 9.5-2.6 10.7-2.6zm208.2 86.2c0.8 0.1 1.9 1.8 2.6 3.7 0.6 2 2.7 5.8 4.5 8.5 1.9 2.8 6.9 8.5 11.2 12.8 4.3 4.3 7.5 7.9 7 8.2-0.4 0.2-3.6 0.9-7.2 1.5-3.6 0.5-12.4 1.7-19.5 2.5-7.2 0.9-14.9 1.6-17.3 1.5-2.3 0-5.4-0.6-7-1.4-1.5-0.7-4.1-2.9-5.8-4.7-1.7-1.9-4.7-5.8-6.6-8.9-1.8-3-3.9-6.7-4.6-8.2-0.7-1.5-1.2-2.9-1.2-3 0-0.1 2.5-0.9 5.7-1.6 3.2-0.8 9.6-2.5 14.3-3.9 4.7-1.4 11.6-3.6 15.5-4.9 3.8-1.3 7.6-2.2 8.4-2.1zm-217.8 7.7c0.5 0 2.8 0.5 5.1 1.1 2.4 0.5 9 2.1 14.8 3.4 5.8 1.4 11.7 2.5 13.2 2.5 2.2 0 2.7 0.5 2.4 1.8-0.3 1-1.2 3.8-2.1 6.2-0.9 2.5-2.6 5.8-3.6 7.3-1.1 1.5-1.9 3.1-1.9 3.5 0 0.4-1 2.2-4.5 7.2h-13c-7.2 0-15.7-0.6-19-1.4-3.3-0.7-8.2-1.9-10.8-2.7-2.6-0.7-4.7-1.6-4.7-1.9 0-0.2 3.5-3.9 7.7-8 4.3-4.2 9.5-10.2 11.7-13.3 2.1-3.1 4.3-5.7 4.7-5.7z"/>
		<path id="Path 7" class="s6" d="m208.7 204c0.2 2.5 0.2 7 0 10-0.2 3-0.3 1-0.3-4.5 0-5.5 0.1-8 0.3-5.5z"/>
		<path id="Path 8" class="s7" d="m193.7 204c0.2 2.5 0.2 7 0 10-0.2 3-0.3 1-0.3-4.5 0-5.5 0.1-8 0.3-5.5z"/>
		<path id="Path 9" class="s8" d="m209.7 204c0.2 2.5 0.2 7 0 10-0.2 3-0.3 1-0.3-4.5 0-5.5 0.1-8 0.3-5.5zm-15 1.5c0.2 2.8 0.2 6.8 0 9-0.2 2.2-0.3-0.1-0.3-5 0-4.9 0.1-6.8 0.3-4z"/>
		<path id="Path 10" class="s9" d="m211 302.3c4.7 0 6.5 0.2 4 0.4-2.5 0.2-6.3 0.2-8.5 0-2.2-0.2-0.2-0.4 4.5-0.4z"/>
		<path id="Path 11" class="s3" d="m425 218.1c0.8-0.1 3.3 1 5.5 2.4 2.2 1.4 4.5 3.3 5.1 4.3 0.6 0.9 1.4 3.1 1.8 4.7 0.3 1.7 0.3 3.6-0.2 4.3-0.4 0.8-2.9 1.3-6.9 1.2-3.5 0-7.3-0.5-8.5-1.1-1.3-0.6-3.3-2.1-4.6-3.3-1.2-1.1-2.3-3.2-2.3-4.6 0-1.4 0.8-3.3 1.8-4.2 1-0.9 2.9-2.1 4.3-2.7 1.4-0.5 3.2-1 4-1z"/>
	</g>
</svg>