<svg version="1.2" xmlns="http://www.w3.org/2000/svg" viewBox="0 0 512 512" width="512" height="512">
	<title>0-summoned-svg</title>
	<style>
		.s0 { fill: #cd59f7 } 
		.s1 { opacity: .9;fill: #cc58f6 } 
		.s2 { opacity: .5;fill: #cc58f6 } 
		.s3 { opacity: .3;fill: #cc58f6 } 
		.s4 { fill: #000000 } 
		.s5 { fill: #9842b7 } 
	</style>
	<g id="rabbit">
		<path id="Path 0" class="s0" d="m263 10.6c22.9 0.1 28.1 0.5 38 2.4 6.3 1.2 16.2 3.3 22 4.6 5.8 1.4 15.4 4.5 21.5 6.8 6.1 2.4 16.4 7 23 10.3 6.6 3.3 16.5 8.9 22 12.3 5.5 3.4 14.1 9.3 19 12.9 4.9 3.7 14.8 12.3 21.9 19.2 7.1 6.8 16.3 16.7 20.5 21.9 4.2 5.2 10 12.9 12.8 17 2.8 4.1 8.2 13.1 12.1 20 3.8 6.9 9.5 18.3 12.6 25.5 3 7.2 6.9 18.2 8.5 24.5 1.7 6.3 4.2 17.1 5.7 24 2.4 11.9 2.6 14 2.6 43.5 0 24.6-0.3 33-1.7 41-0.9 5.5-3.2 16.1-5.1 23.5-1.9 7.4-5.1 17.6-7.1 22.5-1.9 4.9-6.5 14.9-10 22-3.6 7.1-8.3 16.1-10.6 20-2.2 3.9-7 11.1-10.7 16-3.7 4.9-10.6 13.3-15.2 18.5-4.7 5.2-12.9 13.7-18.4 18.9-5.4 5.2-14 12.6-18.9 16.4-4.9 3.9-12 8.9-15.8 11.3-3.7 2.4-12.9 7.5-20.5 11.3-7.5 3.8-17.3 8.4-21.7 10.4-4.4 2-11.8 4.7-16.5 6-4.7 1.4-14 3.7-20.8 5.1-6.7 1.4-16.7 3.3-22.2 4.1-6.6 1-17.6 1.5-32.3 1.5-15.2 0-25.2-0.5-31.7-1.5-5.2-0.9-15.1-2.7-22-4.1-6.9-1.4-16.3-3.6-21-4.9-4.7-1.3-13.9-4.9-20.5-7.9-6.6-3-17.9-8.6-25-12.4-7.2-3.9-18.4-11-24.9-15.9-6.6-4.8-18.5-15.1-26.4-22.8-8-7.7-18.2-18.5-22.7-24-4.5-5.5-10.9-14.1-14.1-19-3.2-4.9-9.7-16.6-14.5-26-5.5-11-10.2-22-13.1-31-2.5-7.7-6.1-20.5-7.8-28.5-3.2-14.3-3.3-14.8-3.5-45-0.3-29.8-0.3-30.8 2.5-46 1.5-8.5 3.7-19.1 4.9-23.5 1.1-4.4 3.1-11.2 4.4-15 1.4-3.8 4.2-11.1 6.4-16 2.2-4.9 7.1-14.8 11-22 3.9-7.2 10.8-18.2 15.3-24.5 4.4-6.3 13.2-16.9 19.4-23.5 6.2-6.6 15.9-16.1 21.7-21 5.7-5 14.7-12 19.9-15.7 5.2-3.6 14.9-9.6 21.5-13.3 6.6-3.7 16.9-8.9 23-11.7 6.1-2.7 15.9-6.5 22-8.3 6.1-1.9 17.1-4.6 24.5-6 7.4-1.5 17.1-2.9 21.5-3.3 4.4-0.4 19.9-0.6 34.5-0.6z"/>
		<path id="Path 1" class="s1" d="m10.7 249c0.2 1.9 0.2 5.5 0 8-0.2 2.5-0.4 0.9-0.4-3.5 0-4.4 0.2-6.4 0.4-4.5z"/>
		<path id="Path 2" class="s2" d="m257 10.4c8.5 0 12.1 0.2 8 0.3-4.1 0.2-11.1 0.2-15.5 0-4.4-0.1-1-0.3 7.5-0.3z"/>
		<path id="Path 3" class="s3" d="m505.7 249c0.2 4.1 0.2 10.6 0 14.5-0.1 3.9-0.3 0.5-0.3-7.5 0-8 0.2-11.1 0.3-7z"/>
		<path id="Path 4" class="s4" d="m262.5 29.7c11 0.1 22.5 0.4 25.5 0.7 3 0.4 10.4 1.6 16.5 2.7 6.1 1.1 16.6 3.9 23.5 6.1 6.9 2.2 17 6.2 22.5 8.8 5.5 2.5 14.9 7.5 21 11 6.1 3.5 14.4 8.8 18.5 11.8 4.1 3.1 12 9.4 17.4 14.1 5.5 4.7 13.5 12.4 17.9 17.1 4.3 4.7 11.4 13 15.7 18.5 4.3 5.5 10.3 14.3 13.5 19.5 3.2 5.2 8.4 14.9 11.6 21.5 3.1 6.6 7.6 17.6 10 24.5 2.3 6.9 5.3 17.7 6.6 24 1.5 7.6 2.7 18.2 3.4 31 0.8 14.2 0.8 23.9 0 35.5-0.6 8.8-2 20.5-3.2 26-1.1 5.5-3.6 15.1-5.5 21.3-1.9 6.1-6 16.7-9.1 23.5-3.2 6.7-8.4 16.9-11.5 22.7-3.2 5.8-8.8 14.5-12.5 19.5-3.8 4.9-12 14.6-18.3 21.4-6.3 6.9-15.1 15.6-19.5 19.4-4.4 3.8-12.5 9.8-18 13.4-5.5 3.6-14.7 9.1-20.5 12.2-5.8 3.1-15.2 7.8-21 10.5-5.8 2.6-13.9 5.9-18 7.3-4.1 1.3-11.3 3.3-16 4.4-4.7 1.1-14.4 2.9-21.5 4-7.1 1-19.1 2.2-26.5 2.5-7.6 0.4-18.8 0.2-25.7-0.5-6.8-0.6-19.4-2.5-28-4.2-8.7-1.7-20.7-4.9-26.8-7-6.1-2.2-18.2-7.5-27-11.8-8.8-4.4-19.8-10.5-24.5-13.6-4.7-3.1-11.7-8.2-15.5-11.3-3.8-3.1-11.9-10.4-17.9-16.2-6-5.8-14.4-14.8-18.8-20-4.4-5.2-10.5-13.3-13.7-18-3.1-4.7-8.8-14.6-12.5-22-3.8-7.4-8.5-17.6-10.4-22.5-1.9-4.9-4.8-13.5-6.3-19-1.6-5.5-3.8-14.5-4.8-20-1.1-5.5-2.5-14.7-3.1-20.5-0.8-6.5-1.1-16.7-0.7-27 0.3-11 1.4-21.4 3.1-31 1.3-8 3.8-19.7 5.5-26 1.6-6.3 4.2-14.7 5.6-18.5 1.4-3.8 5-11.9 8-18 3-6.1 8.9-16.4 13.3-23 4.4-6.6 12-16.7 17-22.5 5-5.8 14.8-15.9 21.9-22.4 7-6.5 15.3-13.8 18.3-16.1 3-2.3 9.8-6.9 15-10.2 5.2-3.3 13.8-8.2 19-10.8 5.2-2.6 13.3-6.3 18-8.2 4.7-1.9 13.7-4.9 20-6.8 6.3-1.8 15.6-4.1 20.5-5 4.9-1 13.3-2 18.5-2.4 5.2-0.3 18.5-0.5 29.5-0.4z"/>
		<path id="Path 5" class="s5" d="m257 29.4c7.4 0 10.4 0.1 6.5 0.3-3.9 0.2-9.9 0.2-13.5 0-3.6-0.2-0.4-0.3 7-0.3z"/>
		<path id="Path 6" class="s0" d="m233.4 57c1.7 0 6 1.3 9.6 3 3.6 1.6 9.5 5.4 13.2 8.3 3.7 2.8 12.7 10.1 20 16.2 7.3 6 17.2 13.5 22 16.7 4.9 3.2 9 5.8 9.3 5.8 0.3 0 2.1 1.1 4 2.5 3.5 2.5 3.5 2.5 1.2 3.5-1.2 0.6-3.1 1.6-4.2 2.3-1.1 0.7-4.5 3.1-13 9.7l-7.5-4.1c-4.1-2.3-10.9-6.5-15-9.2-4.1-2.8-11.6-8.3-16.5-12.2-4.9-4-11.1-9.4-13.6-12.1-2.5-2.7-6.1-7.4-8-10.4-1.9-3-4-7.1-4.6-9-0.7-1.9-1.4-4.9-1.5-6.6-0.1-1.7 0.2-3.4 0.7-3.7 0.5-0.4 2.2-0.7 3.9-0.7zm-52.4 44.6c0.8 0.1 3.3 0.6 5.5 0.9 2.2 0.4 6.9 1.6 10.5 2.7 3.6 1.1 8.7 2.9 11.5 4 2.7 1.1 7.2 3 10 4.3 2.7 1.2 11.5 5 19.5 8.5 8 3.4 16.3 7 18.5 8 2.2 0.9 6.2 2.7 9 3.8 2.7 1.1 8.1 3.3 12 4.8 5.4 2.2 8.7 2.9 14.4 2.9 6.2 0 7.6-0.3 8.5-1.9 0.6-1 3.3-4 6.1-6.7 2.7-2.7 5.3-4.9 5.7-4.9 0.5 0 2-0.8 3.5-1.8 1.6-1 6.2-2.8 10.3-4.1 5.8-1.8 9.9-2.4 18-2.4 8.8 0 11.4 0.4 16 2.3 3 1.3 8.6 4.4 12.5 6.9 3.8 2.5 11.2 8.7 16.4 13.6 5.1 4.9 12.4 13.1 16.1 18 3.6 4.9 7 9.7 7.3 10.5 0.4 0.8 1.5 2.5 2.4 3.8q1.8 2.3 0.5 2.2c-0.6 0-2.9 0.7-5 1.6-2 0.9-4.8 2.1-6.1 2.8-1.3 0.6-4.7 3.3-7.5 6.1-2.9 2.7-6.2 7-7.5 9.5-1.9 3.5-2.4 6.2-2.5 12.1-0.1 5.4 0.3 8.1 1.4 9.3 0.8 0.9 1.1 2 0.7 2.4-0.5 0.4-9.9 0.7-21 0.7-17.6-0.1-21.5-0.4-30.2-2.4-5.5-1.3-13.4-3.5-17.5-4.9-4.1-1.3-9.5-3.4-12-4.6-2.5-1.2-6.3-3.4-8.5-4.8-2.2-1.3-5.4-3.8-7.1-5.4-1.7-1.6-4-4.2-5.1-5.9-1.2-1.7-2.6-4.8-3.2-7-0.9-3.3-0.8-4.8 0.8-9 1.1-2.8 2.5-6.3 3.2-8 1-2.5 1-3.6-0.2-6.4-0.8-1.8-2.6-4-4.2-4.7-2.2-1.1-4-1.2-9.5-0.3-4 0.7-10.9 0.9-17.2 0.6-5.8-0.4-14.8-1.7-20-3.1-5.2-1.3-13.6-4.3-18.5-6.6-4.9-2.3-11.9-6.3-15.5-8.8-3.6-2.6-8.3-6.2-10.4-8.2-2.1-1.9-5.8-6-8.1-9-2.4-3-5.2-7.5-6.4-10-1.1-2.5-2.2-5.9-2.3-7.7-0.2-2.5 0.2-3.3 1.7-3.6 1.1-0.2 2.7-0.3 3.5-0.1zm-110.8 87.5c0.5-0.1 2 1.2 3.5 2.8 1.6 1.6 4.6 6.5 6.8 10.8 2.1 4.3 5.4 10.3 7.3 13.3 1.9 3 5.4 7.4 7.8 9.7 2.4 2.4 4.4 4.6 4.4 5 0.1 0.5-0.7 1.5-1.6 2.3-1 0.8-4.3 5.3-7.3 10-3.1 4.7-7.1 12.2-8.9 16.8-1.7 4.5-3.7 8.2-4.2 8.2-0.6 0-2.5-2.6-4.4-5.8-1.9-3.1-4.6-8.6-6.1-12.2-1.4-3.6-3.7-10.6-5.1-15.5-1.9-7.3-2.4-11.4-2.4-22 0-11.5 0.3-13.5 2.2-17.1 1.2-2.2 3.3-4.5 4.8-5.1 1.4-0.6 2.8-1.1 3.2-1.2zm350.6 1.9c1.2 0 2.6 0.9 3.2 2 0.5 1.1 1 3.6 1 5.5 0 2.9-0.9 4.4-4.8 8.3-2.7 2.6-7.3 6-10.3 7.5-4.9 2.5-5.5 2.6-6.9 1.2-1-1.1-1.4-3.4-1.3-7.3 0.1-5 0.6-6.1 3.5-9 1.8-1.8 5.5-4.4 8.3-5.7 2.7-1.3 6-2.4 7.2-2.5zm-162.5 6.2c15.4-0.2 15.8-0.1 17.2 2 0.7 1.3 3.5 4.6 6.2 7.5 2.7 2.8 7.1 6.6 9.9 8.5 2.7 1.9 7.5 4.6 10.5 6 3 1.4 7.1 3.2 9 4 1.9 0.9 7.5 2.6 12.5 4 4.9 1.4 13.7 3.3 19.5 4.3 5.8 0.9 11.5 1.9 12.7 2.1 1.4 0.2 3.9 2.6 6 5.6 2.1 2.9 4.8 6.8 6 8.5 1.3 1.8 2.3 3.7 2.3 4.3 0 0.6 0.9 2.5 2 4.3 1 1.7 3.1 7 4.5 11.7 1.9 6.5 2.5 10.7 2.5 18 0 6.6-0.7 12.4-2.4 19-1.3 5.2-3.2 11.5-4.2 14-1.1 2.5-4.6 9.9-8 16.5-3.3 6.6-7.8 15.4-10 19.5-2.2 4.1-4.5 9.3-5.2 11.5-0.6 2.2-1.2 5.5-1.2 7.3 0 1.7 0.6 4.4 1.4 6 0.7 1.5 3 4.2 8.6 9.2h12.7c10.9 0 14 0.4 20.8 2.5 4.4 1.4 9.7 3.7 11.7 5 2.1 1.4 4.9 4 6.2 5.8 1.2 1.7 2.6 3.9 2.9 4.7 0.3 0.8-0.1 2.5-2.3 6h-105l-1.1-4.2c-0.6-2.4-2.1-6.1-3.4-8.3-1.3-2.2-3.8-5.4-5.7-7.2-1.8-1.7-6.2-4.7-9.8-6.6-3.6-1.9-10.1-4.5-14.5-6-4.4-1.4-12.1-3.4-17-4.5-5-1.2-11.1-2.3-13.8-2.6-2.6-0.3-5.4-0.9-6.2-1.3-0.9-0.5 2.6-1.5 8.8-2.6 5.6-1 14.2-2.8 19.2-3.9 4.9-1.1 11.5-3 14.5-4.1 3-1.1 8.6-3.5 12.5-5.4 3.8-1.8 10.1-5.8 14-8.9 4.3-3.4 8.7-8.1 11.5-12.2 3.5-5.3 4.8-8.5 5.9-14.2 1.2-6.4 1.2-8.5 0.1-14-0.7-3.6-2.5-8.7-3.9-11.5-1.4-2.7-5.7-8.2-9.6-12.1-3.8-3.9-9.5-8.6-12.5-10.5-3-1.9-7.8-4.4-10.5-5.6-2.8-1.1-6.8-2.8-9-3.7-2.2-0.9-8.6-2.5-14.3-3.6-6.6-1.3-14.3-2-22-2-7.4 0-15.5 0.7-22.2 1.9-5.8 1.1-13.7 3.1-17.5 4.5-3.9 1.3-8.6 3-10.5 3.8-1.9 0.8-6.7 3.1-10.5 5.1-3.9 2-8.4 4.5-10 5.5-1.7 0.9-4.5 2.7-6.3 4-2.5 1.7-3 2.6-2.3 4 0.5 0.9 2.7 3.6 8.6 10.3l2-2c1.1-1.1 2.4-2.1 3-2.1 0.5 0 1.7-0.6 2.5-1.4 0.8-0.7 3.7-2.4 6.5-3.8 2.7-1.4 7.5-3.7 10.5-5.1 3-1.4 7.1-3 9-3.7 1.9-0.7 8.4-2.3 14.5-3.6 7.8-1.7 14.3-2.4 22.2-2.4 7.4 0 14.8 0.7 21.3 2 5.5 1.1 11.5 2.6 13.2 3.4 1.8 0.8 4.4 1.9 5.8 2.5 1.4 0.6 3.9 1.9 5.5 2.8 1.7 1 4.9 3.2 7.1 4.8 2.3 1.6 6 5.3 8.3 8 2.2 2.8 4.8 7 5.6 9.5 0.8 2.5 1.5 6.1 1.5 8 0 1.9-0.6 5.3-1.2 7.5-0.8 2.6-3.3 6.1-7.3 10.1-3.3 3.3-8 7.1-10.5 8.5-2.5 1.4-8.1 3.9-12.5 5.6-4.4 1.7-11.6 4-16 5.2-4.4 1.1-13.2 2.9-19.5 4-6.3 1.1-15.1 2.2-19.5 2.5-4.4 0.4-13.2 1.1-19.5 1.6-6.3 0.6-13.1 1.5-15 2-1.9 0.5-4.3 2-5.3 3.4-0.9 1.4-1.7 3.5-1.7 4.6 0 1.1 1.2 3.4 2.7 5.1 1.6 1.8 4.1 3.8 5.8 4.7 1.6 0.8 8.2 2.6 14.5 3.9 6.3 1.3 12.7 2.3 14.2 2.3 1.6 0 8.3 0.9 15 2 6.8 1.2 16.6 3 21.8 4.2 5.2 1.1 12 2.9 15 4 3 1.1 7.7 2.9 10.4 4.1 2.7 1.2 6.4 4 8.3 6.2 1.8 2.2 3.3 4.8 3.3 5.8 0 1.6-4 1.7-69 1.7-38.3 0-70-0.4-71.3-0.9-1.2-0.5-6-4.4-10.6-8.7-4.6-4.4-11.4-12-15.1-16.9-3.7-4.9-9.1-12.9-11.9-17.8-2.8-4.8-5.1-8.9-5.1-9.2 0-0.3-1.5-3.5-3.3-7.3-1.8-3.7-4.5-10.5-5.9-15.2-1.5-4.7-3.7-12.8-4.9-18-1.7-7.2-2.2-12.6-2.2-22.5 0-10.8 0.4-14.6 2.5-22.5 1.4-5.2 3.9-12.4 5.6-16 1.7-3.6 5.4-9.4 8.2-13 2.8-3.6 7.1-8.3 9.5-10.5 2.3-2.2 4.9-4.4 5.7-5 0.8-0.6 4.6-3.1 8.4-5.6 3.8-2.5 9.4-5.7 12.4-7.1 3-1.4 7.1-3.3 9-4.1 1.9-0.8 7.5-2.9 12.5-4.5 4.9-1.7 13-3.9 18-5 4.9-1.2 15.1-3 22.5-4.1 7.4-1.2 19.1-2.5 26-2.9 6.9-0.5 19.6-1 28.2-1z"/>
		<path id="Path 7" class="s4" d="m362 151.6c1.4 0.2 3.6 0.9 5 1.4 1.4 0.5 3.3 2.4 4.4 4.2 1.4 2.5 1.7 4.5 1.3 8.3q-0.6 5-2.9 7.3c-1.6 1.6-3.9 2.5-7.3 2.9-3.5 0.4-6 0.1-8.3-1.1-1.7-0.9-3.9-2.9-4.7-4.6-0.8-1.7-1.5-4.5-1.5-6.2 0-1.8 1-4.9 2.3-6.8 1.3-2 3.7-4 5.7-4.7 1.9-0.7 4.6-1 6-0.7z"/>
	</g>
</svg>