<svg version="1.2" xmlns="http://www.w3.org/2000/svg" viewBox="0 0 512 512" width="512" height="512">
	<title>m-arcane_protection-svg</title>
	<style>
		.s0 { fill: #cd59f7 } 
		.s1 { opacity: .2;fill: #cd59f7 } 
		.s2 { opacity: .7;fill: #cd59f7 } 
		.s3 { opacity: .9;fill: #cd59f7 } 
		.s4 { opacity: .3;fill: #cd59f7 } 
		.s5 { opacity: .5;fill: #cd59f7 } 
		.s6 { fill: #000000 } 
		.s7 { fill: #33163e } 
		.s8 { fill: #9943b9 } 
	</style>
	<g id="talk">
		<path id="Path 0" class="s0" d="m282.5 10.8c7.3 0.2 16.9 1.3 24.5 2.7 6.9 1.4 15.9 3.3 20 4.3 4.1 1.1 12.1 3.8 17.8 6.1 5.6 2.2 15.6 6.8 22.2 10.1 6.6 3.3 16.2 8.6 21.3 11.7 5 3.1 10.8 6.8 12.7 8.2 1.9 1.4 6.9 5.2 11 8.5 4.1 3.3 13.3 11.7 20.3 18.6 7.1 6.9 16.1 16.5 20.1 21.5 4 5 9.6 12.4 12.3 16.5 2.8 4.1 8.3 13.1 12.2 20 3.9 6.9 8.6 15.9 10.3 20 1.7 4.1 4.7 11.8 6.5 17 1.9 5.2 5.1 16 10.7 38.5l0.1 84-2.7 11c-1.5 6.1-4.1 15.6-5.8 21.3-1.6 5.6-5.7 15.9-8.9 22.9-3.3 7.1-8.3 17.1-11.1 22.3-2.9 5.2-6.8 12-8.7 15-2 3-6.5 9.3-10.2 14-3.6 4.7-11.5 13.6-17.6 19.9-6 6.3-16.4 16.2-23.1 22-6.6 5.8-15.4 12.9-19.5 15.7-4.1 2.8-12.1 7.8-17.9 11-5.8 3.1-16.1 8.3-23 11.5-6.9 3.2-17.9 7.3-24.5 9.2-6.6 1.9-15.6 4.3-20 5.2-4.4 0.9-11.6 2.2-16 2.8-5.1 0.8-19.8 1.2-40.5 1.1-31-0.1-33.1-0.3-45.5-2.8-7.2-1.5-17.7-4-23.5-5.7-5.8-1.7-16.8-5.9-24.5-9.4-7.7-3.5-18.3-8.7-23.5-11.5-5.2-2.9-12.9-7.5-17-10.2-4.1-2.8-11.8-8.6-17-12.9-5.2-4.2-15.9-14.2-23.6-22.1-7.8-7.8-17.2-18.1-20.9-22.8-3.8-4.7-9.1-11.9-11.7-16-2.7-4.1-8-13.6-11.8-21-3.7-7.4-8.6-17.8-10.7-23-2.2-5.2-6.3-18.1-14.3-47.5l-0.2-38c-0.1-35.1 0-38.9 2-49.5 1.2-6.3 3.1-15.1 4.3-19.5 1.1-4.4 3.2-11.4 4.6-15.5 1.4-4.1 4.5-11.8 6.8-17 2.3-5.2 6.7-14 9.7-19.5 3.1-5.5 8.3-14 11.6-19 3.2-4.9 8.3-11.9 11.1-15.5 2.9-3.6 9.6-11 14.9-16.5 5.4-5.5 14.4-14.2 20.2-19.4 5.8-5.1 15.7-12.7 22-17 6.3-4.3 16.4-10.6 22.5-13.9 6.1-3.4 16.2-8.4 22.5-11.1 6.3-2.8 17.1-6.6 24-8.6 6.9-1.9 16.1-4.3 20.5-5.2 5.8-1.2 15.7-1.8 35.5-2.2 15.1-0.3 32.9-0.5 39.5-0.3z"/>
		<path id="Path 1" class="s1" d="m248.5 10.4c12.1 0 16.8 0.2 10.5 0.3-6.3 0.2-16.2 0.2-22 0-5.8-0.1-0.6-0.3 11.5-0.3z"/>
		<path id="Path 2" class="s2" d="m266.5 503.4c8.8 0 12.6 0.2 8.5 0.3-4.1 0.2-11.3 0.2-16 0-4.7-0.1-1.3-0.3 7.5-0.3z"/>
		<path id="Path 3" class="s3" d="m504.7 238.5c0.2 2.8 0.2 6.8 0 9-0.2 2.2-0.3-0.1-0.3-5 0-4.9 0.1-6.8 0.3-4z"/>
		<path id="Path 4" class="s4" d="m10.7 277c0.2 3 0.2 8.4 0 12-0.2 3.6-0.3 1.1-0.3-5.5 0-6.6 0.1-9.5 0.3-6.5z"/>
		<path id="Path 5" class="s5" d="m10.7 249.5c0.2 3.8 0.2 10.6 0 15-0.1 4.4-0.3 1.3-0.3-7 0-8.3 0.2-11.8 0.3-8z"/>
		<path id="Path 6" fill-rule="evenodd" class="s6" d="m255 30.2c11.3-0.1 25.7 0.3 32 0.8 6.3 0.6 16 2 21.5 3.1 5.5 1.2 15.2 3.9 21.5 6 6.3 2.2 18.3 7.3 26.5 11.4 8.3 4 20.4 10.9 27 15.3 6.6 4.4 16.1 11.5 21 15.8 4.9 4.3 13 11.9 17.9 16.9 4.9 4.9 11.7 12.6 15.1 17 3.5 4.4 8.6 11.4 11.4 15.5 2.8 4.1 5.1 7.8 5.1 8.3 0 0.4-21.4 0.7-95 0.7v157h-190v51h184.5l23.8 42.5c22.1 39.6 23.6 42.6 22 44-1 0.8-6.7 4.8-12.8 8.9-6.1 4.1-17.1 10.6-24.5 14.5-7.4 3.8-18 8.8-23.5 11-5.5 2.3-15.2 5.4-21.5 7-6.3 1.6-14.6 3.4-18.5 4-3.9 0.6-11.7 1.6-17.5 2.2-5.8 0.6-18.1 1.1-27.5 1.1-12.2-0.1-20.7-0.7-30-2.2-7.2-1.1-18.2-3.4-24.5-5.1-6.3-1.7-15.6-4.6-20.5-6.5-4.9-2-15.7-7-24-11.2-8.2-4.2-19.7-10.8-25.5-14.7-7.6-5.1-15.1-11.5-27.4-23.5-9.3-9.1-19.7-19.9-23.1-24-3.4-4.1-8.7-11.3-11.7-16-3.1-4.7-7.6-12.3-10.1-17-2.5-4.7-6.9-13.9-9.7-20.5-2.8-6.6-6.4-16.3-8-21.5-1.6-5.2-4.1-15.1-5.5-22-1.3-6.9-2.5-13.5-2.5-17h31.5c17.3 0 31.5 0.3 31.5 0.7 0 0.5 3.2 19.2 7.1 41.8 3.8 22.6 7.3 41.9 7.8 43 0.6 1.7 1.5 0.7 5.2-6 2.5-4.4 13.4-24.1 44.4-79.5h184.5v-208l-222.1-0.5 4.8-3.6c2.6-2 8.2-5.6 12.3-8.1 4.1-2.5 10.4-6.1 14-8.1 3.6-1.9 11.4-5.6 17.5-8.2 6.1-2.6 16.8-6.4 24-8.5 7.2-2.2 17.3-4.6 22.6-5.3 5.3-0.8 11.6-1.7 14-1.9 2.4-0.3 13.6-0.5 24.9-0.6zm-126.5 175c1.7 0.5 3.8 1.6 4.8 2.6 0.9 0.9 2 3.3 2.4 5.2 0.4 2.2 0.1 4.8-0.8 6.9-0.8 1.8-2.6 4-4.2 4.7-1.5 0.8-4.2 1.4-6 1.4-1.7 0-4.3-0.8-5.6-1.7-1.4-1-3.1-3.3-3.8-5-0.8-2.1-1-4.5-0.6-6.5 0.5-1.7 1.8-4.1 3-5.4 1.2-1.3 3.5-2.4 5-2.6 1.5-0.2 4.1 0 5.8 0.4zm60.8 0c1.8 0.5 4 1.6 5 2.6 0.9 0.9 2 3.3 2.4 5.2 0.4 2.2 0.1 4.8-0.8 6.9-0.8 1.8-2.6 4-4.2 4.7-1.5 0.8-4 1.4-5.7 1.4-1.7 0-4-0.5-5.3-1.2-1.2-0.6-2.7-1.8-3.4-2.7-0.6-0.9-1.4-2.8-1.7-4.3-0.3-1.6 0-4.3 0.8-6 0.7-1.8 2.2-4 3.2-5 1.1-0.9 2.9-1.8 4.2-2 1.2-0.2 3.7 0 5.5 0.4zm57.7-0.2c3.8 0 5.6 0.6 7.6 2.3 1.6 1.4 2.7 3.7 3.1 6.2 0.4 2.9 0.1 4.9-1.3 7.2-1 1.8-2.9 3.7-4.2 4.3-1.2 0.5-3.8 1-5.7 1-2.2 0-4.5-0.9-6.3-2.3-1.5-1.3-3.1-3.9-3.5-5.8-0.4-2-0.3-4.6 0.3-6.1 0.5-1.6 1.9-3.7 3-4.8 1.5-1.5 3.3-2 7-2zm220 144l-1.6 3.8c-0.8 2-3.1 6.6-5.1 10.2-2 3.6-5.9 10.3-8.7 15-2.8 4.7-9.4 13.7-14.7 20-5.3 6.3-14.4 16.3-20.2 22.3-5.9 5.9-11.1 10.7-11.7 10.7-0.6 0-0.8-1.2-0.5-2.7 0.3-1.6 3.4-19.8 7-40.5 3.6-20.8 6.5-38 6.5-38.3 0-0.3 11-0.5 49-0.5z"/>
		<path id="Path 7" class="s7" d="m231.5 75.5c61.6 0 87 0.1 56.5 0.2-30.5 0.2-80.9 0.2-112 0-31.1-0.1-6.1-0.2 55.5-0.2zm175.5 66c26.7 0 37.5 0.1 24 0.2-13.5 0.2-35.3 0.2-48.5 0-13.2-0.1-2.2-0.2 24.5-0.2zm-143 157c52.5 0 73.9 0.1 47.5 0.2-26.4 0.2-69.4 0.2-95.5 0-26.1-0.1-4.5-0.2 48-0.2z"/>
		<path id="Path 8" class="s8" d="m257 29.4c7.4 0 10.4 0.1 6.5 0.3-3.9 0.2-9.9 0.2-13.5 0-3.6-0.2-0.4-0.3 7-0.3zm-195 253c17.9 0 25.1 0.2 16 0.3-9.1 0.2-23.7 0.2-32.5 0-8.8-0.1-1.4-0.3 16.5-0.3zm188.5 0.1c51.1 0 71.9 0.1 46 0.2-25.9 0.2-67.7 0.2-93 0-25.3-0.1-4.2-0.2 47-0.2zm11 66c51.1 0 71.9 0.1 46 0.2-25.9 0.2-67.7 0.2-93 0-25.3-0.1-4.2-0.2 47-0.2zm181-0.1c13.8 0 19.6 0.2 13 0.3-6.6 0.2-17.9 0.2-25 0-7.1-0.1-1.8-0.3 12-0.3z"/>
	</g>
</svg>