<svg version="1.2" xmlns="http://www.w3.org/2000/svg" viewBox="0 0 512 512" width="512" height="512">
	<title>m-arcane_protection-svg</title>
	<style>
		.s0 { fill: #cd59f7 } 
		.s1 { opacity: .9;fill: #cd59f7 } 
		.s2 { opacity: .8;fill: #cd59f7 } 
		.s3 { opacity: .2;fill: #cd59f7 } 
		.s4 { opacity: .4;fill: #cd59f7 } 
		.s5 { opacity: .5;fill: #cd59f7 } 
		.s6 { fill: #000000 } 
		.s7 { fill: #34173f } 
	</style>
	<g id="brick-wall">
		<path id="Path 0" class="s0" d="m282.5 10.8c6.6 0.2 16.7 1.2 22.5 2.3 5.8 1.1 15 3.1 20.5 4.4 5.5 1.3 13.8 4 18.5 5.9 4.7 1.9 13 5.5 18.5 8.1 5.5 2.5 16.4 8.5 24.3 13.3 7.9 4.8 18.9 12.4 24.5 16.8 5.6 4.5 15.6 13.5 22.3 20 6.6 6.6 15.6 16.4 20 21.9 4.4 5.5 11.8 16.3 16.5 24 4.7 7.7 10.2 17.2 12.1 21 2 3.8 5.1 10.8 7 15.5 2 4.7 4.7 12.1 6.1 16.5 1.5 4.4 4.1 13.8 9 34l0.4 38c0.2 23.6-0.1 40.7-0.7 45-0.6 3.9-2.4 12.4-4.1 19-1.6 6.6-4.4 16.1-6 21-1.7 4.9-6.1 15.3-9.9 23-3.7 7.7-9.6 18.7-13.1 24.5-3.4 5.8-9.7 15-14 20.5-4.3 5.5-13.4 15.6-20.2 22.5-6.8 6.9-16.8 16.4-22.3 21.1-5.4 4.7-14 11.3-18.9 14.6-4.9 3.4-14.6 9-21.5 12.6-6.9 3.6-16.6 8.4-21.5 10.6-4.9 2.2-14.4 5.5-21 7.5-6.6 1.9-15.6 4.2-20 5.1-4.4 0.9-11.6 2.2-16 2.8-5.1 0.8-19.8 1.2-40.5 1.1-31-0.1-33.1-0.3-45.5-2.8-7.2-1.5-17.6-4-23.3-5.6-5.6-1.7-15-5.1-21-7.7-5.9-2.6-16.1-7.4-22.7-10.8-6.6-3.3-15.6-8.5-20-11.4-4.4-2.9-12.3-8.8-17.5-13-5.2-4.2-15.1-13.2-22.1-20.1-6.9-6.9-16.1-16.8-20.4-22-4.3-5.2-10.5-13.6-13.8-18.5-3.2-4.9-8.9-15.1-12.7-22.5-3.8-7.4-8.5-17.3-10.5-22-1.9-4.7-6-17.5-14.5-48.5l-0.2-38c-0.2-35.3 0-38.8 2-49.5 1.2-6.3 3.1-15.1 4.3-19.5 1.1-4.4 3.1-11.3 4.5-15.2 1.3-4 4.7-12.4 7.4-18.6 2.8-6.1 9.2-18.1 14.3-26.6 5.1-8.4 12.9-19.9 17.3-25.5 4.5-5.5 12.8-14.8 18.5-20.6 5.7-5.8 14.4-14.1 19.4-18.4 5-4.3 13.3-10.6 18.5-14.1 5.2-3.4 13.1-8.4 17.5-11 4.4-2.6 11.4-6.4 15.5-8.5 4.1-2.1 11.3-5.4 16-7.3 4.7-2 14.1-5.2 21-7.1 6.9-2 16.1-4.4 20.5-5.3 5.8-1.2 15.7-1.8 35.5-2.2 15.1-0.3 32.9-0.5 39.5-0.3z"/>
		<path id="Path 1" class="s1" d="m504.7 242c0.2 1.9 0.2 5.5 0 8-0.2 2.5-0.4 0.9-0.4-3.5 0-4.4 0.2-6.4 0.4-4.5z"/>
		<path id="Path 2" class="s2" d="m267 503.4c8.5 0 12.1 0.2 8 0.3-4.1 0.2-11.1 0.2-15.5 0-4.4-0.1-1-0.3 7.5-0.3z"/>
		<path id="Path 3" class="s3" d="m248.5 10.4c12.1 0 16.8 0.2 10.5 0.3-6.3 0.2-16.2 0.2-22 0-5.8-0.1-0.6-0.3 11.5-0.3z"/>
		<path id="Path 4" class="s4" d="m10.7 269c0.2 4.7 0.2 12.6 0 17.5-0.1 4.9-0.3 1.1-0.3-8.5 0-9.6 0.2-13.7 0.3-9z"/>
		<path id="Path 5" class="s5" d="m10.7 249c0.2 1.9 0.2 5.5 0 8-0.2 2.5-0.4 0.9-0.4-3.5 0-4.4 0.2-6.4 0.4-4.5z"/>
		<path id="Path 6" fill-rule="evenodd" class="s6" d="m376.7 62.4c0.7 0.3 4.7 2.9 16.3 10.6v46l46.5-0.1 12.7 17.6-29.1 0.3c-27 0.2-29.1 0.3-29.1 2 0 0.9-1 4.2-2.4 7.2-1.3 3-4.3 7.4-6.5 9.8-2.3 2.3-5.6 5-7.3 5.9-1.8 1-5.3 2.3-7.8 3-2.5 0.7-5.9 1.2-7.5 1.2-1.6 0.1-4.8-0.5-7-1.1-2.2-0.7-5.4-2.2-7-3.4-1.6-1.2-4.1-4.6-5.4-7.5-1.8-4.2-2.3-6.7-1.6-16.9h-34.7c-22.9 0-34.6 0.3-34.3 1 0.3 0.6 1.5 1 2.8 1 1.2 0 4.2 0.6 6.7 1.4 2.5 0.8 5.9 1.9 7.5 2.6 1.6 0.7 7.1 3.2 12 5.6 5 2.4 12.1 6.8 16 9.7 3.8 2.8 10.2 8.4 14 12.2 3.9 3.8 8.7 9.3 10.7 12 1.9 2.7 5 7.7 6.9 11 1.9 3.3 4.7 9.8 6.4 14.5 2.5 7.5 2.9 9.9 2.9 20.5 0.1 6.6-0.2 13.5-1.4 18.5h129v18h-93v110h30c16.5 0 30 0.2 30 0.5 0 0.3-1.6 3.1-3.6 6.2-2 3.2-4.8 7-8.9 11.3h-175.5v90.5l-3.7 0.7c-2.1 0.4-6.2 0.4-14.3-0.7v-90.5h-36l-2.8 5.2c-1.6 2.9-5.3 7.4-8.3 10-3 2.6-7.9 6-10.9 7.4-3 1.5-7.9 3.3-10.7 4-3 0.8-10.2 1.4-16.5 1.4-7.1 0-13.2-0.6-16.3-1.5-2.7-0.8-7.5-2.7-10.5-4.2-3-1.6-7.7-4.9-10.5-7.4-2.7-2.6-6.3-7-11-14.8l-39-0.6-11.6-17 45.1-0.5v-13.8c0-7.5 0.5-15.6 1-17.9 0.6-2.4 1.5-7.1 2-10.6 0.6-3.4 1.6-8.9 2.4-12.2 0.8-3.3 2.3-9.5 3.5-13.8 1.7-6.4 2.1-10.5 2.1-41.7h-89v-18h109.5l4.4-8.3c2.4-4.5 6.6-11.6 9.2-15.7 2.7-4.1 8.4-12.4 12.8-18.5 4.4-6.1 9.9-13.2 12.2-16 2.4-2.7 11.3-12 19.8-20.6 8.6-8.6 18.3-17.4 21.6-19.6 3.3-2.1 9-5.1 12.8-6.6 3.7-1.5 7.6-2.7 8.7-2.7 1.1 0 2.2-0.4 2.5-1 0.3-0.7-29.8-1-89.5-1-49.5 0-90-0.3-90-0.7 0-0.5 2.7-4.5 12-17.3h43v-43l8-6c4.4-3.3 8.5-6 9-6 0.6 0 1 9.8 1 55h117l-3.5-4.5c-2.6-3.3-3.7-5.9-4.1-9.7-0.3-2.9-0.2-7.5 0.4-10.3 0.6-2.7 2.3-7.2 3.9-9.9 1.6-2.9 4.5-6 6.8-7.5 3.3-2 5.3-2.5 11-2.5 5.9 0 7.5 0.4 10.4 2.4 1.8 1.4 4.2 4.4 5.2 6.8 1.1 2.3 1.9 6.5 1.9 9.5 0 2.8-0.7 7.7-1.7 10.7-1.2 3.9-3.1 6.9-11.2 15h11.4c8.8 0 11.4-0.3 11.1-1.2-0.2-0.7 0.2-4 0.9-7.3 0.7-3.3 1.8-7.2 2.4-8.7 0.6-1.6 3.1-4.8 5.6-7.3 2.5-2.5 6.3-5.4 8.5-6.5 2.9-1.4 6-2 11-2 6.4 0 7.4 0.3 11.3 3.3 2.3 1.8 5 5.1 6 7.2 1.5 3.1 1.8 5.5 1.4 10.5-0.3 3.6-0.7 7.7-1.7 12h7.3c5.3 0.1 7.6-0.3 8.7-1.5 0.8-0.9 2.3-1.6 3.3-1.5 0.9 0 1.9-0.3 2.1-0.7 0.2-0.5 3.1-1.1 12.6-2.3l0.2-25.6c0.1-21 0.4-25.5 1.5-25zm40.8 96.8c3.9-0.1 9 0.4 11.5 1.1 2.5 0.7 5.9 2 7.5 2.9 1.6 0.8 4.5 2.8 6.4 4.4 1.8 1.6 4.5 5.4 5.8 8.4 1.4 3 2.7 7.8 3 10.5 0.4 3.3-0.1 7.2-1.3 11.5-1 3.6-3.4 9-5.4 12-2 3-5.6 7.2-8.1 9.3-2.4 2.1-7.1 5.1-10.4 6.8-3.3 1.6-8.7 3.4-12 4-3.4 0.6-9.6 0.9-14.2 0.5-6.3-0.5-9.5-1.3-13.5-3.3-2.8-1.6-6.6-4.6-8.5-6.8-1.8-2.2-4.2-5.9-5.3-8.2-1.3-2.8-2-6.4-2-10.5 0-3.5 0.8-8.5 1.7-11.3 0.9-2.7 3.3-7.5 5.3-10.5 2-3 6.1-7.4 9.1-9.7 3-2.3 7.4-5.2 9.9-6.4 2.5-1.2 6.5-2.7 9-3.4 2.5-0.7 7.6-1.3 11.5-1.3z"/>
		<path id="Path 7" class="s0" d="m375 265v110h-81.5c-64.3 0-81.6-0.3-81.9-1.3-0.2-0.6-0.9-3.9-1.6-7.2-0.6-3.3-1.4-11.4-1.7-18-0.5-9.2-0.2-13.9 1.1-20 1-4.4 2.9-10.9 4.4-14.5 1.4-3.6 4-8.3 5.6-10.5 1.7-2.2 4.9-5.8 7.2-8 2.3-2.2 7-5.4 10.5-7.1 3.5-1.7 8.2-3.6 10.4-4.2 2.2-0.6 7.4-1.6 11.5-2.1 5.5-0.7 10.5-0.6 19 0.4 6.3 0.8 14.9 1.9 19 2.4 4.3 0.5 10.2 0.6 14 0.1 3.6-0.4 8.5-1.5 11-2.4 2.5-0.9 6.9-3.1 9.9-4.8 3-1.8 7.5-5.2 10-7.5 2.5-2.3 5-4.4 5.6-4.7 0.5-0.2 7-0.5 27.5-0.6z"/>
		<path id="Path 8" class="s7" d="m207.7 340c0.2 1.9 0.2 5.5 0 8-0.2 2.5-0.4 0.9-0.4-3.5 0-4.4 0.2-6.4 0.4-4.5z"/>
	</g>
</svg>